<svg width="48" height="48" viewBox="0 0 48 48" fill="none" xmlns="http://www.w3.org/2000/svg">
<rect width="48" height="48" rx="8" fill="white" fill-opacity="0.16"/>
<path fill-rule="evenodd" clip-rule="evenodd" d="M33.5999 24.0004C33.5999 29.3023 29.3018 33.6004 23.9999 33.6004C18.698 33.6004 14.3999 29.3023 14.3999 24.0004C14.3999 18.6985 18.698 14.4004 23.9999 14.4004C29.3018 14.4004 33.5999 18.6985 33.5999 24.0004ZM25.1999 19.2004C25.1999 19.8631 24.6626 20.4004 23.9999 20.4004C23.3372 20.4004 22.7999 19.8631 22.7999 19.2004C22.7999 18.5376 23.3372 18.0004 23.9999 18.0004C24.6626 18.0004 25.1999 18.5376 25.1999 19.2004ZM22.7999 22.8004C22.1372 22.8004 21.5999 23.3376 21.5999 24.0004C21.5999 24.6631 22.1372 25.2004 22.7999 25.2004V28.8004C22.7999 29.4631 23.3372 30.0004 23.9999 30.0004H25.1999C25.8626 30.0004 26.3999 29.4631 26.3999 28.8004C26.3999 28.1377 25.8626 27.6004 25.1999 27.6004V24.0004C25.1999 23.3376 24.6626 22.8004 23.9999 22.8004H22.7999Z" fill="white"/>
</svg>
