<svg width="32" height="32" viewBox="0 0 32 32" fill="none" xmlns="http://www.w3.org/2000/svg">
<path fill-rule="evenodd" clip-rule="evenodd" d="M16.0002 28.8002C23.0694 28.8002 28.8002 23.0694 28.8002 16.0002C28.8002 8.93095 23.0694 3.2002 16.0002 3.2002C8.93095 3.2002 3.2002 8.93095 3.2002 16.0002C3.2002 23.0694 8.93095 28.8002 16.0002 28.8002ZM21.9316 13.9316C22.5564 13.3067 22.5564 12.2937 21.9316 11.6688C21.3067 11.044 20.2937 11.044 19.6688 11.6688L14.4002 16.9375L12.3316 14.8688C11.7067 14.244 10.6937 14.244 10.0688 14.8688C9.44399 15.4937 9.44399 16.5067 10.0688 17.1316L13.2688 20.3316C13.8937 20.9564 14.9067 20.9564 15.5316 20.3316L21.9316 13.9316Z" fill="white"/>
</svg>
