<svg width="25" height="25" viewBox="0 0 25 25" fill="none" xmlns="http://www.w3.org/2000/svg">
<path d="M8.98029 5.41602C8.30285 5.41602 6.26047 6.19959 5.89405 6.35618C5.52763 6.51277 5.12091 7.00161 4.65943 7.8084C4.19731 8.61519 3.82648 9.55834 3.22397 10.9457C2.62208 12.333 2.48168 15.0076 2.50183 15.8239C2.52197 16.6402 2.62082 17.2779 3.50539 17.7608C4.38933 18.2431 5.17128 18.748 5.99415 19.0517C6.81765 19.3553 7.37925 19.5739 7.76078 19.2702C8.14231 18.9665 8.39351 18.4348 8.39351 18.4348C8.39351 18.4348 8.7549 17.9603 8.07242 17.6757C7.38995 17.3905 7.04871 17.191 7.0783 16.8969C7.10852 16.6027 7.15826 16.4414 7.32888 16.4795C7.4995 16.5176 7.9018 17.2005 9.44744 17.5137C10.9931 17.8269 12.4997 17.7799 12.4997 17.7799C12.4997 17.7799 14.0069 17.8275 15.5526 17.5137C17.0982 17.2005 17.4999 16.5176 17.6705 16.4795C17.8411 16.4414 17.8908 16.6027 17.9211 16.8963C17.9513 17.191 17.6101 17.3905 16.9276 17.6757C16.2451 17.9603 16.6065 18.4348 16.6065 18.4348C16.6065 18.4348 16.8577 18.9659 17.2392 19.2702C17.6201 19.5739 18.1823 19.3553 19.0052 19.0517C19.8281 18.748 20.6107 18.2437 21.4946 17.7608C22.3792 17.2779 22.478 16.6402 22.4982 15.8239C22.5183 15.0082 22.3779 12.333 21.7754 10.9457C21.1735 9.55834 20.8021 8.61519 20.3399 7.8084C19.8791 7.00161 19.4717 6.51278 19.106 6.35558C18.7395 6.19959 16.6965 5.41602 16.0191 5.41602C15.3416 5.41602 15.1414 5.86258 15.1414 5.86258L14.9053 6.35618C14.9053 6.35618 13.3188 6.07098 12.5104 6.07038C11.702 6.07038 10.0947 6.35618 10.0947 6.35618L9.85856 5.86198C9.85856 5.86198 9.65836 5.41602 8.98029 5.41602ZM9.05395 11.3392H9.07913C10.067 11.3392 10.8672 12.1567 10.8672 13.1648C10.8672 14.1734 10.067 14.9903 9.07913 14.9903C8.09131 14.9903 7.2911 14.1734 7.2911 13.1648C7.29047 12.1663 8.0762 11.3529 9.05395 11.3392ZM15.9209 11.3392H15.9461C16.9238 11.3529 17.7089 12.1669 17.7089 13.1648C17.7089 14.1734 16.9087 14.9903 15.9209 14.9903C14.9324 14.9903 14.1328 14.1734 14.1328 13.1648C14.1328 12.1567 14.9324 11.3392 15.9209 11.3392Z" fill="white"/>
</svg>
