<svg width="18" height="13" viewBox="0 0 18 13" fill="none" xmlns="http://www.w3.org/2000/svg">
<path d="M16.0714 0.0712891H1.92857C1.41708 0.0712891 0.926543 0.274477 0.564866 0.636155C0.203188 0.997832 0 1.48837 0 1.99986V10.9999C0 11.5113 0.203188 12.0019 0.564866 12.3636C0.926543 12.7252 1.41708 12.9284 1.92857 12.9284H16.0714C16.5829 12.9284 17.0735 12.7252 17.4351 12.3636C17.7968 12.0019 18 11.5113 18 10.9999V1.99986C18 1.48837 17.7968 0.997832 17.4351 0.636155C17.0735 0.274477 16.5829 0.0712891 16.0714 0.0712891ZM1.92857 1.357H16.0714C16.2419 1.357 16.4054 1.42473 16.526 1.54529C16.6466 1.66585 16.7143 1.82936 16.7143 1.99986V3.28557H1.28571V1.99986C1.28571 1.82936 1.35344 1.66585 1.474 1.54529C1.59456 1.42473 1.75808 1.357 1.92857 1.357ZM16.0714 11.6427H1.92857C1.75808 11.6427 1.59456 11.575 1.474 11.4544C1.35344 11.3339 1.28571 11.1704 1.28571 10.9999V5.857H16.7143V10.9999C16.7143 11.1704 16.6466 11.3339 16.526 11.4544C16.4054 11.575 16.2419 11.6427 16.0714 11.6427Z" fill="#1565ED"/>
<path d="M14.7857 9.71289H9V10.9986H14.7857V9.71289Z" fill="#1565ED"/>
</svg>
