<svg width="12" height="13" viewBox="0 0 12 13" fill="none" xmlns="http://www.w3.org/2000/svg">
<path d="M11.819 7.95148C11.0177 11.1658 7.76214 13.1219 4.54748 12.3204C1.33414 11.519 -0.622027 8.26329 0.179706 5.0492C0.980694 1.83454 4.23622 -0.121816 7.44995 0.679545C10.6644 1.48092 12.6204 4.73701 11.819 7.95148Z" fill="#F7931A"/>
<path d="M4.02586 7.51062C3.99323 7.59163 3.91055 7.71312 3.72417 7.66699C3.73075 7.67656 3.24569 7.54756 3.24569 7.54756L2.91888 8.30111L3.77555 8.51468C3.93492 8.55461 4.09112 8.59642 4.24486 8.6358L3.97242 9.72967L4.62998 9.89373L4.89978 8.81148C5.07416 8.85874 5.24905 8.90412 5.4244 8.94761L5.15552 10.0248L5.81384 10.1888L6.08627 9.09704C7.20884 9.30947 8.05293 9.22379 8.40825 8.20848C8.69456 7.391 8.39401 6.91943 7.80338 6.61194C8.23351 6.51275 8.55749 6.22982 8.64393 5.64538C8.76336 4.84702 8.15549 4.41783 7.32431 4.13152L7.59393 3.05002L6.93562 2.88596L6.67313 3.93895C6.50007 3.89582 6.32231 3.85513 6.1457 3.81482L6.41007 2.75488L5.75214 2.59082L5.48233 3.67193C5.33907 3.63931 5.19846 3.60705 5.06195 3.57312L5.0627 3.56974L4.15483 3.34305L3.9797 4.04617C3.9797 4.04617 4.46814 4.15811 4.45782 4.16505C4.72445 4.23161 4.77263 4.40803 4.76458 4.54792L4.02586 7.51062ZM7.13982 7.75456C6.93639 8.57203 5.55997 8.1301 5.11372 8.01929L5.47522 6.57013C5.92145 6.68149 7.35244 6.90199 7.13982 7.75456ZM7.34344 5.63358C7.15782 6.3772 6.0122 5.99939 5.64058 5.90677L5.96833 4.5924C6.33995 4.68502 7.53676 4.85789 7.34344 5.63358Z" fill="white"/>
</svg>
