<svg width="24" height="25" viewBox="0 0 24 25" fill="none" xmlns="http://www.w3.org/2000/svg">
<path d="M16.114 9.70729C16.666 9.15529 17.214 7.86729 14.914 9.43129C12.7654 10.91 10.6023 12.3674 8.42498 13.8033C8.09342 13.9532 7.73497 14.0346 7.37118 14.0425C7.00738 14.0504 6.64574 13.9847 6.30798 13.8493C4.92798 13.4353 3.31698 12.8833 3.31698 12.8833C3.31698 12.8833 2.21698 12.1923 4.09998 11.4563C4.09998 11.4563 12.061 8.18929 14.822 7.03829C15.88 6.57829 19.469 5.10629 19.469 5.10629C19.469 5.10629 21.126 4.46129 20.988 6.02629C20.942 6.67029 20.574 8.92629 20.206 11.3643C19.653 14.8153 19.055 18.5893 19.055 18.5893C19.055 18.5893 18.963 19.6473 18.181 19.8313C17.3439 19.8171 16.535 19.5259 15.881 19.0033C15.697 18.8653 12.43 16.7943 11.233 15.7823C11.1112 15.6998 11.0123 15.5879 10.9454 15.4569C10.8785 15.3259 10.8459 15.1801 10.8505 15.0331C10.8551 14.8861 10.8967 14.7427 10.9717 14.6161C11.0466 14.4896 11.1523 14.384 11.279 14.3093C12.9207 12.8072 14.5327 11.2729 16.114 9.70729Z" fill="white"/>
</svg>
