<svg width="769" height="771" viewBox="0 0 769 771" fill="none" xmlns="http://www.w3.org/2000/svg">
<path opacity="0.4" d="M476.892 580.184C504.388 596.029 504.388 621.66 477.358 637.505L329.161 723.255C302.131 739.1 257.858 739.1 230.363 723.255L81.6994 637.505C54.2037 621.66 54.2038 596.029 81.2334 580.184L228.965 494.435C255.994 478.59 300.267 478.59 327.763 494.435L476.892 580.184Z" fill="#BCD0F1"/>
<path d="M476.203 580.622H40V596.001C40 606.254 46.9904 616.506 60.5052 624.429L209.169 710.178C236.664 726.023 280.937 726.023 307.967 710.178L455.698 624.429C469.213 616.506 476.203 606.254 476.203 596.001V580.622Z" fill="url(#paint0_linear_76_4311)"/>
<path d="M455.697 551.729C483.193 567.574 483.193 593.205 456.164 609.05L308.432 694.8C281.403 710.645 237.13 710.645 209.634 694.8L60.9709 609.05C33.4752 593.205 33.4752 567.574 60.5049 551.729L207.77 465.979C234.8 450.134 279.072 450.134 306.568 465.979L455.697 551.729Z" fill="#F3F8FE"/>
<path d="M411.426 558.252C432.863 570.369 432.863 590.408 411.892 602.991L296.783 669.633C275.812 681.75 241.325 681.75 219.888 669.633L104.313 602.991C82.8755 590.874 82.8755 570.835 104.313 558.252L218.956 491.61C239.927 479.493 274.413 479.493 295.851 491.61L411.426 558.252Z" stroke="#D3E7FE" stroke-width="0.5" stroke-miterlimit="10"/>
<path d="M279.834 481.835C279.854 474.886 270.063 469.225 257.966 469.191C245.87 469.156 236.047 474.762 236.027 481.711C236.008 488.66 245.798 494.322 257.895 494.356C269.992 494.39 279.814 488.785 279.834 481.835Z" fill="#A6CEFC"/>
<path d="M239.927 469.242V480.893C239.927 483.689 241.791 486.485 245.52 488.349C252.51 492.544 264.161 492.544 271.617 488.349C275.345 486.485 276.744 483.689 276.744 480.893V469.242H239.927Z" fill="url(#paint1_linear_76_4311)"/>
<path d="M267.889 463.649C273.481 466.911 273.481 472.037 267.889 474.834C262.296 477.63 253.908 478.096 248.315 474.834C242.723 471.571 242.723 466.445 248.315 463.649C253.442 460.387 262.296 460.387 267.889 463.649Z" fill="url(#paint2_linear_76_4311)"/>
<path d="M271.742 470.332C271.755 465.956 265.506 462.391 257.784 462.369C250.063 462.348 243.793 465.877 243.781 470.252C243.768 474.628 250.018 478.193 257.739 478.214C265.461 478.236 271.73 474.707 271.742 470.332Z" fill="#22B4FD"/>
<path d="M270.685 461.785C263.695 457.591 252.044 457.591 244.588 461.785C237.597 465.98 237.597 472.504 244.588 476.698C251.578 480.893 263.229 480.893 270.685 476.698C278.142 472.504 278.142 465.98 270.685 461.785ZM267.889 474.834C262.297 478.096 253.908 478.096 248.316 474.834C242.723 471.572 242.723 466.446 248.316 463.649C253.908 460.387 262.297 460.387 267.889 463.649C273.015 466.912 273.015 472.038 267.889 474.834Z" fill="#BCD0F1"/>
<path d="M272.083 424.969H244.121V469.241C244.121 471.572 245.519 473.436 248.315 475.3C253.908 478.562 262.762 478.562 267.889 475.3C270.685 473.902 272.083 471.572 272.083 469.708V424.969Z" fill="url(#paint3_linear_76_4311)"/>
<path d="M446.521 578.721C446.54 571.772 436.75 566.11 424.653 566.076C412.556 566.042 402.734 571.648 402.714 578.597C402.694 585.546 412.485 591.207 424.582 591.242C436.678 591.276 446.501 585.67 446.521 578.721Z" fill="#A6CEFC"/>
<path d="M406.298 566.176V577.827C406.298 580.623 408.162 583.419 411.89 585.283C418.881 589.477 430.531 589.477 437.988 585.283C441.716 583.419 443.114 580.623 443.114 577.827V566.176H406.298Z" fill="url(#paint4_linear_76_4311)"/>
<path d="M434.726 560.583C440.318 563.846 440.318 568.972 434.726 571.768C429.134 575.03 420.745 575.03 415.153 571.768C409.56 568.506 409.56 563.38 415.153 560.583C420.279 557.321 429.134 557.321 434.726 560.583Z" fill="url(#paint5_linear_76_4311)"/>
<path d="M438.895 567.218C438.907 562.843 432.658 559.278 424.936 559.256C417.215 559.234 410.946 562.764 410.933 567.139C410.921 571.514 417.17 575.079 424.892 575.101C432.613 575.123 438.882 571.594 438.895 567.218Z" fill="#22B4FD"/>
<path d="M437.523 558.719C430.532 554.525 418.881 554.525 411.425 558.719C404.435 562.913 404.435 569.438 411.425 573.632C418.415 577.826 430.066 577.826 437.523 573.632C444.979 569.904 444.979 562.913 437.523 558.719ZM434.726 572.234C429.134 575.496 420.746 575.496 415.153 572.234C409.561 568.972 409.561 563.845 415.153 561.049C420.746 557.787 429.134 557.787 434.726 561.049C439.853 563.845 439.853 568.972 434.726 572.234Z" fill="#BCD0F1"/>
<path d="M438.455 521.902H410.493V566.175C410.493 568.505 411.891 570.369 414.687 572.233C420.28 575.496 429.134 575.496 434.261 572.233C437.057 570.835 438.455 568.505 438.455 566.641V521.902Z" fill="url(#paint6_linear_76_4311)"/>
<path d="M113.042 578.921C113.061 571.972 103.271 566.311 91.1739 566.276C79.077 566.242 69.2546 571.848 69.2349 578.797C69.2152 585.746 79.0057 591.408 91.1026 591.442C103.199 591.476 113.022 585.871 113.042 578.921Z" fill="#A6CEFC"/>
<path d="M73.0884 566.176V577.827C73.0884 580.623 74.9525 583.419 78.6807 585.283C85.6711 589.477 97.3218 589.477 104.778 585.283C108.507 583.419 109.905 580.623 109.905 577.827V566.176H73.0884Z" fill="url(#paint7_linear_76_4311)"/>
<path d="M101.05 560.583C106.643 563.846 106.643 568.972 101.05 571.768C95.4579 575.03 87.0693 575.03 81.477 571.768C75.8846 568.506 75.8846 563.38 81.477 560.583C86.6033 557.321 95.4579 557.321 101.05 560.583Z" fill="url(#paint8_linear_76_4311)"/>
<path d="M105.417 567.419C105.429 563.043 99.1798 559.478 91.4584 559.456C83.737 559.435 77.4675 562.964 77.4551 567.339C77.4427 571.715 83.6921 575.279 91.4135 575.301C99.1349 575.323 105.404 571.794 105.417 567.419Z" fill="#22B4FD"/>
<path d="M104.312 558.719C97.3217 554.525 85.671 554.525 78.2145 558.719C71.2241 562.913 71.2241 569.438 78.2145 573.632C85.2049 577.826 96.8557 577.826 104.312 573.632C111.303 569.904 111.303 562.913 104.312 558.719ZM101.05 572.234C95.4576 575.496 87.069 575.496 81.4767 572.234C75.8843 568.972 75.8843 563.845 81.4767 561.049C87.069 557.787 95.4576 557.787 101.05 561.049C106.642 563.845 106.642 568.972 101.05 572.234Z" fill="#BCD0F1"/>
<path d="M105.244 521.902H77.2827V566.175C77.2827 568.505 78.6808 570.369 81.4769 572.233C87.0693 575.496 95.9239 575.496 101.05 572.233C103.846 570.835 105.244 568.505 105.244 566.641V521.902Z" fill="url(#paint9_linear_76_4311)"/>
<path d="M129.944 516.31V573.631C129.944 592.738 142.527 611.846 167.692 626.292C218.023 655.186 299.112 655.186 348.977 626.292C374.143 611.846 386.26 592.738 386.26 573.631V516.31H129.944Z" fill="url(#paint10_linear_76_4311)"/>
<path d="M316.821 482.29C349.443 501.397 349.909 532.155 317.287 550.796C284.665 569.437 231.538 569.903 198.916 550.796C166.294 531.689 165.828 500.931 198.45 482.29C231.072 463.649 284.199 463.183 316.821 482.29Z" fill="url(#paint11_linear_76_4311)"/>
<path d="M410.116 516.884C410.254 468.239 342.346 428.612 258.44 428.374C174.534 428.136 106.403 467.378 106.265 516.023C106.127 564.668 174.034 604.295 257.941 604.533C341.847 604.771 409.978 565.529 410.116 516.884Z" stroke="#22B4FD" stroke-width="0.5" stroke-miterlimit="10"/>
<path d="M342.076 526.017C342.152 499.25 304.657 477.444 258.328 477.313C212 477.181 174.382 498.774 174.306 525.542C174.23 552.309 211.725 574.115 258.054 574.247C304.382 574.378 342 552.785 342.076 526.017Z" fill="#1570EF"/>
<path d="M348.511 464.115C298.18 435.221 217.091 435.221 167.226 464.115C117.361 493.008 117.827 540.077 167.692 568.971C218.023 597.865 299.112 597.865 348.977 568.971C398.842 540.077 398.376 493.008 348.511 464.115ZM317.287 550.796C284.665 569.903 231.538 569.903 198.916 550.796C166.294 531.689 165.828 500.931 198.45 482.29C231.072 463.649 284.199 463.183 316.821 482.29C349.909 501.397 349.909 532.155 317.287 550.796Z" fill="#BCD0F1"/>
<path d="M257.635 444.542C291.655 444.542 323.345 451.999 347.113 465.979C370.88 479.494 383.929 497.669 383.929 516.777C383.929 535.884 371.346 553.593 348.045 567.108C324.277 581.089 292.587 588.545 258.567 588.545C224.547 588.545 192.857 581.089 169.09 567.108C145.322 553.593 132.274 535.418 132.274 516.31C132.274 497.203 144.856 479.494 168.158 465.979C191.925 451.999 223.615 444.542 257.635 444.542ZM257.635 442.212C225.013 442.212 191.925 449.668 167.226 464.115C117.361 493.009 117.827 540.078 167.692 568.972C192.857 583.419 225.479 590.875 258.567 590.875C291.655 590.875 324.277 583.419 348.977 568.972C398.842 540.078 398.842 493.009 348.511 464.115C323.345 449.668 290.257 442.212 257.635 442.212Z" fill="url(#paint12_linear_76_4311)"/>
<path d="M184.469 471.105C185.242 471.105 185.867 470.479 185.867 469.707C185.867 468.935 185.242 468.309 184.469 468.309C183.697 468.309 183.071 468.935 183.071 469.707C183.071 470.479 183.697 471.105 184.469 471.105Z" fill="white"/>
<path d="M298.181 479.494C298.953 479.494 299.579 478.868 299.579 478.096C299.579 477.324 298.953 476.698 298.181 476.698C297.409 476.698 296.783 477.324 296.783 478.096C296.783 478.868 297.409 479.494 298.181 479.494Z" fill="white"/>
<path d="M323.346 465.979C324.118 465.979 324.744 465.353 324.744 464.581C324.744 463.809 324.118 463.183 323.346 463.183C322.574 463.183 321.948 463.809 321.948 464.581C321.948 465.353 322.574 465.979 323.346 465.979Z" fill="white"/>
<path d="M221.286 516.31C222.058 516.31 222.684 515.684 222.684 514.912C222.684 514.14 222.058 513.514 221.286 513.514C220.514 513.514 219.888 514.14 219.888 514.912C219.888 515.684 220.514 516.31 221.286 516.31Z" fill="white"/>
<path d="M301.908 425.435C302.68 425.435 303.306 424.809 303.306 424.037C303.306 423.265 302.68 422.639 301.908 422.639C301.136 422.639 300.51 423.265 300.51 424.037C300.51 424.809 301.136 425.435 301.908 425.435Z" fill="white"/>
<path d="M197.519 426.832C198.291 426.832 198.917 426.206 198.917 425.434C198.917 424.662 198.291 424.036 197.519 424.036C196.747 424.036 196.121 424.662 196.121 425.434C196.121 426.206 196.747 426.832 197.519 426.832Z" fill="white"/>
<path d="M235.733 399.803C236.505 399.803 237.131 399.177 237.131 398.405C237.131 397.633 236.505 397.007 235.733 397.007C234.961 397.007 234.335 397.633 234.335 398.405C234.335 399.177 234.961 399.803 235.733 399.803Z" fill="white"/>
<path opacity="0.4" d="M178.876 460.387H180.274C180.741 460.387 181.207 460.853 181.207 461.319V509.32C181.207 509.786 180.741 510.252 180.274 510.252H178.876C178.41 510.252 177.944 509.786 177.944 509.32V460.853C177.944 460.387 178.41 460.387 178.876 460.387Z" fill="url(#paint13_linear_76_4311)"/>
<path opacity="0.4" d="M335.929 443.609H337.327C337.793 443.609 338.259 444.075 338.259 444.541V492.542C338.259 493.008 337.793 493.474 337.327 493.474H335.929C335.463 493.474 334.997 493.008 334.997 492.542V444.541C334.997 444.075 335.463 443.609 335.929 443.609Z" fill="url(#paint14_linear_76_4311)"/>
<path opacity="0.4" d="M225.945 475.766H227.343C227.809 475.766 228.275 476.232 228.275 476.698V524.699C228.275 525.165 227.809 525.631 227.343 525.631H225.945C225.479 525.631 225.013 525.165 225.013 524.699V476.698C225.013 476.232 225.479 475.766 225.945 475.766Z" fill="url(#paint15_linear_76_4311)"/>
<path opacity="0.4" d="M225.945 410.521H227.343C227.809 410.521 228.275 410.988 228.275 411.454V459.455C228.275 459.921 227.809 460.387 227.343 460.387H225.945C225.479 460.387 225.013 459.921 225.013 459.455V411.454C225.013 410.988 225.479 410.521 225.945 410.521Z" fill="url(#paint16_linear_76_4311)"/>
<path d="M378.529 382.405C378.529 364.185 366.392 346.432 342.586 332.884C294.973 305.32 218.419 305.32 171.273 332.884C147.467 346.432 135.797 364.652 136.264 382.405L173.607 516.953C173.607 529.567 182.009 541.714 198.347 551.524C231.023 570.679 284.237 570.679 316.912 551.524C333.25 542.181 341.185 529.567 341.185 516.953L378.529 382.405Z" fill="url(#paint17_linear_76_4311)"/>
<path d="M165.828 610.914L169.09 609.05C169.556 608.584 170.022 607.652 170.022 606.72C170.022 604.39 168.158 601.594 166.294 600.196C165.362 599.73 164.43 599.729 163.498 599.729L160.236 601.594L165.828 610.914Z" fill="url(#paint18_linear_76_4311)"/>
<path d="M165.998 610.636C167.337 609.868 167.281 607.254 165.873 604.798C164.464 602.342 162.237 600.974 160.897 601.743C159.558 602.511 159.614 605.125 161.022 607.58C162.431 610.036 164.658 611.404 165.998 610.636Z" fill="#2185F8"/>
<path d="M165.071 609.019C165.964 608.507 165.961 606.825 165.065 605.262C164.168 603.699 162.718 602.848 161.825 603.36C160.932 603.872 160.935 605.554 161.831 607.117C162.727 608.679 164.178 609.531 165.071 609.019Z" fill="#22B4FD"/>
<path d="M181.207 619.303L184.469 617.439C184.935 616.973 185.401 616.041 185.401 615.109C185.401 612.778 183.537 609.982 181.673 608.584C180.741 608.118 179.809 608.118 178.877 608.118L175.615 609.982L181.207 619.303Z" fill="url(#paint19_linear_76_4311)"/>
<path d="M181.01 619.662C182.35 618.894 182.294 616.28 180.886 613.825C179.477 611.369 177.249 610.001 175.91 610.769C174.57 611.537 174.626 614.151 176.035 616.607C177.443 619.062 179.671 620.43 181.01 619.662Z" fill="#2185F8"/>
<path d="M180.083 618.045C180.976 617.533 180.973 615.851 180.077 614.288C179.181 612.726 177.73 611.874 176.837 612.386C175.944 612.898 175.947 614.58 176.843 616.143C177.739 617.706 179.19 618.558 180.083 618.045Z" fill="#FFE200"/>
<path d="M258.102 433.35C316.741 433.35 364.277 385.813 364.277 327.175C364.277 268.536 316.741 221 258.102 221C199.463 221 151.927 268.536 151.927 327.175C151.927 385.813 199.463 433.35 258.102 433.35Z" fill="url(#paint20_linear_76_4311)"/>
<path d="M258.815 410.547C305.253 410.547 342.899 373.22 342.899 327.175C342.899 281.13 305.253 243.803 258.815 243.803C212.376 243.803 174.73 281.13 174.73 327.175C174.73 373.22 212.376 410.547 258.815 410.547Z" fill="#2E97F6"/>
<path d="M315.821 296.16V358.148C315.819 358.965 315.592 359.766 315.166 360.462C314.741 361.158 314.133 361.721 313.409 362.088C255.921 391.09 260.262 389.142 258.815 389.142C257.368 389.142 261.533 391.046 204.22 362.088C203.497 361.721 202.889 361.158 202.463 360.462C202.037 359.766 201.811 358.965 201.808 358.148V296.16C201.811 295.342 202.037 294.541 202.463 293.846C202.889 293.15 203.497 292.587 204.22 292.219L256.841 265.653C257.453 265.342 258.129 265.18 258.815 265.18C259.5 265.18 260.176 265.342 260.788 265.653L313.409 292.219C314.133 292.587 314.741 293.15 315.166 293.846C315.592 294.541 315.819 295.342 315.821 296.16Z" fill="#22B4FD"/>
<path d="M232.384 309.36C231.216 309.36 230.095 309.83 229.269 310.665C228.443 311.5 227.979 312.633 227.979 313.814V325.839L218.42 311.364C217.895 310.575 217.134 309.976 216.248 309.655C215.362 309.335 214.397 309.309 213.496 309.583C212.595 309.857 211.804 310.416 211.239 311.177C210.675 311.938 210.366 312.862 210.359 313.814V340.536C210.359 341.717 210.823 342.85 211.649 343.685C212.475 344.52 213.596 344.989 214.764 344.989C215.932 344.989 217.053 344.52 217.879 343.685C218.705 342.85 219.169 341.717 219.169 340.536V328.511L228.728 342.985C229.253 343.775 230.014 344.374 230.9 344.695C231.786 345.015 232.751 345.041 233.652 344.767C234.554 344.493 235.344 343.934 235.909 343.173C236.473 342.411 236.782 341.487 236.789 340.536V313.814C236.789 312.633 236.325 311.5 235.499 310.665C234.673 309.83 233.552 309.36 232.384 309.36ZM267.625 309.36H250.004C248.836 309.36 247.716 309.83 246.89 310.665C246.063 311.5 245.599 312.633 245.599 313.814V340.536C245.599 341.717 246.063 342.85 246.89 343.685C247.716 344.52 248.836 344.989 250.004 344.989C251.173 344.989 252.293 344.52 253.119 343.685C253.945 342.85 254.409 341.717 254.409 340.536V336.082H263.22C264.388 336.082 265.508 335.613 266.334 334.778C267.161 333.943 267.625 332.81 267.625 331.629C267.625 330.447 267.161 329.315 266.334 328.479C265.508 327.644 264.388 327.175 263.22 327.175H254.409V318.268H267.625C268.793 318.268 269.913 317.798 270.739 316.963C271.566 316.128 272.03 314.995 272.03 313.814C272.03 312.633 271.566 311.5 270.739 310.665C269.913 309.83 268.793 309.36 267.625 309.36ZM302.865 309.36H285.245C284.077 309.36 282.956 309.83 282.13 310.665C281.304 311.5 280.84 312.633 280.84 313.814C280.84 314.995 281.304 316.128 282.13 316.963C282.956 317.798 284.077 318.268 285.245 318.268H289.65V340.536C289.65 341.717 290.114 342.85 290.94 343.685C291.766 344.52 292.887 344.989 294.055 344.989C295.223 344.989 296.344 344.52 297.17 343.685C297.996 342.85 298.46 341.717 298.46 340.536V318.268H302.865C304.033 318.268 305.154 317.798 305.98 316.963C306.806 316.128 307.27 314.995 307.27 313.814C307.27 312.633 306.806 311.5 305.98 310.665C305.154 309.83 304.033 309.36 302.865 309.36Z" fill="white"/>
<path d="M279.73 675.807C279.75 668.858 269.959 663.196 257.862 663.162C245.765 663.128 235.943 668.734 235.923 675.683C235.904 682.632 245.694 688.293 257.791 688.328C269.888 688.362 279.71 682.756 279.73 675.807Z" fill="#A6CEFC"/>
<path d="M239.926 663.11V674.761C239.926 677.557 241.79 680.353 245.519 682.218C252.509 686.412 264.16 686.412 271.616 682.218C275.344 680.353 276.743 677.557 276.743 674.761V663.11H239.926Z" fill="url(#paint21_linear_76_4311)"/>
<path d="M267.888 657.518C273.48 660.78 273.48 665.907 267.888 668.703C262.296 671.499 253.907 671.965 248.315 668.703C242.723 665.441 242.723 660.314 248.315 657.518C253.441 654.722 262.296 654.722 267.888 657.518Z" fill="url(#paint22_linear_76_4311)"/>
<path d="M272.104 664.304C272.116 659.929 265.867 656.364 258.145 656.342C250.424 656.32 244.154 659.85 244.142 664.225C244.13 668.6 250.379 672.165 258.1 672.187C265.822 672.209 272.091 668.68 272.104 664.304Z" fill="#22B4FD"/>
<path d="M270.684 655.654C263.694 651.459 252.043 651.459 244.587 655.654C237.596 659.848 237.596 666.372 244.587 670.566C251.577 674.761 263.228 674.761 270.684 670.566C278.141 666.838 278.141 659.848 270.684 655.654ZM267.888 669.168C262.296 672.431 253.907 672.431 248.315 669.168C242.722 665.906 242.722 660.78 248.315 657.984C253.907 654.721 262.296 654.721 267.888 657.984C273.014 660.78 273.014 665.906 267.888 669.168Z" fill="#BCD0F1"/>
<path d="M272.083 619.303H244.121V663.575C244.121 665.906 245.519 667.77 248.315 669.634C253.908 672.896 262.762 672.896 267.889 669.634C270.685 668.236 272.083 665.906 272.083 664.042V619.303Z" fill="url(#paint23_linear_76_4311)"/>
<path d="M63.3018 379.297C63.3018 383.025 64.6998 385.821 66.5639 386.754L71.6903 389.55C71.6903 389.55 122.953 351.335 122.953 344.811C122.953 344.811 122.953 342.481 122.487 341.083C123.419 340.617 124.818 340.151 124.818 340.151C123.886 339.685 121.089 337.82 119.691 337.354C117.827 336.888 114.565 337.82 113.633 338.287C113.633 336.888 113.167 335.49 112.701 334.558L115.031 334.092L110.371 331.296C108.507 330.364 106.176 330.364 103.846 331.762C102.448 332.694 101.516 333.626 100.584 334.558C100.584 334.558 98.2539 333.16 96.8558 332.228C95.4577 331.296 94.0597 331.296 92.6616 331.296C92.1956 331.296 91.7295 331.296 91.2635 331.296C90.7975 331.296 90.7975 331.296 90.3314 331.296C88.9334 331.762 87.5352 332.228 86.1371 333.16C80.5448 336.422 75.4185 342.947 72.6223 350.869C70.7582 355.53 69.3601 361.588 69.8261 364.85C64.2338 370.442 63.3018 374.171 63.3018 379.297Z" fill="url(#paint24_linear_76_4311)"/>
<path d="M68.894 382.559C68.894 389.083 73.0883 392.345 78.2146 389.549C78.2146 389.549 78.6807 389.549 78.6807 389.083L119.225 365.316C119.225 365.316 119.691 365.316 119.691 364.85C124.818 362.053 128.546 354.131 128.546 347.606C128.546 341.082 124.352 337.82 119.225 340.616C119.225 340.616 119.225 340.616 118.759 340.616C118.293 333.626 114.099 330.829 108.507 334.092C107.108 335.024 105.71 336.422 104.312 337.82C101.516 333.626 96.3897 332.694 90.7974 335.956C81.9428 341.082 74.4864 355.063 74.9524 367.18C71.2242 371.374 68.894 377.432 68.894 382.559Z" fill="#F3F8FE"/>
<path d="M119.226 364.85C124.352 362.053 128.081 354.131 128.081 347.606C128.081 341.082 123.886 337.82 118.76 340.616C118.76 340.616 118.76 340.616 118.294 340.616C117.828 333.626 113.634 330.829 108.041 334.092C106.643 335.024 105.245 336.422 103.847 337.82C101.051 333.626 95.9246 332.694 90.3323 335.956L89.8662 336.422L111.304 369.51L118.294 365.316C119.226 365.316 119.226 365.316 119.226 364.85Z" fill="url(#paint25_linear_76_4311)"/>
<path d="M446.843 397.473C446.843 399.803 445.911 401.201 444.979 401.667L442.183 403.531C442.183 403.531 411.891 381.162 411.891 376.967C411.891 376.967 411.891 375.569 412.357 374.637C411.891 374.637 410.959 374.171 410.959 374.171C411.425 373.705 413.289 372.773 413.755 372.307C414.687 371.841 417.017 372.307 417.483 372.773C417.483 371.841 417.483 371.375 417.949 370.443L416.551 369.977L419.347 368.113C420.28 367.647 421.678 367.647 423.542 368.579C424.474 369.045 424.94 369.511 425.406 370.443C425.406 370.443 426.804 369.511 427.736 369.045C428.668 368.579 429.6 368.579 430.532 368.579C430.998 368.579 430.998 368.579 431.464 368.579H431.93C432.862 368.579 433.794 369.045 434.26 369.511C437.523 371.375 440.785 375.569 442.183 379.763C443.115 382.56 444.047 385.822 443.581 388.152C446.377 392.346 446.843 394.21 446.843 397.473Z" fill="url(#paint26_linear_76_4311)"/>
<path d="M443.581 399.337C443.581 403.065 441.251 404.929 437.989 403.531C437.989 403.531 437.989 403.531 437.523 403.531L413.755 389.55C413.755 389.55 413.755 389.55 413.289 389.55C410.493 387.686 408.163 383.026 408.163 379.298C408.163 375.569 410.493 373.705 413.755 375.103C413.755 370.909 416.552 369.045 419.814 370.909C420.746 371.375 421.678 372.307 422.144 372.773C424.008 370.443 426.804 369.511 430.066 371.841C435.193 375.103 439.853 383.492 439.387 390.482C442.183 392.812 443.581 396.075 443.581 399.337Z" fill="#F3F8FE"/>
<path d="M413.756 389.084C410.959 387.22 408.629 382.56 408.629 378.832C408.629 375.104 410.96 373.239 414.222 374.638C414.222 370.443 417.018 368.579 420.28 370.443C421.212 370.909 422.144 371.841 422.61 372.307C424.474 369.977 427.271 369.045 430.533 371.375C430.533 371.375 430.533 371.375 430.999 371.841L418.416 391.415L413.756 389.084Z" fill="url(#paint27_linear_76_4311)"/>
<g filter="url(#filter0_b_76_4311)">
<rect y="654.551" width="468" height="84" rx="24" fill="white" fill-opacity="0.1"/>
<rect x="1" y="655.551" width="466" height="82" rx="23" stroke="url(#paint28_linear_76_4311)" stroke-width="2"/>
<g clip-path="url(#clip0_76_4311)">
<g filter="url(#filter1_d_76_4311)">
<path d="M16 696.551C16 685.505 24.9543 676.551 36 676.551C47.0457 676.551 56 685.505 56 696.551C56 707.596 47.0457 716.551 36 716.551C24.9543 716.551 16 707.596 16 696.551Z" fill="url(#paint29_linear_76_4311)"/>
<path d="M16.5 696.551C16.5 685.781 25.2304 677.051 36 677.051C46.7696 677.051 55.5 685.781 55.5 696.551C55.5 707.32 46.7696 716.051 36 716.051C25.2304 716.051 16.5 707.32 16.5 696.551Z" stroke="white"/>
</g>
<path fill-rule="evenodd" clip-rule="evenodd" d="M35.9998 685.718C30.0168 685.718 25.1665 690.568 25.1665 696.551C25.1665 702.534 30.0168 707.384 35.9998 707.384C41.9829 707.384 46.8332 702.534 46.8332 696.551C46.8332 690.568 41.9829 685.718 35.9998 685.718ZM23.9165 696.551C23.9165 689.878 29.3264 684.468 35.9998 684.468C42.6733 684.468 48.0832 689.878 48.0832 696.551C48.0832 703.225 42.6733 708.634 35.9998 708.634C29.3264 708.634 23.9165 703.225 23.9165 696.551Z" fill="white"/>
<path fill-rule="evenodd" clip-rule="evenodd" d="M23.9165 696.551C23.9165 696.206 24.1963 695.926 24.5415 695.926H47.4582C47.8033 695.926 48.0832 696.206 48.0832 696.551C48.0832 696.896 47.8033 697.176 47.4582 697.176H24.5415C24.1963 697.176 23.9165 696.896 23.9165 696.551Z" fill="white"/>
<path fill-rule="evenodd" clip-rule="evenodd" d="M32.0416 696.551C32.125 700.409 33.5258 704.116 35.9998 707.061C38.4739 704.116 39.8747 700.409 39.958 696.551C39.8747 692.692 38.4739 688.985 35.9998 686.041C33.5258 688.985 32.125 692.692 32.0416 696.551ZM35.9998 685.092L35.5384 684.671C32.5701 687.92 30.8833 692.138 30.7916 696.538C30.7915 696.546 30.7915 696.555 30.7916 696.564C30.8833 700.964 32.5701 705.181 35.5384 708.431C35.6568 708.56 35.8243 708.634 35.9998 708.634C36.1754 708.634 36.3429 708.56 36.4613 708.431C39.4295 705.181 41.1164 700.964 41.208 696.564C41.2082 696.555 41.2082 696.546 41.208 696.538C41.1164 692.138 39.4295 687.92 36.4613 684.671L35.9998 685.092Z" fill="white"/>
</g>
<path d="M77.06 689.551C76.1133 689.551 75.3733 689.417 74.84 689.151C74.3067 688.884 73.9333 688.484 73.72 687.951C73.5067 687.417 73.4 686.757 73.4 685.971V681.511C73.4 680.231 73.6867 679.291 74.26 678.691C74.8333 678.077 75.7667 677.771 77.06 677.771H83.08C84 677.771 84.7 677.824 85.18 677.931C85.6733 678.024 85.92 678.124 85.92 678.231L85.52 679.891C85.2933 679.851 84.62 679.811 83.5 679.771C82.3933 679.717 80.78 679.691 78.66 679.691H77.64C76.5733 679.691 76.04 680.164 76.04 681.111V686.211C76.04 686.664 76.1533 687.017 76.38 687.271C76.62 687.511 77.04 687.631 77.64 687.631H78.46C79.74 687.631 80.82 687.624 81.7 687.611C82.58 687.584 83.3067 687.564 83.88 687.551V684.831L82.68 684.851L80.06 685.051V683.091H86.5V688.711L86.7 689.131C86.7 689.237 86.42 689.337 85.86 689.431C85.3 689.511 84.3533 689.551 83.02 689.551H77.06ZM89.2984 689.551V678.471L89.0984 676.871H91.7384V689.551H89.2984ZM96.5775 689.551C95.6842 689.551 95.0175 689.371 94.5775 689.011C94.1508 688.651 93.9375 688.064 93.9375 687.251V683.151C93.9375 682.951 93.9508 682.711 93.9775 682.431C94.0175 682.137 94.1108 681.851 94.2575 681.571C94.4175 681.291 94.6775 681.057 95.0375 680.871C95.4108 680.684 95.9242 680.591 96.5775 680.591H102.098C102.764 680.591 103.278 680.684 103.638 680.871C103.998 681.057 104.251 681.291 104.398 681.571C104.558 681.851 104.651 682.137 104.678 682.431C104.718 682.711 104.738 682.951 104.738 683.151V686.991C104.738 687.231 104.718 687.497 104.678 687.791C104.651 688.084 104.558 688.364 104.398 688.631C104.238 688.897 103.978 689.117 103.618 689.291C103.258 689.464 102.751 689.551 102.098 689.551H96.5775ZM97.3375 687.831H101.338C101.991 687.831 102.318 687.564 102.318 687.031V683.111C102.318 682.577 101.991 682.311 101.338 682.311H97.3375C96.6975 682.311 96.3775 682.577 96.3775 683.111V687.031C96.3775 687.564 96.6975 687.831 97.3375 687.831ZM106.93 689.551V676.871H109.37V680.831C109.944 680.764 110.617 680.711 111.39 680.671C112.177 680.617 113.07 680.591 114.07 680.591H115.09C115.757 680.591 116.27 680.677 116.63 680.851C116.99 681.024 117.244 681.244 117.39 681.511C117.55 681.777 117.644 682.057 117.67 682.351C117.71 682.644 117.73 682.911 117.73 683.151V686.991C117.73 687.191 117.71 687.437 117.67 687.731C117.644 688.011 117.55 688.291 117.39 688.571C117.244 688.851 116.99 689.084 116.63 689.271C116.27 689.457 115.757 689.551 115.09 689.551H114.07C112.964 689.551 111.997 689.524 111.17 689.471C110.344 689.404 109.657 689.337 109.11 689.271L108.57 689.551H106.93ZM109.99 687.831H114.33C114.97 687.831 115.29 687.564 115.29 687.031V683.111C115.304 682.817 115.244 682.611 115.11 682.491C114.977 682.371 114.717 682.311 114.33 682.311H113.33C112.477 682.311 111.717 682.331 111.05 682.371C110.397 682.397 109.837 682.431 109.37 682.471V687.211C109.37 687.491 109.397 687.664 109.45 687.731C109.517 687.797 109.697 687.831 109.99 687.831ZM122.518 689.551C121.505 689.551 120.772 689.317 120.318 688.851C119.865 688.371 119.638 687.717 119.638 686.891C119.638 686.024 119.872 685.357 120.338 684.891C120.818 684.424 121.545 684.191 122.518 684.191H123.538C124.538 684.191 125.438 684.217 126.238 684.271C127.038 684.324 127.698 684.377 128.218 684.431V683.111C128.218 682.991 128.205 682.871 128.178 682.751C128.152 682.617 128.072 682.511 127.938 682.431C127.805 682.351 127.578 682.311 127.258 682.311H126.258C124.805 682.311 123.592 682.337 122.618 682.391C121.645 682.431 120.985 682.471 120.638 682.511L120.418 680.991C120.418 680.804 120.925 680.691 121.938 680.651C122.952 680.611 124.645 680.591 127.018 680.591H128.018C128.685 680.591 129.198 680.684 129.558 680.871C129.918 681.057 130.172 681.291 130.318 681.571C130.478 681.851 130.572 682.137 130.598 682.431C130.638 682.711 130.658 682.951 130.658 683.151V689.551H129.018L128.238 689.151C127.678 689.244 127.005 689.337 126.218 689.431C125.432 689.511 124.532 689.551 123.518 689.551H122.518ZM123.038 687.831H127.618C127.912 687.831 128.085 687.804 128.138 687.751C128.192 687.697 128.218 687.531 128.218 687.251V685.711H123.038C122.678 685.711 122.425 685.797 122.278 685.971C122.145 686.144 122.078 686.417 122.078 686.791C122.078 687.164 122.158 687.431 122.318 687.591C122.478 687.751 122.718 687.831 123.038 687.831ZM133.166 689.551V678.471L132.966 676.871H135.606V689.551H133.166ZM142.999 689.551V679.391L142.799 677.771H151.659C152.513 677.771 153.179 677.884 153.659 678.111C154.153 678.337 154.513 678.637 154.739 679.011C154.979 679.371 155.133 679.757 155.199 680.171C155.266 680.584 155.299 680.977 155.299 681.351V682.531C155.299 682.837 155.253 683.184 155.159 683.571C155.066 683.944 154.893 684.311 154.639 684.671C154.386 685.017 154.019 685.311 153.539 685.551C153.059 685.777 152.433 685.891 151.659 685.891H149.619C148.779 685.891 147.993 685.871 147.259 685.831C146.539 685.791 145.999 685.757 145.639 685.731V689.551H142.999ZM145.639 683.971H151.079C151.679 683.971 152.093 683.824 152.319 683.531C152.546 683.237 152.659 682.884 152.659 682.471V681.211C152.659 680.784 152.546 680.424 152.319 680.131C152.093 679.837 151.686 679.691 151.099 679.691H145.639V683.971ZM157.692 689.551V680.591H159.332L160.092 680.991C160.439 680.804 160.812 680.657 161.212 680.551C161.612 680.444 162.119 680.391 162.732 680.391C163.706 680.391 164.492 680.497 165.092 680.711C165.706 680.924 166.112 681.084 166.312 681.191L165.612 682.931C165.452 682.851 165.186 682.751 164.812 682.631C164.452 682.497 164.026 682.377 163.532 682.271C163.039 682.164 162.499 682.111 161.912 682.111H161.692C161.052 682.111 160.632 682.237 160.432 682.491C160.246 682.744 160.146 683.164 160.132 683.751V689.551H157.692ZM170.152 689.551C169.258 689.551 168.592 689.371 168.152 689.011C167.725 688.651 167.512 688.064 167.512 687.251V683.151C167.512 682.951 167.525 682.711 167.552 682.431C167.592 682.137 167.685 681.851 167.832 681.571C167.992 681.291 168.252 681.057 168.612 680.871C168.985 680.684 169.498 680.591 170.152 680.591H175.672C176.338 680.591 176.852 680.684 177.212 680.871C177.572 681.057 177.825 681.291 177.972 681.571C178.132 681.851 178.225 682.137 178.252 682.431C178.292 682.711 178.312 682.951 178.312 683.151V686.991C178.312 687.231 178.292 687.497 178.252 687.791C178.225 688.084 178.132 688.364 177.972 688.631C177.812 688.897 177.552 689.117 177.192 689.291C176.832 689.464 176.325 689.551 175.672 689.551H170.152ZM170.912 687.831H174.912C175.565 687.831 175.892 687.564 175.892 687.031V683.111C175.892 682.577 175.565 682.311 174.912 682.311H170.912C170.272 682.311 169.952 682.577 169.952 683.111V687.031C169.952 687.564 170.272 687.831 170.912 687.831ZM182.765 689.551C181.871 689.551 181.238 689.504 180.865 689.411C180.491 689.317 180.305 689.224 180.305 689.131L180.905 687.631C181.291 687.671 181.998 687.717 183.025 687.771C184.065 687.811 185.345 687.831 186.865 687.831H187.865C188.198 687.831 188.405 687.744 188.485 687.571C188.578 687.384 188.625 687.137 188.625 686.831C188.625 686.524 188.571 686.277 188.465 686.091C188.371 685.904 188.171 685.811 187.865 685.811H182.945C182.011 685.811 181.338 685.637 180.925 685.291C180.511 684.931 180.305 684.397 180.305 683.691V682.891C180.305 682.704 180.325 682.484 180.365 682.231C180.405 681.977 180.505 681.724 180.665 681.471C180.825 681.217 181.085 681.011 181.445 680.851C181.805 680.677 182.305 680.591 182.945 680.591H188.465C189.265 680.591 189.831 680.637 190.165 680.731C190.498 680.824 190.665 680.917 190.665 681.011L190.465 682.511C190.078 682.471 189.365 682.431 188.325 682.391C187.285 682.337 186.011 682.311 184.505 682.311H183.505C183.171 682.311 182.958 682.404 182.865 682.591C182.785 682.764 182.745 682.971 182.745 683.211C182.745 683.464 182.785 683.677 182.865 683.851C182.958 684.011 183.171 684.091 183.505 684.091H188.425C189.331 684.091 189.998 684.277 190.425 684.651C190.851 685.024 191.065 685.497 191.065 686.071V687.251C191.065 687.491 191.045 687.744 191.005 688.011C190.978 688.277 190.885 688.531 190.725 688.771C190.565 688.997 190.305 689.184 189.945 689.331C189.585 689.477 189.078 689.551 188.425 689.551H182.765ZM193.259 693.271V680.591H194.899L195.399 680.851C195.999 680.784 196.712 680.724 197.539 680.671C198.379 680.617 199.332 680.591 200.399 680.591H201.419C202.085 680.591 202.599 680.677 202.959 680.851C203.319 681.024 203.572 681.244 203.719 681.511C203.879 681.777 203.972 682.057 203.999 682.351C204.039 682.644 204.059 682.911 204.059 683.151V686.991C204.059 687.191 204.039 687.437 203.999 687.731C203.972 688.011 203.879 688.291 203.719 688.571C203.572 688.851 203.319 689.084 202.959 689.271C202.599 689.457 202.085 689.551 201.419 689.551H200.399C199.385 689.551 198.485 689.524 197.699 689.471C196.912 689.417 196.245 689.364 195.699 689.311V693.271H193.259ZM196.319 687.831H200.659C200.912 687.831 201.132 687.764 201.319 687.631C201.519 687.497 201.619 687.297 201.619 687.031V683.111C201.632 682.817 201.559 682.611 201.399 682.491C201.252 682.371 201.005 682.311 200.659 682.311H199.659C198.805 682.311 198.045 682.331 197.379 682.371C196.725 682.397 196.165 682.431 195.699 682.471V687.211C195.699 687.504 195.725 687.684 195.779 687.751C195.845 687.804 196.025 687.831 196.319 687.831ZM208.706 689.551C208.04 689.551 207.526 689.464 207.166 689.291C206.806 689.117 206.546 688.897 206.386 688.631C206.24 688.364 206.146 688.084 206.106 687.791C206.08 687.497 206.066 687.231 206.066 686.991V683.151C206.066 682.951 206.08 682.711 206.106 682.431C206.146 682.137 206.24 681.851 206.386 681.571C206.546 681.291 206.806 681.057 207.166 680.871C207.54 680.684 208.053 680.591 208.706 680.591H213.006C213.886 680.591 214.573 680.677 215.066 680.851C215.573 681.011 215.926 681.277 216.126 681.651C216.34 682.024 216.446 682.524 216.446 683.151V686.111H212.946C211.746 686.111 210.766 686.084 210.006 686.031C209.26 685.977 208.76 685.944 208.506 685.931V687.031C208.493 687.564 208.813 687.831 209.466 687.831H210.486C211.206 687.831 211.906 687.824 212.586 687.811C213.28 687.784 213.913 687.757 214.486 687.731C215.06 687.691 215.52 687.657 215.866 687.631L216.666 688.931C216.666 689.344 215.353 689.551 212.726 689.551H208.706ZM208.506 684.391H214.006V683.111C214.006 682.844 213.973 682.657 213.906 682.551C213.853 682.444 213.68 682.377 213.386 682.351C213.093 682.324 212.593 682.311 211.886 682.311H209.466C208.826 682.311 208.506 682.577 208.506 683.111V684.391ZM221.109 689.551C220.442 689.551 219.929 689.464 219.569 689.291C219.209 689.117 218.949 688.897 218.789 688.631C218.642 688.364 218.549 688.084 218.509 687.791C218.482 687.497 218.469 687.231 218.469 686.991V683.151C218.469 682.951 218.482 682.711 218.509 682.431C218.549 682.137 218.642 681.851 218.789 681.571C218.949 681.291 219.209 681.057 219.569 680.871C219.942 680.684 220.455 680.591 221.109 680.591H223.889C225.555 680.591 226.735 680.637 227.429 680.731C228.135 680.811 228.489 680.897 228.489 680.991L228.089 682.511C227.715 682.484 227.242 682.457 226.669 682.431C226.095 682.391 225.475 682.364 224.809 682.351C224.155 682.324 223.515 682.311 222.889 682.311H221.869C221.229 682.311 220.909 682.577 220.909 683.111V687.031C220.895 687.564 221.215 687.831 221.869 687.831H222.889C223.609 687.831 224.309 687.824 224.989 687.811C225.682 687.784 226.315 687.757 226.889 687.731C227.462 687.691 227.922 687.657 228.269 687.631L229.069 688.931C229.069 689.344 227.755 689.551 225.129 689.551H221.109ZM233.946 689.551C232.932 689.551 232.239 689.337 231.866 688.911C231.492 688.484 231.306 687.844 231.306 686.991V682.311H229.666V680.591H230.506C230.759 680.591 230.939 680.551 231.046 680.471C231.166 680.391 231.252 680.231 231.306 679.991L231.706 677.851H233.746V680.591H237.906V682.311H233.746V687.011C233.746 687.344 233.826 687.564 233.986 687.671C234.146 687.777 234.386 687.831 234.706 687.831H237.526L237.726 689.351C237.446 689.391 237.019 689.437 236.446 689.491C235.872 689.531 235.246 689.551 234.566 689.551H233.946ZM240.929 679.331C240.435 679.331 240.075 679.231 239.849 679.031C239.622 678.831 239.509 678.497 239.509 678.031C239.509 677.551 239.615 677.217 239.829 677.031C240.055 676.831 240.422 676.731 240.929 676.731C241.435 676.731 241.802 676.831 242.029 677.031C242.255 677.217 242.369 677.551 242.369 678.031C242.369 678.484 242.255 678.817 242.029 679.031C241.802 679.231 241.435 679.331 240.929 679.331ZM239.709 689.551V680.591H242.149V689.551H239.709ZM247.883 689.551L243.763 680.591H246.563L248.863 686.111L249.383 687.551H249.583L250.103 686.111L252.443 680.591H255.163L254.843 681.811L251.083 689.551H247.883ZM258.999 689.551C258.333 689.551 257.819 689.464 257.459 689.291C257.099 689.117 256.839 688.897 256.679 688.631C256.533 688.364 256.439 688.084 256.399 687.791C256.373 687.497 256.359 687.231 256.359 686.991V683.151C256.359 682.951 256.373 682.711 256.399 682.431C256.439 682.137 256.533 681.851 256.679 681.571C256.839 681.291 257.099 681.057 257.459 680.871C257.833 680.684 258.346 680.591 258.999 680.591H263.299C264.179 680.591 264.866 680.677 265.359 680.851C265.866 681.011 266.219 681.277 266.419 681.651C266.633 682.024 266.739 682.524 266.739 683.151V686.111H263.239C262.039 686.111 261.059 686.084 260.299 686.031C259.553 685.977 259.053 685.944 258.799 685.931V687.031C258.786 687.564 259.106 687.831 259.759 687.831H260.779C261.499 687.831 262.199 687.824 262.879 687.811C263.573 687.784 264.206 687.757 264.779 687.731C265.353 687.691 265.813 687.657 266.159 687.631L266.959 688.931C266.959 689.344 265.646 689.551 263.019 689.551H258.999ZM258.799 684.391H264.299V683.111C264.299 682.844 264.266 682.657 264.199 682.551C264.146 682.444 263.973 682.377 263.679 682.351C263.386 682.324 262.886 682.311 262.179 682.311H259.759C259.119 682.311 258.799 682.577 258.799 683.111V684.391ZM273.756 689.551V677.791H276.396V689.551H273.756ZM279.196 689.551V680.591H280.836L281.636 680.991C282.196 680.884 282.869 680.791 283.656 680.711C284.443 680.631 285.343 680.591 286.356 680.591H287.356C288.023 680.591 288.536 680.684 288.896 680.871C289.256 681.057 289.509 681.291 289.656 681.571C289.816 681.851 289.909 682.137 289.936 682.431C289.976 682.711 289.996 682.951 289.996 683.151V689.551H287.556V683.111C287.556 682.577 287.236 682.311 286.596 682.311H282.236C281.983 682.311 281.816 682.337 281.736 682.391C281.669 682.431 281.636 682.551 281.636 682.751V689.551H279.196ZM297.096 689.551V677.791H309.536V679.711H299.736V682.471H307.216V684.451H299.736V687.631H309.616L310.416 689.331C310.416 689.384 310.236 689.437 309.876 689.491C309.516 689.531 308.896 689.551 308.016 689.551H297.096ZM312.009 689.551V680.591H313.649L314.449 680.991C315.009 680.884 315.682 680.791 316.469 680.711C317.255 680.631 318.155 680.591 319.169 680.591H320.169C320.835 680.591 321.349 680.684 321.709 680.871C322.069 681.057 322.322 681.291 322.469 681.571C322.629 681.851 322.722 682.137 322.749 682.431C322.789 682.711 322.809 682.951 322.809 683.151V689.551H320.369V683.111C320.369 682.577 320.049 682.311 319.409 682.311H315.049C314.795 682.311 314.629 682.337 314.549 682.391C314.482 682.431 314.449 682.551 314.449 682.751V689.551H312.009ZM328.234 689.551L324.114 680.591H326.914L329.214 686.111L329.734 687.551H329.934L330.454 686.111L332.794 680.591H335.514L335.194 681.811L331.434 689.551H328.234ZM338.331 679.331C337.838 679.331 337.478 679.231 337.251 679.031C337.024 678.831 336.911 678.497 336.911 678.031C336.911 677.551 337.018 677.217 337.231 677.031C337.458 676.831 337.824 676.731 338.331 676.731C338.838 676.731 339.204 676.831 339.431 677.031C339.658 677.217 339.771 677.551 339.771 678.031C339.771 678.484 339.658 678.817 339.431 679.031C339.204 679.231 338.838 679.331 338.331 679.331ZM337.111 689.551V680.591H339.551V689.551H337.111ZM342.165 689.551V680.591H343.805L344.565 680.991C344.912 680.804 345.285 680.657 345.685 680.551C346.085 680.444 346.592 680.391 347.205 680.391C348.178 680.391 348.965 680.497 349.565 680.711C350.178 680.924 350.585 681.084 350.785 681.191L350.085 682.931C349.925 682.851 349.658 682.751 349.285 682.631C348.925 682.497 348.498 682.377 348.005 682.271C347.512 682.164 346.972 682.111 346.385 682.111H346.165C345.525 682.111 345.105 682.237 344.905 682.491C344.718 682.744 344.618 683.164 344.605 683.751V689.551H342.165ZM354.624 689.551C353.731 689.551 353.064 689.371 352.624 689.011C352.198 688.651 351.984 688.064 351.984 687.251V683.151C351.984 682.951 351.998 682.711 352.024 682.431C352.064 682.137 352.158 681.851 352.304 681.571C352.464 681.291 352.724 681.057 353.084 680.871C353.458 680.684 353.971 680.591 354.624 680.591H360.144C360.811 680.591 361.324 680.684 361.684 680.871C362.044 681.057 362.298 681.291 362.444 681.571C362.604 681.851 362.698 682.137 362.724 682.431C362.764 682.711 362.784 682.951 362.784 683.151V686.991C362.784 687.231 362.764 687.497 362.724 687.791C362.698 688.084 362.604 688.364 362.444 688.631C362.284 688.897 362.024 689.117 361.664 689.291C361.304 689.464 360.798 689.551 360.144 689.551H354.624ZM355.384 687.831H359.384C360.038 687.831 360.364 687.564 360.364 687.031V683.111C360.364 682.577 360.038 682.311 359.384 682.311H355.384C354.744 682.311 354.424 682.577 354.424 683.111V687.031C354.424 687.564 354.744 687.831 355.384 687.831ZM364.977 689.551V680.591H366.617L367.417 680.991C367.977 680.884 368.651 680.791 369.437 680.711C370.224 680.631 371.124 680.591 372.137 680.591H373.137C373.804 680.591 374.317 680.684 374.677 680.871C375.037 681.057 375.291 681.291 375.437 681.571C375.597 681.851 375.691 682.137 375.717 682.431C375.757 682.711 375.777 682.951 375.777 683.151V689.551H373.337V683.111C373.337 682.577 373.017 682.311 372.377 682.311H368.017C367.764 682.311 367.597 682.337 367.517 682.391C367.451 682.431 367.417 682.551 367.417 682.751V689.551H364.977ZM378.083 689.551V680.591H379.723L380.223 680.831C380.609 680.764 381.083 680.711 381.643 680.671C382.203 680.617 382.869 680.591 383.643 680.591H384.643C385.029 680.591 385.403 680.644 385.763 680.751C386.123 680.844 386.389 680.984 386.563 681.171C386.909 680.997 387.389 680.857 388.003 680.751C388.616 680.644 389.416 680.591 390.403 680.591H391.403C392.069 680.591 392.583 680.684 392.943 680.871C393.303 681.057 393.556 681.291 393.703 681.571C393.863 681.851 393.956 682.137 393.983 682.431C394.023 682.711 394.043 682.951 394.043 683.151V689.551H391.603V683.111C391.603 682.577 391.283 682.311 390.643 682.311H387.843C387.629 682.311 387.483 682.337 387.403 682.391C387.323 682.444 387.283 682.564 387.283 682.751V689.551H384.843V683.111C384.843 682.577 384.523 682.311 383.883 682.311H381.123C380.869 682.311 380.703 682.337 380.623 682.391C380.556 682.431 380.523 682.551 380.523 682.751V689.551H378.083ZM398.785 689.551C398.118 689.551 397.605 689.464 397.245 689.291C396.885 689.117 396.625 688.897 396.465 688.631C396.318 688.364 396.225 688.084 396.185 687.791C396.158 687.497 396.145 687.231 396.145 686.991V683.151C396.145 682.951 396.158 682.711 396.185 682.431C396.225 682.137 396.318 681.851 396.465 681.571C396.625 681.291 396.885 681.057 397.245 680.871C397.618 680.684 398.131 680.591 398.785 680.591H403.085C403.965 680.591 404.651 680.677 405.145 680.851C405.651 681.011 406.005 681.277 406.205 681.651C406.418 682.024 406.525 682.524 406.525 683.151V686.111H403.025C401.825 686.111 400.845 686.084 400.085 686.031C399.338 685.977 398.838 685.944 398.585 685.931V687.031C398.571 687.564 398.891 687.831 399.545 687.831H400.565C401.285 687.831 401.985 687.824 402.665 687.811C403.358 687.784 403.991 687.757 404.565 687.731C405.138 687.691 405.598 687.657 405.945 687.631L406.745 688.931C406.745 689.344 405.431 689.551 402.805 689.551H398.785ZM398.585 684.391H404.085V683.111C404.085 682.844 404.051 682.657 403.985 682.551C403.931 682.444 403.758 682.377 403.465 682.351C403.171 682.324 402.671 682.311 401.965 682.311H399.545C398.905 682.311 398.585 682.577 398.585 683.111V684.391ZM408.747 689.551V680.591H410.387L411.187 680.991C411.747 680.884 412.42 680.791 413.207 680.711C413.994 680.631 414.894 680.591 415.907 680.591H416.907C417.574 680.591 418.087 680.684 418.447 680.871C418.807 681.057 419.06 681.291 419.207 681.571C419.367 681.851 419.46 682.137 419.487 682.431C419.527 682.711 419.547 682.951 419.547 683.151V689.551H417.107V683.111C417.107 682.577 416.787 682.311 416.147 682.311H411.787C411.534 682.311 411.367 682.337 411.287 682.391C411.22 682.431 411.187 682.551 411.187 682.751V689.551H408.747ZM425.332 689.551C424.319 689.551 423.626 689.337 423.252 688.911C422.879 688.484 422.692 687.844 422.692 686.991V682.311H421.052V680.591H421.892C422.146 680.591 422.326 680.551 422.432 680.471C422.552 680.391 422.639 680.231 422.692 679.991L423.092 677.851H425.132V680.591H429.292V682.311H425.132V687.011C425.132 687.344 425.212 687.564 425.372 687.671C425.532 687.777 425.772 687.831 426.092 687.831H428.912L429.112 689.351C428.832 689.391 428.406 689.437 427.832 689.491C427.259 689.531 426.632 689.551 425.952 689.551H425.332ZM433.475 689.551C432.462 689.551 431.729 689.317 431.275 688.851C430.822 688.371 430.595 687.717 430.595 686.891C430.595 686.024 430.829 685.357 431.295 684.891C431.775 684.424 432.502 684.191 433.475 684.191H434.495C435.495 684.191 436.395 684.217 437.195 684.271C437.995 684.324 438.655 684.377 439.175 684.431V683.111C439.175 682.991 439.162 682.871 439.135 682.751C439.109 682.617 439.029 682.511 438.895 682.431C438.762 682.351 438.535 682.311 438.215 682.311H437.215C435.762 682.311 434.549 682.337 433.575 682.391C432.602 682.431 431.942 682.471 431.595 682.511L431.375 680.991C431.375 680.804 431.882 680.691 432.895 680.651C433.909 680.611 435.602 680.591 437.975 680.591H438.975C439.642 680.591 440.155 680.684 440.515 680.871C440.875 681.057 441.129 681.291 441.275 681.571C441.435 681.851 441.529 682.137 441.555 682.431C441.595 682.711 441.615 682.951 441.615 683.151V689.551H439.975L439.195 689.151C438.635 689.244 437.962 689.337 437.175 689.431C436.389 689.511 435.489 689.551 434.475 689.551H433.475ZM433.995 687.831H438.575C438.869 687.831 439.042 687.804 439.095 687.751C439.149 687.697 439.175 687.531 439.175 687.251V685.711H433.995C433.635 685.711 433.382 685.797 433.235 685.971C433.102 686.144 433.035 686.417 433.035 686.791C433.035 687.164 433.115 687.431 433.275 687.591C433.435 687.751 433.675 687.831 433.995 687.831ZM444.123 689.551V678.471L443.923 676.871H446.563V689.551H444.123ZM73.6 715.551V703.791H76.24V715.551H73.6ZM79.0398 715.551V706.591H80.6798L81.1798 706.831C81.5665 706.764 82.0398 706.711 82.5998 706.671C83.1598 706.617 83.8265 706.591 84.5998 706.591H85.5998C85.9865 706.591 86.3598 706.644 86.7198 706.751C87.0798 706.844 87.3465 706.984 87.5198 707.171C87.8665 706.997 88.3465 706.857 88.9598 706.751C89.5732 706.644 90.3732 706.591 91.3598 706.591H92.3598C93.0265 706.591 93.5398 706.684 93.8998 706.871C94.2598 707.057 94.5132 707.291 94.6598 707.571C94.8198 707.851 94.9132 708.137 94.9398 708.431C94.9798 708.711 94.9998 708.951 94.9998 709.151V715.551H92.5598V709.111C92.5598 708.577 92.2398 708.311 91.5998 708.311H88.7998C88.5865 708.311 88.4398 708.337 88.3598 708.391C88.2798 708.444 88.2398 708.564 88.2398 708.751V715.551H85.7998V709.111C85.7998 708.577 85.4798 708.311 84.8398 708.311H82.0798C81.8265 708.311 81.6598 708.337 81.5798 708.391C81.5132 708.431 81.4798 708.551 81.4798 708.751V715.551H79.0398ZM97.3016 719.271V706.591H98.9416L99.4416 706.851C100.042 706.784 100.755 706.724 101.582 706.671C102.422 706.617 103.375 706.591 104.442 706.591H105.462C106.128 706.591 106.642 706.677 107.002 706.851C107.362 707.024 107.615 707.244 107.762 707.511C107.922 707.777 108.015 708.057 108.042 708.351C108.082 708.644 108.102 708.911 108.102 709.151V712.991C108.102 713.191 108.082 713.437 108.042 713.731C108.015 714.011 107.922 714.291 107.762 714.571C107.615 714.851 107.362 715.084 107.002 715.271C106.642 715.457 106.128 715.551 105.462 715.551H104.442C103.428 715.551 102.528 715.524 101.742 715.471C100.955 715.417 100.288 715.364 99.7416 715.311V719.271H97.3016ZM100.362 713.831H104.702C104.955 713.831 105.175 713.764 105.362 713.631C105.562 713.497 105.662 713.297 105.662 713.031V709.111C105.675 708.817 105.602 708.611 105.442 708.491C105.295 708.371 105.048 708.311 104.702 708.311H103.702C102.848 708.311 102.088 708.331 101.422 708.371C100.768 708.397 100.208 708.431 99.7416 708.471V713.211C99.7416 713.504 99.7682 713.684 99.8216 713.751C99.8882 713.804 100.068 713.831 100.362 713.831ZM112.889 715.551C111.876 715.551 111.143 715.317 110.689 714.851C110.236 714.371 110.009 713.717 110.009 712.891C110.009 712.024 110.243 711.357 110.709 710.891C111.189 710.424 111.916 710.191 112.889 710.191H113.909C114.909 710.191 115.809 710.217 116.609 710.271C117.409 710.324 118.069 710.377 118.589 710.431V709.111C118.589 708.991 118.576 708.871 118.549 708.751C118.523 708.617 118.443 708.511 118.309 708.431C118.176 708.351 117.949 708.311 117.629 708.311H116.629C115.176 708.311 113.963 708.337 112.989 708.391C112.016 708.431 111.356 708.471 111.009 708.511L110.789 706.991C110.789 706.804 111.296 706.691 112.309 706.651C113.323 706.611 115.016 706.591 117.389 706.591H118.389C119.056 706.591 119.569 706.684 119.929 706.871C120.289 707.057 120.543 707.291 120.689 707.571C120.849 707.851 120.943 708.137 120.969 708.431C121.009 708.711 121.029 708.951 121.029 709.151V715.551H119.389L118.609 715.151C118.049 715.244 117.376 715.337 116.589 715.431C115.803 715.511 114.903 715.551 113.889 715.551H112.889ZM113.409 713.831H117.989C118.283 713.831 118.456 713.804 118.509 713.751C118.563 713.697 118.589 713.531 118.589 713.251V711.711H113.409C113.049 711.711 112.796 711.797 112.649 711.971C112.516 712.144 112.449 712.417 112.449 712.791C112.449 713.164 112.529 713.431 112.689 713.591C112.849 713.751 113.089 713.831 113.409 713.831ZM125.777 715.551C125.11 715.551 124.597 715.464 124.237 715.291C123.877 715.117 123.617 714.897 123.457 714.631C123.31 714.364 123.217 714.084 123.177 713.791C123.15 713.497 123.137 713.231 123.137 712.991V709.151C123.137 708.951 123.15 708.711 123.177 708.431C123.217 708.137 123.31 707.851 123.457 707.571C123.617 707.291 123.877 707.057 124.237 706.871C124.61 706.684 125.123 706.591 125.777 706.591H128.557C130.223 706.591 131.403 706.637 132.097 706.731C132.803 706.811 133.157 706.897 133.157 706.991L132.757 708.511C132.383 708.484 131.91 708.457 131.337 708.431C130.763 708.391 130.143 708.364 129.477 708.351C128.823 708.324 128.183 708.311 127.557 708.311H126.537C125.897 708.311 125.577 708.577 125.577 709.111V713.031C125.563 713.564 125.883 713.831 126.537 713.831H127.557C128.277 713.831 128.977 713.824 129.657 713.811C130.35 713.784 130.983 713.757 131.557 713.731C132.13 713.691 132.59 713.657 132.937 713.631L133.737 714.931C133.737 715.344 132.423 715.551 129.797 715.551H125.777ZM138.614 715.551C137.6 715.551 136.907 715.337 136.534 714.911C136.16 714.484 135.974 713.844 135.974 712.991V708.311H134.334V706.591H135.174C135.427 706.591 135.607 706.551 135.714 706.471C135.834 706.391 135.92 706.231 135.974 705.991L136.374 703.851H138.414V706.591H142.574V708.311H138.414V713.011C138.414 713.344 138.494 713.564 138.654 713.671C138.814 713.777 139.054 713.831 139.374 713.831H142.194L142.394 715.351C142.114 715.391 141.687 715.437 141.114 715.491C140.54 715.531 139.914 715.551 139.234 715.551H138.614ZM147.371 715.551L153.231 703.791H157.171L163.011 715.551H159.931L158.751 713.011H151.591L150.291 715.551H147.371ZM152.311 711.051H158.011L155.271 705.591H155.071L152.311 711.051ZM164.216 715.551V706.591H165.856L166.656 706.991C167.216 706.884 167.889 706.791 168.676 706.711C169.462 706.631 170.362 706.591 171.376 706.591H172.376C173.042 706.591 173.556 706.684 173.916 706.871C174.276 707.057 174.529 707.291 174.676 707.571C174.836 707.851 174.929 708.137 174.956 708.431C174.996 708.711 175.016 708.951 175.016 709.151V715.551H172.576V709.111C172.576 708.577 172.256 708.311 171.616 708.311H167.256C167.002 708.311 166.836 708.337 166.756 708.391C166.689 708.431 166.656 708.551 166.656 708.751V715.551H164.216ZM179.761 715.551C179.094 715.551 178.581 715.464 178.221 715.291C177.861 715.117 177.601 714.897 177.441 714.631C177.294 714.364 177.201 714.084 177.161 713.791C177.134 713.497 177.121 713.231 177.121 712.991V709.151C177.121 708.951 177.134 708.711 177.161 708.431C177.201 708.137 177.294 707.851 177.441 707.571C177.601 707.291 177.861 707.057 178.221 706.871C178.594 706.684 179.108 706.591 179.761 706.591H180.781C182.008 706.591 182.994 706.617 183.741 706.671C184.501 706.711 185.081 706.757 185.481 706.811V702.871H187.921V715.551H186.281L185.501 715.151C184.941 715.244 184.268 715.337 183.481 715.431C182.694 715.511 181.788 715.551 180.761 715.551H179.761ZM180.521 713.831H184.861C185.141 713.831 185.314 713.797 185.381 713.731C185.448 713.664 185.481 713.497 185.481 713.231V708.451C185.028 708.424 184.454 708.397 183.761 708.371C183.068 708.331 182.328 708.311 181.541 708.311H180.521C179.881 708.311 179.561 708.577 179.561 709.111V713.031C179.561 713.564 179.881 713.831 180.521 713.831ZM195.319 715.551V703.791H207.759V705.711H197.959V708.471H205.439V710.451H197.959V713.631H207.839L208.639 715.331C208.639 715.384 208.459 715.437 208.099 715.491C207.739 715.531 207.119 715.551 206.239 715.551H195.319ZM212.671 715.551C212.005 715.551 211.491 715.464 211.131 715.291C210.771 715.117 210.511 714.897 210.351 714.631C210.205 714.364 210.111 714.084 210.071 713.791C210.045 713.497 210.031 713.231 210.031 712.991V709.151C210.031 708.951 210.045 708.711 210.071 708.431C210.111 708.137 210.205 707.851 210.351 707.571C210.511 707.291 210.771 707.057 211.131 706.871C211.505 706.684 212.018 706.591 212.671 706.591H215.451C217.118 706.591 218.298 706.637 218.991 706.731C219.698 706.811 220.051 706.897 220.051 706.991L219.651 708.511C219.278 708.484 218.805 708.457 218.231 708.431C217.658 708.391 217.038 708.364 216.371 708.351C215.718 708.324 215.078 708.311 214.451 708.311H213.431C212.791 708.311 212.471 708.577 212.471 709.111V713.031C212.458 713.564 212.778 713.831 213.431 713.831H214.451C215.171 713.831 215.871 713.824 216.551 713.811C217.245 713.784 217.878 713.757 218.451 713.731C219.025 713.691 219.485 713.657 219.831 713.631L220.631 714.931C220.631 715.344 219.318 715.551 216.691 715.551H212.671ZM224.468 715.551C223.575 715.551 222.908 715.371 222.468 715.011C222.041 714.651 221.828 714.064 221.828 713.251V709.151C221.828 708.951 221.841 708.711 221.868 708.431C221.908 708.137 222.001 707.851 222.148 707.571C222.308 707.291 222.568 707.057 222.928 706.871C223.301 706.684 223.815 706.591 224.468 706.591H229.988C230.655 706.591 231.168 706.684 231.528 706.871C231.888 707.057 232.141 707.291 232.288 707.571C232.448 707.851 232.541 708.137 232.568 708.431C232.608 708.711 232.628 708.951 232.628 709.151V712.991C232.628 713.231 232.608 713.497 232.568 713.791C232.541 714.084 232.448 714.364 232.288 714.631C232.128 714.897 231.868 715.117 231.508 715.291C231.148 715.464 230.641 715.551 229.988 715.551H224.468ZM225.228 713.831H229.228C229.881 713.831 230.208 713.564 230.208 713.031V709.111C230.208 708.577 229.881 708.311 229.228 708.311H225.228C224.588 708.311 224.268 708.577 224.268 709.111V713.031C224.268 713.564 224.588 713.831 225.228 713.831ZM234.821 715.551V706.591H236.461L237.261 706.991C237.821 706.884 238.494 706.791 239.281 706.711C240.068 706.631 240.968 706.591 241.981 706.591H242.981C243.648 706.591 244.161 706.684 244.521 706.871C244.881 707.057 245.134 707.291 245.281 707.571C245.441 707.851 245.534 708.137 245.561 708.431C245.601 708.711 245.621 708.951 245.621 709.151V715.551H243.181V709.111C243.181 708.577 242.861 708.311 242.221 708.311H237.861C237.608 708.311 237.441 708.337 237.361 708.391C237.294 708.431 237.261 708.551 237.261 708.751V715.551H234.821ZM250.367 715.551C249.473 715.551 248.807 715.371 248.367 715.011C247.94 714.651 247.727 714.064 247.727 713.251V709.151C247.727 708.951 247.74 708.711 247.767 708.431C247.807 708.137 247.9 707.851 248.047 707.571C248.207 707.291 248.467 707.057 248.827 706.871C249.2 706.684 249.713 706.591 250.367 706.591H255.887C256.553 706.591 257.067 706.684 257.427 706.871C257.787 707.057 258.04 707.291 258.187 707.571C258.347 707.851 258.44 708.137 258.467 708.431C258.507 708.711 258.527 708.951 258.527 709.151V712.991C258.527 713.231 258.507 713.497 258.467 713.791C258.44 714.084 258.347 714.364 258.187 714.631C258.027 714.897 257.767 715.117 257.407 715.291C257.047 715.464 256.54 715.551 255.887 715.551H250.367ZM251.127 713.831H255.127C255.78 713.831 256.107 713.564 256.107 713.031V709.111C256.107 708.577 255.78 708.311 255.127 708.311H251.127C250.487 708.311 250.167 708.577 250.167 709.111V713.031C250.167 713.564 250.487 713.831 251.127 713.831ZM260.72 715.551V706.591H262.36L262.86 706.831C263.246 706.764 263.72 706.711 264.28 706.671C264.84 706.617 265.506 706.591 266.28 706.591H267.28C267.666 706.591 268.04 706.644 268.4 706.751C268.76 706.844 269.026 706.984 269.2 707.171C269.546 706.997 270.026 706.857 270.64 706.751C271.253 706.644 272.053 706.591 273.04 706.591H274.04C274.706 706.591 275.22 706.684 275.58 706.871C275.94 707.057 276.193 707.291 276.34 707.571C276.5 707.851 276.593 708.137 276.62 708.431C276.66 708.711 276.68 708.951 276.68 709.151V715.551H274.24V709.111C274.24 708.577 273.92 708.311 273.28 708.311H270.48C270.266 708.311 270.12 708.337 270.04 708.391C269.96 708.444 269.92 708.564 269.92 708.751V715.551H267.48V709.111C267.48 708.577 267.16 708.311 266.52 708.311H263.76C263.506 708.311 263.34 708.337 263.26 708.391C263.193 708.431 263.16 708.551 263.16 708.751V715.551H260.72ZM280.401 705.331C279.908 705.331 279.548 705.231 279.321 705.031C279.095 704.831 278.981 704.497 278.981 704.031C278.981 703.551 279.088 703.217 279.301 703.031C279.528 702.831 279.895 702.731 280.401 702.731C280.908 702.731 281.275 702.831 281.501 703.031C281.728 703.217 281.841 703.551 281.841 704.031C281.841 704.484 281.728 704.817 281.501 705.031C281.275 705.231 280.908 705.331 280.401 705.331ZM279.181 715.551V706.591H281.621V715.551H279.181ZM286.675 715.551C286.008 715.551 285.495 715.464 285.135 715.291C284.775 715.117 284.515 714.897 284.355 714.631C284.208 714.364 284.115 714.084 284.075 713.791C284.048 713.497 284.035 713.231 284.035 712.991V709.151C284.035 708.951 284.048 708.711 284.075 708.431C284.115 708.137 284.208 707.851 284.355 707.571C284.515 707.291 284.775 707.057 285.135 706.871C285.508 706.684 286.022 706.591 286.675 706.591H289.455C291.122 706.591 292.302 706.637 292.995 706.731C293.702 706.811 294.055 706.897 294.055 706.991L293.655 708.511C293.282 708.484 292.808 708.457 292.235 708.431C291.662 708.391 291.042 708.364 290.375 708.351C289.722 708.324 289.082 708.311 288.455 708.311H287.435C286.795 708.311 286.475 708.577 286.475 709.111V713.031C286.462 713.564 286.782 713.831 287.435 713.831H288.455C289.175 713.831 289.875 713.824 290.555 713.811C291.248 713.784 291.882 713.757 292.455 713.731C293.028 713.691 293.488 713.657 293.835 713.631L294.635 714.931C294.635 715.344 293.322 715.551 290.695 715.551H286.675ZM300.827 715.551V703.791H303.467V715.551H300.827ZM306.266 715.551V706.591H307.906L308.706 706.991C309.266 706.884 309.94 706.791 310.726 706.711C311.513 706.631 312.413 706.591 313.426 706.591H314.426C315.093 706.591 315.606 706.684 315.966 706.871C316.326 707.057 316.58 707.291 316.726 707.571C316.886 707.851 316.98 708.137 317.006 708.431C317.046 708.711 317.066 708.951 317.066 709.151V715.551H314.626V709.111C314.626 708.577 314.306 708.311 313.666 708.311H309.306C309.053 708.311 308.886 708.337 308.806 708.391C308.74 708.431 308.706 708.551 308.706 708.751V715.551H306.266ZM321.812 715.551C321.145 715.551 320.632 715.464 320.272 715.291C319.912 715.117 319.652 714.897 319.492 714.631C319.345 714.364 319.252 714.084 319.212 713.791C319.185 713.497 319.172 713.231 319.172 712.991V709.151C319.172 708.951 319.185 708.711 319.212 708.431C319.252 708.137 319.345 707.851 319.492 707.571C319.652 707.291 319.912 707.057 320.272 706.871C320.645 706.684 321.159 706.591 321.812 706.591H324.592C326.259 706.591 327.439 706.637 328.132 706.731C328.839 706.811 329.192 706.897 329.192 706.991L328.792 708.511C328.419 708.484 327.945 708.457 327.372 708.431C326.799 708.391 326.179 708.364 325.512 708.351C324.859 708.324 324.219 708.311 323.592 708.311H322.572C321.932 708.311 321.612 708.577 321.612 709.111V713.031C321.599 713.564 321.919 713.831 322.572 713.831H323.592C324.312 713.831 325.012 713.824 325.692 713.811C326.385 713.784 327.019 713.757 327.592 713.731C328.165 713.691 328.625 713.657 328.972 713.631L329.772 714.931C329.772 715.344 328.459 715.551 325.832 715.551H321.812ZM333.609 715.551C332.942 715.551 332.429 715.464 332.069 715.291C331.709 715.117 331.449 714.897 331.289 714.631C331.142 714.364 331.049 714.084 331.009 713.791C330.982 713.497 330.969 713.231 330.969 712.991V709.151C330.969 708.951 330.982 708.711 331.009 708.431C331.049 708.137 331.142 707.851 331.289 707.571C331.449 707.291 331.709 707.057 332.069 706.871C332.442 706.684 332.955 706.591 333.609 706.591H337.909C338.789 706.591 339.475 706.677 339.969 706.851C340.475 707.011 340.829 707.277 341.029 707.651C341.242 708.024 341.349 708.524 341.349 709.151V712.111H337.849C336.649 712.111 335.669 712.084 334.909 712.031C334.162 711.977 333.662 711.944 333.409 711.931V713.031C333.395 713.564 333.715 713.831 334.369 713.831H335.389C336.109 713.831 336.809 713.824 337.489 713.811C338.182 713.784 338.815 713.757 339.389 713.731C339.962 713.691 340.422 713.657 340.769 713.631L341.569 714.931C341.569 715.344 340.255 715.551 337.629 715.551H333.609ZM333.409 710.391H338.909V709.111C338.909 708.844 338.875 708.657 338.809 708.551C338.755 708.444 338.582 708.377 338.289 708.351C337.995 708.324 337.495 708.311 336.789 708.311H334.369C333.729 708.311 333.409 708.577 333.409 709.111V710.391ZM343.571 715.551V706.591H345.211L346.011 706.991C346.571 706.884 347.244 706.791 348.031 706.711C348.818 706.631 349.718 706.591 350.731 706.591H351.731C352.398 706.591 352.911 706.684 353.271 706.871C353.631 707.057 353.884 707.291 354.031 707.571C354.191 707.851 354.284 708.137 354.311 708.431C354.351 708.711 354.371 708.951 354.371 709.151V715.551H351.931V709.111C351.931 708.577 351.611 708.311 350.971 708.311H346.611C346.358 708.311 346.191 708.337 346.111 708.391C346.044 708.431 346.011 708.551 346.011 708.751V715.551H343.571ZM360.157 715.551C359.143 715.551 358.45 715.337 358.077 714.911C357.703 714.484 357.517 713.844 357.517 712.991V708.311H355.877V706.591H356.717C356.97 706.591 357.15 706.551 357.257 706.471C357.377 706.391 357.463 706.231 357.517 705.991L357.917 703.851H359.957V706.591H364.117V708.311H359.957V713.011C359.957 713.344 360.037 713.564 360.197 713.671C360.357 713.777 360.597 713.831 360.917 713.831H363.737L363.937 715.351C363.657 715.391 363.23 715.437 362.657 715.491C362.083 715.531 361.457 715.551 360.777 715.551H360.157ZM367.14 705.331C366.646 705.331 366.286 705.231 366.06 705.031C365.833 704.831 365.72 704.497 365.72 704.031C365.72 703.551 365.826 703.217 366.04 703.031C366.266 702.831 366.633 702.731 367.14 702.731C367.646 702.731 368.013 702.831 368.24 703.031C368.466 703.217 368.58 703.551 368.58 704.031C368.58 704.484 368.466 704.817 368.24 705.031C368.013 705.231 367.646 705.331 367.14 705.331ZM365.92 715.551V706.591H368.36V715.551H365.92ZM374.093 715.551L369.973 706.591H372.773L375.073 712.111L375.593 713.551H375.793L376.313 712.111L378.653 706.591H381.373L381.053 707.811L377.293 715.551H374.093ZM385.21 715.551C384.544 715.551 384.03 715.464 383.67 715.291C383.31 715.117 383.05 714.897 382.89 714.631C382.744 714.364 382.65 714.084 382.61 713.791C382.584 713.497 382.57 713.231 382.57 712.991V709.151C382.57 708.951 382.584 708.711 382.61 708.431C382.65 708.137 382.744 707.851 382.89 707.571C383.05 707.291 383.31 707.057 383.67 706.871C384.044 706.684 384.557 706.591 385.21 706.591H389.51C390.39 706.591 391.077 706.677 391.57 706.851C392.077 707.011 392.43 707.277 392.63 707.651C392.844 708.024 392.95 708.524 392.95 709.151V712.111H389.45C388.25 712.111 387.27 712.084 386.51 712.031C385.764 711.977 385.264 711.944 385.01 711.931V713.031C384.997 713.564 385.317 713.831 385.97 713.831H386.99C387.71 713.831 388.41 713.824 389.09 713.811C389.784 713.784 390.417 713.757 390.99 713.731C391.564 713.691 392.024 713.657 392.37 713.631L393.17 714.931C393.17 715.344 391.857 715.551 389.23 715.551H385.21ZM385.01 710.391H390.51V709.111C390.51 708.844 390.477 708.657 390.41 708.551C390.357 708.444 390.184 708.377 389.89 708.351C389.597 708.324 389.097 708.311 388.39 708.311H385.97C385.33 708.311 385.01 708.577 385.01 709.111V710.391Z" fill="#252525"/>
</g>
<g filter="url(#filter2_bd_76_4311)">
<rect x="272" y="153" width="349" height="136" rx="24" fill="url(#paint30_linear_76_4311)" shape-rendering="crispEdges"/>
<rect x="273" y="154" width="347" height="134" rx="23" stroke="url(#paint31_linear_76_4311)" stroke-width="2" shape-rendering="crispEdges"/>
<g filter="url(#filter3_d_76_4311)">
<path d="M304 221C304 196.699 323.699 177 348 177C372.301 177 392 196.699 392 221C392 245.301 372.301 265 348 265H304V221Z" fill="url(#paint32_linear_76_4311)" shape-rendering="crispEdges"/>
<path d="M305 221C305 197.252 324.252 178 348 178C371.748 178 391 197.252 391 221C391 244.748 371.748 264 348 264H305V221Z" stroke="white" stroke-width="2" shape-rendering="crispEdges"/>
<path d="M348 203C338.4 203 330 210.72 330 221C330 225.24 331.48 229.14 333.94 232.22L330 236.18L332.82 239L336.76 235.06C339.952 237.609 343.915 238.998 348 239C352.6 239 357.22 237.24 360.72 233.72C362.396 232.053 363.726 230.071 364.632 227.888C365.539 225.705 366.003 223.364 366 221V203H348ZM355.66 221.52L345.34 230.78C345.02 231.08 344.52 231.06 344.22 230.76C344.083 230.626 344 230.446 343.985 230.255C343.971 230.064 344.026 229.874 344.14 229.72L349.02 223.06L340.92 222.26C340.722 222.241 340.534 222.166 340.378 222.043C340.222 221.919 340.105 221.753 340.042 221.565C339.978 221.377 339.971 221.174 340.02 220.981C340.07 220.789 340.174 220.615 340.32 220.48L350.64 211.22C350.96 210.92 351.46 210.94 351.76 211.24C352.04 211.52 352.08 211.96 351.84 212.28L346.96 218.94L355.06 219.74C355.96 219.82 356.32 220.92 355.66 221.52Z" fill="white"/>
</g>
<path d="M420.704 211V196.536L416.864 196.824L416.64 192.824L426.848 191.864V211H420.704ZM437.566 211C435.838 211 434.494 210.915 433.534 210.744C432.596 210.573 431.913 210.381 431.486 210.168C431.081 209.955 430.814 209.805 430.686 209.72L432.254 206.232C432.574 206.275 433.129 206.328 433.918 206.392C434.729 206.435 435.86 206.477 437.31 206.52C438.782 206.563 440.649 206.584 442.91 206.584C443.806 206.584 444.393 206.435 444.67 206.136C444.948 205.816 445.086 205.315 445.086 204.632V204.44C445.086 203.907 444.926 203.501 444.606 203.224C444.308 202.947 443.732 202.808 442.878 202.808H434.526L431.966 203.128V192.184H447.422C448.489 192.184 449.246 192.227 449.694 192.312C450.142 192.397 450.366 192.483 450.366 192.568L449.406 196.536H438.142V199.32C438.377 199.277 438.761 199.245 439.294 199.224C439.849 199.181 440.478 199.149 441.182 199.128C441.886 199.085 442.58 199.064 443.262 199.064H444.83C447.22 199.064 448.894 199.501 449.854 200.376C450.814 201.251 451.294 202.637 451.294 204.536V205.272C451.294 206.019 451.209 206.733 451.038 207.416C450.868 208.099 450.558 208.717 450.11 209.272C449.662 209.805 449.012 210.232 448.158 210.552C447.305 210.851 446.196 211 444.83 211H437.566ZM462.602 211C460.042 211 458.208 210.499 457.098 209.496C456.01 208.472 455.466 206.851 455.466 204.632V198.52C455.466 196.301 456.01 194.691 457.098 193.688C458.186 192.685 460.021 192.184 462.602 192.184H468.714C471.296 192.184 473.12 192.685 474.186 193.688C475.274 194.691 475.818 196.301 475.818 198.52V204.632C475.818 206.851 475.274 208.472 474.186 209.496C473.098 210.499 471.274 211 468.714 211H462.602ZM463.85 206.648H467.498C468.288 206.648 468.842 206.445 469.162 206.04C469.504 205.635 469.674 205.08 469.674 204.376V198.776C469.674 198.157 469.504 197.635 469.162 197.208C468.821 196.76 468.266 196.536 467.498 196.536H463.85C463.082 196.536 462.517 196.739 462.154 197.144C461.792 197.549 461.61 198.093 461.61 198.776V204.376C461.61 205.101 461.781 205.667 462.122 206.072C462.485 206.456 463.061 206.648 463.85 206.648ZM496.903 211.32C495.858 211.32 494.94 211.213 494.151 211C493.383 210.787 492.647 210.328 491.943 209.624C491.516 209.197 491.09 208.771 490.663 208.344C490.236 207.917 489.81 207.491 489.383 207.064C489.042 206.701 488.764 206.424 488.551 206.232C488.338 206.019 488.124 205.88 487.911 205.816C487.719 205.731 487.442 205.688 487.079 205.688C486.61 205.688 486.332 205.731 486.247 205.816C486.162 205.901 486.119 206.189 486.119 206.68V211H480.295V190.744H486.119V201.592H487.143C487.506 201.592 487.847 201.443 488.167 201.144C488.359 200.952 488.647 200.6 489.031 200.088C489.436 199.576 489.874 199.011 490.343 198.392C490.812 197.773 491.239 197.208 491.623 196.696H498.343L497.831 197.688C497.319 198.328 496.722 199.032 496.039 199.8C495.378 200.568 494.727 201.272 494.087 201.912C493.468 202.552 492.967 203 492.583 203.256C493.415 203.811 494.194 204.408 494.919 205.048C495.644 205.667 496.572 206.221 497.703 206.712C498.45 207.032 499.079 207.245 499.591 207.352C500.124 207.437 500.498 207.48 500.711 207.48L499.815 211C499.602 211.064 499.239 211.128 498.727 211.192C498.236 211.277 497.628 211.32 496.903 211.32ZM507.567 211L500.719 192.216H507.535L510.735 202.904L511.471 205.688H511.791L512.207 203.832L515.503 192.216H522.863L526.351 203.832L526.927 205.688H527.247L527.983 202.904L530.895 192.216H537.615L537.295 194.136L530.703 211H523.343L519.951 200.664L519.311 197.976H518.991L518.383 200.664L515.023 211H507.567ZM539.545 211V190.264H545.465V197.304C546.382 197.133 547.47 196.984 548.729 196.856C549.988 196.728 551.172 196.664 552.281 196.664H553.881C554.948 196.664 555.769 196.813 556.345 197.112C556.921 197.411 557.326 197.784 557.561 198.232C557.817 198.68 557.966 199.139 558.009 199.608C558.073 200.056 558.105 200.44 558.105 200.76V211H552.249V201.976C552.249 201.123 551.737 200.696 550.713 200.696H546.425C546.02 200.696 545.753 200.739 545.625 200.824C545.518 200.888 545.465 201.08 545.465 201.4V211H539.545Z" fill="#252525"/>
<path d="M422.072 248C420.936 248 420.048 247.84 419.408 247.52C418.768 247.2 418.32 246.72 418.064 246.08C417.808 245.44 417.68 244.648 417.68 243.704V238.352C417.68 236.816 418.024 235.688 418.712 234.968C419.4 234.232 420.52 233.864 422.072 233.864H429.296C430.4 233.864 431.24 233.928 431.816 234.056C432.408 234.168 432.704 234.288 432.704 234.416L432.224 236.408C431.952 236.36 431.144 236.312 429.8 236.264C428.472 236.2 426.536 236.168 423.992 236.168H422.768C421.488 236.168 420.848 236.736 420.848 237.872V243.992C420.848 244.536 420.984 244.96 421.256 245.264C421.544 245.552 422.048 245.696 422.768 245.696H423.752C425.288 245.696 426.584 245.688 427.64 245.672C428.696 245.64 429.568 245.616 430.256 245.6V242.336L428.816 242.36L425.672 242.6V240.248H433.4V246.992L433.64 247.496C433.64 247.624 433.304 247.744 432.632 247.856C431.96 247.952 430.824 248 429.224 248H422.072ZM436.518 248V237.248H438.486L439.398 237.728C439.814 237.504 440.262 237.328 440.742 237.2C441.222 237.072 441.83 237.008 442.566 237.008C443.734 237.008 444.678 237.136 445.398 237.392C446.134 237.648 446.622 237.84 446.862 237.968L446.022 240.056C445.83 239.96 445.51 239.84 445.062 239.696C444.63 239.536 444.118 239.392 443.526 239.264C442.934 239.136 442.286 239.072 441.582 239.072H441.318C440.55 239.072 440.046 239.224 439.806 239.528C439.582 239.832 439.462 240.336 439.446 241.04V248H436.518ZM451.47 248C450.67 248 450.054 247.896 449.622 247.688C449.19 247.48 448.878 247.216 448.686 246.896C448.51 246.576 448.398 246.24 448.35 245.888C448.318 245.536 448.302 245.216 448.302 244.928V240.32C448.302 240.08 448.318 239.792 448.35 239.456C448.398 239.104 448.51 238.76 448.686 238.424C448.878 238.088 449.19 237.808 449.622 237.584C450.07 237.36 450.686 237.248 451.47 237.248H456.63C457.686 237.248 458.51 237.352 459.102 237.56C459.71 237.752 460.134 238.072 460.374 238.52C460.63 238.968 460.758 239.568 460.758 240.32V243.872H456.558C455.118 243.872 453.942 243.84 453.03 243.776C452.134 243.712 451.534 243.672 451.23 243.656V244.976C451.214 245.616 451.598 245.936 452.382 245.936H453.606C454.47 245.936 455.31 245.928 456.126 245.912C456.958 245.88 457.718 245.848 458.406 245.816C459.094 245.768 459.646 245.728 460.062 245.696L461.022 247.256C461.022 247.752 459.446 248 456.294 248H451.47ZM451.23 241.808H457.83V240.272C457.83 239.952 457.79 239.728 457.71 239.6C457.646 239.472 457.438 239.392 457.086 239.36C456.734 239.328 456.134 239.312 455.286 239.312H452.382C451.614 239.312 451.23 239.632 451.23 240.272V241.808ZM466.352 248C465.552 248 464.936 247.896 464.504 247.688C464.072 247.48 463.76 247.216 463.568 246.896C463.392 246.576 463.28 246.24 463.232 245.888C463.2 245.536 463.184 245.216 463.184 244.928V240.32C463.184 240.08 463.2 239.792 463.232 239.456C463.28 239.104 463.392 238.76 463.568 238.424C463.76 238.088 464.072 237.808 464.504 237.584C464.952 237.36 465.568 237.248 466.352 237.248H471.512C472.568 237.248 473.392 237.352 473.984 237.56C474.592 237.752 475.016 238.072 475.256 238.52C475.512 238.968 475.64 239.568 475.64 240.32V243.872H471.44C470 243.872 468.824 243.84 467.912 243.776C467.016 243.712 466.416 243.672 466.112 243.656V244.976C466.096 245.616 466.48 245.936 467.264 245.936H468.488C469.352 245.936 470.192 245.928 471.008 245.912C471.84 245.88 472.6 245.848 473.288 245.816C473.976 245.768 474.528 245.728 474.944 245.696L475.904 247.256C475.904 247.752 474.328 248 471.176 248H466.352ZM466.112 241.808H472.712V240.272C472.712 239.952 472.672 239.728 472.592 239.6C472.528 239.472 472.32 239.392 471.968 239.36C471.616 239.328 471.016 239.312 470.168 239.312H467.264C466.496 239.312 466.112 239.632 466.112 240.272V241.808ZM478.307 248V237.248H480.275L481.235 237.728C481.907 237.6 482.715 237.488 483.659 237.392C484.603 237.296 485.683 237.248 486.899 237.248H488.099C488.899 237.248 489.515 237.36 489.947 237.584C490.379 237.808 490.683 238.088 490.859 238.424C491.051 238.76 491.163 239.104 491.195 239.456C491.243 239.792 491.267 240.08 491.267 240.32V248H488.339V240.272C488.339 239.632 487.955 239.312 487.187 239.312H481.955C481.651 239.312 481.451 239.344 481.355 239.408C481.275 239.456 481.235 239.6 481.235 239.84V248H478.307ZM499.787 248V233.888H514.715V236.192H502.955V239.504H511.931V241.88H502.955V245.696H514.811L515.771 247.736C515.771 247.8 515.555 247.864 515.123 247.928C514.691 247.976 513.947 248 512.891 248H499.787ZM517.682 248V237.248H519.65L520.61 237.728C521.282 237.6 522.09 237.488 523.034 237.392C523.978 237.296 525.058 237.248 526.274 237.248H527.474C528.274 237.248 528.89 237.36 529.322 237.584C529.754 237.808 530.058 238.088 530.234 238.424C530.426 238.76 530.538 239.104 530.57 239.456C530.618 239.792 530.642 240.08 530.642 240.32V248H527.714V240.272C527.714 239.632 527.33 239.312 526.562 239.312H521.33C521.026 239.312 520.826 239.344 520.73 239.408C520.65 239.456 520.61 239.6 520.61 239.84V248H517.682ZM536.337 248C535.537 248 534.921 247.896 534.489 247.688C534.057 247.48 533.745 247.216 533.553 246.896C533.377 246.576 533.265 246.24 533.217 245.888C533.185 245.536 533.169 245.216 533.169 244.928V240.32C533.169 240.08 533.185 239.792 533.217 239.456C533.265 239.104 533.377 238.76 533.553 238.424C533.745 238.088 534.057 237.808 534.489 237.584C534.937 237.36 535.553 237.248 536.337 237.248H541.497C542.553 237.248 543.377 237.352 543.969 237.56C544.577 237.752 545.001 238.072 545.241 238.52C545.497 238.968 545.625 239.568 545.625 240.32V243.872H541.425C539.985 243.872 538.809 243.84 537.897 243.776C537.001 243.712 536.401 243.672 536.097 243.656V244.976C536.081 245.616 536.465 245.936 537.249 245.936H538.473C539.337 245.936 540.177 245.928 540.993 245.912C541.825 245.88 542.585 245.848 543.273 245.816C543.961 245.768 544.513 245.728 544.929 245.696L545.889 247.256C545.889 247.752 544.313 248 541.161 248H536.337ZM536.097 241.808H542.697V240.272C542.697 239.952 542.657 239.728 542.577 239.6C542.513 239.472 542.305 239.392 541.953 239.36C541.601 239.328 541.001 239.312 540.153 239.312H537.249C536.481 239.312 536.097 239.632 536.097 240.272V241.808ZM548.292 248V237.248H550.26L551.172 237.728C551.588 237.504 552.036 237.328 552.516 237.2C552.996 237.072 553.604 237.008 554.34 237.008C555.508 237.008 556.452 237.136 557.172 237.392C557.908 237.648 558.396 237.84 558.636 237.968L557.796 240.056C557.604 239.96 557.284 239.84 556.836 239.696C556.404 239.536 555.892 239.392 555.3 239.264C554.708 239.136 554.06 239.072 553.356 239.072H553.092C552.324 239.072 551.82 239.224 551.58 239.528C551.356 239.832 551.236 240.336 551.22 241.04V248H548.292ZM568.211 252.224C566.451 252.224 565.019 252.208 563.915 252.176C562.811 252.144 561.963 252.096 561.371 252.032C560.779 251.968 560.371 251.888 560.147 251.792C559.939 251.696 559.835 251.592 559.835 251.48L560.555 249.68C560.811 249.76 561.259 249.856 561.899 249.968C562.555 250.096 563.387 250.16 564.395 250.16H568.499C569.091 250.16 569.507 250.072 569.747 249.896C570.003 249.72 570.131 249.408 570.131 248.96V247.52C569.443 247.648 568.627 247.76 567.683 247.856C566.755 247.952 565.683 248 564.467 248H563.267C562.467 248 561.851 247.896 561.419 247.688C560.987 247.48 560.675 247.216 560.483 246.896C560.307 246.576 560.195 246.24 560.147 245.888C560.115 245.536 560.099 245.216 560.099 244.928V240.32C560.099 240.08 560.115 239.792 560.147 239.456C560.195 239.104 560.307 238.76 560.483 238.424C560.675 238.088 560.987 237.808 561.419 237.584C561.867 237.36 562.483 237.248 563.267 237.248H564.491C566.171 237.248 567.475 237.28 568.403 237.344C569.347 237.408 570.035 237.48 570.467 237.56L571.091 237.248H573.059V249.152C573.059 249.44 573.011 249.76 572.915 250.112C572.835 250.464 572.667 250.8 572.411 251.12C572.155 251.44 571.787 251.704 571.307 251.912C570.827 252.12 570.195 252.224 569.411 252.224H568.211ZM564.179 245.936H569.387C569.755 245.936 569.971 245.904 570.035 245.84C570.099 245.776 570.131 245.568 570.131 245.216V239.48C569.587 239.448 568.899 239.416 568.067 239.384C567.235 239.336 566.347 239.312 565.403 239.312H564.179C563.411 239.312 563.027 239.632 563.027 240.272V244.976C563.011 245.616 563.395 245.936 564.179 245.936ZM576.956 252.704C576.188 252.704 575.484 252.616 574.844 252.44C574.204 252.264 573.772 252.104 573.548 251.96L574.268 249.8C574.54 249.912 574.924 250.04 575.42 250.184C575.932 250.344 576.508 250.424 577.148 250.424H577.412C578.148 250.424 578.796 250.2 579.356 249.752C579.932 249.32 580.372 248.736 580.676 248H579.476L574.772 237.248H578.132L580.892 243.872L581.516 245.6H581.756L582.38 243.872L585.188 237.248H588.452L588.068 238.712C587.764 239.336 587.412 240.056 587.012 240.872C586.628 241.672 586.228 242.504 585.812 243.368C585.396 244.232 584.988 245.064 584.588 245.864C584.204 246.664 583.86 247.376 583.556 248C583.092 248.96 582.58 249.792 582.02 250.496C581.476 251.2 580.844 251.744 580.124 252.128C579.42 252.512 578.58 252.704 577.604 252.704H576.956Z" fill="#252525"/>
</g>
<defs>
<filter id="filter0_b_76_4311" x="-70" y="584.551" width="608" height="224" filterUnits="userSpaceOnUse" color-interpolation-filters="sRGB">
<feFlood flood-opacity="0" result="BackgroundImageFix"/>
<feGaussianBlur in="BackgroundImageFix" stdDeviation="35"/>
<feComposite in2="SourceAlpha" operator="in" result="effect1_backgroundBlur_76_4311"/>
<feBlend mode="normal" in="SourceGraphic" in2="effect1_backgroundBlur_76_4311" result="shape"/>
</filter>
<filter id="filter1_d_76_4311" x="-40" y="639.551" width="152" height="152" filterUnits="userSpaceOnUse" color-interpolation-filters="sRGB">
<feFlood flood-opacity="0" result="BackgroundImageFix"/>
<feColorMatrix in="SourceAlpha" type="matrix" values="0 0 0 0 0 0 0 0 0 0 0 0 0 0 0 0 0 0 127 0" result="hardAlpha"/>
<feOffset dy="19"/>
<feGaussianBlur stdDeviation="28"/>
<feComposite in2="hardAlpha" operator="out"/>
<feColorMatrix type="matrix" values="0 0 0 0 0 0 0 0 0 0.321569 0 0 0 0 0.705882 0 0 0 0.16 0"/>
<feBlend mode="normal" in2="BackgroundImageFix" result="effect1_dropShadow_76_4311"/>
<feBlend mode="normal" in="SourceGraphic" in2="effect1_dropShadow_76_4311" result="shape"/>
</filter>
<filter id="filter2_bd_76_4311" x="37" y="0" width="819" height="606" filterUnits="userSpaceOnUse" color-interpolation-filters="sRGB">
<feFlood flood-opacity="0" result="BackgroundImageFix"/>
<feGaussianBlur in="BackgroundImageFix" stdDeviation="35"/>
<feComposite in2="SourceAlpha" operator="in" result="effect1_backgroundBlur_76_4311"/>
<feColorMatrix in="SourceAlpha" type="matrix" values="0 0 0 0 0 0 0 0 0 0 0 0 0 0 0 0 0 0 127 0" result="hardAlpha"/>
<feOffset dy="82"/>
<feGaussianBlur stdDeviation="117.5"/>
<feComposite in2="hardAlpha" operator="out"/>
<feColorMatrix type="matrix" values="0 0 0 0 0 0 0 0 0 0.19 0 0 0 0 0.475 0 0 0 0.21 0"/>
<feBlend mode="normal" in2="effect1_backgroundBlur_76_4311" result="effect2_dropShadow_76_4311"/>
<feBlend mode="normal" in="SourceGraphic" in2="effect2_dropShadow_76_4311" result="shape"/>
</filter>
<filter id="filter3_d_76_4311" x="248" y="140" width="200" height="200" filterUnits="userSpaceOnUse" color-interpolation-filters="sRGB">
<feFlood flood-opacity="0" result="BackgroundImageFix"/>
<feColorMatrix in="SourceAlpha" type="matrix" values="0 0 0 0 0 0 0 0 0 0 0 0 0 0 0 0 0 0 127 0" result="hardAlpha"/>
<feOffset dy="19"/>
<feGaussianBlur stdDeviation="28"/>
<feComposite in2="hardAlpha" operator="out"/>
<feColorMatrix type="matrix" values="0 0 0 0 0 0 0 0 0 0.321569 0 0 0 0 0.705882 0 0 0 0.16 0"/>
<feBlend mode="normal" in2="BackgroundImageFix" result="effect1_dropShadow_76_4311"/>
<feBlend mode="normal" in="SourceGraphic" in2="effect1_dropShadow_76_4311" result="shape"/>
</filter>
<linearGradient id="paint0_linear_76_4311" x1="39.8038" y1="651.313" x2="476.18" y2="651.313" gradientUnits="userSpaceOnUse">
<stop stop-color="#92C3F1"/>
<stop offset="1" stop-color="white"/>
</linearGradient>
<linearGradient id="paint1_linear_76_4311" x1="239.696" y1="480.264" x2="276.289" y2="480.264" gradientUnits="userSpaceOnUse">
<stop offset="0.3375" stop-color="#97B5E1"/>
<stop offset="0.5932" stop-color="#E8F1FF"/>
</linearGradient>
<linearGradient id="paint2_linear_76_4311" x1="244.121" y1="469.358" x2="271.863" y2="469.358" gradientUnits="userSpaceOnUse">
<stop stop-color="#103DB5"/>
<stop offset="0.6426" stop-color="#6BABFD"/>
</linearGradient>
<linearGradient id="paint3_linear_76_4311" x1="257.992" y1="476.19" x2="257.992" y2="425.445" gradientUnits="userSpaceOnUse">
<stop stop-color="#0CFFFC" stop-opacity="0.6"/>
<stop offset="1" stop-color="white" stop-opacity="0"/>
</linearGradient>
<linearGradient id="paint4_linear_76_4311" x1="406.433" y1="577.249" x2="443.026" y2="577.249" gradientUnits="userSpaceOnUse">
<stop offset="0.3375" stop-color="#97B5E1"/>
<stop offset="0.5932" stop-color="#E8F1FF"/>
</linearGradient>
<linearGradient id="paint5_linear_76_4311" x1="410.859" y1="566.344" x2="438.601" y2="566.344" gradientUnits="userSpaceOnUse">
<stop stop-color="#103DB5"/>
<stop offset="0.6426" stop-color="#6BABFD"/>
</linearGradient>
<linearGradient id="paint6_linear_76_4311" x1="424.731" y1="573.176" x2="424.731" y2="522.43" gradientUnits="userSpaceOnUse">
<stop stop-color="#22B4FD" stop-opacity="0.6"/>
<stop offset="1" stop-color="white" stop-opacity="0"/>
</linearGradient>
<linearGradient id="paint7_linear_76_4311" x1="72.9565" y1="577.249" x2="109.55" y2="577.249" gradientUnits="userSpaceOnUse">
<stop offset="0.3375" stop-color="#97B5E1"/>
<stop offset="0.5932" stop-color="#E8F1FF"/>
</linearGradient>
<linearGradient id="paint8_linear_76_4311" x1="77.382" y1="566.344" x2="105.124" y2="566.344" gradientUnits="userSpaceOnUse">
<stop stop-color="#103DB5"/>
<stop offset="0.6426" stop-color="#6BABFD"/>
</linearGradient>
<linearGradient id="paint9_linear_76_4311" x1="91.2529" y1="573.176" x2="91.2529" y2="522.43" gradientUnits="userSpaceOnUse">
<stop stop-color="#22B4FD" stop-opacity="0.6"/>
<stop offset="1" stop-color="white" stop-opacity="0"/>
</linearGradient>
<linearGradient id="paint10_linear_76_4311" x1="129.816" y1="581.972" x2="386.167" y2="581.972" gradientUnits="userSpaceOnUse">
<stop offset="0.3375" stop-color="#97B5E1"/>
<stop offset="0.5932" stop-color="#E8F1FF"/>
</linearGradient>
<linearGradient id="paint11_linear_76_4311" x1="174.252" y1="516.576" x2="341.731" y2="516.576" gradientUnits="userSpaceOnUse">
<stop stop-color="#103DB5"/>
<stop offset="0.6426" stop-color="#6BABFD"/>
</linearGradient>
<linearGradient id="paint12_linear_76_4311" x1="386.167" y1="516.577" x2="129.816" y2="516.577" gradientUnits="userSpaceOnUse">
<stop stop-color="white"/>
<stop offset="1" stop-color="#C9D9F4"/>
</linearGradient>
<linearGradient id="paint13_linear_76_4311" x1="179.461" y1="465.499" x2="179.461" y2="505.773" gradientUnits="userSpaceOnUse">
<stop offset="0.2578" stop-color="white"/>
<stop offset="1" stop-color="white" stop-opacity="0"/>
</linearGradient>
<linearGradient id="paint14_linear_76_4311" x1="336.52" y1="448.884" x2="336.52" y2="489.157" gradientUnits="userSpaceOnUse">
<stop offset="0.2578" stop-color="white"/>
<stop offset="1" stop-color="white" stop-opacity="0"/>
</linearGradient>
<linearGradient id="paint15_linear_76_4311" x1="226.552" y1="481.175" x2="226.552" y2="521.449" gradientUnits="userSpaceOnUse">
<stop offset="0.2578" stop-color="white"/>
<stop offset="1" stop-color="white" stop-opacity="0"/>
</linearGradient>
<linearGradient id="paint16_linear_76_4311" x1="226.552" y1="415.906" x2="226.552" y2="456.18" gradientUnits="userSpaceOnUse">
<stop offset="0.2578" stop-color="white"/>
<stop offset="1" stop-color="white" stop-opacity="0"/>
</linearGradient>
<linearGradient id="paint17_linear_76_4311" x1="257.053" y1="565.844" x2="257.053" y2="312.244" gradientUnits="userSpaceOnUse">
<stop stop-color="#22B4FD" stop-opacity="0.6"/>
<stop offset="1" stop-color="white" stop-opacity="0"/>
</linearGradient>
<linearGradient id="paint18_linear_76_4311" x1="168.916" y1="609.032" x2="163.744" y2="600.074" gradientUnits="userSpaceOnUse">
<stop stop-color="#103DB5"/>
<stop offset="0.6426" stop-color="#6BABFD"/>
</linearGradient>
<linearGradient id="paint19_linear_76_4311" x1="184.202" y1="617.782" x2="179.029" y2="608.824" gradientUnits="userSpaceOnUse">
<stop stop-color="#103DB5"/>
<stop offset="0.6426" stop-color="#6BABFD"/>
</linearGradient>
<linearGradient id="paint20_linear_76_4311" x1="231.736" y1="535.961" x2="272.354" y2="161.143" gradientUnits="userSpaceOnUse">
<stop stop-color="#92C3F1"/>
<stop offset="1" stop-color="white"/>
</linearGradient>
<linearGradient id="paint21_linear_76_4311" x1="239.695" y1="674.236" x2="276.288" y2="674.236" gradientUnits="userSpaceOnUse">
<stop offset="0.3375" stop-color="#97B5E1"/>
<stop offset="0.5932" stop-color="#E8F1FF"/>
</linearGradient>
<linearGradient id="paint22_linear_76_4311" x1="244.121" y1="663.331" x2="271.863" y2="663.331" gradientUnits="userSpaceOnUse">
<stop stop-color="#103DB5"/>
<stop offset="0.6426" stop-color="#6BABFD"/>
</linearGradient>
<linearGradient id="paint23_linear_76_4311" x1="257.992" y1="670.162" x2="257.992" y2="619.416" gradientUnits="userSpaceOnUse">
<stop stop-color="#22B4FD" stop-opacity="0.6"/>
<stop offset="1" stop-color="white" stop-opacity="0"/>
</linearGradient>
<linearGradient id="paint24_linear_76_4311" x1="52.9014" y1="381.249" x2="104.439" y2="341.774" gradientUnits="userSpaceOnUse">
<stop stop-color="#97B5E1"/>
<stop offset="1" stop-color="#ECF1FA"/>
</linearGradient>
<linearGradient id="paint25_linear_76_4311" x1="131.288" y1="361.696" x2="82.7658" y2="334.228" gradientUnits="userSpaceOnUse">
<stop stop-color="white"/>
<stop offset="1" stop-color="#C9D9F4"/>
</linearGradient>
<linearGradient id="paint26_linear_76_4311" x1="453.064" y1="398.628" x2="422.593" y2="375.288" gradientUnits="userSpaceOnUse">
<stop stop-color="#97B5E1"/>
<stop offset="1" stop-color="#ECF1FA"/>
</linearGradient>
<linearGradient id="paint27_linear_76_4311" x1="406.719" y1="387.068" x2="435.407" y2="370.828" gradientUnits="userSpaceOnUse">
<stop stop-color="white"/>
<stop offset="1" stop-color="#C9D9F4"/>
</linearGradient>
<linearGradient id="paint28_linear_76_4311" x1="234" y1="654.551" x2="234" y2="738.551" gradientUnits="userSpaceOnUse">
<stop stop-color="white"/>
<stop offset="1" stop-color="white" stop-opacity="0"/>
</linearGradient>
<linearGradient id="paint29_linear_76_4311" x1="36" y1="676.551" x2="36" y2="716.551" gradientUnits="userSpaceOnUse">
<stop stop-color="#BFE300"/>
<stop offset="1" stop-color="#99B600"/>
</linearGradient>
<linearGradient id="paint30_linear_76_4311" x1="446.5" y1="153" x2="446.5" y2="289" gradientUnits="userSpaceOnUse">
<stop stop-color="white"/>
<stop offset="1" stop-color="white" stop-opacity="0.62"/>
</linearGradient>
<linearGradient id="paint31_linear_76_4311" x1="446.5" y1="153" x2="446.5" y2="289" gradientUnits="userSpaceOnUse">
<stop stop-color="white"/>
<stop offset="1" stop-color="white" stop-opacity="0"/>
</linearGradient>
<linearGradient id="paint32_linear_76_4311" x1="348" y1="177" x2="348" y2="265" gradientUnits="userSpaceOnUse">
<stop stop-color="#BFE300"/>
<stop offset="1" stop-color="#99B600"/>
</linearGradient>
<clipPath id="clip0_76_4311">
<rect width="40" height="40" fill="white" transform="translate(16 676.551)"/>
</clipPath>
</defs>
</svg>
