<svg width="655" height="682" viewBox="0 0 655 682" fill="none" xmlns="http://www.w3.org/2000/svg">
<g clip-path="url(#clip0_30_11263)">
<path d="M333.734 128.893L238.243 275.967L117.683 199.377L187.948 95.711C205.079 70.421 233.678 55.2783 264.253 55.2783H291.173L333.75 128.893H333.734Z" fill="url(#paint0_linear_30_11263)"/>
<path d="M333.734 128.893L238.243 275.967L117.683 199.377L187.948 95.711C205.079 70.421 233.678 55.2783 264.253 55.2783H291.173L333.75 128.893H333.734Z" fill="url(#paint1_linear_30_11263)"/>
<path style="mix-blend-mode:multiply" d="M238.243 275.966L305.606 172.223C305.37 171.988 305.151 171.737 304.9 171.518C296.491 163.798 284.553 159.429 273.367 161.762C258.903 164.769 246.839 178.204 232.156 176.466C223.182 175.401 215.966 168.793 209.863 162.138C199.666 151.02 189.971 138.289 175.821 132.98C172.119 131.586 168.244 130.803 164.322 130.537L117.667 199.376L238.227 275.966H238.243Z" fill="url(#paint2_linear_30_11263)"/>
<path opacity="0.2" d="M206.757 75.385C206.083 76.1367 205.361 76.7474 204.592 77.2172C265.665 63.844 289.902 106.767 294.624 116.71C296.491 121.533 298.483 126.795 300.601 132.573L311.708 162.843L333.734 128.909L300.617 71.6581L285.306 68.996L267.108 65.8327L266.449 55.2939H264.221C243.059 55.2939 222.853 62.5599 206.741 75.4007L206.757 75.385Z" fill="black"/>
<path d="M259.703 55.388C239.247 56.4058 219.919 64.1886 204.592 77.2016C262.464 53.5715 293.714 91.7179 300.084 100.691C302.751 105.122 305.621 109.961 308.696 115.285L364.184 211.215L320.211 236.568L466.264 259.712L545.22 106.908L499.396 133.309L483.567 105.937C465.432 74.5864 431.908 55.2627 395.638 55.2627H257.617C258.323 55.2784 259.029 55.3253 259.735 55.388H259.703Z" fill="#6DC9FE"/>
<path d="M545.189 106.892L499.365 133.294L493.074 122.411C490.58 123.476 488.039 124.415 485.403 125.12C476.273 127.578 465.935 127.203 458.091 121.925C448.866 115.724 444.521 103.933 435.045 98.123C427.092 93.2373 416.738 93.5661 408.047 96.9799C399.356 100.394 392.03 106.532 385.237 112.937C378.193 119.576 369.502 127.234 360.136 124.713C347.037 121.189 345.029 100.926 332.181 96.5258C322.768 93.2999 313.01 100.566 307.033 108.505C306.594 109.085 306.186 109.68 305.763 110.275C306.72 111.903 307.677 113.548 308.681 115.27L353.516 192.784C356.418 192.675 359.305 192.503 362.16 192.33C395.45 190.216 428.849 186.599 462.075 189.543C474.72 190.655 487.788 192.643 500.589 193.176L545.173 106.877L545.189 106.892Z" fill="#3BB2FD"/>
<path d="M469.08 108.083H342.277V132.788C342.277 135.825 344.306 138.863 348.364 141.09L391.578 165.997C399.491 170.655 412.475 170.655 420.388 165.997L463.399 141.09C467.254 138.863 469.283 135.825 469.283 132.788V108.083H469.08Z" fill="url(#paint3_linear_30_11263)"/>
<path d="M463.196 99.9823C471.109 104.64 471.109 111.93 463.399 116.587L420.388 141.494C412.475 146.152 399.693 146.152 391.578 141.494L348.364 116.587C340.451 111.93 340.451 104.64 348.364 99.9823L391.375 75.0751C399.288 70.4177 412.069 70.4177 419.982 75.0751L463.196 99.9823Z" fill="#BCD0F1"/>
<path d="M473.746 98.5656C483.079 104.033 483.282 112.74 473.949 118.208L423.025 147.773C413.692 153.24 398.476 153.24 388.94 147.773L337.814 118.208C328.481 112.74 328.278 104.033 337.814 98.5656L388.738 69.001C398.07 63.5335 413.287 63.5335 422.822 69.001L473.746 98.5656Z" stroke="#00A0F0" stroke-width="0.5" stroke-miterlimit="10"/>
<path d="M469.08 83.3789H342.277V108.084C342.277 111.121 344.306 114.159 348.364 116.386L391.578 141.293C399.491 145.951 412.475 145.951 420.388 141.293L463.399 116.386C467.254 114.159 469.283 111.121 469.283 108.084V83.3789H469.08Z" fill="url(#paint4_linear_30_11263)"/>
<path d="M463.196 75.2782C471.109 79.9357 471.109 87.2256 463.399 91.883L420.388 116.79C412.475 121.448 399.693 121.448 391.578 116.79L348.364 91.883C340.451 87.2256 340.451 79.9357 348.364 75.2782L391.375 50.371C399.288 45.7136 412.069 45.7136 419.982 50.371L463.196 75.2782Z" fill="#2185F8"/>
<path d="M405.577 46.9277V47.9402C410.852 47.9402 415.721 49.1552 419.373 51.1802L462.588 76.0874C466.037 78.1124 468.066 80.7448 468.066 83.5798C468.066 86.4148 466.24 89.0472 462.588 90.8697L419.779 115.777C416.127 118.004 411.258 119.017 405.983 119.017C400.708 119.017 395.839 117.802 392.187 115.777L348.972 90.8697C345.523 88.8447 343.495 86.2123 343.495 83.3773C343.495 80.5423 345.321 77.9099 348.972 75.8849L391.984 50.9777C395.636 48.7502 400.505 47.7377 405.78 47.7377V46.9277M405.577 46.9277C400.302 46.9277 395.23 48.1427 391.172 50.3702L348.161 75.2774C340.248 79.9348 340.248 87.2248 348.161 91.8822L391.375 116.789C395.433 119.017 400.505 120.232 405.78 120.232C411.055 120.232 416.127 119.017 420.185 116.789L463.196 91.8822C471.109 87.2248 471.109 79.9348 462.993 75.2774L419.779 50.3702C415.924 47.9402 410.852 46.9277 405.577 46.9277Z" fill="url(#paint5_linear_30_11263)"/>
<path d="M405.577 56.2448C409.634 56.2448 413.286 57.0548 416.127 58.8773L448.791 77.7096C451.631 79.3296 453.052 81.3545 453.052 83.582C453.052 85.8095 451.631 87.8345 448.791 89.4544L416.329 108.287C413.489 109.907 409.837 110.919 405.779 110.919C401.722 110.919 398.07 110.109 395.229 108.287L362.565 89.4544C359.725 87.8345 358.304 85.8095 358.304 83.582C358.304 81.3545 359.725 79.3296 362.565 77.7096L395.027 58.8773C397.867 57.2573 401.519 56.2448 405.577 56.2448ZM405.577 55.8398C401.722 55.8398 397.664 56.6498 394.824 58.4723L362.362 77.3046C356.276 80.747 356.479 86.417 362.362 89.8594L395.027 108.692C398.07 110.514 401.925 111.324 405.982 111.324C409.837 111.324 413.895 110.514 416.938 108.692L449.4 89.8594C455.283 86.417 455.283 80.747 449.4 77.3046L416.735 58.4723C413.489 56.6498 409.634 55.8398 405.577 55.8398Z" fill="url(#paint6_linear_30_11263)"/>
<path d="M424.648 121.851C423.634 122.459 423.025 123.673 423.025 124.888V130.558C423.025 131.571 423.836 132.178 424.851 131.571L457.515 112.739C458.53 112.131 459.138 110.916 459.138 109.701V104.031C459.138 103.019 458.327 102.411 457.312 103.019L424.648 121.851Z" fill="#00A0F0"/>
<path d="M423.228 130.558L455.892 111.726C456.907 111.118 457.515 109.903 457.515 108.688V103.018C458.327 102.613 459.138 103.018 459.138 104.031V109.701C459.138 110.713 458.327 112.131 457.515 112.738L424.648 131.571C423.837 131.976 423.025 131.571 423.228 130.558C423.025 130.558 423.025 130.558 423.228 130.558Z" fill="#1964BA"/>
<path d="M355.667 139.266L357.087 138.456C357.29 138.254 357.493 137.849 357.493 137.444C357.493 136.431 356.681 135.216 355.87 134.609C355.464 134.406 355.058 134.406 354.653 134.406L353.232 135.216L355.667 139.266Z" fill="url(#paint7_linear_30_11263)"/>
<path d="M355.548 139.43C356.131 139.096 356.107 137.96 355.494 136.893C354.88 135.826 353.91 135.232 353.327 135.565C352.744 135.899 352.769 137.035 353.382 138.102C353.995 139.169 354.965 139.764 355.548 139.43Z" fill="#2185F8"/>
<path d="M355.144 138.722C355.533 138.5 355.532 137.769 355.141 137.09C354.751 136.411 354.12 136.04 353.731 136.263C353.342 136.486 353.343 137.216 353.733 137.896C354.124 138.575 354.755 138.945 355.144 138.722Z" fill="#00A0F0"/>
<path d="M362.363 143.115L363.783 142.305C363.986 142.102 364.189 141.697 364.189 141.292C364.189 140.28 363.377 139.065 362.566 138.457C362.16 138.255 361.754 138.255 361.348 138.255L359.928 139.065L362.363 143.115Z" fill="url(#paint8_linear_30_11263)"/>
<path d="M362.159 143.073C362.742 142.739 362.718 141.604 362.104 140.537C361.491 139.47 360.521 138.875 359.938 139.209C359.355 139.543 359.379 140.679 359.993 141.746C360.606 142.813 361.576 143.407 362.159 143.073Z" fill="#2185F8"/>
<path d="M361.755 142.372C362.143 142.149 362.142 141.418 361.752 140.739C361.362 140.06 360.73 139.69 360.342 139.912C359.953 140.135 359.954 140.866 360.344 141.545C360.734 142.224 361.366 142.594 361.755 142.372Z" fill="#FFE200"/>
<path d="M423.025 124.89C423.025 123.877 423.837 122.46 424.648 121.852L457.313 103.02C457.718 102.817 458.124 102.817 458.327 102.817L466.442 105.45C466.848 105.652 467.051 106.057 467.051 106.665V113.752C467.051 114.967 466.239 116.587 465.022 117.195L428.909 138.862C428.097 139.267 427.286 138.862 427.083 138.457C425.46 136.432 423.228 131.37 423.228 131.37C423.228 131.37 422.822 131.167 422.822 130.357L423.025 124.89Z" fill="url(#paint9_linear_30_11263)"/>
<path d="M463.196 67.2304C471.108 71.8878 471.108 79.1777 463.399 83.8352L420.387 108.742C412.475 113.4 399.693 113.4 391.577 108.742L348.363 83.8352C340.451 79.1777 340.451 71.8878 348.363 67.2304L391.375 42.3232C399.287 37.6657 412.069 37.6657 419.981 42.3232L463.196 67.2304Z" fill="#BCD0F1"/>
<path d="M469.282 50.8281H342.479V75.5328C342.479 78.5703 344.508 81.6078 348.566 83.8352L391.78 108.742C399.693 113.4 412.677 113.4 420.59 108.742L463.601 83.8352C467.456 81.6078 469.485 78.5703 469.485 75.5328V50.8281H469.282Z" fill="url(#paint10_linear_30_11263)"/>
<path d="M463.196 42.5253C471.109 47.1827 471.109 54.4726 463.399 59.1301L420.388 84.0373C412.475 88.6947 399.693 88.6947 391.578 84.0373L348.364 59.1301C340.451 54.4726 340.451 47.1827 348.364 42.5253L391.375 17.6181C399.288 12.9606 412.069 12.9606 419.982 17.6181L463.196 42.5253Z" fill="#BCD0F1"/>
<path d="M405.576 14.1758V15.1883C410.851 15.1883 415.721 16.4033 419.373 18.4282L462.587 43.3355C466.036 45.3604 468.065 47.9929 468.065 50.8279C468.065 53.6628 466.239 56.2953 462.587 58.1178L419.778 83.2275C416.126 85.4549 411.257 86.4675 405.982 86.4675C400.707 86.4675 395.838 85.2524 392.186 83.2275L348.972 58.3203C345.523 56.2953 343.494 53.6628 343.494 50.8279C343.494 47.9929 345.32 45.3604 348.972 43.3355L391.983 18.4282C395.635 16.2008 400.504 15.1883 405.779 15.1883V14.1758M405.576 14.1758C400.301 14.1758 395.229 15.3908 391.172 17.6183L348.363 42.5254C340.451 47.1829 340.451 54.4728 348.363 59.1303L391.577 84.0375C395.635 86.2649 400.707 87.4799 405.982 87.4799C411.257 87.4799 416.329 86.2649 420.387 84.0375L463.399 59.1303C471.311 54.4728 471.311 47.1829 463.196 42.5254L419.981 17.6183C416.126 15.3908 410.851 14.1758 405.576 14.1758Z" fill="url(#paint11_linear_30_11263)"/>
<g opacity="0.5">
<path d="M405.779 23.4899C409.837 23.4899 413.489 24.2999 416.329 26.1224L448.994 44.9547C451.834 46.5747 453.254 48.5996 453.254 50.8271C453.254 53.0546 451.834 55.0796 448.994 56.6995L416.532 75.5318C413.692 77.1518 410.04 78.1643 405.982 78.1643C401.924 78.1643 398.272 77.3543 395.432 75.5318L362.768 56.6995C359.927 55.0796 358.507 53.0546 358.507 50.8271C358.507 48.5996 359.927 46.5747 362.768 44.9547L395.229 26.1224C398.07 24.5024 401.721 23.4899 405.779 23.4899ZM405.779 23.085C401.924 23.085 397.867 23.895 395.026 25.7174L362.565 44.5497C356.478 47.9921 356.681 53.6621 362.565 57.1046L395.229 75.9368C398.272 77.7593 402.127 78.5693 406.185 78.5693C410.04 78.5693 414.097 77.7593 417.141 75.9368L449.602 57.1046C455.486 53.6621 455.486 47.9921 449.602 44.5497L416.938 25.7174C413.489 23.895 409.634 23.085 405.779 23.085Z" fill="url(#paint12_linear_30_11263)"/>
</g>
<path d="M424.648 89.3041C423.634 89.9116 423.025 91.1266 423.025 92.3416V98.0116C423.025 99.024 423.836 99.6315 424.851 99.024L457.515 80.1918C458.53 79.5843 459.138 78.3693 459.138 77.1543V71.4844C459.138 70.4719 458.327 69.8644 457.312 70.4719L424.648 89.3041Z" fill="#00A0F0"/>
<path d="M423.228 97.8081L455.892 78.9758C456.907 78.3684 457.515 77.1534 457.515 75.9384V70.2685C458.327 69.8635 459.138 70.2685 459.138 71.281V76.9509C459.138 77.9634 458.327 79.3808 457.515 79.9883L424.851 98.8206C423.837 99.4281 423.025 99.0231 423.228 97.8081C423.025 97.8081 423.025 97.8081 423.228 97.8081Z" fill="#1964BA"/>
<path d="M355.668 80.5953L357.088 79.7853C357.291 79.5828 357.493 79.1778 357.493 78.7728C357.493 77.7603 356.682 76.5453 355.87 75.9378C355.465 75.7353 355.059 75.7354 354.653 75.7354L353.233 76.5453L355.668 80.5953Z" fill="url(#paint13_linear_30_11263)"/>
<path d="M355.482 80.5762C356.065 80.2423 356.041 79.1067 355.428 78.0396C354.814 76.9725 353.845 76.3781 353.261 76.7119C352.678 77.0458 352.703 78.1814 353.316 79.2485C353.929 80.3156 354.899 80.91 355.482 80.5762Z" fill="#2185F8"/>
<path d="M355.078 79.8725C355.467 79.6499 355.466 78.919 355.076 78.24C354.686 77.5609 354.054 77.1909 353.665 77.4134C353.277 77.636 353.278 78.3669 353.668 79.0459C354.058 79.725 354.69 80.095 355.078 79.8725Z" fill="#00A0F0"/>
<path d="M362.363 84.442L363.783 83.632C363.986 83.4295 364.189 83.0245 364.189 82.6195C364.189 81.607 363.377 80.392 362.566 79.7845C362.16 79.582 361.754 79.582 361.348 79.582L359.928 80.392L362.363 84.442Z" fill="url(#paint14_linear_30_11263)"/>
<path d="M362.194 84.3975C362.777 84.0636 362.753 82.928 362.14 81.8609C361.526 80.7938 360.556 80.1994 359.973 80.5333C359.39 80.8671 359.415 82.0027 360.028 83.0698C360.641 84.1369 361.611 84.7313 362.194 84.3975Z" fill="#2185F8"/>
<path d="M361.79 83.6948C362.179 83.4722 362.178 82.7413 361.788 82.0623C361.398 81.3832 360.766 81.0132 360.377 81.2357C359.988 81.4583 359.99 82.1892 360.38 82.8682C360.77 83.5473 361.402 83.9173 361.79 83.6948Z" fill="#FFE200"/>
<path d="M423.025 92.1367C423.025 91.1242 423.836 89.7067 424.648 89.0992L457.312 70.267C457.718 70.0645 458.124 70.0645 458.327 70.0645L466.442 72.6969C466.848 72.8994 467.051 73.3044 467.051 73.9119V80.9993C467.051 82.2143 466.239 83.8343 465.022 84.4418L428.908 106.109C428.097 106.514 427.285 106.109 427.082 105.704C425.459 103.679 423.228 98.6166 423.228 98.6166C423.228 98.6166 422.822 98.4141 422.822 97.6041L423.025 92.1367Z" fill="url(#paint15_linear_30_11263)"/>
<path d="M463.173 136.677C446.246 133.482 428.864 133.576 411.639 134.39C399.873 134.938 388.107 135.815 376.53 137.992C360.685 140.967 345.311 146.432 331.098 154.027L352.104 190.342C357.187 193.567 362.505 196.151 367.917 197.764C384.091 202.603 401.301 201.836 418.181 202.274C440.614 202.838 463.173 205.594 485.403 202.587C489.215 202.07 493.058 201.35 496.855 200.442L518.881 157.817C501.185 148.374 482.799 140.372 463.173 136.661V136.677Z" fill="url(#paint16_linear_30_11263)"/>
<path style="mix-blend-mode:screen" d="M463.173 136.677C446.246 133.482 428.864 133.576 411.639 134.39C399.873 134.938 388.107 135.815 376.53 137.992C360.685 140.967 345.311 146.432 331.098 154.027L352.104 190.342C357.187 193.567 362.505 196.151 367.917 197.764C384.091 202.603 401.301 201.836 418.181 202.274C440.614 202.838 463.173 205.594 485.403 202.587C489.215 202.07 493.058 201.35 496.855 200.442L518.881 157.817C501.185 148.374 482.799 140.372 463.173 136.661V136.677Z" fill="url(#paint17_linear_30_11263)"/>
<g style="mix-blend-mode:screen">
<path d="M511.084 169.764L517.249 157.832C516.716 157.55 516.167 157.268 515.633 156.986C497.859 158.129 480.163 160.713 462.562 163.563C425.037 169.655 386.257 177.939 348.465 186.88L350.473 190.341C355.556 193.567 360.874 196.151 366.286 197.764C382.46 202.602 399.67 201.835 416.55 202.273C420.723 202.383 424.911 202.555 429.1 202.775C442.529 195.101 456.6 188.571 471.143 183.31C484.634 178.424 498.095 174.666 511.084 169.764Z" fill="url(#paint18_linear_30_11263)"/>
<path d="M344.621 180.24C346.143 179.566 347.649 178.893 349.171 178.235C363.886 171.909 378.868 166.131 394.367 162.075C431.265 152.429 471.284 152.397 509.907 154.042C505.64 151.896 501.326 149.845 496.949 147.95C482.862 145.695 468.554 144.552 454.279 143.957C413.553 142.25 371.024 145.398 334.816 163.312L344.606 180.24H344.621Z" fill="url(#paint19_linear_30_11263)"/>
</g>
<path d="M524.874 488.215L445.023 332.122L571.749 266.195L626.562 378.771C639.928 406.222 638.782 438.512 623.487 464.945L610.027 488.215H524.858H524.874Z" fill="url(#paint20_linear_30_11263)"/>
<path d="M524.874 488.215L445.023 332.122L571.749 266.195L626.562 378.771C639.928 406.222 638.782 438.512 623.487 464.945L610.027 488.215H524.858H524.874Z" fill="url(#paint21_linear_30_11263)"/>
<path d="M626.577 378.756L608.364 341.361C607.768 341.753 607.172 342.128 606.544 342.473C598.936 346.67 589.507 347.437 581.318 344.509C574.416 342.034 568.674 337.211 562.399 333.406C556.124 329.617 548.562 326.767 541.534 328.865C537.534 330.055 534.145 332.717 531.133 335.598C526.568 339.936 522.583 344.853 519.289 350.209C515.367 356.582 511.398 364.365 504.009 365.618C498.079 366.62 492.353 362.736 488.572 358.085C484.776 353.435 482.172 347.875 478.077 343.475C473.998 339.075 467.629 335.912 461.997 338.01C458.42 339.341 455.895 342.504 453.714 345.621C453.369 346.122 453.039 346.623 452.71 347.124L500.165 439.89C517.03 433.658 532.623 421.851 550.554 418.907C564.595 416.605 578.934 419.925 593.162 419.533C608.128 419.11 623.204 414.256 634.766 404.876C633.37 395.919 630.656 387.118 626.593 378.772L626.577 378.756Z" fill="#1FA5FD" style="mix-blend-mode:multiply"/>
<path d="M626.577 378.756L627.569 378.689C626.973 379.081 626.377 379.457 625.749 379.801C618.141 383.998 608.712 384.765 600.523 381.837C593.621 379.363 587.879 374.539 581.604 370.734C575.329 366.945 567.767 364.095 560.739 366.193C556.739 367.383 553.35 370.045 550.338 372.927C545.773 377.264 541.788 382.181 538.494 387.537C534.572 393.91 530.603 401.693 523.214 402.946C517.284 403.948 511.558 400.064 507.777 395.414C503.981 390.763 501.377 385.204 497.282 380.803C493.203 376.403 486.834 373.24 481.202 375.338C477.625 376.669 475.1 379.832 472.919 382.949C472.574 383.45 472.244 383.951 471.915 384.452L500.165 439.89C517.231 471.65 521.537 489.223 539.469 486.279C553.509 483.977 585.382 474.059 599.611 473.668C617.3 451.977 634.766 429.277 634.766 404.876C633.37 395.918 630.656 387.118 626.593 378.771L626.577 378.756Z" fill="#BFE300" style="mix-blend-mode:multiply"/>
<path d="M105.979 466.308L281.321 475.327L275.156 617.844L150.078 608.949C119.581 606.773 92.1429 589.641 76.8473 563.208L63.3872 539.938L105.964 466.323L105.979 466.308Z" fill="url(#paint22_linear_30_11263)"/>
<path d="M105.979 466.308L281.321 475.327L275.156 617.844L150.078 608.949C119.581 606.773 92.1429 589.641 76.8473 563.208L63.3872 539.938L105.964 466.323L105.979 466.308Z" fill="url(#paint23_linear_30_11263)"/>
<path style="mix-blend-mode:multiply" d="M63.4028 539.937L76.8629 563.207C92.1585 589.64 119.596 606.787 150.093 608.948L275.172 617.843L280.035 505.455C274.936 498.816 268.85 493.648 260.598 491.831C246.149 488.653 232.093 497.923 220.72 507.381C209.346 516.84 197.188 527.551 182.394 527.926C165.405 528.349 151.584 515.117 135.912 508.571C117.024 500.679 94.5744 504.108 77.6316 515.368L63.4028 539.953V539.937Z" fill="url(#paint24_linear_30_11263)"/>
<path d="M177.798 195.635C174.488 188.463 168.558 182.528 161.373 179.208C162.204 187.57 165.718 195.979 171.146 202.4C173.703 200.364 175.241 197.67 177.798 195.635Z" fill="#BFE300"/>
<path d="M170.017 203.433C162.157 204.357 154.658 208.146 149.277 213.924C157.498 215.725 166.612 215.005 174.393 211.842C173.248 208.788 171.162 206.486 170.001 203.433H170.017Z" fill="#BFE300"/>
<path d="M182.912 201.741C184.088 193.927 182.41 185.722 178.237 179.004C174.331 186.442 172.636 195.399 173.64 203.746C176.888 203.448 179.664 202.039 182.927 201.741H182.912Z" fill="#BFE300"/>
<path d="M178.143 199.784C167.412 192.298 153.984 188.759 140.963 190.012C149.136 201.256 161.2 210.354 174.315 214.989C176.26 209.962 176.213 204.81 178.159 199.784H178.143Z" fill="#D2FA00"/>
<path d="M185.688 195.635C188.999 188.463 194.929 182.528 202.114 179.208C201.282 187.57 197.768 195.979 192.34 202.4C189.783 200.364 188.246 197.67 185.688 195.635Z" fill="#BFE300"/>
<path d="M193.485 203.433C201.345 204.357 208.844 208.146 214.224 213.924C206.004 215.725 196.905 215.005 189.108 211.842C190.254 208.788 192.34 206.486 193.501 203.433H193.485Z" fill="#BFE300"/>
<path d="M180.59 201.741C179.413 193.927 181.092 185.722 185.265 179.004C189.171 186.442 190.865 195.399 189.861 203.746C186.614 203.448 183.837 202.039 180.574 201.741H180.59Z" fill="#BFE300"/>
<path d="M185.359 199.784C196.089 192.298 209.518 188.759 222.539 190.012C214.366 201.256 202.302 210.354 189.187 214.989C187.241 209.962 187.289 204.81 185.343 199.784H185.359Z" fill="#D2FA00"/>
<path d="M161.765 547.204C158.376 539.86 152.305 533.784 144.947 530.37C145.794 538.936 149.403 547.548 154.956 554.125C157.56 552.043 159.16 549.271 161.765 547.188V547.204Z" fill="#BFE300"/>
<path d="M153.78 555.189C145.732 556.129 138.061 560.013 132.539 565.932C140.963 567.78 150.281 567.028 158.266 563.802C157.09 560.686 154.956 558.321 153.78 555.189Z" fill="#BFE300"/>
<path d="M166.989 553.452C168.197 545.45 166.471 537.041 162.188 530.166C158.188 537.792 156.447 546.969 157.482 555.503C160.808 555.19 163.663 553.749 166.989 553.452Z" fill="#BFE300"/>
<path d="M162.11 551.447C151.128 543.774 137.37 540.157 124.036 541.441C132.413 552.95 144.759 562.268 158.188 567.028C160.18 561.876 160.133 556.615 162.11 551.463V551.447Z" fill="#D2FA00"/>
<path d="M169.844 547.204C173.233 539.86 179.304 533.784 186.662 530.37C185.814 538.936 182.206 547.548 176.653 554.125C174.049 552.043 172.448 549.271 169.844 547.188V547.204Z" fill="#BFE300"/>
<path d="M177.813 555.189C185.861 556.129 193.532 560.013 199.055 565.932C190.63 567.78 181.312 567.028 173.327 563.802C174.503 560.686 176.637 558.321 177.813 555.189Z" fill="#BFE300"/>
<path d="M164.62 553.452C163.412 545.45 165.138 537.041 169.42 530.166C173.421 537.792 175.162 546.969 174.127 555.503C170.801 555.19 167.946 553.749 164.62 553.452Z" fill="#BFE300"/>
<path d="M169.499 551.447C180.48 543.774 194.239 540.157 207.573 541.441C199.196 552.95 186.85 562.268 173.421 567.028C171.429 561.876 171.476 556.615 169.499 551.463V551.447Z" fill="#D2FA00"/>
<path d="M211.009 541.442C207.62 534.098 201.549 528.022 194.191 524.608C195.039 533.174 198.647 541.787 204.2 548.364C206.804 546.281 208.405 543.509 211.009 541.427V541.442Z" fill="#BFE300"/>
<path d="M203.04 549.428C194.992 550.367 187.32 554.251 181.798 560.17C190.223 562.018 199.541 561.266 207.526 558.04C206.35 554.924 204.216 552.56 203.04 549.428Z" fill="#BFE300"/>
<path d="M216.233 547.69C217.441 539.688 215.715 531.279 211.432 524.404C207.432 532.03 205.691 541.207 206.726 549.741C210.052 549.428 212.907 547.987 216.233 547.69Z" fill="#BFE300"/>
<path d="M211.354 545.701C200.373 538.028 186.614 534.411 173.28 535.695C181.657 547.204 194.003 556.522 207.432 561.282C209.424 556.13 209.377 550.869 211.354 545.717V545.701Z" fill="#D2FA00"/>
<path d="M219.088 541.442C222.476 534.098 228.548 528.022 235.905 524.608C235.058 533.174 231.45 541.787 225.896 548.364C223.292 546.281 221.692 543.509 219.088 541.427V541.442Z" fill="#BFE300"/>
<path d="M227.073 549.428C235.12 550.367 242.792 554.251 248.314 560.17C239.89 562.018 230.571 561.266 222.586 558.04C223.763 554.924 225.896 552.56 227.073 549.428Z" fill="#BFE300"/>
<path d="M213.864 547.69C212.656 539.688 214.381 531.279 218.664 524.404C222.665 532.03 224.406 541.207 223.37 549.741C220.045 549.428 217.19 547.987 213.864 547.69Z" fill="#BFE300"/>
<path d="M218.743 545.701C229.724 538.028 243.482 534.411 256.817 535.695C248.44 547.204 236.093 556.522 222.665 561.282C220.672 556.13 220.719 550.869 218.743 545.717V545.701Z" fill="#D2FA00"/>
<path d="M171.837 558.48V499.819H159.757V560.249C163.773 559.56 167.789 558.981 171.837 558.48Z" fill="#008598"/>
<path d="M171.837 558.48V499.819H159.757V560.249C163.773 559.56 167.789 558.981 171.837 558.48Z" fill="url(#paint25_linear_30_11263)"/>
<path d="M130.625 465.54H135.77H159.898H165.044H194.301L205.173 495.34L206.836 499.897L217.692 529.681H188.419H183.289H159.161H154.015H124.742L113.886 499.897L112.223 495.34L101.352 465.54H130.625Z" fill="#B4D5F5"/>
<g style="mix-blend-mode:screen">
<path d="M175.178 495.575H200.921L191.556 469.862H165.796L175.178 495.575Z" fill="#B4D6F5"/>
<path d="M145.905 495.575H171.648L162.283 469.862H136.539L145.905 495.575Z" fill="#B4D6F5"/>
<path d="M116.631 495.575H142.39L133.009 469.862H107.266L116.631 495.575Z" fill="#B4D6F5"/>
<path d="M186.034 525.359H211.793L202.412 499.662H176.668L186.034 525.359Z" fill="#B4EBFB"/>
<path d="M156.761 525.359H182.52L173.139 499.662H147.395L156.761 525.359Z" fill="#B4D6F5"/>
<path d="M127.503 525.359H153.246L143.881 499.662H118.122L127.503 525.359Z" fill="#B4D6F5"/>
</g>
<path d="M223.292 566.479V457.771H214.413V567.779C217.362 567.278 220.327 566.84 223.292 566.479Z" fill="#008598"/>
<path d="M223.292 566.479V457.771H214.413V567.779C217.362 567.278 220.327 566.84 223.292 566.479Z" fill="url(#paint26_linear_30_11263)"/>
<path d="M192.999 432.576H196.78H214.507H218.288H239.796L247.781 454.468L249.004 457.819L256.99 479.727H235.482H231.701H213.958H210.177H188.669L180.684 457.819L179.461 454.468L171.476 432.576H192.999Z" fill="#B4D5F5"/>
<g style="mix-blend-mode:screen">
<path d="M225.739 454.64H244.659L237.772 435.755H218.853L225.739 454.64Z" fill="#B4D6F5"/>
<path d="M204.232 454.64H223.151L216.264 435.755H197.329L204.232 454.64Z" fill="#B4D6F5"/>
<path d="M182.708 454.64H201.643L194.756 435.755H175.821L182.708 454.64Z" fill="#B4D6F5"/>
<path d="M233.725 476.547H252.644L245.757 457.646H226.838L233.725 476.547Z" fill="#B4D6F5"/>
<path d="M212.217 476.547H231.136L224.25 457.646H205.314L212.217 476.547Z" fill="#B4D6F5"/>
<path d="M190.693 476.547H209.628L202.741 457.646H183.806L190.693 476.547Z" fill="#B4D6F5"/>
</g>
<path d="M379.668 337.352C379.668 304.045 351.43 277.314 317.544 279.71C289.165 281.714 266.167 304.562 264.018 332.874C262.653 350.929 269.602 367.372 281.447 378.834C290.828 387.917 295.785 400.648 295.785 413.708V438.168H347.712V414.303C347.712 400.945 352.779 387.932 362.333 378.568C373.032 368.092 379.652 353.497 379.652 337.352H379.668Z" fill="#FFDC4E"/>
<path opacity="0.1" d="M379.668 337.352C379.668 307.036 356.293 282.184 326.549 279.757C330.989 283.562 334.518 288.683 337.279 293.897C348.622 315.288 351.053 342.285 339.554 363.598C334.487 372.978 327.067 380.839 320.776 389.436C314.485 398.033 309.12 407.992 309.23 418.656C321.513 423.683 334.597 426.439 347.727 426.846V414.287C347.727 400.93 352.795 387.917 362.348 378.552C373.047 368.076 379.668 353.481 379.668 337.337V337.352Z" fill="black"/>
<path d="M308.508 441.659H335.021V457.413C335.021 461.124 332.009 464.131 328.291 464.131H315.238C311.52 464.131 308.508 461.124 308.508 457.413V441.644V441.659Z" fill="#DEDEDE"/>
<path opacity="0.2" d="M308.508 441.659H335.021V457.413C335.021 461.124 332.009 464.131 328.291 464.131H315.238C311.52 464.131 308.508 461.124 308.508 457.413V441.644V441.659Z" fill="black"/>
<path d="M295.644 412.878H347.869V443.915C347.869 451.212 341.923 457.147 334.612 457.147H308.9C301.59 457.147 295.644 451.212 295.644 443.915V412.878Z" fill="#DEDEDE"/>
<path d="M291.487 434.19L352.041 427.833C354.661 427.551 356.795 425.202 356.795 422.587C356.795 419.972 354.661 418.061 352.041 418.343L291.487 424.701C288.867 424.983 286.733 427.332 286.733 429.947C286.733 432.562 288.867 434.472 291.487 434.19Z" fill="#DEDEDE"/>
<path d="M291.487 450.899L352.041 444.542C354.661 444.26 356.795 441.911 356.795 439.296C356.795 436.681 354.661 434.77 352.041 435.052L291.487 441.41C288.867 441.692 286.733 444.041 286.733 446.656C286.733 449.271 288.867 451.181 291.487 450.899Z" fill="#DEDEDE"/>
<path opacity="0.2" d="M291.487 434.19L352.041 427.833C354.661 427.551 356.795 425.202 356.795 422.587C356.795 419.972 354.661 418.061 352.041 418.343L291.487 424.701C288.867 424.983 286.733 427.332 286.733 429.947C286.733 432.562 288.867 434.472 291.487 434.19Z" fill="black"/>
<path opacity="0.2" d="M291.487 450.899L352.041 444.542C354.661 444.26 356.795 441.911 356.795 439.296C356.795 436.681 354.661 434.77 352.041 435.052L291.487 441.41C288.867 441.692 286.733 444.041 286.733 446.656C286.733 449.271 288.867 451.181 291.487 450.899Z" fill="black"/>
<path d="M348.48 415.101H295.032C293.809 415.101 292.82 414.115 292.82 412.894C292.82 411.672 293.809 410.686 295.032 410.686H348.48C349.704 410.686 350.692 411.672 350.692 412.894C350.692 414.115 349.704 415.101 348.48 415.101Z" fill="#DEDEDE"/>
<path opacity="0.2" d="M348.48 415.101H295.032C293.809 415.101 292.82 414.115 292.82 412.894C292.82 411.672 293.809 410.686 295.032 410.686H348.48C349.704 410.686 350.692 411.672 350.692 412.894C350.692 414.115 349.704 415.101 348.48 415.101Z" fill="black"/>
<path opacity="0.4" d="M302.374 289.685C291.455 294.884 282.356 303.778 276.897 314.552C271.438 325.325 269.681 337.916 271.955 349.77C272.881 338.464 277.948 326.86 285.212 318.138C292.475 309.415 302.484 303.011 313.45 300.051C309.512 296.512 306.312 293.224 302.374 289.7V289.685Z" fill="white"/>
<path d="M492.007 59.3805C490.737 53.9154 489.45 48.4033 488.948 43.3609C488.43 38.3186 488.729 33.7147 490.486 31.2249C492.227 28.7194 495.6 28.6567 499.208 31.9452C503.679 36.0167 507.428 44.1283 508.966 50.8775C510.503 57.6267 510.284 63.3424 510.048 68.8702C511.507 68.3847 514.064 71.2661 515.994 73.7089C517.923 76.1362 519.508 79.6439 520.01 82.5878C520.7 86.6593 519.32 89.1491 517.202 89.6033C513.594 90.3862 508.181 86.0329 503.679 79.9884C499.192 73.9595 493.686 66.5996 492.007 59.3805Z" fill="#FFDC4E"/>
<path opacity="0.1" d="M492.007 59.3805C490.737 53.9154 489.45 48.4033 488.948 43.3609C488.43 38.3186 488.729 33.7147 490.486 31.2249C492.227 28.7194 495.6 28.6567 499.208 31.9452C503.679 36.0167 507.428 44.1283 508.966 50.8775C510.503 57.6267 510.284 63.3424 510.048 68.8702C511.507 68.3847 514.064 71.2661 515.994 73.7089C517.923 76.1362 519.508 79.6439 520.01 82.5878C520.7 86.6593 519.32 89.1491 517.202 89.6033C513.594 90.3862 508.181 86.0329 503.679 79.9884C499.192 73.9595 493.686 66.5996 492.007 59.3805Z" fill="black"/>
<path d="M494.486 60.1171C493.827 58.9739 493.137 57.7995 492.07 57.0165C491.003 56.2492 489.435 55.9986 488.384 56.8129C487.254 57.6898 487.176 59.4437 487.834 60.7121C488.478 61.9805 489.67 62.8731 490.815 63.7187C490.721 66.005 491.568 68.0721 492.776 70.0138C496.259 75.6199 500.62 80.6936 505.656 84.9686C506.519 85.7046 507.444 86.4249 508.558 86.6442C509.672 86.8477 510.99 86.3623 511.35 85.2818C511.57 84.6241 511.382 83.9194 511.193 83.2617C508.527 74.3202 502.597 64.7523 494.486 60.1171Z" fill="#C2A73B"/>
<path d="M492.698 59.0366C492.776 52.9294 492.855 46.7752 494.235 40.8246C495.616 34.874 498.439 29.0801 503.13 25.1809C507.836 21.2816 514.613 19.5904 520.277 21.8924C527.289 24.7424 530.913 32.9166 530.74 40.4801C530.568 48.0436 527.399 55.1687 524.293 62.0588C527.446 60.7748 531.18 63.0924 533.878 65.1594C536.592 67.2265 538.082 70.7655 537.674 74.1479C537.094 78.8301 533.125 82.5414 528.685 84.123C521.077 86.8008 512.307 84.0447 506.205 78.7831C500.102 73.5215 492.604 67.1168 492.698 59.0522V59.0366Z" fill="#FFDC4E"/>
<path d="M81.4436 226.907C82.7143 221.442 84.0007 215.93 84.5028 210.887C85.0204 205.845 84.7224 201.241 82.9653 198.751C81.224 196.246 77.8512 196.183 74.243 199.472C69.772 203.543 66.0226 211.655 64.4852 218.404C62.9478 225.153 63.1674 230.869 63.4027 236.397C61.9438 235.911 59.3867 238.792 57.4571 241.235C55.5275 243.663 53.943 247.17 53.441 250.114C52.7508 254.186 54.1313 256.676 56.2491 257.13C59.8573 257.913 65.2696 253.559 69.772 247.515C74.2587 241.486 79.765 234.126 81.4436 226.907Z" fill="#FF874E"/>
<path opacity="0.1" d="M81.4436 226.907C82.7143 221.442 84.0007 215.93 84.5028 210.887C85.0204 205.845 84.7224 201.241 82.9653 198.751C81.224 196.246 77.8512 196.183 74.243 199.472C69.772 203.543 66.0226 211.655 64.4852 218.404C62.9478 225.153 63.1674 230.869 63.4027 236.397C61.9438 235.911 59.3867 238.792 57.4571 241.235C55.5275 243.663 53.943 247.17 53.441 250.114C52.7508 254.186 54.1313 256.676 56.2491 257.13C59.8573 257.913 65.2696 253.559 69.772 247.515C74.2587 241.486 79.765 234.126 81.4436 226.907Z" fill="black"/>
<path d="M78.9496 227.642C79.6085 226.499 80.2987 225.325 81.3655 224.542C82.4322 223.775 84.001 223.524 85.0521 224.338C86.1816 225.215 86.2601 226.969 85.6012 228.238C84.958 229.506 83.7657 230.399 82.6205 231.244C82.7146 233.53 81.8675 235.597 80.6595 237.539C77.1768 243.145 72.8157 248.219 67.7799 252.494C66.9171 253.23 65.9915 253.95 64.8777 254.17C63.7638 254.373 62.4461 253.888 62.0852 252.807C61.8656 252.149 62.0539 251.445 62.2421 250.787C64.909 241.846 70.839 232.278 78.9496 227.642Z" fill="#C2663B"/>
<path d="M80.7377 226.578C80.6593 220.47 80.5808 214.316 79.2003 208.366C77.8198 202.415 74.996 196.621 70.3054 192.722C65.599 188.823 58.8219 187.131 53.1586 189.433C46.1462 192.283 42.5224 200.458 42.6949 208.021C42.8675 215.585 46.0364 222.71 49.1426 229.6C45.9893 228.316 42.2557 230.633 39.5574 232.7C36.8434 234.767 35.353 238.306 35.7609 241.689C36.3414 246.371 40.3104 250.082 44.75 251.664C52.3586 254.342 61.128 251.586 67.2306 246.324C73.3331 241.063 80.8318 234.658 80.7377 226.593V226.578Z" fill="#FF874E"/>
<path d="M399.058 377.283C397.787 371.818 396.5 366.306 395.998 361.263C395.481 356.221 395.779 351.617 397.536 349.127C399.277 346.622 402.65 346.559 406.258 349.848C410.729 353.919 414.479 362.031 416.016 368.78C417.553 375.529 417.334 381.245 417.099 386.773C418.557 386.287 421.099 389.168 423.044 391.611C424.974 394.038 426.558 397.546 427.06 400.49C427.751 404.562 426.37 407.052 424.252 407.506C420.644 408.289 415.232 403.935 410.729 397.891C406.243 391.862 400.736 384.502 399.058 377.283Z" fill="#2797FE"/>
<path opacity="0.1" d="M399.058 377.283C397.787 371.818 396.5 366.306 395.998 361.263C395.481 356.221 395.779 351.617 397.536 349.127C399.277 346.622 402.65 346.559 406.258 349.848C410.729 353.919 414.479 362.031 416.016 368.78C417.553 375.529 417.334 381.245 417.099 386.773C418.557 386.287 421.099 389.168 423.044 391.611C424.974 394.038 426.558 397.546 427.06 400.49C427.751 404.562 426.37 407.052 424.252 407.506C420.644 408.289 415.232 403.935 410.729 397.891C406.243 391.862 400.736 384.502 399.058 377.283Z" fill="black"/>
<path d="M401.552 378.035C400.893 376.892 400.203 375.717 399.136 374.934C398.069 374.167 396.5 373.917 395.449 374.731C394.32 375.608 394.242 377.362 394.9 378.63C395.544 379.898 396.736 380.791 397.881 381.637C397.787 383.923 398.634 385.99 399.842 387.932C403.325 393.538 407.686 398.612 412.722 402.887C413.584 403.623 414.51 404.343 415.624 404.562C416.738 404.766 418.055 404.28 418.416 403.2C418.636 402.542 418.448 401.837 418.259 401.18C415.593 392.238 409.663 382.67 401.552 378.035Z" fill="#025492"/>
<path d="M399.764 376.955C399.842 370.847 399.92 364.693 401.301 358.743C402.682 352.792 405.505 346.998 410.196 343.099C414.902 339.2 421.679 337.508 427.343 339.81C434.355 342.66 437.979 350.835 437.806 358.398C437.634 365.962 434.465 373.087 431.359 379.977C434.512 378.693 438.246 381.01 440.944 383.077C443.658 385.144 445.148 388.683 444.74 392.066C444.16 396.748 440.191 400.459 435.751 402.041C428.143 404.719 419.373 401.963 413.271 396.701C407.168 391.44 399.669 385.035 399.764 376.97V376.955Z" fill="#2797FE"/>
<path d="M133.621 209.509L238.243 275.968L289.353 197.248C237.207 195.541 184.873 199.675 133.621 209.509Z" fill="url(#paint27_linear_30_11263)"/>
<path style="mix-blend-mode:screen" d="M133.621 209.509L238.243 275.968L289.353 197.248C237.207 195.541 184.873 199.675 133.621 209.509Z" fill="url(#paint28_linear_30_11263)"/>
<g style="mix-blend-mode:screen">
<path d="M622.263 467.074L623.502 464.945C628.852 455.705 632.46 445.746 634.327 435.536C610.199 451.399 586.291 468.593 564.03 486.821C584.894 486.821 605.822 479.68 622.263 467.074Z" fill="url(#paint29_linear_30_11263)"/>
</g>
<path opacity="0.2" d="M634.797 405.188C634.484 404.233 634.311 403.309 634.295 402.4C615.36 461.891 565.991 461.374 555.025 460.481C549.911 459.683 544.358 458.774 538.286 457.725L506.472 452.197L524.889 488.198H591.123L601.084 476.297L612.929 462.157L622.404 466.855L623.518 464.929C634.091 446.638 637.904 425.545 634.813 405.188H634.797Z" fill="black"/>
<path d="M625.667 460.951C635.017 442.755 637.919 422.163 634.295 402.4C625.871 464.24 577.145 472.195 566.179 473.197C561.002 473.291 555.37 473.338 549.205 473.338H438.23V422.648L345.123 537.338L438.23 682V629.18H469.888C506.158 629.18 539.682 609.857 557.818 578.506L614.262 480.901L623.486 464.944L626.812 459.197C626.436 459.808 626.059 460.387 625.651 460.967L625.667 460.951Z" fill="url(#paint30_linear_30_11263)"/>
<path d="M150.093 608.949L275.172 617.844L278.074 550.618C247.106 544.088 214.962 542.741 183.32 544.98C147.379 547.533 111.941 554.579 76.9727 563.364C92.2839 589.688 119.659 606.757 150.093 608.918V608.949Z" fill="url(#paint31_linear_30_11263)"/>
<path style="mix-blend-mode:screen" d="M150.093 608.949L275.172 617.844L278.074 550.618C247.106 544.088 214.962 542.741 183.32 544.98C147.379 547.533 111.941 554.579 76.9727 563.364C92.2839 589.688 119.659 606.757 150.093 608.918V608.949Z" fill="url(#paint32_linear_30_11263)"/>
<g style="mix-blend-mode:screen">
<path d="M276.019 598.019C267.908 603.766 259.672 609.888 251.562 616.168L275.156 617.843L276.019 598.019Z" fill="url(#paint33_linear_30_11263)"/>
<path d="M118.561 600.947C147.615 577.411 180.904 558.197 215.746 544.025C204.922 543.9 194.097 544.229 183.32 544.996C180.888 545.168 178.441 545.372 176.009 545.575C144.995 552.888 114.906 562.801 87.7188 578.21C96.3156 587.887 106.842 595.623 118.561 600.931V600.947Z" fill="url(#paint34_linear_30_11263)"/>
<path d="M238.729 545.059C198.113 560.233 158.69 579.494 121.949 602.403C130.813 606.005 140.304 608.26 150.093 608.949L170.487 610.405C195.98 587.402 222.272 566.355 250.448 546.186C246.557 545.732 242.635 545.356 238.729 545.059Z" fill="url(#paint35_linear_30_11263)"/>
<path d="M277.776 557.539C244.957 573.574 211.433 591.332 179.963 611.063L235.215 614.994C248.534 596.515 262.324 578.554 277.619 561.329L277.776 557.523V557.539Z" fill="url(#paint36_linear_30_11263)"/>
</g>
<path opacity="0.2" d="M123.047 602.842C124.036 603.046 124.93 603.359 125.714 603.813C83.577 557.712 108.693 515.29 114.952 506.239C118.2 502.215 121.777 497.861 125.73 493.148L146.438 468.406L105.995 466.323L72.8779 523.574L78.2275 538.137L84.581 555.441L75.7645 561.282L76.8783 563.208C87.4675 581.498 103.861 595.326 123.063 602.842H123.047Z" fill="black"/>
<path d="M79.2316 567.061C90.3385 584.239 106.764 597.049 125.714 603.798C76.2666 565.589 93.7427 519.487 98.3393 509.512C100.849 504.987 103.61 500.101 106.701 494.761L162.188 398.831L206.161 424.184L153.215 286.365L-18.8325 294.508L26.9914 320.91L11.1625 348.283C-6.97258 379.633 -6.97258 418.28 11.1625 449.631L67.6227 547.236L76.8627 563.193L80.1885 568.94C79.8434 568.314 79.5296 567.687 79.2316 567.045V567.061Z" fill="#1FA5FD"/>
<g style="mix-blend-mode:screen">
<path d="M243.655 197.246C239.498 197.387 235.34 197.544 231.183 197.747C211.871 209.523 192.921 222.27 174.676 235.565L193.234 247.356C209.832 230.428 226.587 213.735 243.655 197.246Z" fill="url(#paint37_linear_30_11263)"/>
<path d="M138.265 212.452C139.096 211.042 139.912 209.617 140.712 208.192C138.343 208.615 135.99 209.054 133.637 209.492L138.265 212.436V212.452Z" fill="url(#paint38_linear_30_11263)"/>
<path d="M205.832 199.501C198.678 200.127 191.525 200.848 184.387 201.678C172.621 207.299 161.075 213.328 149.717 219.717L170.833 233.122C182.159 221.503 193.784 210.4 205.848 199.485L205.832 199.501Z" fill="url(#paint39_linear_30_11263)"/>
<path d="M247.546 261.638C242.4 265.083 237.301 268.59 232.25 272.161L238.243 275.966L247.546 261.638Z" fill="url(#paint40_linear_30_11263)"/>
<path d="M283.611 197.09C282.482 197.059 281.368 197.027 280.239 196.996C252.346 212.233 223.967 230.539 197.752 250.223L223.747 266.743C243.451 243.348 263.139 220.172 283.611 197.09Z" fill="url(#paint41_linear_30_11263)"/>
</g>
<path d="M63.9872 396.138C63.9872 396.138 63.9872 396.059 63.9872 396.02C63.9872 384.414 54.621 375 43.0753 375C33.768 375 25.8745 381.118 23.1844 389.566C22.8506 389.546 22.5168 389.507 22.183 389.507C14.6233 389.507 8.49696 395.664 8.49696 403.263C8.49696 403.599 8.51659 403.914 8.55587 404.25H-17.6577C-21.1725 404.25 -24 407.112 -24 410.625C-24 414.138 -21.1528 417 -17.6577 417H62.5538C68.3267 417 73 412.303 73 406.5C73 401.191 69.0729 396.809 63.9676 396.099L63.9872 396.138Z" fill="url(#paint42_linear_30_11263)"/>
<path d="M86.358 338.674C86.358 338.674 86.358 338.575 86.358 338.525C86.358 323.88 98.1358 312 112.654 312C124.358 312 134.284 319.721 137.667 330.381C138.086 330.356 138.506 330.306 138.926 330.306C148.432 330.306 156.136 338.077 156.136 347.665C156.136 348.089 156.111 348.487 156.062 348.911H189.025C193.444 348.911 197 352.522 197 356.955C197 361.389 193.42 365 189.025 365H88.1358C80.8765 365 75 359.072 75 351.75C75 345.05 79.9383 339.521 86.358 338.625V338.674Z" fill="url(#paint43_linear_30_11263)"/>
<path d="M130.452 254.215C130.452 257.754 127.581 260.636 124.02 260.636C120.459 260.636 117.588 257.77 117.588 254.215C117.588 250.661 120.459 247.795 124.02 247.795C127.581 247.795 130.452 250.661 130.452 254.215Z" fill="#D2FA00"/>
<path d="M360.513 20.8587C360.513 22.9101 358.85 24.57 356.795 24.57C354.74 24.57 353.077 22.9101 353.077 20.8587C353.077 18.8074 354.74 17.1475 356.795 17.1475C358.85 17.1475 360.513 18.8074 360.513 20.8587Z" fill="#D2FA00"/>
<path d="M602.905 579.431C602.905 581.482 601.242 583.142 599.187 583.142C597.132 583.142 595.469 581.482 595.469 579.431C595.469 577.38 597.132 575.72 599.187 575.72C601.242 575.72 602.905 577.38 602.905 579.431Z" fill="#D2FA00"/>
<path d="M296.915 258.365C296.915 261.795 294.122 264.566 290.703 264.566C287.283 264.566 284.49 261.779 284.49 258.365C284.49 254.951 287.283 252.164 290.703 252.164C294.122 252.164 296.915 254.951 296.915 258.365Z" fill="#D2FA00"/>
<path d="M583.687 158.96C587.872 158.96 591.264 155.574 591.264 151.397C591.264 147.219 587.872 143.833 583.687 143.833C579.502 143.833 576.11 147.219 576.11 151.397C576.11 155.574 579.502 158.96 583.687 158.96Z" fill="#D2FA00"/>
<path d="M34.4122 561.267C34.4122 565.448 31.0236 568.83 26.835 568.83C22.6464 568.83 19.2578 565.448 19.2578 561.267C19.2578 557.086 22.6464 553.703 26.835 553.703C31.0236 553.703 34.4122 557.086 34.4122 561.267Z" fill="#D2FA00"/>
<path d="M104.599 155.28C104.599 157.425 102.858 159.164 100.708 159.164C98.5592 159.164 96.8179 157.425 96.8179 155.28C96.8179 153.135 98.5592 151.396 100.708 151.396C102.858 151.396 104.599 153.135 104.599 155.28Z" fill="#D2FA00"/>
<path d="M11.3039 254.215C11.3039 256.314 9.59397 258.021 7.49181 258.021C5.38965 258.021 3.67969 256.314 3.67969 254.215C3.67969 252.117 5.38965 250.41 7.49181 250.41C9.59397 250.41 11.3039 252.117 11.3039 254.215Z" fill="#D2FA00"/>
<path d="M323.615 575.705C323.615 580.591 319.646 584.553 314.752 584.553C309.857 584.553 305.888 580.591 305.888 575.705C305.888 570.819 309.857 566.857 314.752 566.857C319.646 566.857 323.615 570.819 323.615 575.705Z" fill="#D2FA00"/>
<path d="M634.563 300.833C634.563 305.813 630.515 309.853 625.526 309.853C620.538 309.853 616.49 305.813 616.49 300.833C616.49 295.854 620.538 291.813 625.526 291.813C630.515 291.813 634.563 295.854 634.563 300.833Z" fill="#D2FA00"/>
<path d="M558.806 203.871C558.806 205.452 557.52 206.736 555.92 206.736C554.32 206.736 553.033 205.452 553.033 203.871C553.033 202.289 554.32 201.005 555.92 201.005C557.52 201.005 558.806 202.289 558.806 203.871Z" fill="#D2FA00"/>
<path d="M368.31 627.913C369.896 627.913 371.181 626.63 371.181 625.047C371.181 623.465 369.896 622.182 368.31 622.182C366.725 622.182 365.439 623.465 365.439 625.047C365.439 626.63 366.725 627.913 368.31 627.913Z" fill="#D2FA00"/>
<path d="M244.283 398.878C244.283 401.384 242.259 403.404 239.749 403.404C237.239 403.404 235.215 401.368 235.215 398.878C235.215 396.388 237.239 394.353 239.749 394.353C242.259 394.353 244.283 396.388 244.283 398.878Z" fill="#D2FA00"/>
<path d="M414.291 279.553C414.291 281.088 413.051 282.325 411.514 282.325C409.977 282.325 408.737 281.088 408.737 279.553C408.737 278.018 409.977 276.781 411.514 276.781C413.051 276.781 414.291 278.018 414.291 279.553Z" fill="#D2FA00"/>
<path d="M342.001 172.881L364.168 211.215L320.195 236.568L466.248 259.712L511.099 172.881H342.001Z" fill="url(#paint44_linear_30_11263)"/>
<g style="mix-blend-mode:multiply">
<path d="M357.014 198.843C359.822 197.951 362.646 197.183 365.548 196.682C382.428 193.801 399.324 200.237 415.467 205.984C431.594 211.715 449.305 216.883 465.558 211.527C479.598 206.908 490.109 195.195 503.146 188.289L507.93 179.034C504.871 179.097 501.812 179.363 498.769 179.927C482.25 182.98 467.44 193.989 450.623 194.004C430.025 194.02 411.702 177.452 391.182 179.144C380.781 180.005 371.431 185.486 361.548 188.853C358.661 189.839 355.587 190.591 352.48 191.014L357.014 198.843Z" fill="url(#paint45_linear_30_11263)"/>
<path d="M490.313 213.125C483.583 214.941 476.9 218.386 470.39 221.033C453.981 227.688 435.595 229.379 418.244 225.84C401.787 222.474 386.617 214.613 370.569 209.633C367.761 208.756 364.874 208.004 361.956 207.394L364.168 211.23L344.198 222.74C351.963 222.568 359.964 224.024 367.369 226.357C382.397 231.118 396.328 239.041 411.577 243.019C424.315 246.339 438.058 246.746 450.482 242.439C463.566 237.898 474.641 227.485 486.674 220.156L490.298 213.141L490.313 213.125Z" fill="url(#paint46_linear_30_11263)"/>
<path d="M465.621 249.157C462.122 252.023 458.953 255.296 455.33 257.973L466.248 259.696L474.861 243.019C471.598 244.757 468.492 246.792 465.621 249.141V249.157Z" fill="url(#paint47_linear_30_11263)"/>
<path d="M374.098 245.117C371.62 243.347 369.11 241.641 366.537 240.106C355.524 233.498 344.825 229.974 332.902 229.254L320.195 236.583L374.098 245.117Z" fill="url(#paint48_linear_30_11263)"/>
</g>
<path opacity="0.4" d="M569.65 526.203C578.516 531.302 578.516 539.551 569.801 544.65L522.018 572.245C513.303 577.344 499.029 577.344 490.163 572.245L442.231 544.65C433.366 539.551 433.366 531.302 442.081 526.203L489.713 498.608C498.428 493.509 512.702 493.509 521.567 498.608L569.65 526.203Z" fill="#BCD0F1"/>
<path d="M569.428 526.342H428.786V531.291C428.786 534.59 431.04 537.89 435.397 540.439L483.33 568.034C492.195 573.133 506.469 573.133 515.184 568.034L562.816 540.439C567.174 537.89 569.428 534.59 569.428 531.291V526.342Z" fill="url(#paint49_linear_30_11263)"/>
<path d="M562.816 517.045C571.682 522.144 571.682 530.393 562.967 535.492L515.335 563.087C506.62 568.186 492.345 568.186 483.48 563.087L435.547 535.492C426.682 530.393 426.682 522.144 435.397 517.045L482.879 489.45C491.594 484.351 505.868 484.351 514.734 489.45L562.816 517.045Z" fill="#F3F8FE"/>
<path d="M548.542 519.145C555.454 523.044 555.454 529.493 548.693 533.542L511.579 554.988C504.817 558.888 493.698 558.888 486.786 554.988L449.522 533.542C442.61 529.643 442.61 523.194 449.522 519.145L486.485 497.699C493.247 493.8 504.366 493.8 511.278 497.699L548.542 519.145Z" stroke="#D3E7FE" stroke-width="0.5" stroke-miterlimit="10"/>
<path d="M506.114 494.552C506.121 492.316 502.964 490.494 499.064 490.483C495.163 490.472 491.996 492.276 491.99 494.512C491.984 496.749 495.14 498.57 499.041 498.582C502.941 498.593 506.108 496.789 506.114 494.552Z" fill="#A6CEFC"/>
<path d="M493.248 490.499V494.248C493.248 495.148 493.849 496.048 495.051 496.648C497.305 497.998 501.061 497.998 503.465 496.648C504.667 496.048 505.118 495.148 505.118 494.248V490.499H493.248Z" fill="url(#paint50_linear_30_11263)"/>
<path d="M502.263 488.701C504.066 489.751 504.066 491.401 502.263 492.301C500.46 493.201 497.755 493.351 495.952 492.301C494.149 491.251 494.149 489.601 495.952 488.701C497.605 487.652 500.46 487.652 502.263 488.701Z" fill="url(#paint51_linear_30_11263)"/>
<path d="M503.506 490.852C503.51 489.444 501.495 488.297 499.005 488.29C496.516 488.283 494.494 489.418 494.49 490.826C494.486 492.235 496.501 493.382 498.991 493.389C501.48 493.396 503.502 492.26 503.506 490.852Z" fill="#22B4FD"/>
<path d="M503.164 488.101C500.911 486.751 497.154 486.751 494.75 488.101C492.496 489.451 492.496 491.551 494.75 492.9C497.004 494.25 500.76 494.25 503.164 492.9C505.569 491.551 505.569 489.451 503.164 488.101ZM502.263 492.3C500.46 493.35 497.755 493.35 495.952 492.3C494.149 491.251 494.149 489.601 495.952 488.701C497.755 487.651 500.46 487.651 502.263 488.701C503.916 489.751 503.916 491.401 502.263 492.3Z" fill="#BCD0F1"/>
<path d="M503.615 476.251H494.6V490.498C494.6 491.248 495.05 491.848 495.952 492.448C497.755 493.498 500.61 493.498 502.263 492.448C503.164 491.998 503.615 491.248 503.615 490.648V476.251Z" fill="url(#paint52_linear_30_11263)"/>
<path d="M559.858 525.731C559.864 523.495 556.708 521.673 552.807 521.662C548.907 521.651 545.74 523.455 545.734 525.691C545.727 527.927 548.884 529.749 552.784 529.76C556.685 529.771 559.852 527.967 559.858 525.731Z" fill="#A6CEFC"/>
<path d="M546.889 521.693V525.443C546.889 526.343 547.49 527.242 548.692 527.842C550.946 529.192 554.703 529.192 557.107 527.842C558.309 527.242 558.76 526.343 558.76 525.443V521.693H546.889Z" fill="url(#paint53_linear_30_11263)"/>
<path d="M556.055 519.893C557.858 520.943 557.858 522.592 556.055 523.492C554.252 524.542 551.547 524.542 549.744 523.492C547.941 522.442 547.941 520.793 549.744 519.893C551.397 518.843 554.252 518.843 556.055 519.893Z" fill="url(#paint54_linear_30_11263)"/>
<path d="M557.399 522.029C557.403 520.621 555.388 519.473 552.898 519.466C550.409 519.459 548.387 520.595 548.383 522.003C548.379 523.411 550.394 524.558 552.884 524.565C555.373 524.573 557.395 523.437 557.399 522.029Z" fill="#22B4FD"/>
<path d="M556.956 519.294C554.703 517.944 550.946 517.944 548.542 519.294C546.288 520.643 546.288 522.743 548.542 524.093C550.796 525.442 554.552 525.442 556.956 524.093C559.361 522.893 559.361 520.643 556.956 519.294ZM556.055 523.643C554.252 524.693 551.547 524.693 549.744 523.643C547.941 522.593 547.941 520.943 549.744 520.043C551.547 518.994 554.252 518.994 556.055 520.043C557.708 520.943 557.708 522.593 556.055 523.643Z" fill="#BCD0F1"/>
<path d="M557.257 507.446H548.242V521.694C548.242 522.444 548.692 523.043 549.594 523.643C551.397 524.693 554.252 524.693 555.905 523.643C556.806 523.193 557.257 522.444 557.257 521.844V507.446Z" fill="url(#paint55_linear_30_11263)"/>
<path d="M452.336 525.795C452.342 523.559 449.186 521.737 445.285 521.726C441.385 521.715 438.218 523.519 438.212 525.755C438.205 527.992 441.362 529.814 445.262 529.825C449.163 529.836 452.33 528.032 452.336 525.795Z" fill="#A6CEFC"/>
<path d="M439.454 521.693V525.443C439.454 526.343 440.055 527.242 441.257 527.842C443.511 529.192 447.268 529.192 449.672 527.842C450.874 527.242 451.325 526.343 451.325 525.443V521.693H439.454Z" fill="url(#paint56_linear_30_11263)"/>
<path d="M448.47 519.893C450.273 520.943 450.273 522.592 448.47 523.492C446.667 524.542 443.963 524.542 442.159 523.492C440.356 522.442 440.356 520.793 442.159 519.893C443.812 518.843 446.667 518.843 448.47 519.893Z" fill="url(#paint57_linear_30_11263)"/>
<path d="M449.878 522.091C449.882 520.683 447.867 519.536 445.377 519.529C442.888 519.522 440.866 520.658 440.862 522.066C440.858 523.474 442.873 524.621 445.363 524.628C447.852 524.635 449.874 523.499 449.878 522.091Z" fill="#22B4FD"/>
<path d="M449.521 519.294C447.268 517.944 443.511 517.944 441.107 519.294C438.853 520.643 438.853 522.743 441.107 524.093C443.361 525.442 447.117 525.442 449.521 524.093C451.775 522.893 451.775 520.643 449.521 519.294ZM448.47 523.643C446.667 524.693 443.962 524.693 442.159 523.643C440.356 522.593 440.356 520.943 442.159 520.043C443.962 518.994 446.667 518.994 448.47 520.043C450.273 520.943 450.273 522.593 448.47 523.643Z" fill="#BCD0F1"/>
<path d="M449.822 507.446H440.807V521.694C440.807 522.444 441.257 523.043 442.159 523.643C443.962 524.693 446.817 524.693 448.47 523.643C449.371 523.193 449.822 522.444 449.822 521.844V507.446Z" fill="url(#paint58_linear_30_11263)"/>
<path d="M457.786 505.647V524.094C457.786 530.243 461.843 536.392 469.957 541.041C486.185 550.339 512.33 550.339 528.407 541.041C536.521 536.392 540.428 530.243 540.428 524.094V505.647H457.786Z" fill="url(#paint59_linear_30_11263)"/>
<path d="M518.04 494.699C528.558 500.848 528.708 510.746 518.19 516.745C507.672 522.744 490.542 522.894 480.024 516.745C469.506 510.596 469.356 500.698 479.874 494.699C490.392 488.7 507.522 488.55 518.04 494.699Z" fill="url(#paint60_linear_30_11263)"/>
<path d="M548.12 505.83C548.164 490.175 526.269 477.423 499.216 477.347C472.163 477.27 450.196 489.898 450.151 505.553C450.107 521.207 472.002 533.96 499.055 534.036C526.108 534.113 548.076 521.484 548.12 505.83Z" stroke="#22B4FD" stroke-width="0.5" stroke-miterlimit="10"/>
<path d="M526.182 508.772C526.207 500.158 514.117 493.14 499.18 493.098C484.243 493.056 472.114 500.005 472.089 508.619C472.065 517.233 484.154 524.25 499.091 524.292C514.029 524.335 526.158 517.386 526.182 508.772Z" fill="#1570EF"/>
<path d="M528.257 488.848C512.029 479.549 485.884 479.549 469.807 488.848C453.729 498.146 453.879 513.293 469.957 522.592C486.185 531.89 512.33 531.89 528.408 522.592C544.485 513.293 544.335 498.146 528.257 488.848ZM518.19 516.743C507.672 522.891 490.542 522.891 480.024 516.743C469.506 510.594 469.356 500.696 479.874 494.697C490.392 488.698 507.522 488.548 518.04 494.697C528.708 500.846 528.708 510.744 518.19 516.743Z" fill="#BCD0F1"/>
<path d="M498.957 482.554C509.926 482.554 520.143 484.953 527.807 489.452C535.47 493.801 539.677 499.65 539.677 505.799C539.677 511.948 535.62 517.647 528.107 521.996C520.444 526.495 510.226 528.895 499.257 528.895C488.288 528.895 478.071 526.495 470.408 521.996C462.744 517.647 458.537 511.798 458.537 505.649C458.537 499.5 462.594 493.801 470.107 489.452C477.77 484.953 487.988 482.554 498.957 482.554ZM498.957 481.804C488.439 481.804 477.77 484.203 469.807 488.852C453.729 498.151 453.879 513.298 469.957 522.596C478.071 527.245 488.589 529.645 499.257 529.645C509.926 529.645 520.444 527.245 528.408 522.596C544.485 513.298 544.485 498.151 528.257 488.852C520.143 484.203 509.475 481.804 498.957 481.804Z" fill="url(#paint61_linear_30_11263)"/>
<path d="M475.366 491.098C475.615 491.098 475.817 490.897 475.817 490.648C475.817 490.4 475.615 490.198 475.366 490.198C475.117 490.198 474.915 490.4 474.915 490.648C474.915 490.897 475.117 491.098 475.366 491.098Z" fill="white"/>
<path d="M512.029 493.797C512.278 493.797 512.48 493.596 512.48 493.347C512.48 493.099 512.278 492.897 512.029 492.897C511.78 492.897 511.578 493.099 511.578 493.347C511.578 493.596 511.78 493.797 512.029 493.797Z" fill="white"/>
<path d="M520.143 489.448C520.392 489.448 520.594 489.246 520.594 488.998C520.594 488.749 520.392 488.548 520.143 488.548C519.894 488.548 519.692 488.749 519.692 488.998C519.692 489.246 519.894 489.448 520.143 489.448Z" fill="white"/>
<path d="M487.236 505.644C487.485 505.644 487.687 505.443 487.687 505.194C487.687 504.946 487.485 504.744 487.236 504.744C486.987 504.744 486.786 504.946 486.786 505.194C486.786 505.443 486.987 505.644 487.236 505.644Z" fill="white"/>
<path d="M513.231 476.402C513.48 476.402 513.682 476.2 513.682 475.952C513.682 475.703 513.48 475.502 513.231 475.502C512.982 475.502 512.78 475.703 512.78 475.952C512.78 476.2 512.982 476.402 513.231 476.402Z" fill="white"/>
<path d="M479.573 476.851C479.822 476.851 480.024 476.65 480.024 476.401C480.024 476.153 479.822 475.951 479.573 475.951C479.324 475.951 479.122 476.153 479.122 476.401C479.122 476.65 479.324 476.851 479.573 476.851Z" fill="white"/>
<path d="M491.895 468.152C492.144 468.152 492.345 467.95 492.345 467.702C492.345 467.453 492.144 467.252 491.895 467.252C491.646 467.252 491.444 467.453 491.444 467.702C491.444 467.95 491.646 468.152 491.895 468.152Z" fill="white"/>
<path opacity="0.4" d="M473.562 487.646H474.013C474.163 487.646 474.314 487.795 474.314 487.945V503.393C474.314 503.543 474.163 503.693 474.013 503.693H473.562C473.412 503.693 473.262 503.543 473.262 503.393V487.795C473.262 487.646 473.412 487.646 473.562 487.646Z" fill="url(#paint62_linear_30_11263)"/>
<path opacity="0.4" d="M524.199 482.247H524.65C524.8 482.247 524.951 482.397 524.951 482.547V497.994C524.951 498.144 524.8 498.294 524.65 498.294H524.199C524.049 498.294 523.899 498.144 523.899 497.994V482.547C523.899 482.397 524.049 482.247 524.199 482.247Z" fill="url(#paint63_linear_30_11263)"/>
<path opacity="0.4" d="M488.739 492.597H489.189C489.34 492.597 489.49 492.747 489.49 492.897V508.344C489.49 508.494 489.34 508.644 489.189 508.644H488.739C488.588 508.644 488.438 508.494 488.438 508.344V492.897C488.438 492.747 488.588 492.597 488.739 492.597Z" fill="url(#paint64_linear_30_11263)"/>
<path opacity="0.4" d="M488.739 471.6H489.189C489.34 471.6 489.49 471.75 489.49 471.9V487.347C489.49 487.497 489.34 487.647 489.189 487.647H488.739C488.588 487.647 488.438 487.497 488.438 487.347V471.9C488.438 471.75 488.588 471.6 488.739 471.6Z" fill="url(#paint65_linear_30_11263)"/>
<path d="M537.935 462.555C537.935 456.691 534.022 450.978 526.347 446.619C510.995 437.748 486.312 437.748 471.112 446.619C463.436 450.978 459.673 456.842 459.824 462.555L471.864 505.854C471.864 509.913 474.573 513.822 479.841 516.979C490.376 523.143 507.534 523.143 518.069 516.979C523.337 513.972 525.895 509.913 525.895 505.854L537.935 462.555Z" fill="url(#paint66_linear_30_11263)"/>
<path d="M469.356 536.09L470.408 535.49C470.558 535.34 470.708 535.04 470.708 534.74C470.708 533.99 470.107 533.09 469.506 532.64C469.206 532.49 468.905 532.49 468.605 532.49L467.553 533.09L469.356 536.09Z" fill="url(#paint67_linear_30_11263)"/>
<path d="M469.41 536.002C469.842 535.755 469.824 534.914 469.37 534.123C468.916 533.333 468.198 532.893 467.766 533.14C467.334 533.387 467.352 534.229 467.806 535.019C468.26 535.809 468.979 536.249 469.41 536.002Z" fill="#2185F8"/>
<path d="M469.111 535.479C469.399 535.314 469.398 534.773 469.109 534.27C468.82 533.767 468.353 533.493 468.065 533.658C467.777 533.822 467.778 534.364 468.067 534.867C468.356 535.37 468.823 535.644 469.111 535.479Z" fill="#22B4FD"/>
<path d="M474.314 538.788L475.366 538.188C475.516 538.038 475.666 537.738 475.666 537.438C475.666 536.688 475.065 535.788 474.464 535.338C474.164 535.188 473.863 535.188 473.563 535.188L472.511 535.788L474.314 538.788Z" fill="url(#paint68_linear_30_11263)"/>
<path d="M474.25 538.903C474.682 538.656 474.664 537.815 474.21 537.025C473.756 536.235 473.038 535.794 472.606 536.042C472.174 536.289 472.192 537.13 472.646 537.92C473.1 538.71 473.818 539.151 474.25 538.903Z" fill="#2185F8"/>
<path d="M473.951 538.384C474.239 538.219 474.238 537.678 473.949 537.175C473.66 536.672 473.193 536.398 472.905 536.563C472.617 536.728 472.618 537.269 472.907 537.772C473.196 538.275 473.663 538.549 473.951 538.384Z" fill="#FFE200"/>
<path d="M499.97 479.217C524.254 479.217 543.94 459.342 543.94 434.826C543.94 410.31 524.254 390.436 499.97 390.436C475.686 390.436 456 410.31 456 434.826C456 459.342 475.686 479.217 499.97 479.217Z" fill="url(#paint69_linear_30_11263)"/>
<path d="M500.265 469.683C519.497 469.683 535.087 454.077 535.087 434.826C535.087 415.575 519.497 399.969 500.265 399.969C481.034 399.969 465.443 415.575 465.443 434.826C465.443 454.077 481.034 469.683 500.265 469.683Z" fill="#2E97F6"/>
<path d="M523.873 421.86V447.776C523.872 448.118 523.778 448.453 523.602 448.744C523.426 449.035 523.174 449.27 522.874 449.424C499.067 461.549 500.865 460.734 500.265 460.734C499.666 460.734 501.391 461.53 477.656 449.424C477.357 449.27 477.105 449.035 476.928 448.744C476.752 448.453 476.658 448.118 476.657 447.776V421.86C476.658 421.518 476.752 421.183 476.928 420.892C477.105 420.601 477.357 420.366 477.656 420.212L499.448 409.105C499.702 408.975 499.981 408.907 500.265 408.907C500.549 408.907 500.829 408.975 501.082 409.105L522.874 420.212C523.174 420.366 523.426 420.601 523.602 420.892C523.778 421.183 523.872 421.518 523.873 421.86Z" fill="#22B4FD"/>
<path d="M489.32 427.378C488.836 427.378 488.372 427.574 488.03 427.923C487.687 428.272 487.495 428.746 487.495 429.24V434.267L483.537 428.216C483.319 427.886 483.004 427.635 482.637 427.501C482.27 427.367 481.871 427.357 481.497 427.471C481.124 427.586 480.797 427.819 480.563 428.137C480.329 428.456 480.201 428.842 480.198 429.24V440.412C480.198 440.906 480.39 441.38 480.733 441.729C481.075 442.078 481.539 442.274 482.022 442.274C482.506 442.274 482.97 442.078 483.312 441.729C483.655 441.38 483.847 440.906 483.847 440.412V435.385L487.805 441.436C488.023 441.766 488.338 442.017 488.705 442.151C489.072 442.285 489.471 442.295 489.845 442.181C490.218 442.066 490.545 441.833 490.779 441.515C491.013 441.196 491.141 440.81 491.144 440.412V429.24C491.144 428.746 490.952 428.272 490.609 427.923C490.267 427.574 489.803 427.378 489.32 427.378ZM503.914 427.378H496.617C496.133 427.378 495.669 427.574 495.327 427.923C494.984 428.272 494.792 428.746 494.792 429.24V440.412C494.792 440.906 494.984 441.38 495.327 441.729C495.669 442.078 496.133 442.274 496.617 442.274C497.1 442.274 497.564 442.078 497.906 441.729C498.249 441.38 498.441 440.906 498.441 440.412V438.55H502.089C502.573 438.55 503.037 438.354 503.379 438.005C503.721 437.655 503.914 437.182 503.914 436.688C503.914 436.194 503.721 435.721 503.379 435.371C503.037 435.022 502.573 434.826 502.089 434.826H498.441V431.102H503.914C504.397 431.102 504.861 430.906 505.203 430.557C505.546 430.207 505.738 429.734 505.738 429.24C505.738 428.746 505.546 428.272 505.203 427.923C504.861 427.574 504.397 427.378 503.914 427.378ZM518.508 427.378H511.211C510.727 427.378 510.263 427.574 509.921 427.923C509.579 428.272 509.386 428.746 509.386 429.24C509.386 429.734 509.579 430.207 509.921 430.557C510.263 430.906 510.727 431.102 511.211 431.102H513.035V440.412C513.035 440.906 513.227 441.38 513.569 441.729C513.911 442.078 514.375 442.274 514.859 442.274C515.343 442.274 515.807 442.078 516.149 441.729C516.491 441.38 516.683 440.906 516.683 440.412V431.102H518.508C518.991 431.102 519.455 430.906 519.798 430.557C520.14 430.207 520.332 429.734 520.332 429.24C520.332 428.746 520.14 428.272 519.798 427.923C519.455 427.574 518.991 427.378 518.508 427.378Z" fill="white"/>
<path d="M506.081 556.973C506.087 554.737 502.93 552.915 499.03 552.904C495.13 552.893 491.963 554.697 491.956 556.933C491.95 559.17 495.107 560.991 499.007 561.002C502.907 561.013 506.074 559.209 506.081 556.973Z" fill="#A6CEFC"/>
<path d="M493.247 552.886V556.635C493.247 557.535 493.848 558.435 495.05 559.035C497.304 560.384 501.061 560.384 503.465 559.035C504.667 558.435 505.118 557.535 505.118 556.635V552.886H493.247Z" fill="url(#paint70_linear_30_11263)"/>
<path d="M502.262 551.087C504.065 552.137 504.065 553.786 502.262 554.686C500.459 555.586 497.755 555.736 495.951 554.686C494.148 553.637 494.148 551.987 495.951 551.087C497.604 550.187 500.459 550.187 502.262 551.087Z" fill="url(#paint71_linear_30_11263)"/>
<path d="M503.621 553.27C503.625 551.862 501.61 550.715 499.121 550.708C496.631 550.701 494.61 551.836 494.606 553.244C494.602 554.652 496.617 555.8 499.106 555.807C501.596 555.814 503.617 554.678 503.621 553.27Z" fill="#22B4FD"/>
<path d="M503.164 550.485C500.91 549.135 497.154 549.135 494.749 550.485C492.496 551.835 492.496 553.934 494.749 555.284C497.003 556.634 500.76 556.634 503.164 555.284C505.568 554.084 505.568 551.835 503.164 550.485ZM502.262 554.834C500.459 555.884 497.755 555.884 495.952 554.834C494.148 553.784 494.148 552.135 495.952 551.235C497.755 550.185 500.459 550.185 502.262 551.235C503.915 552.135 503.915 553.784 502.262 554.834Z" fill="#BCD0F1"/>
<path d="M503.615 538.79H494.6V553.037C494.6 553.787 495.05 554.387 495.952 554.987C497.755 556.037 500.61 556.037 502.263 554.987C503.164 554.537 503.615 553.787 503.615 553.187V538.79Z" fill="url(#paint72_linear_30_11263)"/>
<path d="M438.23 485.269V422.647L345.123 537.337L438.23 681.999V629.18H469.888C506.158 629.18 539.682 609.856 557.817 578.506C557.817 578.506 518.241 575.563 476.799 554.881C435.356 534.199 438.23 485.269 438.23 485.269Z" fill="#6DC9FE"/>
</g>
<defs>
<linearGradient id="paint0_linear_30_11263" x1="277.379" y1="253.418" x2="182.224" y2="88.3077" gradientUnits="userSpaceOnUse">
<stop stop-color="#60C236"/>
<stop offset="1" stop-color="#A5F243"/>
</linearGradient>
<linearGradient id="paint1_linear_30_11263" x1="225.708" y1="275.967" x2="225.708" y2="55.2783" gradientUnits="userSpaceOnUse">
<stop stop-color="#7FEFFF"/>
<stop offset="1" stop-color="#94E8FF"/>
</linearGradient>
<linearGradient id="paint2_linear_30_11263" x1="117.682" y1="203.244" x2="305.606" y2="203.244" gradientUnits="userSpaceOnUse">
<stop stop-color="#7FEFFF"/>
<stop offset="1" stop-color="#94E8FF"/>
</linearGradient>
<linearGradient id="paint3_linear_30_11263" x1="342.431" y1="138.877" x2="469.152" y2="138.877" gradientUnits="userSpaceOnUse">
<stop offset="0.3375" stop-color="#97B5E1"/>
<stop offset="0.5932" stop-color="#E8F1FF"/>
</linearGradient>
<linearGradient id="paint4_linear_30_11263" x1="342.431" y1="114.118" x2="469.153" y2="114.118" gradientUnits="userSpaceOnUse">
<stop offset="0.389" stop-color="#103DB5"/>
<stop offset="0.5932" stop-color="#6BABFD"/>
</linearGradient>
<linearGradient id="paint5_linear_30_11263" x1="468.666" y1="89.1793" x2="342.922" y2="77.7429" gradientUnits="userSpaceOnUse">
<stop stop-color="white"/>
<stop offset="1" stop-color="#4D9DF9"/>
</linearGradient>
<linearGradient id="paint6_linear_30_11263" x1="453.41" y1="87.7994" x2="358.175" y2="79.1377" gradientUnits="userSpaceOnUse">
<stop stop-color="white"/>
<stop offset="1" stop-color="#4D9DF9"/>
</linearGradient>
<linearGradient id="paint7_linear_30_11263" x1="356.902" y1="138.596" x2="354.656" y2="134.699" gradientUnits="userSpaceOnUse">
<stop stop-color="#103DB5"/>
<stop offset="0.6426" stop-color="#6BABFD"/>
</linearGradient>
<linearGradient id="paint8_linear_30_11263" x1="363.557" y1="142.399" x2="361.312" y2="138.503" gradientUnits="userSpaceOnUse">
<stop stop-color="#103DB5"/>
<stop offset="0.6426" stop-color="#6BABFD"/>
</linearGradient>
<linearGradient id="paint9_linear_30_11263" x1="438.027" y1="111.228" x2="449.172" y2="124.971" gradientUnits="userSpaceOnUse">
<stop stop-color="#0CFFFC" stop-opacity="0.6"/>
<stop offset="1" stop-color="white" stop-opacity="0"/>
</linearGradient>
<linearGradient id="paint10_linear_30_11263" x1="342.478" y1="81.4733" x2="469.2" y2="81.4733" gradientUnits="userSpaceOnUse">
<stop offset="0.3375" stop-color="#97B5E1"/>
<stop offset="0.5932" stop-color="#E8F1FF"/>
</linearGradient>
<linearGradient id="paint11_linear_30_11263" x1="468.713" y1="56.5361" x2="342.969" y2="45.0997" gradientUnits="userSpaceOnUse">
<stop stop-color="white"/>
<stop offset="1" stop-color="#C9D9F4"/>
</linearGradient>
<linearGradient id="paint12_linear_30_11263" x1="453.458" y1="55.1531" x2="358.222" y2="46.4915" gradientUnits="userSpaceOnUse">
<stop stop-color="white"/>
<stop offset="1" stop-color="#C9D9F4"/>
</linearGradient>
<linearGradient id="paint13_linear_30_11263" x1="356.959" y1="79.8624" x2="354.713" y2="75.966" gradientUnits="userSpaceOnUse">
<stop stop-color="#103DB5"/>
<stop offset="0.6426" stop-color="#6BABFD"/>
</linearGradient>
<linearGradient id="paint14_linear_30_11263" x1="363.613" y1="83.6639" x2="361.368" y2="79.7675" gradientUnits="userSpaceOnUse">
<stop stop-color="#103DB5"/>
<stop offset="0.6426" stop-color="#6BABFD"/>
</linearGradient>
<linearGradient id="paint15_linear_30_11263" x1="438.074" y1="78.5833" x2="449.219" y2="92.3264" gradientUnits="userSpaceOnUse">
<stop stop-color="#0CFFFC" stop-opacity="0.6"/>
<stop offset="1" stop-color="white" stop-opacity="0"/>
</linearGradient>
<linearGradient id="paint16_linear_30_11263" x1="331.098" y1="168.951" x2="518.881" y2="168.951" gradientUnits="userSpaceOnUse">
<stop stop-color="#60C236"/>
<stop offset="1" stop-color="#A5F243"/>
</linearGradient>
<linearGradient id="paint17_linear_30_11263" x1="331.098" y1="168.951" x2="518.881" y2="168.951" gradientUnits="userSpaceOnUse">
<stop stop-color="#60C236"/>
<stop offset="1" stop-color="#A5F243"/>
</linearGradient>
<linearGradient id="paint18_linear_30_11263" x1="348.481" y1="179.88" x2="517.249" y2="179.88" gradientUnits="userSpaceOnUse">
<stop stop-color="#60C236"/>
<stop offset="1" stop-color="#A5F243"/>
</linearGradient>
<linearGradient id="paint19_linear_30_11263" x1="334.832" y1="161.887" x2="509.923" y2="161.887" gradientUnits="userSpaceOnUse">
<stop stop-color="#60C236"/>
<stop offset="1" stop-color="#A5F243"/>
</linearGradient>
<linearGradient id="paint20_linear_30_11263" x1="445.023" y1="377.205" x2="635.833" y2="377.205" gradientUnits="userSpaceOnUse">
<stop stop-color="#60C236"/>
<stop offset="1" stop-color="#A5F243"/>
</linearGradient>
<linearGradient id="paint21_linear_30_11263" x1="586.977" y1="413.639" x2="540.597" y2="266.145" gradientUnits="userSpaceOnUse">
<stop stop-color="#1FA5FD"/>
<stop offset="1" stop-color="#8FDAFF"/>
</linearGradient>
<linearGradient id="paint22_linear_30_11263" x1="242.202" y1="452.799" x2="147.048" y2="617.91" gradientUnits="userSpaceOnUse">
<stop stop-color="#60C236"/>
<stop offset="1" stop-color="#A5F243"/>
</linearGradient>
<linearGradient id="paint23_linear_30_11263" x1="242.202" y1="452.799" x2="147.048" y2="617.91" gradientUnits="userSpaceOnUse">
<stop stop-color="#7FEFFF"/>
<stop offset="1" stop-color="#94E8FF"/>
</linearGradient>
<linearGradient id="paint24_linear_30_11263" x1="63.4028" y1="554.516" x2="280.019" y2="554.516" gradientUnits="userSpaceOnUse">
<stop stop-color="#7FEFFF"/>
<stop offset="1" stop-color="#94E8FF"/>
</linearGradient>
<linearGradient id="paint25_linear_30_11263" x1="164.297" y1="589.45" x2="209.512" y2="506.045" gradientUnits="userSpaceOnUse">
<stop stop-color="#92C3F1"/>
<stop offset="1" stop-color="white"/>
</linearGradient>
<linearGradient id="paint26_linear_30_11263" x1="217.75" y1="620.937" x2="311.864" y2="550.837" gradientUnits="userSpaceOnUse">
<stop stop-color="#92C3F1"/>
<stop offset="1" stop-color="white"/>
</linearGradient>
<linearGradient id="paint27_linear_30_11263" x1="133.621" y1="236.412" x2="289.353" y2="236.412" gradientUnits="userSpaceOnUse">
<stop stop-color="#60C236"/>
<stop offset="1" stop-color="#A5F243"/>
</linearGradient>
<linearGradient id="paint28_linear_30_11263" x1="133.621" y1="236.412" x2="289.353" y2="236.412" gradientUnits="userSpaceOnUse">
<stop stop-color="#60C236"/>
<stop offset="1" stop-color="#A5F243"/>
</linearGradient>
<linearGradient id="paint29_linear_30_11263" x1="564.03" y1="461.171" x2="634.327" y2="461.171" gradientUnits="userSpaceOnUse">
<stop stop-color="#60C236"/>
<stop offset="1" stop-color="#A5F243"/>
</linearGradient>
<linearGradient id="paint30_linear_30_11263" x1="345.123" y1="542.208" x2="635.801" y2="542.208" gradientUnits="userSpaceOnUse">
<stop stop-color="#1FA5FD"/>
<stop offset="1" stop-color="#72CCFE"/>
</linearGradient>
<linearGradient id="paint31_linear_30_11263" x1="76.9727" y1="580.919" x2="278.074" y2="580.919" gradientUnits="userSpaceOnUse">
<stop stop-color="#60C236"/>
<stop offset="1" stop-color="#A5F243"/>
</linearGradient>
<linearGradient id="paint32_linear_30_11263" x1="76.9727" y1="580.919" x2="278.074" y2="580.919" gradientUnits="userSpaceOnUse">
<stop stop-color="#60C236"/>
<stop offset="1" stop-color="#A5F243"/>
</linearGradient>
<linearGradient id="paint33_linear_30_11263" x1="251.562" y1="607.931" x2="276.019" y2="607.931" gradientUnits="userSpaceOnUse">
<stop stop-color="#60C236"/>
<stop offset="1" stop-color="#A5F243"/>
</linearGradient>
<linearGradient id="paint34_linear_30_11263" x1="87.7187" y1="572.478" x2="215.731" y2="572.478" gradientUnits="userSpaceOnUse">
<stop stop-color="#60C236"/>
<stop offset="1" stop-color="#A5F243"/>
</linearGradient>
<linearGradient id="paint35_linear_30_11263" x1="121.934" y1="577.724" x2="250.448" y2="577.724" gradientUnits="userSpaceOnUse">
<stop stop-color="#60C236"/>
<stop offset="1" stop-color="#A5F243"/>
</linearGradient>
<linearGradient id="paint36_linear_30_11263" x1="179.947" y1="586.274" x2="277.776" y2="586.274" gradientUnits="userSpaceOnUse">
<stop stop-color="#60C236"/>
<stop offset="1" stop-color="#A5F243"/>
</linearGradient>
<linearGradient id="paint37_linear_30_11263" x1="174.676" y1="222.317" x2="243.655" y2="222.317" gradientUnits="userSpaceOnUse">
<stop stop-color="#60C236"/>
<stop offset="1" stop-color="#A5F243"/>
</linearGradient>
<linearGradient id="paint38_linear_30_11263" x1="133.621" y1="210.322" x2="140.712" y2="210.322" gradientUnits="userSpaceOnUse">
<stop stop-color="#60C236"/>
<stop offset="1" stop-color="#A5F243"/>
</linearGradient>
<linearGradient id="paint39_linear_30_11263" x1="149.717" y1="216.319" x2="205.832" y2="216.319" gradientUnits="userSpaceOnUse">
<stop stop-color="#60C236"/>
<stop offset="1" stop-color="#A5F243"/>
</linearGradient>
<linearGradient id="paint40_linear_30_11263" x1="232.25" y1="268.794" x2="247.546" y2="268.794" gradientUnits="userSpaceOnUse">
<stop stop-color="#60C236"/>
<stop offset="1" stop-color="#A5F243"/>
</linearGradient>
<linearGradient id="paint41_linear_30_11263" x1="197.752" y1="231.885" x2="283.611" y2="231.885" gradientUnits="userSpaceOnUse">
<stop stop-color="#60C236"/>
<stop offset="1" stop-color="#A5F243"/>
</linearGradient>
<linearGradient id="paint42_linear_30_11263" x1="12.4564" y1="437.295" x2="15.9679" y2="362.455" gradientUnits="userSpaceOnUse">
<stop stop-color="#92C3F1"/>
<stop offset="1" stop-color="white"/>
</linearGradient>
<linearGradient id="paint43_linear_30_11263" x1="120.852" y1="390.611" x2="125.298" y2="296.171" gradientUnits="userSpaceOnUse">
<stop stop-color="#92C3F1"/>
<stop offset="1" stop-color="white"/>
</linearGradient>
<linearGradient id="paint44_linear_30_11263" x1="320.195" y1="216.304" x2="511.099" y2="216.304" gradientUnits="userSpaceOnUse">
<stop stop-color="#7FEFFF"/>
<stop offset="1" stop-color="#94E8FF"/>
</linearGradient>
<linearGradient id="paint45_linear_30_11263" x1="352.48" y1="196.4" x2="507.93" y2="196.4" gradientUnits="userSpaceOnUse">
<stop stop-color="#7FEFFF"/>
<stop offset="1" stop-color="#94E8FF"/>
</linearGradient>
<linearGradient id="paint46_linear_30_11263" x1="344.213" y1="226.482" x2="490.313" y2="226.482" gradientUnits="userSpaceOnUse">
<stop stop-color="#7FEFFF"/>
<stop offset="1" stop-color="#94E8FF"/>
</linearGradient>
<linearGradient id="paint47_linear_30_11263" x1="455.33" y1="251.365" x2="474.861" y2="251.365" gradientUnits="userSpaceOnUse">
<stop stop-color="#7FEFFF"/>
<stop offset="1" stop-color="#94E8FF"/>
</linearGradient>
<linearGradient id="paint48_linear_30_11263" x1="320.195" y1="237.178" x2="374.098" y2="237.178" gradientUnits="userSpaceOnUse">
<stop stop-color="#7FEFFF"/>
<stop offset="1" stop-color="#94E8FF"/>
</linearGradient>
<linearGradient id="paint49_linear_30_11263" x1="428.722" y1="549.091" x2="569.42" y2="549.091" gradientUnits="userSpaceOnUse">
<stop stop-color="#92C3F1"/>
<stop offset="1" stop-color="white"/>
</linearGradient>
<linearGradient id="paint50_linear_30_11263" x1="493.173" y1="494.046" x2="504.972" y2="494.046" gradientUnits="userSpaceOnUse">
<stop offset="0.3375" stop-color="#97B5E1"/>
<stop offset="0.5932" stop-color="#E8F1FF"/>
</linearGradient>
<linearGradient id="paint51_linear_30_11263" x1="494.6" y1="490.539" x2="503.544" y2="490.539" gradientUnits="userSpaceOnUse">
<stop stop-color="#103DB5"/>
<stop offset="0.6426" stop-color="#6BABFD"/>
</linearGradient>
<linearGradient id="paint52_linear_30_11263" x1="499.072" y1="492.734" x2="499.072" y2="476.404" gradientUnits="userSpaceOnUse">
<stop stop-color="#0CFFFC" stop-opacity="0.6"/>
<stop offset="1" stop-color="white" stop-opacity="0"/>
</linearGradient>
<linearGradient id="paint53_linear_30_11263" x1="546.933" y1="525.257" x2="558.731" y2="525.257" gradientUnits="userSpaceOnUse">
<stop offset="0.3375" stop-color="#97B5E1"/>
<stop offset="0.5932" stop-color="#E8F1FF"/>
</linearGradient>
<linearGradient id="paint54_linear_30_11263" x1="548.36" y1="521.747" x2="557.304" y2="521.747" gradientUnits="userSpaceOnUse">
<stop stop-color="#103DB5"/>
<stop offset="0.6426" stop-color="#6BABFD"/>
</linearGradient>
<linearGradient id="paint55_linear_30_11263" x1="552.832" y1="523.947" x2="552.832" y2="507.616" gradientUnits="userSpaceOnUse">
<stop stop-color="#22B4FD" stop-opacity="0.6"/>
<stop offset="1" stop-color="white" stop-opacity="0"/>
</linearGradient>
<linearGradient id="paint56_linear_30_11263" x1="439.412" y1="525.257" x2="451.21" y2="525.257" gradientUnits="userSpaceOnUse">
<stop offset="0.3375" stop-color="#97B5E1"/>
<stop offset="0.5932" stop-color="#E8F1FF"/>
</linearGradient>
<linearGradient id="paint57_linear_30_11263" x1="440.839" y1="521.747" x2="449.784" y2="521.747" gradientUnits="userSpaceOnUse">
<stop stop-color="#103DB5"/>
<stop offset="0.6426" stop-color="#6BABFD"/>
</linearGradient>
<linearGradient id="paint58_linear_30_11263" x1="445.311" y1="523.947" x2="445.311" y2="507.616" gradientUnits="userSpaceOnUse">
<stop stop-color="#22B4FD" stop-opacity="0.6"/>
<stop offset="1" stop-color="white" stop-opacity="0"/>
</linearGradient>
<linearGradient id="paint59_linear_30_11263" x1="457.744" y1="526.778" x2="540.398" y2="526.778" gradientUnits="userSpaceOnUse">
<stop offset="0.3375" stop-color="#97B5E1"/>
<stop offset="0.5932" stop-color="#E8F1FF"/>
</linearGradient>
<linearGradient id="paint60_linear_30_11263" x1="472.072" y1="505.733" x2="526.071" y2="505.733" gradientUnits="userSpaceOnUse">
<stop stop-color="#103DB5"/>
<stop offset="0.6426" stop-color="#6BABFD"/>
</linearGradient>
<linearGradient id="paint61_linear_30_11263" x1="540.399" y1="505.735" x2="457.745" y2="505.735" gradientUnits="userSpaceOnUse">
<stop stop-color="white"/>
<stop offset="1" stop-color="#C9D9F4"/>
</linearGradient>
<linearGradient id="paint62_linear_30_11263" x1="473.751" y1="489.291" x2="473.751" y2="502.251" gradientUnits="userSpaceOnUse">
<stop offset="0.2578" stop-color="white"/>
<stop offset="1" stop-color="white" stop-opacity="0"/>
</linearGradient>
<linearGradient id="paint63_linear_30_11263" x1="524.39" y1="483.944" x2="524.39" y2="496.905" gradientUnits="userSpaceOnUse">
<stop offset="0.2578" stop-color="white"/>
<stop offset="1" stop-color="white" stop-opacity="0"/>
</linearGradient>
<linearGradient id="paint64_linear_30_11263" x1="488.934" y1="494.338" x2="488.934" y2="507.298" gradientUnits="userSpaceOnUse">
<stop offset="0.2578" stop-color="white"/>
<stop offset="1" stop-color="white" stop-opacity="0"/>
</linearGradient>
<linearGradient id="paint65_linear_30_11263" x1="488.934" y1="473.332" x2="488.934" y2="486.293" gradientUnits="userSpaceOnUse">
<stop offset="0.2578" stop-color="white"/>
<stop offset="1" stop-color="white" stop-opacity="0"/>
</linearGradient>
<linearGradient id="paint66_linear_30_11263" x1="498.769" y1="521.587" x2="498.769" y2="439.976" gradientUnits="userSpaceOnUse">
<stop stop-color="#22B4FD" stop-opacity="0.6"/>
<stop offset="1" stop-color="white" stop-opacity="0"/>
</linearGradient>
<linearGradient id="paint67_linear_30_11263" x1="470.351" y1="535.484" x2="468.688" y2="532.598" gradientUnits="userSpaceOnUse">
<stop stop-color="#103DB5"/>
<stop offset="0.6426" stop-color="#6BABFD"/>
</linearGradient>
<linearGradient id="paint68_linear_30_11263" x1="475.279" y1="538.299" x2="473.616" y2="535.413" gradientUnits="userSpaceOnUse">
<stop stop-color="#103DB5"/>
<stop offset="0.6426" stop-color="#6BABFD"/>
</linearGradient>
<linearGradient id="paint69_linear_30_11263" x1="489.051" y1="522.118" x2="506.191" y2="365.445" gradientUnits="userSpaceOnUse">
<stop stop-color="#92C3F1"/>
<stop offset="1" stop-color="white"/>
</linearGradient>
<linearGradient id="paint70_linear_30_11263" x1="493.173" y1="556.466" x2="504.971" y2="556.466" gradientUnits="userSpaceOnUse">
<stop offset="0.3375" stop-color="#97B5E1"/>
<stop offset="0.5932" stop-color="#E8F1FF"/>
</linearGradient>
<linearGradient id="paint71_linear_30_11263" x1="494.599" y1="552.958" x2="503.544" y2="552.958" gradientUnits="userSpaceOnUse">
<stop stop-color="#103DB5"/>
<stop offset="0.6426" stop-color="#6BABFD"/>
</linearGradient>
<linearGradient id="paint72_linear_30_11263" x1="499.072" y1="555.157" x2="499.072" y2="538.827" gradientUnits="userSpaceOnUse">
<stop stop-color="#22B4FD" stop-opacity="0.6"/>
<stop offset="1" stop-color="white" stop-opacity="0"/>
</linearGradient>
<clipPath id="clip0_30_11263">
<rect width="655" height="682" fill="white"/>
</clipPath>
</defs>
</svg>
