<svg width="1535" height="326" viewBox="0 0 1535 326" fill="none" xmlns="http://www.w3.org/2000/svg">
<path d="M333 166C333 186.88 328.693 207.556 320.326 226.847C311.959 246.137 299.694 263.665 284.233 278.43C268.772 293.194 250.417 304.906 230.217 312.897C210.016 320.887 188.365 325 166.5 325C144.635 325 122.984 320.887 102.783 312.897C82.5825 304.906 64.2277 293.194 48.7667 278.43C33.3058 263.665 21.0415 246.137 12.6741 226.847C4.30665 207.556 -1.91151e-06 186.88 0 166H33.3C33.3 182.704 36.7453 199.245 43.4392 214.677C50.1332 230.11 59.9446 244.132 72.3134 255.944C84.6821 267.756 99.366 277.125 115.527 283.517C131.687 289.91 149.008 293.2 166.5 293.2C183.992 293.2 201.313 289.91 217.473 283.517C233.634 277.125 248.318 267.756 260.687 255.944C273.055 244.132 282.867 230.11 289.561 214.677C296.255 199.245 299.7 182.704 299.7 166H333Z" fill="#21AEF7"/>
<path d="M935 159C935 179.88 930.667 200.556 922.25 219.847C913.832 239.137 901.494 256.665 885.94 271.43C870.387 286.194 851.922 297.906 831.599 305.897C811.277 313.887 789.496 318 767.5 318C745.504 318 723.723 313.887 703.401 305.897C683.078 297.906 664.613 286.194 649.06 271.43C633.506 256.665 621.168 239.137 612.75 219.847C604.333 200.556 600 179.88 600 159H633.5C633.5 175.704 636.966 192.245 643.7 207.677C650.434 223.11 660.305 237.132 672.748 248.944C685.191 260.756 699.963 270.125 716.22 276.517C732.478 282.91 749.903 286.2 767.5 286.2C785.097 286.2 802.522 282.91 818.78 276.517C835.037 270.125 849.809 260.756 862.252 248.944C874.695 237.132 884.566 223.11 891.3 207.677C898.034 192.245 901.5 175.704 901.5 159H935Z" fill="#F4A120"/>
<path d="M1535 166C1535 186.88 1530.69 207.556 1522.33 226.847C1513.96 246.137 1501.69 263.665 1486.23 278.43C1470.77 293.194 1452.42 304.906 1432.22 312.897C1412.02 320.887 1390.37 325 1368.5 325C1346.63 325 1324.98 320.887 1304.78 312.897C1284.58 304.906 1266.23 293.194 1250.77 278.43C1235.31 263.665 1223.04 246.137 1214.67 226.847C1206.31 207.556 1202 186.88 1202 166H1235.3C1235.3 182.704 1238.75 199.245 1245.44 214.677C1252.13 230.11 1261.94 244.132 1274.31 255.944C1286.68 267.756 1301.37 277.125 1317.53 283.517C1333.69 289.91 1351.01 293.2 1368.5 293.2C1385.99 293.2 1403.31 289.91 1419.47 283.517C1435.63 277.125 1450.32 267.756 1462.69 255.944C1475.06 244.132 1484.87 230.11 1491.56 214.677C1498.25 199.245 1501.7 182.704 1501.7 166H1535Z" fill="#99B600"/>
<path d="M300.212 166.643C300.184 145.753 304.466 125.06 312.814 105.746C321.163 86.4325 333.413 68.8755 348.866 54.0778C364.319 39.28 382.673 27.5314 402.878 19.5027C423.084 11.474 444.746 7.32238 466.628 7.28497C488.51 7.24756 510.183 11.325 530.409 19.2846C550.636 27.2442 569.021 38.93 584.513 53.6748C600.005 68.4196 612.302 85.9347 620.702 105.22C629.101 124.505 633.439 145.183 633.466 166.073L600.141 166.13C600.119 149.418 596.649 132.876 589.929 117.448C583.21 102.019 573.372 88.0073 560.978 76.2114C548.584 64.4155 533.877 55.0669 517.695 48.6992C501.514 42.3316 484.175 39.0696 466.67 39.0995C449.165 39.1294 431.835 42.4507 415.67 48.8737C399.506 55.2966 384.823 64.6955 372.461 76.5337C360.098 88.3719 350.298 102.418 343.619 117.869C336.941 133.32 333.515 149.874 333.537 166.586L300.212 166.643Z" fill="#019CF0"/>
<path d="M901.552 166.927C901.524 146.037 905.807 125.344 914.155 106.031C922.503 86.7167 934.753 69.1596 950.207 54.3619C965.66 39.5642 984.013 27.8156 1004.22 19.7869C1024.42 11.7581 1046.09 7.60656 1067.97 7.56915C1089.85 7.53174 1111.52 11.6092 1131.75 19.5688C1151.98 27.5284 1170.36 39.2142 1185.85 53.959C1201.35 68.7038 1213.64 86.2189 1222.04 105.504C1230.44 124.789 1234.78 145.467 1234.81 166.357L1201.48 166.414C1201.46 149.702 1197.99 133.16 1191.27 117.732C1184.55 102.303 1174.71 88.2914 1162.32 76.4956C1149.92 64.6997 1135.22 55.3511 1119.04 48.9834C1102.85 42.6158 1085.52 39.3538 1068.01 39.3837C1050.5 39.4136 1033.18 42.7349 1017.01 49.1579C1000.85 55.5808 986.164 64.9797 973.801 76.8179C961.439 88.6561 951.638 102.702 944.96 118.153C938.281 133.604 934.855 150.158 934.877 166.87L901.552 166.927Z" fill="#BBDE00"/>
<ellipse cx="167.033" cy="155.42" rx="78.0332" ry="80.4199" fill="#21AEF7"/>
<ellipse cx="167.447" cy="155.307" rx="60.3802" ry="60.3486" fill="#F4F4F4"/>
<path d="M163.792 149.152C163.504 147.36 162.992 145.872 162.256 144.688C161.52 143.472 160.576 142.56 159.424 141.952C158.304 141.344 156.992 141.056 155.488 141.088C154.112 141.088 152.896 141.472 151.84 142.24C150.816 143.008 150.304 144 150.304 145.216C150.304 146.208 150.576 147.072 151.12 147.808C151.696 148.544 152.56 149.232 153.712 149.872C154.864 150.512 156.32 151.2 158.08 151.936C159.296 152.416 160.544 152.976 161.824 153.616C163.104 154.256 164.288 155.024 165.376 155.92C166.464 156.784 167.344 157.808 168.016 158.992C168.688 160.144 169.024 161.504 169.024 163.072C169.024 164.96 168.512 166.64 167.488 168.112C166.464 169.584 165.024 170.736 163.168 171.568C161.344 172.368 159.2 172.768 156.736 172.768C155.456 172.768 154.064 172.56 152.56 172.144C151.088 171.76 149.696 171.184 148.384 170.416L148.528 172.432H144.832V161.2H148C148.448 163.888 149.472 165.92 151.072 167.296C152.704 168.64 154.64 169.312 156.88 169.312C158.032 169.312 159.04 169.104 159.904 168.688C160.768 168.272 161.44 167.728 161.92 167.056C162.4 166.352 162.64 165.6 162.64 164.8C162.64 163.68 162.24 162.752 161.44 162.016C160.672 161.28 159.696 160.656 158.512 160.144C157.36 159.632 156.176 159.136 154.96 158.656C153.424 158.016 151.984 157.344 150.64 156.64C149.328 155.904 148.176 155.072 147.184 154.144C146.192 153.216 145.424 152.16 144.88 150.976C144.336 149.76 144.064 148.368 144.064 146.8C144.064 145.808 144.256 144.784 144.64 143.728C145.024 142.64 145.648 141.648 146.512 140.752C147.376 139.824 148.528 139.072 149.968 138.496C151.408 137.92 153.184 137.632 155.296 137.632C156.576 137.632 157.968 137.824 159.472 138.208C161.008 138.592 162.32 139.168 163.408 139.936L163.216 137.968H166.96V149.152H163.792ZM174.528 172V168.832C175.264 168.8 175.872 168.704 176.352 168.544C176.864 168.384 177.248 168.016 177.504 167.44C177.792 166.864 177.936 165.936 177.936 164.656V145.408L172.704 148.528L170.976 145.648L181.968 137.632H184.848V164.128C184.848 164.992 184.832 165.824 184.799 166.624C184.799 167.424 184.768 168.032 184.704 168.448C185.216 168.384 185.856 168.352 186.624 168.352C187.424 168.32 187.984 168.304 188.304 168.304V172H174.528Z" fill="#21AEF7"/>
<ellipse cx="464.033" cy="155.42" rx="78.0332" ry="80.4199" fill="#019CF0"/>
<ellipse cx="464.447" cy="155.307" rx="60.3802" ry="60.3486" fill="#F4F4F4"/>
<path d="M456.069 149.152C455.781 147.36 455.269 145.872 454.533 144.688C453.797 143.472 452.853 142.56 451.701 141.952C450.581 141.344 449.269 141.056 447.765 141.088C446.389 141.088 445.173 141.472 444.117 142.24C443.093 143.008 442.581 144 442.581 145.216C442.581 146.208 442.853 147.072 443.397 147.808C443.973 148.544 444.837 149.232 445.989 149.872C447.141 150.512 448.597 151.2 450.357 151.936C451.573 152.416 452.821 152.976 454.101 153.616C455.381 154.256 456.565 155.024 457.653 155.92C458.741 156.784 459.621 157.808 460.293 158.992C460.965 160.144 461.301 161.504 461.301 163.072C461.301 164.96 460.789 166.64 459.765 168.112C458.741 169.584 457.301 170.736 455.445 171.568C453.621 172.368 451.477 172.768 449.013 172.768C447.733 172.768 446.341 172.56 444.837 172.144C443.365 171.76 441.973 171.184 440.661 170.416L440.805 172.432H437.109V161.2H440.277C440.725 163.888 441.749 165.92 443.349 167.296C444.981 168.64 446.917 169.312 449.157 169.312C450.309 169.312 451.317 169.104 452.181 168.688C453.045 168.272 453.717 167.728 454.197 167.056C454.677 166.352 454.917 165.6 454.917 164.8C454.917 163.68 454.517 162.752 453.717 162.016C452.949 161.28 451.973 160.656 450.789 160.144C449.637 159.632 448.453 159.136 447.237 158.656C445.701 158.016 444.261 157.344 442.917 156.64C441.605 155.904 440.453 155.072 439.461 154.144C438.469 153.216 437.701 152.16 437.157 150.976C436.613 149.76 436.341 148.368 436.341 146.8C436.341 145.808 436.533 144.784 436.917 143.728C437.301 142.64 437.925 141.648 438.789 140.752C439.653 139.824 440.805 139.072 442.245 138.496C443.685 137.92 445.461 137.632 447.573 137.632C448.853 137.632 450.245 137.824 451.749 138.208C453.285 138.592 454.597 139.168 455.685 139.936L455.493 137.968H459.237V149.152H456.069ZM464.836 172C464.836 170.336 465.044 168.848 465.46 167.536C465.908 166.224 466.484 165.04 467.188 163.984C467.924 162.928 468.724 161.952 469.588 161.056C470.484 160.16 471.396 159.28 472.324 158.416C474.66 156.24 476.308 154.272 477.268 152.512C478.26 150.752 478.756 149.008 478.756 147.28C478.756 146.256 478.628 145.264 478.372 144.304C478.116 143.344 477.652 142.56 476.98 141.952C476.308 141.312 475.364 141.008 474.148 141.04C473.284 141.04 472.5 141.248 471.796 141.664C471.124 142.048 470.612 142.512 470.26 143.056C470.612 143.408 470.852 143.824 470.98 144.304C471.14 144.784 471.22 145.2 471.22 145.552C471.22 145.904 471.108 146.336 470.884 146.848C470.66 147.328 470.308 147.744 469.828 148.096C469.38 148.448 468.756 148.624 467.956 148.624C466.964 148.56 466.196 148.192 465.652 147.52C465.14 146.848 464.884 146.048 464.884 145.12C464.884 144.384 465.108 143.6 465.556 142.768C466.004 141.904 466.676 141.088 467.572 140.32C468.468 139.52 469.556 138.88 470.836 138.4C472.148 137.888 473.652 137.632 475.348 137.632C476.628 137.632 477.892 137.792 479.14 138.112C480.42 138.432 481.588 138.944 482.644 139.648C483.7 140.352 484.532 141.28 485.14 142.432C485.78 143.584 486.1 145.008 486.1 146.704C486.1 147.504 485.956 148.352 485.668 149.248C485.38 150.112 484.852 151.072 484.084 152.128C483.316 153.152 482.244 154.336 480.868 155.68C479.492 157.024 477.716 158.592 475.54 160.384C473.78 161.824 472.484 163.136 471.652 164.32C470.82 165.504 470.324 166.416 470.164 167.056L479.572 167.296C480.308 167.328 480.932 167.28 481.444 167.152C481.988 166.992 482.404 166.688 482.692 166.24C483.012 165.76 483.172 165.072 483.172 164.176H486.244L485.86 172H464.836Z" fill="#019CF0"/>
<ellipse cx="765.033" cy="155.42" rx="78.0332" ry="80.4199" fill="#F4A120"/>
<ellipse cx="765.447" cy="155.307" rx="60.3802" ry="60.3486" fill="#F4F4F4"/>
<path d="M757.069 149.152C756.781 147.36 756.269 145.872 755.533 144.688C754.797 143.472 753.853 142.56 752.701 141.952C751.581 141.344 750.269 141.056 748.765 141.088C747.389 141.088 746.173 141.472 745.117 142.24C744.093 143.008 743.581 144 743.581 145.216C743.581 146.208 743.853 147.072 744.397 147.808C744.973 148.544 745.837 149.232 746.989 149.872C748.141 150.512 749.597 151.2 751.357 151.936C752.573 152.416 753.821 152.976 755.101 153.616C756.381 154.256 757.565 155.024 758.653 155.92C759.741 156.784 760.621 157.808 761.293 158.992C761.965 160.144 762.301 161.504 762.301 163.072C762.301 164.96 761.789 166.64 760.765 168.112C759.741 169.584 758.301 170.736 756.445 171.568C754.621 172.368 752.477 172.768 750.013 172.768C748.733 172.768 747.341 172.56 745.837 172.144C744.365 171.76 742.973 171.184 741.661 170.416L741.805 172.432H738.109V161.2H741.277C741.725 163.888 742.749 165.92 744.349 167.296C745.981 168.64 747.917 169.312 750.157 169.312C751.309 169.312 752.317 169.104 753.181 168.688C754.045 168.272 754.717 167.728 755.197 167.056C755.677 166.352 755.917 165.6 755.917 164.8C755.917 163.68 755.517 162.752 754.717 162.016C753.949 161.28 752.973 160.656 751.789 160.144C750.637 159.632 749.453 159.136 748.237 158.656C746.701 158.016 745.261 157.344 743.917 156.64C742.605 155.904 741.453 155.072 740.461 154.144C739.469 153.216 738.701 152.16 738.157 150.976C737.613 149.76 737.341 148.368 737.341 146.8C737.341 145.808 737.533 144.784 737.917 143.728C738.301 142.64 738.925 141.648 739.789 140.752C740.653 139.824 741.805 139.072 743.245 138.496C744.685 137.92 746.461 137.632 748.573 137.632C749.853 137.632 751.245 137.824 752.749 138.208C754.285 138.592 755.597 139.168 756.685 139.936L756.493 137.968H760.237V149.152H757.069ZM776.06 172.768C773.66 172.768 771.692 172.416 770.156 171.712C768.62 170.976 767.484 170.064 766.748 168.976C766.012 167.888 765.644 166.8 765.644 165.712C765.644 164.752 765.932 163.92 766.508 163.216C767.116 162.48 767.916 162.096 768.908 162.064C769.708 162.032 770.332 162.192 770.78 162.544C771.228 162.896 771.548 163.312 771.74 163.792C771.932 164.272 772.028 164.72 772.028 165.136C772.028 165.456 771.964 165.824 771.836 166.24C771.708 166.624 771.516 166.992 771.26 167.344C771.612 167.952 772.188 168.432 772.988 168.784C773.82 169.104 774.684 169.264 775.58 169.264C777.596 169.264 779.116 168.656 780.14 167.44C781.164 166.224 781.676 164.72 781.676 162.928C781.676 161.84 781.468 160.752 781.052 159.664C780.636 158.576 779.916 157.68 778.892 156.976C777.868 156.24 776.428 155.888 774.572 155.92C774.348 155.92 773.948 155.936 773.372 155.968C772.796 156 772.364 156.032 772.076 156.064V152.608C772.332 152.64 772.572 152.656 772.796 152.656C773.02 152.656 773.244 152.656 773.468 152.656C774.876 152.656 776.076 152.4 777.068 151.888C778.06 151.376 778.812 150.672 779.324 149.776C779.868 148.88 780.156 147.84 780.188 146.656C780.22 145.536 780.076 144.56 779.756 143.728C779.468 142.864 778.988 142.192 778.316 141.712C777.676 141.232 776.812 140.992 775.724 140.992C774.86 140.992 774.076 141.2 773.372 141.616C772.668 142.032 772.188 142.496 771.932 143.008C772.22 143.36 772.412 143.776 772.508 144.256C772.636 144.704 772.7 145.072 772.7 145.36C772.7 145.744 772.588 146.192 772.364 146.704C772.172 147.184 771.836 147.6 771.356 147.952C770.876 148.304 770.236 148.464 769.436 148.432C768.444 148.4 767.692 148.048 767.18 147.376C766.668 146.704 766.412 145.904 766.412 144.976C766.412 144.016 766.78 142.96 767.516 141.808C768.252 140.656 769.372 139.68 770.876 138.88C772.38 138.048 774.252 137.632 776.492 137.632C778.476 137.632 780.268 137.904 781.868 138.448C783.5 138.992 784.78 139.888 785.708 141.136C786.668 142.384 787.148 144.048 787.148 146.128C787.148 146.96 786.908 147.904 786.428 148.96C785.98 149.984 785.228 150.928 784.172 151.792C783.116 152.656 781.708 153.296 779.948 153.712C783.02 154.256 785.276 155.36 786.716 157.024C788.188 158.688 788.924 160.544 788.924 162.592C788.924 164.768 788.364 166.624 787.244 168.16C786.156 169.664 784.636 170.816 782.684 171.616C780.764 172.384 778.556 172.768 776.06 172.768Z" fill="#F4A120"/>
<ellipse cx="1069.03" cy="164.42" rx="78.0332" ry="80.4199" fill="#BBDE00"/>
<ellipse cx="1069.45" cy="164.307" rx="60.3802" ry="60.3486" fill="#F4F4F4"/>
<path d="M1061.07 158.152C1060.78 156.36 1060.27 154.872 1059.53 153.688C1058.8 152.472 1057.85 151.56 1056.7 150.952C1055.58 150.344 1054.27 150.056 1052.76 150.088C1051.39 150.088 1050.17 150.472 1049.12 151.24C1048.09 152.008 1047.58 153 1047.58 154.216C1047.58 155.208 1047.85 156.072 1048.4 156.808C1048.97 157.544 1049.84 158.232 1050.99 158.872C1052.14 159.512 1053.6 160.2 1055.36 160.936C1056.57 161.416 1057.82 161.976 1059.1 162.616C1060.38 163.256 1061.56 164.024 1062.65 164.92C1063.74 165.784 1064.62 166.808 1065.29 167.992C1065.96 169.144 1066.3 170.504 1066.3 172.072C1066.3 173.96 1065.79 175.64 1064.76 177.112C1063.74 178.584 1062.3 179.736 1060.44 180.568C1058.62 181.368 1056.48 181.768 1054.01 181.768C1052.73 181.768 1051.34 181.56 1049.84 181.144C1048.36 180.76 1046.97 180.184 1045.66 179.416L1045.8 181.432H1042.11V170.2H1045.28C1045.72 172.888 1046.75 174.92 1048.35 176.296C1049.98 177.64 1051.92 178.312 1054.16 178.312C1055.31 178.312 1056.32 178.104 1057.18 177.688C1058.04 177.272 1058.72 176.728 1059.2 176.056C1059.68 175.352 1059.92 174.6 1059.92 173.8C1059.92 172.68 1059.52 171.752 1058.72 171.016C1057.95 170.28 1056.97 169.656 1055.79 169.144C1054.64 168.632 1053.45 168.136 1052.24 167.656C1050.7 167.016 1049.26 166.344 1047.92 165.64C1046.6 164.904 1045.45 164.072 1044.46 163.144C1043.47 162.216 1042.7 161.16 1042.16 159.976C1041.61 158.76 1041.34 157.368 1041.34 155.8C1041.34 154.808 1041.53 153.784 1041.92 152.728C1042.3 151.64 1042.92 150.648 1043.79 149.752C1044.65 148.824 1045.8 148.072 1047.24 147.496C1048.68 146.92 1050.46 146.632 1052.57 146.632C1053.85 146.632 1055.24 146.824 1056.75 147.208C1058.28 147.592 1059.6 148.168 1060.68 148.936L1060.49 146.968H1064.24V158.152H1061.07ZM1088.21 173.128C1088.21 173.992 1088.2 174.824 1088.17 175.624C1088.13 176.424 1088.09 177.032 1088.02 177.448C1088.57 177.384 1089.22 177.352 1089.99 177.352C1090.76 177.32 1091.3 177.304 1091.62 177.304V181H1077.94V177.832H1078.23C1078.97 177.832 1079.59 177.752 1080.1 177.592C1080.65 177.432 1081.06 177.064 1081.35 176.488C1081.67 175.88 1081.83 174.936 1081.83 173.656V172.312H1068.82V167.8L1085.29 146.632H1088.21V167.992H1092.92V172.312H1088.21V173.128ZM1081.78 156.712L1073.29 167.848L1081.83 167.896L1081.88 156.712H1081.78Z" fill="#BBDE00"/>
<ellipse cx="1371.03" cy="164.42" rx="78.0332" ry="80.4199" fill="#99B600"/>
<ellipse cx="1371.45" cy="164.307" rx="60.3802" ry="60.3486" fill="#F4F4F4"/>
<path d="M1363.07 158.152C1362.78 156.36 1362.27 154.872 1361.53 153.688C1360.8 152.472 1359.85 151.56 1358.7 150.952C1357.58 150.344 1356.27 150.056 1354.76 150.088C1353.39 150.088 1352.17 150.472 1351.12 151.24C1350.09 152.008 1349.58 153 1349.58 154.216C1349.58 155.208 1349.85 156.072 1350.4 156.808C1350.97 157.544 1351.84 158.232 1352.99 158.872C1354.14 159.512 1355.6 160.2 1357.36 160.936C1358.57 161.416 1359.82 161.976 1361.1 162.616C1362.38 163.256 1363.56 164.024 1364.65 164.92C1365.74 165.784 1366.62 166.808 1367.29 167.992C1367.96 169.144 1368.3 170.504 1368.3 172.072C1368.3 173.96 1367.79 175.64 1366.76 177.112C1365.74 178.584 1364.3 179.736 1362.44 180.568C1360.62 181.368 1358.48 181.768 1356.01 181.768C1354.73 181.768 1353.34 181.56 1351.84 181.144C1350.36 180.76 1348.97 180.184 1347.66 179.416L1347.8 181.432H1344.11V170.2H1347.28C1347.72 172.888 1348.75 174.92 1350.35 176.296C1351.98 177.64 1353.92 178.312 1356.16 178.312C1357.31 178.312 1358.32 178.104 1359.18 177.688C1360.04 177.272 1360.72 176.728 1361.2 176.056C1361.68 175.352 1361.92 174.6 1361.92 173.8C1361.92 172.68 1361.52 171.752 1360.72 171.016C1359.95 170.28 1358.97 169.656 1357.79 169.144C1356.64 168.632 1355.45 168.136 1354.24 167.656C1352.7 167.016 1351.26 166.344 1349.92 165.64C1348.6 164.904 1347.45 164.072 1346.46 163.144C1345.47 162.216 1344.7 161.16 1344.16 159.976C1343.61 158.76 1343.34 157.368 1343.34 155.8C1343.34 154.808 1343.53 153.784 1343.92 152.728C1344.3 151.64 1344.92 150.648 1345.79 149.752C1346.65 148.824 1347.8 148.072 1349.24 147.496C1350.68 146.92 1352.46 146.632 1354.57 146.632C1355.85 146.632 1357.24 146.824 1358.75 147.208C1360.28 147.592 1361.6 148.168 1362.68 148.936L1362.49 146.968H1366.24V158.152H1363.07ZM1381.96 181.768C1379.88 181.768 1378.11 181.432 1376.64 180.76C1375.16 180.088 1374.03 179.256 1373.23 178.264C1372.46 177.24 1372.08 176.216 1372.08 175.192C1372.08 174.264 1372.36 173.432 1372.94 172.696C1373.52 171.96 1374.3 171.576 1375.29 171.544C1376.09 171.512 1376.72 171.672 1377.16 172.024C1377.61 172.344 1377.93 172.744 1378.12 173.224C1378.32 173.704 1378.41 174.168 1378.41 174.616C1378.41 174.872 1378.36 175.192 1378.27 175.576C1378.2 175.928 1378.08 176.264 1377.88 176.584C1378.04 176.936 1378.33 177.256 1378.75 177.544C1379.16 177.8 1379.63 178.008 1380.14 178.168C1380.68 178.296 1381.18 178.36 1381.63 178.36C1382.91 178.36 1383.93 178.024 1384.7 177.352C1385.5 176.68 1386.08 175.816 1386.43 174.76C1386.78 173.704 1386.96 172.632 1386.96 171.544C1386.96 170.808 1386.91 169.976 1386.81 169.048C1386.72 168.12 1386.48 167.208 1386.09 166.312C1385.74 165.416 1385.16 164.68 1384.36 164.104C1383.6 163.528 1382.54 163.24 1381.2 163.24C1380.75 163.24 1380.22 163.304 1379.61 163.432C1379 163.528 1378.33 163.704 1377.6 163.96C1376.89 164.216 1376.17 164.568 1375.44 165.016L1373.37 163.432L1373.18 147.4H1385.61C1386.73 147.4 1387.61 147.224 1388.25 146.872C1388.92 146.488 1389.26 145.624 1389.26 144.28H1392.28L1391.95 152.056L1376.88 152.344V160.888C1377.61 160.568 1378.52 160.296 1379.61 160.072C1380.7 159.848 1381.72 159.736 1382.68 159.736C1384.67 159.736 1386.4 160.024 1387.87 160.6C1389.34 161.176 1390.56 161.976 1391.52 163C1392.48 163.992 1393.18 165.144 1393.63 166.456C1394.11 167.736 1394.35 169.096 1394.35 170.536C1394.35 173 1393.74 175.08 1392.52 176.776C1391.34 178.44 1389.8 179.688 1387.92 180.52C1386.03 181.352 1384.04 181.768 1381.96 181.768Z" fill="#99B600"/>
<circle cx="16.5" cy="163.5" r="16.5" fill="#21AEF7"/>
<circle cx="1518.5" cy="167.5" r="16.5" fill="#99B600"/>
</svg>
