<svg width="109" height="16" viewBox="0 0 109 16" fill="none" xmlns="http://www.w3.org/2000/svg">
<path d="M10.2565 3.48039H2.8524V8.06568H9.44846V9.68181H2.8524V15H0.97318V1.84547H10.2565V3.48039ZM16.5926 15.1128C13.6046 15.1128 11.4059 12.9892 11.4059 10.0201C11.4059 7.0509 13.6046 4.94618 16.5926 4.94618C19.5805 4.94618 21.7604 7.0509 21.7604 10.0201C21.7604 12.9892 19.5805 15.1128 16.5926 15.1128ZM16.5926 13.5342C18.5094 13.5342 19.9376 12.1436 19.9376 10.0201C19.9376 7.89655 18.5094 6.52472 16.5926 6.52472C14.6758 6.52472 13.2288 7.89655 13.2288 10.0201C13.2288 12.1436 14.6758 13.5342 16.5926 13.5342ZM31.7347 5.04014H33.5387V15H31.8286V13.4966C31.0957 14.5302 29.8555 15.1128 28.446 15.1128C25.8715 15.1128 24.1614 13.7033 24.1614 10.7718V5.04014H25.9655V10.565C25.9655 12.5194 26.9427 13.4966 28.6528 13.4966C30.532 13.4966 31.7347 12.3315 31.7347 10.1892V5.04014ZM42.2913 4.94618C44.7155 4.94618 46.4256 6.3368 46.4256 9.26838V15H44.6216V9.4751C44.6216 7.52071 43.6444 6.56231 41.9343 6.56231C40.0175 6.56231 38.7772 7.70863 38.7772 9.86973V15H36.9731V5.04014H38.702V6.54351C39.4349 5.52874 40.7128 4.94618 42.2913 4.94618ZM57.4114 1.0562H59.2155V15H57.4866V13.4215C56.6785 14.549 55.4006 15.1128 53.9349 15.1128C51.0221 15.1128 48.8985 13.0644 48.8985 10.0201C48.8985 6.97574 51.0221 4.94618 53.9349 4.94618C55.3443 4.94618 56.5846 5.47236 57.4114 6.54351V1.0562ZM54.0852 13.5342C55.9832 13.5342 57.4302 12.1436 57.4302 10.0201C57.4302 7.89655 55.9832 6.52472 54.0852 6.52472C52.1684 6.52472 50.7214 7.89655 50.7214 10.0201C50.7214 12.1436 52.1684 13.5342 54.0852 13.5342ZM66.2558 4.94618C68.9806 4.94618 70.5216 6.26163 70.5216 8.9865V15H68.8115V13.6845C68.2102 14.5866 67.1014 15.1128 65.5417 15.1128C63.2866 15.1128 61.8584 13.9101 61.8584 12.1812C61.8584 10.5838 62.892 9.26838 65.8611 9.26838H68.7176V8.91133C68.7176 7.38916 67.8343 6.50593 66.0491 6.50593C64.8652 6.50593 63.6625 6.91936 62.892 7.57709L62.1403 6.22405C63.1739 5.39719 64.6584 4.94618 66.2558 4.94618ZM65.8423 13.7221C67.1954 13.7221 68.2665 13.102 68.7176 11.9557V10.565H65.9363C64.151 10.565 63.6437 11.2604 63.6437 12.106C63.6437 13.102 64.4705 13.7221 65.8423 13.7221ZM78.8965 13.1208L79.4602 14.4174C78.9153 14.8872 78.0884 15.1128 77.2803 15.1128C75.2696 15.1128 74.1232 14.004 74.1232 11.9932V6.52472H72.4319V5.04014H74.1232V2.86025H75.9273V5.04014H78.7837V6.52472H75.9273V11.9181C75.9273 12.9892 76.4911 13.5906 77.487 13.5906C78.0132 13.5906 78.5206 13.4215 78.8965 13.1208ZM82.5433 3.12334C81.848 3.12334 81.3218 2.61595 81.3218 1.95822C81.3218 1.30049 81.848 0.774313 82.5433 0.774313C83.2386 0.774313 83.7648 1.2817 83.7648 1.92064C83.7648 2.59716 83.2574 3.12334 82.5433 3.12334ZM81.6413 15V5.04014H83.4453V15H81.6413ZM91.1557 15.1128C88.1678 15.1128 85.9691 12.9892 85.9691 10.0201C85.9691 7.0509 88.1678 4.94618 91.1557 4.94618C94.1437 4.94618 96.3236 7.0509 96.3236 10.0201C96.3236 12.9892 94.1437 15.1128 91.1557 15.1128ZM91.1557 13.5342C93.0725 13.5342 94.5007 12.1436 94.5007 10.0201C94.5007 7.89655 93.0725 6.52472 91.1557 6.52472C89.2389 6.52472 87.7919 7.89655 87.7919 10.0201C87.7919 12.1436 89.2389 13.5342 91.1557 13.5342ZM104.137 4.94618C106.561 4.94618 108.271 6.3368 108.271 9.26838V15H106.467V9.4751C106.467 7.52071 105.49 6.56231 103.78 6.56231C101.863 6.56231 100.623 7.70863 100.623 9.86973V15H98.8185V5.04014H100.547V6.54351C101.28 5.52874 102.558 4.94618 104.137 4.94618Z" fill="#5A6778"/>
</svg>
