<svg width="154" height="49" viewBox="0 0 154 49" fill="none" xmlns="http://www.w3.org/2000/svg">
<path d="M80.1152 0.5C85.8841 0.5 88.7686 3.39505 88.7686 9.18516H82.2786C82.2786 7.73763 81.5575 7.01387 80.1152 7.01387H67.1353C65.693 7.01387 64.9719 7.73763 64.9719 9.18516V22.2129C64.9719 23.6604 65.693 24.3842 67.1353 24.3842H80.1152C81.5575 24.3842 82.2786 23.6604 82.2786 22.2129V18.956H71.4619V12.4421H88.7686V22.2129C88.7686 28.003 85.8841 30.8981 80.1152 30.8981H67.1353C61.3664 30.8981 58.4819 28.003 58.4819 22.2129V9.18516C58.4819 3.39505 61.3664 0.5 67.1353 0.5H80.1152Z" fill="url(#paint0_linear_183_1569)"/>
<path d="M80.1152 0.5C85.8841 0.5 88.7686 3.39505 88.7686 9.18516H82.2786C82.2786 7.73763 81.5575 7.01387 80.1152 7.01387H67.1353C65.693 7.01387 64.9719 7.73763 64.9719 9.18516V22.2129C64.9719 23.6604 65.693 24.3842 67.1353 24.3842H80.1152C81.5575 24.3842 82.2786 23.6604 82.2786 22.2129V18.956H71.4619V12.4421H88.7686V22.2129C88.7686 28.003 85.8841 30.8981 80.1152 30.8981H67.1353C61.3664 30.8981 58.4819 28.003 58.4819 22.2129V9.18516C58.4819 3.39505 61.3664 0.5 67.1353 0.5H80.1152Z" fill="url(#paint1_linear_183_1569)"/>
<path d="M119.889 0.5V7.01387H98.2561V12.4421H119.889V18.956H98.2561V30.8981H91.7661V0.5H119.889Z" fill="url(#paint2_linear_183_1569)"/>
<path d="M119.889 0.5V7.01387H98.2561V12.4421H119.889V18.956H98.2561V30.8981H91.7661V0.5H119.889Z" fill="url(#paint3_linear_183_1569)"/>
<path d="M129.377 24.3842H153.174V30.8981H122.887V0.5H153.174V7.01387H129.377V12.4421H153.174V18.956H129.377V24.3842Z" fill="url(#paint4_linear_183_1569)"/>
<path d="M129.377 24.3842H153.174V30.8981H122.887V0.5H153.174V7.01387H129.377V12.4421H153.174V18.956H129.377V24.3842Z" fill="url(#paint5_linear_183_1569)"/>
<path d="M66.647 36.457V37.5409H61.1643C59.3533 37.5409 58.6887 38.2246 58.6887 40.0256V41.7098H65.1517V42.7937H58.6887V48.1299H57.559V40.4258C57.559 37.4075 58.506 36.457 61.5132 36.457H66.647Z" fill="#5A6778"/>
<path d="M68.3155 45.5285V42.3935C68.3155 40.7093 69.2293 39.7921 70.9073 39.7921H74.8948C76.5728 39.7921 77.4866 40.7093 77.4866 42.3935V45.5285C77.4866 47.2127 76.5728 48.1299 74.8948 48.1299H70.9073C69.2293 48.1299 68.3155 47.2127 68.3155 45.5285ZM76.4067 45.5619V42.3602C76.4067 41.3096 75.9249 40.826 74.8782 40.826H70.9239C69.8772 40.826 69.3954 41.3096 69.3954 42.3602V45.5619C69.3954 46.6124 69.8772 47.096 70.9239 47.096H74.8782C75.9249 47.096 76.4067 46.6124 76.4067 45.5619Z" fill="#5A6778"/>
<path d="M79.7268 45.5285V39.7921H80.8068V45.5619C80.8068 46.6124 81.2886 47.096 82.3353 47.096H85.5086C86.5553 47.096 87.0372 46.6124 87.0372 45.5619V39.7921H88.1171V45.5285C88.1171 47.2127 87.2033 48.1299 85.5253 48.1299H82.3187C80.6406 48.1299 79.7268 47.2127 79.7268 45.5285Z" fill="#5A6778"/>
<path d="M91.5185 48.1299H90.4386V42.3935C90.4386 40.7093 91.3524 39.7921 93.0304 39.7921H96.237C97.915 39.7921 98.8288 40.7093 98.8288 42.3935V48.1299H97.7489V42.3602C97.7489 41.3096 97.2671 40.826 96.2204 40.826H93.047C92.0003 40.826 91.5185 41.3096 91.5185 42.3602V48.1299Z" fill="#5A6778"/>
<path d="M109.474 48.1299H103.659C101.981 48.1299 101.067 47.2127 101.067 45.5285V42.3935C101.067 40.7093 101.981 39.7921 103.659 39.7921H106.882C107.48 39.7921 107.995 39.9089 108.394 40.1423V36.457H109.474V48.1299ZM108.394 47.096V42.3602C108.394 41.3096 107.912 40.826 106.866 40.826H103.676C102.629 40.826 102.147 41.3096 102.147 42.3602V45.5619C102.147 46.6124 102.629 47.096 103.676 47.096H108.394Z" fill="#5A6778"/>
<path d="M112.443 40.826V39.7921H118.541C120.219 39.7921 121.132 40.7093 121.132 42.3935V45.5285C121.132 47.2127 120.219 48.1299 118.541 48.1299H114.221C112.543 48.1299 111.629 47.2127 111.629 46.0288V45.4118C111.629 44.2278 112.543 43.294 114.221 43.294L120.053 43.3107V42.3602C120.053 41.3096 119.571 40.826 118.524 40.826H112.443ZM120.053 45.5619V44.3445L114.238 44.3279C113.191 44.3279 112.709 44.8281 112.709 45.3784V46.0621C112.709 46.6124 113.191 47.096 114.238 47.096H118.524C119.571 47.096 120.053 46.6124 120.053 45.5619Z" fill="#5A6778"/>
<path d="M123.452 45.5285V37.2908H124.532V39.7921H127.024V40.826H124.532V45.5619C124.532 46.6124 125.014 47.096 126.06 47.096H128.569L128.586 48.1299H126.044C124.366 48.1299 123.452 47.2127 123.452 45.5285Z" fill="#5A6778"/>
<path d="M130.249 37.7911V36.457H131.595V37.7911H130.249ZM130.382 48.1299V39.7921H131.462V48.1299H130.382Z" fill="#5A6778"/>
<path d="M133.757 45.5285V42.3935C133.757 40.7093 134.671 39.7921 136.349 39.7921H140.337C142.015 39.7921 142.928 40.7093 142.928 42.3935V45.5285C142.928 47.2127 142.015 48.1299 140.337 48.1299H136.349C134.671 48.1299 133.757 47.2127 133.757 45.5285ZM141.849 45.5619V42.3602C141.849 41.3096 141.367 40.826 140.32 40.826H136.366C135.319 40.826 134.837 41.3096 134.837 42.3602V45.5619C134.837 46.6124 135.319 47.096 136.366 47.096H140.32C141.367 47.096 141.849 46.6124 141.849 45.5619Z" fill="#5A6778"/>
<path d="M146.249 48.1299H145.169V42.3935C145.169 40.7093 146.082 39.7921 147.761 39.7921H150.967C152.645 39.7921 153.559 40.7093 153.559 42.3935V48.1299H152.479V42.3602C152.479 41.3096 151.997 40.826 150.95 40.826H147.777C146.73 40.826 146.249 41.3096 146.249 42.3602V48.1299Z" fill="#5A6778"/>
<path d="M0 24.4999C0 24.4999 0.345322 26.8597 3.79853 27.4352C5.52514 27.723 9.79849 26.687 13.6402 25.5791C13.6402 25.5791 16.5714 13.6429 20 7.92857C23.4286 2.21429 28.5714 1.07143 28.5714 1.07143C28.5714 1.07143 25.1429 0.5 22.8571 0.5C20.5714 0.5 17.7312 1.32687 17.7312 1.32687C7.51652 4.0834 0 13.4139 0 24.4999Z" fill="url(#paint6_linear_183_1569)"/>
<path d="M23.9998 48.4995C37.2545 48.4995 47.9996 37.7544 47.9996 24.4995C47.9996 22.2946 47.7023 20.1591 47.1455 18.1309C46.6945 16.7714 46.0059 15.654 44.9549 15.3652C43.7891 15.0449 42.4883 14.9832 39.5818 15.7234L17.7142 47.668C19.7176 48.2102 21.8249 48.4995 23.9998 48.4995Z" fill="url(#paint7_linear_183_1569)"/>
<path d="M27.9403 19.4848C27.9403 19.4848 38.3006 14.8281 42.806 15.5445C45.7344 16.0102 46.7594 17.2325 47.1182 18.0312C45.8443 13.4686 43.2559 9.45448 39.7871 6.4226C39.4808 6.15483 39.1675 5.89472 38.8477 5.64258C38.8477 5.64258 34.8572 5.64258 32 9.64254C29.1429 13.6425 27.9403 19.4848 27.9403 19.4848Z" fill="url(#paint8_linear_183_1569)"/>
<path d="M0 24.5006C0 26.8834 0.347231 29.185 0.993853 31.3577C1.16675 31.9387 1.36106 32.5104 1.57585 33.072C3.77563 38.8235 8.12458 43.5123 13.6403 46.1557L16 47.135L22.209 22.8887C22.209 22.8887 7.2518 28.0114 3.79856 27.4359C0.345324 26.8603 0 24.5006 0 24.5006Z" fill="url(#paint9_linear_183_1569)"/>
<defs>
<linearGradient id="paint0_linear_183_1569" x1="106.162" y1="-2.45295" x2="106.162" y2="34.6037" gradientUnits="userSpaceOnUse">
<stop stop-color="#2BADFD"/>
<stop offset="0.880208" stop-color="#1570EF"/>
</linearGradient>
<linearGradient id="paint1_linear_183_1569" x1="124.237" y1="20.5349" x2="79.0645" y2="5.72334" gradientUnits="userSpaceOnUse">
<stop stop-color="#22B4FD"/>
<stop offset="1" stop-color="#2D79FF"/>
</linearGradient>
<linearGradient id="paint2_linear_183_1569" x1="106.162" y1="-2.45295" x2="106.162" y2="34.6037" gradientUnits="userSpaceOnUse">
<stop stop-color="#2BADFD"/>
<stop offset="0.880208" stop-color="#1570EF"/>
</linearGradient>
<linearGradient id="paint3_linear_183_1569" x1="124.237" y1="20.5349" x2="79.0645" y2="5.72334" gradientUnits="userSpaceOnUse">
<stop stop-color="#22B4FD"/>
<stop offset="1" stop-color="#2D79FF"/>
</linearGradient>
<linearGradient id="paint4_linear_183_1569" x1="106.162" y1="-2.45295" x2="106.162" y2="34.6037" gradientUnits="userSpaceOnUse">
<stop stop-color="#2BADFD"/>
<stop offset="0.880208" stop-color="#1570EF"/>
</linearGradient>
<linearGradient id="paint5_linear_183_1569" x1="124.237" y1="20.5349" x2="79.0645" y2="5.72334" gradientUnits="userSpaceOnUse">
<stop stop-color="#22B4FD"/>
<stop offset="1" stop-color="#2D79FF"/>
</linearGradient>
<linearGradient id="paint6_linear_183_1569" x1="23.9998" y1="6.41045" x2="40.6566" y2="45.0969" gradientUnits="userSpaceOnUse">
<stop stop-color="#8BCB64"/>
<stop offset="0.440353" stop-color="#16946E"/>
<stop offset="1" stop-color="#8BCB64"/>
</linearGradient>
<linearGradient id="paint7_linear_183_1569" x1="40.5714" y1="-6.35756" x2="24.5717" y2="47.3568" gradientUnits="userSpaceOnUse">
<stop stop-color="#22B2FD"/>
<stop offset="0.440353" stop-color="#1365F5"/>
<stop offset="1" stop-color="#22B4FD"/>
</linearGradient>
<linearGradient id="paint8_linear_183_1569" x1="44" y1="10.214" x2="28.3439" y2="20.7207" gradientUnits="userSpaceOnUse">
<stop stop-color="#22B2FD"/>
<stop offset="1" stop-color="#1365F5"/>
</linearGradient>
<linearGradient id="paint9_linear_183_1569" x1="44.3741" y1="12.0689" x2="3.97124" y2="35.2056" gradientUnits="userSpaceOnUse">
<stop stop-color="#8BCB64"/>
<stop offset="0.308261" stop-color="#3BA56B"/>
<stop offset="0.596814" stop-color="#3BA56B"/>
<stop offset="1" stop-color="#8BCB64"/>
</linearGradient>
</defs>
</svg>
