<svg width="160" height="50" viewBox="0 0 160 50" fill="none" xmlns="http://www.w3.org/2000/svg">
<path d="M83.4536 0C89.4629 0 92.4675 3.01568 92.4675 9.04704H85.7071C85.7071 7.5392 84.956 6.78528 83.4536 6.78528H69.9328C68.4305 6.78528 67.6794 7.5392 67.6794 9.04704V22.6176C67.6794 24.1254 68.4305 24.8794 69.9328 24.8794H83.4536C84.956 24.8794 85.7071 24.1254 85.7071 22.6176V19.225H74.4398V12.4397H92.4675V22.6176C92.4675 28.649 89.4629 31.6646 83.4536 31.6646H69.9328C63.9236 31.6646 60.9189 28.649 60.9189 22.6176V9.04704C60.9189 3.01568 63.9236 0 69.9328 0H83.4536Z" fill="white"/>
<path d="M83.4536 0C89.4629 0 92.4675 3.01568 92.4675 9.04704H85.7071C85.7071 7.5392 84.956 6.78528 83.4536 6.78528H69.9328C68.4305 6.78528 67.6794 7.5392 67.6794 9.04704V22.6176C67.6794 24.1254 68.4305 24.8794 69.9328 24.8794H83.4536C84.956 24.8794 85.7071 24.1254 85.7071 22.6176V19.225H74.4398V12.4397H92.4675V22.6176C92.4675 28.649 89.4629 31.6646 83.4536 31.6646H69.9328C63.9236 31.6646 60.9189 28.649 60.9189 22.6176V9.04704C60.9189 3.01568 63.9236 0 69.9328 0H83.4536Z" fill="white"/>
<path d="M124.885 0V6.78528H102.35V12.4397H124.885V19.225H102.35V31.6646H95.5899V0H124.885Z" fill="white"/>
<path d="M124.885 0V6.78528H102.35V12.4397H124.885V19.225H102.35V31.6646H95.5899V0H124.885Z" fill="white"/>
<path d="M134.768 24.8794H159.556V31.6646H128.007V0H159.556V6.78528H134.768V12.4397H159.556V19.225H134.768V24.8794Z" fill="white"/>
<path d="M134.768 24.8794H159.556V31.6646H128.007V0H159.556V6.78528H134.768V12.4397H159.556V19.225H134.768V24.8794Z" fill="white"/>
<path d="M69.4243 37.4546V38.5837H63.7131C61.8266 38.5837 61.1344 39.2958 61.1344 41.1718V42.9262H67.8667V44.0553H61.1344V49.6138H59.9575V41.5887C59.9575 38.4447 60.944 37.4546 64.0765 37.4546H69.4243Z" fill="white"/>
<path d="M71.1622 46.904V43.6384C71.1622 41.884 72.1141 40.9287 73.8621 40.9287H78.0157C79.7636 40.9287 80.7155 41.884 80.7155 43.6384V46.904C80.7155 48.6584 79.7636 49.6138 78.0157 49.6138H73.8621C72.1141 49.6138 71.1622 48.6584 71.1622 46.904ZM79.5906 46.9388V43.6037C79.5906 42.5094 79.0887 42.0056 77.9984 42.0056H73.8794C72.789 42.0056 72.2872 42.5094 72.2872 43.6037V46.9388C72.2872 48.0331 72.789 48.5369 73.8794 48.5369H77.9984C79.0887 48.5369 79.5906 48.0331 79.5906 46.9388Z" fill="white"/>
<path d="M83.0491 46.904V40.9287H84.174V46.9388C84.174 48.0331 84.6759 48.5369 85.7662 48.5369H89.0718C90.1621 48.5369 90.664 48.0331 90.664 46.9388V40.9287H91.7889V46.904C91.7889 48.6584 90.837 49.6138 89.0891 49.6138H85.7489C84.0009 49.6138 83.0491 48.6584 83.0491 46.904Z" fill="white"/>
<path d="M95.332 49.6138H94.2071V43.6384C94.2071 41.884 95.159 40.9287 96.9069 40.9287H100.247C101.995 40.9287 102.947 41.884 102.947 43.6384V49.6138H101.822V43.6037C101.822 42.5094 101.32 42.0056 100.23 42.0056H96.9243C95.8339 42.0056 95.332 42.5094 95.332 43.6037V49.6138Z" fill="white"/>
<path d="M114.036 49.6138H107.978C106.23 49.6138 105.279 48.6584 105.279 46.904V43.6384C105.279 41.884 106.23 40.9287 107.978 40.9287H111.336C111.959 40.9287 112.496 41.0502 112.911 41.2934V37.4546H114.036V49.6138ZM112.911 48.5369V43.6037C112.911 42.5094 112.409 42.0056 111.319 42.0056H107.996C106.905 42.0056 106.404 42.5094 106.404 43.6037V46.9388C106.404 48.0331 106.905 48.5369 107.996 48.5369H112.911Z" fill="white"/>
<path d="M117.129 42.0056V40.9287H123.48C125.228 40.9287 126.18 41.884 126.18 43.6384V46.904C126.18 48.6584 125.228 49.6138 123.48 49.6138H118.98C117.232 49.6138 116.281 48.6584 116.281 47.4252V46.7825C116.281 45.5492 117.232 44.5764 118.98 44.5764L125.055 44.5938V43.6037C125.055 42.5094 124.553 42.0056 123.463 42.0056H117.129ZM125.055 46.9388V45.6708L118.998 45.6534C117.907 45.6534 117.405 46.1745 117.405 46.7477V47.4599C117.405 48.0331 117.907 48.5369 118.998 48.5369H123.463C124.553 48.5369 125.055 48.0331 125.055 46.9388Z" fill="white"/>
<path d="M128.596 46.904V38.3231H129.721V40.9287H132.317V42.0056H129.721V46.9388C129.721 48.0331 130.223 48.5369 131.313 48.5369H133.926L133.944 49.6138H131.296C129.548 49.6138 128.596 48.6584 128.596 46.904Z" fill="white"/>
<path d="M135.677 38.8442V37.4546H137.079V38.8442H135.677ZM135.815 49.6138V40.9287H136.94V49.6138H135.815Z" fill="white"/>
<path d="M139.331 46.904V43.6384C139.331 41.884 140.283 40.9287 142.031 40.9287H146.184C147.932 40.9287 148.884 41.884 148.884 43.6384V46.904C148.884 48.6584 147.932 49.6138 146.184 49.6138H142.031C140.283 49.6138 139.331 48.6584 139.331 46.904ZM147.759 46.9388V43.6037C147.759 42.5094 147.257 42.0056 146.167 42.0056H142.048C140.958 42.0056 140.456 42.5094 140.456 43.6037V46.9388C140.456 48.0331 140.958 48.5369 142.048 48.5369H146.167C147.257 48.5369 147.759 48.0331 147.759 46.9388Z" fill="white"/>
<path d="M152.343 49.6138H151.218V43.6384C151.218 41.884 152.17 40.9287 153.917 40.9287H157.258C159.006 40.9287 159.958 41.884 159.958 43.6384V49.6138H158.833V43.6037C158.833 42.5094 158.331 42.0056 157.24 42.0056H153.935C152.844 42.0056 152.343 42.5094 152.343 43.6037V49.6138Z" fill="white"/>
<path d="M0 24.9999C0 24.9999 0.35971 27.458 3.95681 28.0575C5.75535 28.3573 10.2068 27.2781 14.2085 26.124C14.2085 26.124 17.2619 13.6905 20.8333 7.7381C24.4048 1.78571 29.7619 0.595238 29.7619 0.595238C29.7619 0.595238 26.1905 0 23.8095 0C21.4286 0 18.47 0.861322 18.47 0.861322C7.8297 3.7327 0 13.452 0 24.9999Z" fill="url(#paint0_linear_32_1622)"/>
<path d="M24.9996 49.9999C38.8066 49.9999 49.9994 38.807 49.9994 24.9999C49.9994 22.7031 49.6897 20.4786 49.1097 18.366C48.6399 16.9498 47.9226 15.7858 46.8278 15.485C45.6135 15.1514 44.2584 15.0871 41.2308 15.8581L18.4521 49.1338C20.539 49.6986 22.7341 49.9999 24.9996 49.9999Z" fill="url(#paint1_linear_32_1622)"/>
<path d="M29.1045 19.7759C29.1045 19.7759 39.8964 14.9252 44.5896 15.6715C47.64 16.1565 48.7077 17.4298 49.0815 18.2617C47.7544 13.5091 45.0583 9.32766 41.4449 6.16946C41.1258 5.89053 40.7995 5.61959 40.4664 5.35693C40.4664 5.35693 36.3095 5.35693 33.3334 9.52356C30.3572 13.6902 29.1045 19.7759 29.1045 19.7759Z" fill="white"/>
<path d="M0 24.9999C0 27.4819 0.361699 29.8795 1.03526 32.1427C1.21537 32.7479 1.41777 33.3434 1.64151 33.9284C3.93295 39.9196 8.46311 44.8037 14.2086 47.5573L16.6667 48.5774L23.1343 23.3208C23.1343 23.3208 7.55396 28.657 3.95683 28.0575C0.359712 27.4579 0 24.9999 0 24.9999Z" fill="white"/>
<defs>
<linearGradient id="paint0_linear_32_1622" x1="14.881" y1="0" x2="14.881" y2="28.1082" gradientUnits="userSpaceOnUse">
<stop stop-color="white"/>
<stop offset="1" stop-color="white" stop-opacity="0.6"/>
</linearGradient>
<linearGradient id="paint1_linear_32_1622" x1="41.6665" y1="15.4166" x2="22.7081" y2="50" gradientUnits="userSpaceOnUse">
<stop stop-color="white" stop-opacity="0.6"/>
<stop offset="1" stop-color="white"/>
</linearGradient>
</defs>
</svg>
