<svg width="266" height="32" viewBox="0 0 266 32" fill="none" xmlns="http://www.w3.org/2000/svg">
<path d="M0.452 20.896H8.372C8.372 24.152 11.012 25.648 21.044 25.648C29.36 25.648 31.868 24.724 31.868 22.304C31.868 19.752 30.108 19.312 20.12 18.828C6.7 18.212 1.376 16.1 1.376 9.192C1.376 2.416 8.284 0.259998 19.812 0.259998C31.428 0.259998 38.468 3.164 38.468 10.776H30.548C30.548 7.388 27.16 6.552 18.932 6.552C11.144 6.552 9.296 7.3 9.296 9.588C9.296 11.964 11.144 12.404 20.12 12.932C32.264 13.592 39.788 14.252 39.788 22.04C39.788 30.268 32 31.94 20.604 31.94C7.976 31.94 0.452 29.784 0.452 20.896ZM81.1198 16.056C81.1198 26.748 75.2678 31.94 61.7598 31.94C48.2078 31.94 42.3998 26.792 42.3998 16.056V0.699998H50.3198V16.056C50.3198 20.368 51.5078 25.296 61.7598 25.296C72.0118 25.296 73.1998 20.324 73.1998 16.056V0.699998H81.1198V16.056ZM116.191 0.699998H124.111V31.5H113.331L92.3433 8.4V31.5H84.4233V0.699998H95.1593L116.191 23.844V0.699998ZM161.486 14.78C164.126 16.408 165.842 18.96 165.842 22.524C165.842 27.716 162.806 31.5 155.81 31.5H127.65V0.699998H154.754C161.75 0.699998 163.906 4.264 163.906 8.796C163.906 10.952 163.026 13.064 161.486 14.78ZM135.57 6.42V12.8H151.894H151.938C154.05 12.8 155.986 12.8 155.986 9.588C155.986 6.42 154.05 6.42 151.894 6.42H135.57ZM153.874 25.384C155.986 25.384 157.922 25.384 157.922 22.128C157.922 18.872 155.986 18.872 153.874 18.872H135.57V25.384H153.874ZM201.03 6.992H176.39V13.24H201.03V18.96H176.39V25.208H201.03V31.5H168.47V0.699998H201.03V6.992ZM211.839 24.856H235.599V31.5H203.919V0.699998H211.839V24.856ZM265.296 0.699998V7.344H250.336V31.5H242.416V7.344H227.456V0.699998H265.296Z" fill="url(#paint0_linear_472_3372)"/>
<path d="M0.452 20.896H8.372C8.372 24.152 11.012 25.648 21.044 25.648C29.36 25.648 31.868 24.724 31.868 22.304C31.868 19.752 30.108 19.312 20.12 18.828C6.7 18.212 1.376 16.1 1.376 9.192C1.376 2.416 8.284 0.259998 19.812 0.259998C31.428 0.259998 38.468 3.164 38.468 10.776H30.548C30.548 7.388 27.16 6.552 18.932 6.552C11.144 6.552 9.296 7.3 9.296 9.588C9.296 11.964 11.144 12.404 20.12 12.932C32.264 13.592 39.788 14.252 39.788 22.04C39.788 30.268 32 31.94 20.604 31.94C7.976 31.94 0.452 29.784 0.452 20.896ZM81.1198 16.056C81.1198 26.748 75.2678 31.94 61.7598 31.94C48.2078 31.94 42.3998 26.792 42.3998 16.056V0.699998H50.3198V16.056C50.3198 20.368 51.5078 25.296 61.7598 25.296C72.0118 25.296 73.1998 20.324 73.1998 16.056V0.699998H81.1198V16.056ZM116.191 0.699998H124.111V31.5H113.331L92.3433 8.4V31.5H84.4233V0.699998H95.1593L116.191 23.844V0.699998ZM161.486 14.78C164.126 16.408 165.842 18.96 165.842 22.524C165.842 27.716 162.806 31.5 155.81 31.5H127.65V0.699998H154.754C161.75 0.699998 163.906 4.264 163.906 8.796C163.906 10.952 163.026 13.064 161.486 14.78ZM135.57 6.42V12.8H151.894H151.938C154.05 12.8 155.986 12.8 155.986 9.588C155.986 6.42 154.05 6.42 151.894 6.42H135.57ZM153.874 25.384C155.986 25.384 157.922 25.384 157.922 22.128C157.922 18.872 155.986 18.872 153.874 18.872H135.57V25.384H153.874ZM201.03 6.992H176.39V13.24H201.03V18.96H176.39V25.208H201.03V31.5H168.47V0.699998H201.03V6.992ZM211.839 24.856H235.599V31.5H203.919V0.699998H211.839V24.856ZM265.296 0.699998V7.344H250.336V31.5H242.416V7.344H227.456V0.699998H265.296Z" fill="url(#paint1_linear_472_3372)"/>
<defs>
<linearGradient id="paint0_linear_472_3372" x1="133" y1="-8.5" x2="133" y2="44.5" gradientUnits="userSpaceOnUse">
<stop stop-color="#2BADFD"/>
<stop offset="0.880208" stop-color="#1570EF"/>
</linearGradient>
<linearGradient id="paint1_linear_472_3372" x1="181.594" y1="24.3782" x2="84.1213" y2="-35.6976" gradientUnits="userSpaceOnUse">
<stop stop-color="#22B4FD"/>
<stop offset="1" stop-color="#2D79FF"/>
</linearGradient>
</defs>
</svg>
