<svg width="188" height="60" viewBox="0 0 188 60" fill="none" xmlns="http://www.w3.org/2000/svg">
<path d="M98.0288 0.833496C105.04 0.833496 108.545 4.35179 108.545 11.3884H100.658C100.658 9.62923 99.7815 8.74966 98.0288 8.74966H82.2545C80.5018 8.74966 79.6254 9.62923 79.6254 11.3884V27.2207C79.6254 28.9798 80.5018 29.8594 82.2545 29.8594H98.0288C99.7815 29.8594 100.658 28.9798 100.658 27.2207V23.2626H87.5126V15.3465H108.545V27.2207C108.545 34.2573 105.04 37.7756 98.0288 37.7756H82.2545C75.2437 37.7756 71.7383 34.2573 71.7383 27.2207V11.3884C71.7383 4.35179 75.2437 0.833496 82.2545 0.833496H98.0288Z" fill="url(#paint0_linear_32_1642)"/>
<path d="M98.0288 0.833496C105.04 0.833496 108.545 4.35179 108.545 11.3884H100.658C100.658 9.62923 99.7815 8.74966 98.0288 8.74966H82.2545C80.5018 8.74966 79.6254 9.62923 79.6254 11.3884V27.2207C79.6254 28.9798 80.5018 29.8594 82.2545 29.8594H98.0288C99.7815 29.8594 100.658 28.9798 100.658 27.2207V23.2626H87.5126V15.3465H108.545V27.2207C108.545 34.2573 105.04 37.7756 98.0288 37.7756H82.2545C75.2437 37.7756 71.7383 34.2573 71.7383 27.2207V11.3884C71.7383 4.35179 75.2437 0.833496 82.2545 0.833496H98.0288Z" fill="url(#paint1_linear_32_1642)"/>
<path d="M146.365 0.833496V8.74966H120.075V15.3465H146.365V23.2626H120.075V37.7756H112.188V0.833496H146.365Z" fill="url(#paint2_linear_32_1642)"/>
<path d="M146.365 0.833496V8.74966H120.075V15.3465H146.365V23.2626H120.075V37.7756H112.188V0.833496H146.365Z" fill="url(#paint3_linear_32_1642)"/>
<path d="M157.895 29.8594H186.815V37.7756H150.008V0.833496H186.815V8.74966H157.895V15.3465H186.815V23.2626H157.895V29.8594Z" fill="url(#paint4_linear_32_1642)"/>
<path d="M157.895 29.8594H186.815V37.7756H150.008V0.833496H186.815V8.74966H157.895V15.3465H186.815V23.2626H157.895V29.8594Z" fill="url(#paint5_linear_32_1642)"/>
<path d="M81.6612 44.5308V45.848H74.9982C72.7973 45.848 71.9897 46.6789 71.9897 48.8676V50.9144H79.844V52.2316H71.9897V58.7165H70.6167V49.3539C70.6167 45.6859 71.7676 44.5308 75.4222 44.5308H81.6612Z" fill="#5A6778"/>
<path d="M83.6889 55.5551V51.7452C83.6889 49.6984 84.7994 48.5838 86.8387 48.5838H91.6845C93.7238 48.5838 94.8343 49.6984 94.8343 51.7452V55.5551C94.8343 57.6019 93.7238 58.7165 91.6845 58.7165H86.8387C84.7994 58.7165 83.6889 57.6019 83.6889 55.5551ZM93.5219 55.5957V51.7047C93.5219 50.428 92.9364 49.8403 91.6643 49.8403H86.8589C85.5868 49.8403 85.0013 50.428 85.0013 51.7047V55.5957C85.0013 56.8724 85.5868 57.4601 86.8589 57.4601H91.6643C92.9364 57.4601 93.5219 56.8724 93.5219 55.5957Z" fill="#5A6778"/>
<path d="M97.5568 55.5551V48.5838H98.8692V55.5957C98.8692 56.8724 99.4548 57.4601 100.727 57.4601H104.583C105.855 57.4601 106.441 56.8724 106.441 55.5957V48.5838H107.753V55.5551C107.753 57.6019 106.643 58.7165 104.604 58.7165H100.707C98.6673 58.7165 97.5568 57.6019 97.5568 55.5551Z" fill="#5A6778"/>
<path d="M111.887 58.7165H110.575V51.7452C110.575 49.6984 111.685 48.5838 113.724 48.5838H117.621C119.661 48.5838 120.771 49.6984 120.771 51.7452V58.7165H119.459V51.7047C119.459 50.428 118.873 49.8403 117.601 49.8403H113.745C112.473 49.8403 111.887 50.428 111.887 51.7047V58.7165Z" fill="#5A6778"/>
<path d="M133.708 58.7165H126.641C124.602 58.7165 123.491 57.6019 123.491 55.5551V51.7452C123.491 49.6984 124.602 48.5838 126.641 48.5838H130.558C131.285 48.5838 131.911 48.7257 132.396 49.0094V44.5308H133.708V58.7165ZM132.396 57.4601V51.7047C132.396 50.428 131.81 49.8403 130.538 49.8403H126.661C125.389 49.8403 124.804 50.428 124.804 51.7047V55.5957C124.804 56.8724 125.389 57.4601 126.661 57.4601H132.396Z" fill="#5A6778"/>
<path d="M137.316 49.8403V48.5838H144.726C146.766 48.5838 147.876 49.6984 147.876 51.7452V55.5551C147.876 57.6019 146.766 58.7165 144.726 58.7165H139.477C137.437 58.7165 136.327 57.6019 136.327 56.1631V55.4133C136.327 53.9744 137.437 52.8396 139.477 52.8396L146.564 52.8598V51.7047C146.564 50.428 145.978 49.8403 144.706 49.8403H137.316ZM146.564 55.5957V54.1163L139.497 54.096C138.225 54.096 137.639 54.704 137.639 55.3727V56.2036C137.639 56.8724 138.225 57.4601 139.497 57.4601H144.706C145.978 57.4601 146.564 56.8724 146.564 55.5957Z" fill="#5A6778"/>
<path d="M150.695 55.5551V45.544H152.007V48.5838H155.036V49.8403H152.007V55.5957C152.007 56.8724 152.593 57.4601 153.865 57.4601H156.914L156.934 58.7165H153.845C151.805 58.7165 150.695 57.6019 150.695 55.5551Z" fill="#5A6778"/>
<path d="M158.956 46.152V44.5308H160.591V46.152H158.956ZM159.117 58.7165V48.5838H160.43V58.7165H159.117Z" fill="#5A6778"/>
<path d="M163.219 55.5551V51.7452C163.219 49.6984 164.329 48.5838 166.369 48.5838H171.215C173.254 48.5838 174.364 49.6984 174.364 51.7452V55.5551C174.364 57.6019 173.254 58.7165 171.215 58.7165H166.369C164.329 58.7165 163.219 57.6019 163.219 55.5551ZM173.052 55.5957V51.7047C173.052 50.428 172.466 49.8403 171.194 49.8403H166.389C165.117 49.8403 164.531 50.428 164.531 51.7047V55.5957C164.531 56.8724 165.117 57.4601 166.389 57.4601H171.194C172.466 57.4601 173.052 56.8724 173.052 55.5957Z" fill="#5A6778"/>
<path d="M178.399 58.7165H177.087V51.7452C177.087 49.6984 178.197 48.5838 180.237 48.5838H184.134C186.173 48.5838 187.283 49.6984 187.283 51.7452V58.7165H185.971V51.7047C185.971 50.428 185.385 49.8403 184.113 49.8403H180.257C178.985 49.8403 178.399 50.428 178.399 51.7047V58.7165Z" fill="#5A6778"/>
<path d="M0.666504 30.0001C0.666504 30.0001 1.08617 32.8678 5.28278 33.5672C7.38108 33.917 12.5744 32.658 17.2431 31.3115C17.2431 31.3115 20.8054 16.8057 24.9721 9.86127C29.1387 2.91683 35.3887 1.52794 35.3887 1.52794C35.3887 1.52794 31.2221 0.833496 28.4443 0.833496C25.6665 0.833496 22.2149 1.83837 22.2149 1.83837C9.80116 5.18832 0.666504 16.5274 0.666504 30.0001Z" fill="url(#paint6_linear_32_1642)"/>
<path d="M29.833 59.1667C45.9412 59.1667 58.9995 46.1084 58.9995 30.0001C58.9995 27.3204 58.6381 24.7252 57.9615 22.2605C57.4134 20.6083 56.5766 19.2502 55.2993 18.8993C53.8826 18.5101 52.3017 18.4351 48.7695 19.3346L22.1943 58.1562C24.629 58.8152 27.1899 59.1667 29.833 59.1667Z" fill="url(#paint7_linear_32_1642)"/>
<path d="M34.6216 23.9057C34.6216 23.9057 47.2122 18.2465 52.6875 19.1171C56.2464 19.683 57.492 21.1685 57.928 22.1391C56.3799 16.5943 53.2343 11.716 49.0188 8.03144C48.6464 7.70603 48.2658 7.38992 47.8771 7.0835C47.8771 7.0835 43.0275 7.0835 39.5553 11.9446C36.083 16.8056 34.6216 23.9057 34.6216 23.9057Z" fill="url(#paint8_linear_32_1642)"/>
<path d="M0.666504 30.0005C0.666504 32.8962 1.08849 35.6933 1.87431 38.3337C2.08443 39.0397 2.32056 39.7346 2.5816 40.4171C5.25495 47.4068 10.5401 53.1049 17.2432 56.3174L20.1109 57.5075L27.6566 28.0415C27.6566 28.0415 9.47945 34.267 5.28281 33.5676C1.08617 32.8682 0.666504 30.0005 0.666504 30.0005Z" fill="url(#paint9_linear_32_1642)"/>
<defs>
<linearGradient id="paint0_linear_32_1642" x1="129.683" y1="-2.75516" x2="129.683" y2="42.279" gradientUnits="userSpaceOnUse">
<stop stop-color="#2BADFD"/>
<stop offset="0.880208" stop-color="#1570EF"/>
</linearGradient>
<linearGradient id="paint1_linear_32_1642" x1="151.649" y1="25.1814" x2="96.7519" y2="7.18131" gradientUnits="userSpaceOnUse">
<stop stop-color="#22B4FD"/>
<stop offset="1" stop-color="#2D79FF"/>
</linearGradient>
<linearGradient id="paint2_linear_32_1642" x1="129.683" y1="-2.75516" x2="129.683" y2="42.279" gradientUnits="userSpaceOnUse">
<stop stop-color="#2BADFD"/>
<stop offset="0.880208" stop-color="#1570EF"/>
</linearGradient>
<linearGradient id="paint3_linear_32_1642" x1="151.649" y1="25.1814" x2="96.7519" y2="7.18131" gradientUnits="userSpaceOnUse">
<stop stop-color="#22B4FD"/>
<stop offset="1" stop-color="#2D79FF"/>
</linearGradient>
<linearGradient id="paint4_linear_32_1642" x1="129.683" y1="-2.75516" x2="129.683" y2="42.279" gradientUnits="userSpaceOnUse">
<stop stop-color="#2BADFD"/>
<stop offset="0.880208" stop-color="#1570EF"/>
</linearGradient>
<linearGradient id="paint5_linear_32_1642" x1="151.649" y1="25.1814" x2="96.7519" y2="7.18131" gradientUnits="userSpaceOnUse">
<stop stop-color="#22B4FD"/>
<stop offset="1" stop-color="#2D79FF"/>
</linearGradient>
<linearGradient id="paint6_linear_32_1642" x1="29.833" y1="8.01633" x2="50.0756" y2="55.0312" gradientUnits="userSpaceOnUse">
<stop stop-color="#8BCB64"/>
<stop offset="0.440353" stop-color="#16946E"/>
<stop offset="1" stop-color="#8BCB64"/>
</linearGradient>
<linearGradient id="paint7_linear_32_1642" x1="49.9721" y1="-7.49987" x2="30.528" y2="57.778" gradientUnits="userSpaceOnUse">
<stop stop-color="#22B2FD"/>
<stop offset="0.440353" stop-color="#1365F5"/>
<stop offset="1" stop-color="#22B4FD"/>
</linearGradient>
<linearGradient id="paint8_linear_32_1642" x1="54.1386" y1="12.6391" x2="35.112" y2="25.4076" gradientUnits="userSpaceOnUse">
<stop stop-color="#22B2FD"/>
<stop offset="1" stop-color="#1365F5"/>
</linearGradient>
<linearGradient id="paint9_linear_32_1642" x1="54.5934" y1="14.8925" x2="5.49266" y2="43.01" gradientUnits="userSpaceOnUse">
<stop stop-color="#8BCB64"/>
<stop offset="0.308261" stop-color="#3BA56B"/>
<stop offset="0.596814" stop-color="#3BA56B"/>
<stop offset="1" stop-color="#8BCB64"/>
</linearGradient>
</defs>
</svg>
