<?xml version="1.0" standalone="no"?>
<!DOCTYPE svg PUBLIC "-//W3C//DTD SVG 20010904//EN"
 "http://www.w3.org/TR/2001/REC-SVG-20010904/DTD/svg10.dtd">
<svg version="1.0" xmlns="http://www.w3.org/2000/svg"
 width="100.000000pt" height="100.000000pt" viewBox="0 0 100.000000 100.000000"
 preserveAspectRatio="xMidYMid meet">
<metadata>
Created by potrace 1.14, written by Peter Selinger 2001-2017
</metadata>
<g transform="translate(0.000000,100.000000) scale(0.100000,-0.100000)"
fill="#000000" stroke="none">
<path d="M377 985 c-217 -61 -365 -244 -373 -461 -5 -143 36 -259 129 -360 69
-76 207 -157 207 -121 0 8 27 119 60 247 34 128 59 234 57 236 -1 2 -39 -8
-82 -21 -44 -14 -81 -25 -82 -25 -8 0 1 39 33 141 65 205 122 296 214 342 42
21 46 25 27 29 -49 9 -145 6 -190 -7z"/>
<path d="M745 874 c-66 -34 -116 -107 -150 -221 -12 -41 -12 -45 3 -40 9 3 57
20 106 37 49 17 95 30 101 28 10 -2 -65 -129 -102 -173 -4 -5 -43 -62 -86
-125 -43 -63 -116 -170 -163 -238 -99 -143 -101 -137 51 -137 79 1 113 6 160
24 83 31 146 74 205 137 176 194 171 493 -13 682 -45 45 -66 50 -112 26z"/>
</g>
</svg>
