<svg width="25" height="24" viewBox="0 0 25 24" fill="none" xmlns="http://www.w3.org/2000/svg">
<path fill-rule="evenodd" clip-rule="evenodd" d="M8.89963 2.40039C8.41427 2.40039 7.97671 2.69276 7.79097 3.14117C7.60523 3.58958 7.7079 4.10572 8.0511 4.44892L8.89963 5.29745V9.80628C8.89963 10.1245 8.7732 10.4298 8.54816 10.6548L3.74816 15.4548C1.48028 17.7227 3.08648 21.6004 6.29374 21.6004H18.7055C21.9128 21.6004 23.519 17.7227 21.2511 15.4548L16.4511 10.6548C16.2261 10.4298 16.0996 10.1245 16.0996 9.80628V5.29745L16.9482 4.44892C17.2914 4.10572 17.394 3.58958 17.2083 3.14117C17.0225 2.69276 16.585 2.40039 16.0996 2.40039H8.89963ZM11.2996 9.80628V4.80039H13.6996V9.80628C13.6996 10.7611 14.0789 11.6767 14.754 12.3519L15.9871 13.5849C15.1269 13.3848 14.225 13.4253 13.3817 13.7064L12.8175 13.8945C11.8322 14.2229 10.767 14.2229 9.78167 13.8945L9.10673 13.6695C9.06103 13.6543 9.01509 13.6405 8.96895 13.6281L10.2452 12.3519C10.9203 11.6767 11.2996 10.7611 11.2996 9.80628Z" fill="url(#paint0_linear_404_1264)"/>
<defs>
<linearGradient id="paint0_linear_404_1264" x1="5.95275" y1="23.2164" x2="18.6637" y2="6.16045" gradientUnits="userSpaceOnUse">
<stop stop-color="#22B4FD"/>
<stop offset="1" stop-color="#2D79FF"/>
</linearGradient>
</defs>
</svg>
