<svg width="24" height="24" viewBox="0 0 24 24" fill="none" xmlns="http://www.w3.org/2000/svg">
<path d="M12 2.61914C10.1446 2.61914 8.3309 3.16927 6.78816 4.19997C5.24542 5.23067 4.04293 6.69567 3.33272 8.40973C2.62251 10.1238 2.43647 12.0099 2.79813 13.8297C3.15979 15.6495 4.05291 17.3212 5.36456 18.6334C6.67621 19.9457 8.3475 20.8395 10.1671 21.202C11.9867 21.5645 13.873 21.3793 15.5874 20.6698C17.3017 19.9604 18.7673 18.7585 19.7986 17.2163C20.83 15.674 21.381 13.8605 21.3818 12.0051C21.3803 9.51701 20.3914 7.13118 18.6325 5.37142C16.8735 3.61166 14.4881 2.6218 12 2.61914ZM15.924 10.8058L12.0543 17.8724C12.0218 17.9344 11.9733 17.9866 11.9137 18.0233C11.8542 18.0601 11.7858 18.0801 11.7158 18.0814C11.6727 18.0816 11.63 18.0729 11.5904 18.0559C11.5028 18.0297 11.4277 17.9724 11.3792 17.8948C11.3307 17.8171 11.3122 17.7245 11.3272 17.6342L11.9331 13.1711L8.45203 13.4051C8.3828 13.4083 8.31389 13.3939 8.25175 13.3632C8.18962 13.3325 8.13631 13.2865 8.09681 13.2296C8.05864 13.1715 8.03667 13.1043 8.03314 13.0348C8.02961 12.9654 8.04467 12.8963 8.07675 12.8347L11.6832 5.82275C11.7246 5.74037 11.7942 5.67562 11.8794 5.64033C11.9645 5.60503 12.0596 5.60155 12.1471 5.63052C12.2362 5.6591 12.3122 5.71863 12.3612 5.79834C12.4103 5.87805 12.4292 5.97269 12.4145 6.06513L11.6824 10.6616L15.5396 10.2353C15.6107 10.2275 15.6826 10.2393 15.7474 10.2695C15.8123 10.2997 15.8676 10.3472 15.9073 10.4067C15.9463 10.4653 15.9685 10.5335 15.9714 10.6039C15.9744 10.6742 15.958 10.7441 15.924 10.8058Z" fill="url(#paint0_linear_404_1351)"/>
<defs>
<linearGradient id="paint0_linear_404_1351" x1="5.74083" y1="22.9621" x2="18.2384" y2="6.55671" gradientUnits="userSpaceOnUse">
<stop stop-color="#22B4FD"/>
<stop offset="1" stop-color="#2D79FF"/>
</linearGradient>
</defs>
</svg>
