<svg width="25" height="24" viewBox="0 0 25 24" fill="none" xmlns="http://www.w3.org/2000/svg">
<path d="M12.5529 2.40039C8.78422 2.40039 5.37022 3.93015 2.8999 6.40047V6.40191C5.5639 9.06615 9.05926 10.3989 12.5529 10.3989H12.5546C14.7617 8.19111 14.7624 4.60887 12.5529 2.40039ZM9.29974 6.40047C9.19467 6.4005 9.09061 6.37983 8.99353 6.33962C8.89645 6.29942 8.80825 6.24048 8.73396 6.16617C8.65967 6.09185 8.60075 6.00363 8.56058 5.90654C8.5204 5.80945 8.49976 5.70539 8.49982 5.60031C8.49976 5.49525 8.52041 5.3912 8.56058 5.29412C8.60076 5.19704 8.65968 5.10883 8.73397 5.03454C8.80826 4.96025 8.89647 4.90133 8.99355 4.86115C9.09063 4.82098 9.19468 4.80033 9.29974 4.80039C9.40482 4.80033 9.50888 4.82097 9.60597 4.86115C9.70306 4.90132 9.79129 4.96024 9.8656 5.03453C9.93991 5.10882 9.99885 5.19702 10.0391 5.2941C10.0793 5.39118 10.0999 5.49523 10.0999 5.60031C10.1 5.70541 10.0793 5.80948 10.0391 5.90659C9.99893 6.0037 9.94 6.09194 9.86568 6.16625C9.79137 6.24056 9.70313 6.2995 9.60602 6.33969C9.50892 6.37988 9.40484 6.40053 9.29974 6.40047Z" fill="url(#paint0_linear_404_1360)"/>
<path d="M14.6428 2.45703C15.4069 3.63056 15.8125 5.00131 15.8099 6.40167C15.8125 7.86823 15.3671 9.30059 14.5334 10.5071C16.1169 10.8854 17.2999 12.3009 17.2999 14.0008C17.2999 15.9882 15.6873 17.6008 13.6999 17.6008H13.5863C13.2295 16.2237 11.9889 15.2001 10.4997 15.2001L5.69971 15.2018C5.69971 16.3338 6.00523 17.433 6.56683 18.401C6.00595 19.3689 5.69971 20.4695 5.69971 21.6009H10.4997C11.9889 21.6009 13.2295 20.5782 13.5863 19.2009H13.6999C18.3388 19.2009 22.0999 15.4398 22.0999 10.8009C22.0999 6.48135 18.8373 2.92647 14.6428 2.45703Z" fill="url(#paint1_linear_404_1360)"/>
<defs>
<linearGradient id="paint0_linear_404_1360" x1="4.78214" y1="11.0721" x2="9.39674" y2="2.50658" gradientUnits="userSpaceOnUse">
<stop stop-color="#22B4FD"/>
<stop offset="1" stop-color="#2D79FF"/>
</linearGradient>
<linearGradient id="paint1_linear_404_1360" x1="8.42904" y1="23.2122" x2="21.5641" y2="8.44111" gradientUnits="userSpaceOnUse">
<stop stop-color="#22B4FD"/>
<stop offset="1" stop-color="#2D79FF"/>
</linearGradient>
</defs>
</svg>
