<svg width="54" height="55" viewBox="0 0 54 55" fill="none" xmlns="http://www.w3.org/2000/svg">
<g id="60e4a1e7380756fecde7fb9c_icon-section-about-2-crypto-template.svg" filter="url(#filter0_d_1083_4077)">
<path id="Vector" opacity="0.8" d="M37.744 0.307617H16.3942C8.61393 0.307617 4.20581 4.71573 4.20581 12.4959V33.8255C4.20581 41.6057 8.61393 46.0139 16.3942 46.0139H37.744C45.5243 46.0139 49.912 41.6057 49.912 33.8255V12.4959C49.912 4.71573 45.5243 0.307617 37.744 0.307617Z" fill="url(#paint0_linear_1083_4077)"/>
<g id="Group">
<path id="Vector_2" d="M28.3835 9.9553L13.8375 7.74494C13.1625 7.63906 12.4743 7.82436 11.9581 8.26113C11.4419 8.71114 11.1375 9.35969 11.1375 10.0347V37.9223C11.1375 38.6502 11.7331 39.2458 12.461 39.2458H16.7626V32.2971C16.7626 31.0132 17.795 29.9809 19.0788 29.9809H22.3878C23.6716 29.9809 24.704 31.0132 24.704 32.2971V39.2458H30.3292V12.2451C30.3292 11.1068 29.5086 10.1406 28.3835 9.9553ZM18.4171 27.0028H16.4317C16.1684 27.0028 15.916 26.8982 15.7298 26.7121C15.5436 26.5259 15.439 26.2734 15.439 26.0102C15.439 25.7469 15.5436 25.4944 15.7298 25.3082C15.916 25.1221 16.1684 25.0175 16.4317 25.0175H18.4171C18.6803 25.0175 18.9328 25.1221 19.119 25.3082C19.3052 25.4944 19.4097 25.7469 19.4097 26.0102C19.4097 26.2734 19.3052 26.5259 19.119 26.7121C18.9328 26.8982 18.6803 27.0028 18.4171 27.0028ZM18.4171 23.0321H16.4317C16.1684 23.0321 15.916 22.9275 15.7298 22.7414C15.5436 22.5552 15.439 22.3027 15.439 22.0395C15.439 21.7762 15.5436 21.5237 15.7298 21.3375C15.916 21.1514 16.1684 21.0468 16.4317 21.0468H18.4171C18.6803 21.0468 18.9328 21.1514 19.119 21.3375C19.3052 21.5237 19.4097 21.7762 19.4097 22.0395C19.4097 22.3027 19.3052 22.5552 19.119 22.7414C18.9328 22.9275 18.6803 23.0321 18.4171 23.0321ZM18.4171 19.0614H16.4317C16.1684 19.0614 15.916 18.9568 15.7298 18.7707C15.5436 18.5845 15.439 18.332 15.439 18.0688C15.439 17.8055 15.5436 17.553 15.7298 17.3668C15.916 17.1807 16.1684 17.0761 16.4317 17.0761H18.4171C18.6803 17.0761 18.9328 17.1807 19.119 17.3668C19.3052 17.553 19.4097 17.8055 19.4097 18.0688C19.4097 18.332 19.3052 18.5845 19.119 18.7707C18.9328 18.9568 18.6803 19.0614 18.4171 19.0614ZM18.4171 15.0907H16.4317C16.1684 15.0907 15.916 14.9861 15.7298 14.8C15.5436 14.6138 15.439 14.3613 15.439 14.0981C15.439 13.8348 15.5436 13.5823 15.7298 13.3961C15.916 13.21 16.1684 13.1054 16.4317 13.1054H18.4171C18.6803 13.1054 18.9328 13.21 19.119 13.3961C19.3052 13.5823 19.4097 13.8348 19.4097 14.0981C19.4097 14.3613 19.3052 14.6138 19.119 14.8C18.9328 14.9861 18.6803 15.0907 18.4171 15.0907ZM25.0349 27.0028H23.0495C22.7863 27.0028 22.5338 26.8982 22.3476 26.7121C22.1615 26.5259 22.0569 26.2734 22.0569 26.0102C22.0569 25.7469 22.1615 25.4944 22.3476 25.3082C22.5338 25.1221 22.7863 25.0175 23.0495 25.0175H25.0349C25.2982 25.0175 25.5507 25.1221 25.7368 25.3082C25.923 25.4944 26.0276 25.7469 26.0276 26.0102C26.0276 26.2734 25.923 26.5259 25.7368 26.7121C25.5507 26.8982 25.2982 27.0028 25.0349 27.0028ZM25.0349 23.0321H23.0495C22.7863 23.0321 22.5338 22.9275 22.3476 22.7414C22.1615 22.5552 22.0569 22.3027 22.0569 22.0395C22.0569 21.7762 22.1615 21.5237 22.3476 21.3375C22.5338 21.1514 22.7863 21.0468 23.0495 21.0468H25.0349C25.2982 21.0468 25.5507 21.1514 25.7368 21.3375C25.923 21.5237 26.0276 21.7762 26.0276 22.0395C26.0276 22.3027 25.923 22.5552 25.7368 22.7414C25.5507 22.9275 25.2982 23.0321 25.0349 23.0321ZM25.0349 19.0614H23.0495C22.7863 19.0614 22.5338 18.9568 22.3476 18.7707C22.1615 18.5845 22.0569 18.332 22.0569 18.0688C22.0569 17.8055 22.1615 17.553 22.3476 17.3668C22.5338 17.1807 22.7863 17.0761 23.0495 17.0761H25.0349C25.2982 17.0761 25.5507 17.1807 25.7368 17.3668C25.923 17.553 26.0276 17.8055 26.0276 18.0688C26.0276 18.332 25.923 18.5845 25.7368 18.7707C25.5507 18.9568 25.2982 19.0614 25.0349 19.0614ZM25.0349 15.0907H23.0495C22.7863 15.0907 22.5338 14.9861 22.3476 14.8C22.1615 14.6138 22.0569 14.3613 22.0569 14.0981C22.0569 13.8348 22.1615 13.5823 22.3476 13.3961C22.5338 13.21 22.7863 13.1054 23.0495 13.1054H25.0349C25.2982 13.1054 25.5507 13.21 25.7368 13.3961C25.923 13.5823 26.0276 13.8348 26.0276 14.0981C26.0276 14.3613 25.923 14.6138 25.7368 14.8C25.5507 14.9861 25.2982 15.0907 25.0349 15.0907ZM41.0765 21.8303L31.6527 19.8569V39.2458H40.5868C41.864 39.2458 42.903 38.2068 42.903 36.9296V24.0936C42.903 23.0004 42.1579 22.0699 41.0765 21.8303ZM37.9397 35.2751H35.9543C35.691 35.2751 35.4386 35.1705 35.2524 34.9844C35.0662 34.7982 34.9616 34.5457 34.9616 34.2824C34.9616 34.0192 35.0662 33.7667 35.2524 33.5805C35.4386 33.3944 35.691 33.2898 35.9543 33.2898H37.9397C38.2029 33.2898 38.4554 33.3944 38.6416 33.5805C38.8278 33.7667 38.9323 34.0192 38.9323 34.2824C38.9323 34.5457 38.8278 34.7982 38.6416 34.9844C38.4554 35.1705 38.2029 35.2751 37.9397 35.2751ZM37.9397 31.3044H35.9543C35.691 31.3044 35.4386 31.1998 35.2524 31.0137C35.0662 30.8275 34.9616 30.575 34.9616 30.3117C34.9616 30.0485 35.0662 29.796 35.2524 29.6098C35.4386 29.4237 35.691 29.3191 35.9543 29.3191H37.9397C38.2029 29.3191 38.4554 29.4237 38.6416 29.6098C38.8278 29.796 38.9323 30.0485 38.9323 30.3117C38.9323 30.575 38.8278 30.8275 38.6416 31.0137C38.4554 31.1998 38.2029 31.3044 37.9397 31.3044ZM37.9397 27.3337H35.9543C35.691 27.3337 35.4386 27.2291 35.2524 27.043C35.0662 26.8568 34.9616 26.6043 34.9616 26.341C34.9616 26.0778 35.0662 25.8253 35.2524 25.6391C35.4386 25.453 35.691 25.3484 35.9543 25.3484H37.9397C38.2029 25.3484 38.4554 25.453 38.6416 25.6391C38.8278 25.8253 38.9323 26.0778 38.9323 26.341C38.9323 26.6043 38.8278 26.8568 38.6416 27.043C38.4554 27.2291 38.2029 27.3337 37.9397 27.3337Z" fill="#E7F0FD"/>
</g>
</g>
<defs>
<filter id="filter0_d_1083_4077" x="-0.153931" y="0.306641" width="54.3483" height="54.3486" filterUnits="userSpaceOnUse" color-interpolation-filters="sRGB">
<feFlood flood-opacity="0" result="BackgroundImageFix"/>
<feColorMatrix in="SourceAlpha" type="matrix" values="0 0 0 0 0 0 0 0 0 0 0 0 0 0 0 0 0 0 127 0" result="hardAlpha"/>
<feOffset dy="4"/>
<feGaussianBlur stdDeviation="2"/>
<feComposite in2="hardAlpha" operator="out"/>
<feColorMatrix type="matrix" values="0 0 0 0 0 0 0 0 0 0 0 0 0 0 0 0 0 0 0.15 0"/>
<feBlend mode="normal" in2="BackgroundImageFix" result="effect1_dropShadow_1083_4077"/>
<feBlend mode="normal" in="SourceGraphic" in2="effect1_dropShadow_1083_4077" result="shape"/>
</filter>
<linearGradient id="paint0_linear_1083_4077" x1="11.8123" y1="49.8609" x2="42.255" y2="9.89915" gradientUnits="userSpaceOnUse">
<stop stop-color="#22B4FD"/>
<stop offset="1" stop-color="#2D79FF"/>
</linearGradient>
</defs>
</svg>
