<svg width="54" height="55" viewBox="0 0 54 55" fill="none" xmlns="http://www.w3.org/2000/svg">
<g id="60e4a1e7380756fecde7fb9c_icon-section-about-2-crypto-template.svg" filter="url(#filter0_d_676_3651)">
<path id="Subtract" opacity="0.8" fill-rule="evenodd" clip-rule="evenodd" d="M37.7433 0.90332H16.3934C8.61319 0.90332 4.20508 5.31144 4.20508 13.0916V34.4212C4.20508 42.2014 8.61319 46.6096 16.3934 46.6096H37.7433C45.5235 46.6096 49.9113 42.2014 49.9113 34.4212V13.0916C49.9113 5.31144 45.5235 0.90332 37.7433 0.90332ZM22.5681 15.1043H31.4742C31.9844 15.1043 32.3979 14.6905 32.3979 14.1806C32.3979 14.1005 32.3878 14.023 32.3688 13.9491L31.3893 9.05213C31.3474 8.84275 31.2343 8.65435 31.0692 8.51897C30.904 8.38359 30.6971 8.30959 30.4836 8.30957H23.5575C23.344 8.3096 23.1371 8.3836 22.9719 8.51899C22.8068 8.65438 22.6937 8.8428 22.6518 9.05219L21.6625 13.9994C21.6357 14.1334 21.6389 14.2717 21.6721 14.4043C21.7052 14.5368 21.7673 14.6604 21.8539 14.7661C21.9405 14.8718 22.0495 14.957 22.173 15.0155C22.2965 15.0739 22.4315 15.1043 22.5681 15.1043ZM33.916 12.2666H35.4303H35.4303C37.3035 12.2666 38.8277 13.7908 38.8277 15.664V36.4419C38.8277 38.3151 37.3035 39.839 35.4303 39.839H18.6102C16.737 39.839 15.2129 38.3151 15.2129 36.4419V15.664C15.2129 13.7908 16.737 12.2668 18.6102 12.2668H20.1246L19.8506 13.6366C19.6869 14.4537 19.8965 15.2922 20.425 15.937C20.9532 16.5814 21.7343 16.9511 22.5679 16.9511H31.4727C33.0019 16.9511 34.2451 15.7079 34.2451 14.18C34.2451 13.9679 34.2209 13.7566 34.1727 13.5502L33.916 12.2666ZM28.0096 19.1267H21.0839C20.5737 19.1267 20.1601 19.5405 20.1601 20.0504C20.1601 20.5607 20.5737 20.9742 21.0839 20.9742H28.0096C28.5198 20.9742 28.9334 20.5607 28.9334 20.0504C28.9334 19.5405 28.5198 19.1267 28.0096 19.1267ZM21.7371 25.6508C21.9088 25.479 22.0074 25.2407 22.0074 24.9975C22.0067 24.7528 21.9096 24.5182 21.7371 24.3446C21.5653 24.1724 21.3269 24.0737 21.0837 24.0737C20.8389 24.0745 20.6042 24.1718 20.4308 24.3446C20.259 24.5166 20.1605 24.7542 20.1605 24.9975C20.1611 25.2423 20.2582 25.4771 20.4308 25.6508C20.6044 25.8233 20.839 25.9204 21.0837 25.9212C21.3286 25.9205 21.5633 25.8234 21.7371 25.6508ZM21.0842 35.8154C21.3289 35.8148 21.5634 35.7177 21.7371 35.5453C21.9088 35.3729 22.0074 35.1352 22.0074 34.8917C22.0066 34.647 21.9095 34.4123 21.737 34.2386C21.5653 34.0666 21.3269 33.968 21.0842 33.968C20.8392 33.9686 20.6045 34.0659 20.4308 34.2386C20.2591 34.4108 20.16 34.6488 20.16 34.8917C20.16 35.1352 20.259 35.3729 20.4308 35.5453C20.6046 35.7178 20.8393 35.8149 21.0842 35.8154ZM21.0837 30.8687C21.3287 30.8681 21.5635 30.7707 21.7371 30.5978C21.9088 30.426 22.0079 30.1877 22.0079 29.945C22.0071 29.7 21.9098 29.4653 21.7371 29.2916C21.5653 29.1198 21.3269 29.0212 21.0837 29.0212C20.839 29.022 20.6044 29.1191 20.4308 29.2916C20.2584 29.4634 20.16 29.7017 20.16 29.945C20.1605 30.1898 20.2579 30.4245 20.4308 30.5978C20.6042 30.7706 20.8389 30.868 21.0837 30.8687ZM26.0309 35.8154H32.9567H32.9568C33.467 35.8154 33.8805 35.4019 33.8805 34.8917C33.8805 34.3818 33.467 33.968 32.9568 33.968H26.0309C25.5207 33.968 25.1072 34.3818 25.1072 34.8917C25.1072 35.4019 25.5207 35.8154 26.0309 35.8154ZM26.0309 30.8684H32.9567H32.9568C33.467 30.8684 33.8805 30.4549 33.8805 29.9447C33.8805 29.4347 33.467 29.021 32.9568 29.021H26.0309C25.5207 29.021 25.1072 29.4347 25.1072 29.9447C25.1072 30.4549 25.5207 30.8684 26.0309 30.8684ZM26.0309 25.9214H32.9567H32.9568C33.467 25.9214 33.8805 25.5079 33.8805 24.9977C33.8805 24.4875 33.467 24.074 32.9568 24.074H26.0309C25.5207 24.074 25.1072 24.4875 25.1072 24.9977C25.1072 25.5079 25.5207 25.9214 26.0309 25.9214Z" fill="white"/>
</g>
<defs>
<filter id="filter0_d_676_3651" x="-0.154297" y="0.90332" width="54.3481" height="54.3486" filterUnits="userSpaceOnUse" color-interpolation-filters="sRGB">
<feFlood flood-opacity="0" result="BackgroundImageFix"/>
<feColorMatrix in="SourceAlpha" type="matrix" values="0 0 0 0 0 0 0 0 0 0 0 0 0 0 0 0 0 0 127 0" result="hardAlpha"/>
<feOffset dy="4"/>
<feGaussianBlur stdDeviation="2"/>
<feComposite in2="hardAlpha" operator="out"/>
<feColorMatrix type="matrix" values="0 0 0 0 0 0 0 0 0 0 0 0 0 0 0 0 0 0 0.15 0"/>
<feBlend mode="normal" in2="BackgroundImageFix" result="effect1_dropShadow_676_3651"/>
<feBlend mode="normal" in="SourceGraphic" in2="effect1_dropShadow_676_3651" result="shape"/>
</filter>
</defs>
</svg>
