<svg width="54" height="55" viewBox="0 0 54 55" fill="none" xmlns="http://www.w3.org/2000/svg">
<g id="60e4a1e7380756fecde7fb9c_icon-section-about-2-crypto-template.svg">
<g id="Subtract" opacity="0.8" filter="url(#filter0_d_676_3607)">
<path fill-rule="evenodd" clip-rule="evenodd" d="M37.7433 0.90332H16.3934C8.61319 0.90332 4.20508 5.31144 4.20508 13.0916V34.4212C4.20508 42.2014 8.61319 46.6096 16.3934 46.6096H37.7433C45.5235 46.6096 49.9113 42.2014 49.9113 34.4212V13.0916C49.9113 5.31144 45.5235 0.90332 37.7433 0.90332ZM16.314 28.4945L13.332 34.4574C13.2616 34.5983 13.2283 34.7549 13.2353 34.9122C13.2423 35.0696 13.2894 35.2225 13.3722 35.3566C13.455 35.4904 13.5707 35.6009 13.7082 35.6775C13.8457 35.7542 14.0004 35.7944 14.1578 35.7944H18.6435L21.3348 39.3828C21.5097 39.6168 21.7842 39.7523 22.073 39.7523C22.4567 39.7523 22.7591 39.5232 22.8996 39.2417L25.7096 33.6218C21.9105 33.2584 18.561 31.3321 16.314 28.4945ZM40.7091 34.4574L37.7272 28.4945C35.4801 31.3321 32.1306 33.2585 28.3316 33.6217L31.1417 39.2418C31.282 39.5232 31.5844 39.7523 31.9681 39.7523C32.2569 39.7523 32.5317 39.6168 32.7065 39.3828L35.3977 35.7944H39.8833C40.2035 35.7944 40.5003 35.6287 40.6689 35.3566C40.837 35.0843 40.8524 34.7438 40.7091 34.4574ZM28.5666 17.3145L27.0205 14.8447L25.475 17.3145C25.3482 17.517 25.1479 17.6626 24.9162 17.7205L22.0899 18.4275L23.961 20.6608C24.1144 20.844 24.1909 21.0795 24.1743 21.3178L23.9729 24.2242L26.6751 23.135C26.8036 23.0832 27.0662 23.0143 27.3658 23.135L30.0681 24.2242L29.8671 21.3178C29.8507 21.0794 29.9272 20.844 30.0807 20.6608L31.9517 18.4276L29.1254 17.7206C28.8937 17.6626 28.6934 17.517 28.5666 17.3145ZM27.0205 8.22363C33.5311 8.22363 38.8279 13.5204 38.8279 20.031C38.8279 26.5416 33.5311 31.8384 27.0205 31.8384C20.5099 31.8384 15.2131 26.5415 15.2131 20.031C15.2131 13.5204 20.5099 8.22363 27.0205 8.22363ZM31.7359 21.5632L34.3156 18.4841C34.4162 18.3641 34.4846 18.2205 34.5144 18.0668C34.5443 17.9131 34.5345 17.7544 34.4862 17.6055C34.4377 17.4566 34.3523 17.3224 34.2378 17.2156C34.1233 17.1088 33.9835 17.0328 33.8316 16.9948L29.9351 16.02L27.8035 12.615C27.7204 12.4823 27.605 12.3729 27.468 12.2971C27.331 12.2213 27.1771 12.1815 27.0205 12.1815C26.864 12.1815 26.71 12.2213 26.573 12.2971C26.436 12.3729 26.3206 12.4823 26.2375 12.615L24.1064 16.02L20.2099 16.9948C20.058 17.0327 19.9182 17.1087 19.8037 17.2155C19.6893 17.3224 19.6038 17.4566 19.5554 17.6055C19.507 17.7544 19.4973 17.9132 19.5272 18.0669C19.557 18.2206 19.6254 18.3642 19.726 18.4842L22.3057 21.5632L22.028 25.5703C22.0173 25.7265 22.0463 25.8828 22.1125 26.0247C22.1787 26.1666 22.2798 26.2893 22.4064 26.3814C22.7973 26.6653 23.195 26.531 23.2948 26.4909L27.0205 24.9891L30.7462 26.4909C30.8915 26.5493 31.0492 26.57 31.2045 26.5508C31.3599 26.5317 31.5079 26.4734 31.6346 26.3814C31.7612 26.2893 31.8624 26.1666 31.9285 26.0247C31.9947 25.8828 32.0238 25.7265 32.013 25.5703L31.7359 21.5632Z" fill="white"/>
</g>
</g>
<defs>
<filter id="filter0_d_676_3607" x="0.205078" y="0.90332" width="53.7063" height="53.7061" filterUnits="userSpaceOnUse" color-interpolation-filters="sRGB">
<feFlood flood-opacity="0" result="BackgroundImageFix"/>
<feColorMatrix in="SourceAlpha" type="matrix" values="0 0 0 0 0 0 0 0 0 0 0 0 0 0 0 0 0 0 127 0" result="hardAlpha"/>
<feOffset dy="4"/>
<feGaussianBlur stdDeviation="2"/>
<feComposite in2="hardAlpha" operator="out"/>
<feColorMatrix type="matrix" values="0 0 0 0 0 0 0 0 0 0 0 0 0 0 0 0 0 0 0.15 0"/>
<feBlend mode="normal" in2="BackgroundImageFix" result="effect1_dropShadow_676_3607"/>
<feBlend mode="normal" in="SourceGraphic" in2="effect1_dropShadow_676_3607" result="shape"/>
</filter>
</defs>
</svg>
