<svg width="54" height="55" viewBox="0 0 54 55" fill="none" xmlns="http://www.w3.org/2000/svg">
<g id="60e4a1e7380756fecde7fb9c_icon-section-about-2-crypto-template.svg" filter="url(#filter0_d_1083_4048)">
<path id="Vector" opacity="0.8" d="M37.7438 0.307617H16.3939C8.61368 0.307617 4.20557 4.71573 4.20557 12.4959V33.8255C4.20557 41.6057 8.61368 46.0139 16.3939 46.0139H37.7438C45.524 46.0139 49.9118 41.6057 49.9118 33.8255V12.4959C49.9118 4.71573 45.524 0.307617 37.7438 0.307617Z" fill="url(#paint0_linear_1083_4048)"/>
<g id="Group">
<path id="Vector_2" d="M26.3453 13.2792H27.6617V15.2537H27.0035V29.7338H35.5599C35.922 29.7338 36.2181 29.4376 36.2181 29.0756V27.1011H38.1927C38.5547 27.1011 38.8509 26.8049 38.8509 26.4429V24.4683H42.1418C42.5038 24.4683 42.8 24.1722 42.8 23.8102V21.1774C42.8 20.8154 42.5038 20.5192 42.1418 20.5192H38.8509V18.5447C38.8509 18.1827 38.5547 17.8865 38.1927 17.8865H36.2181V15.9119C36.2181 15.5499 35.922 15.2537 35.5599 15.2537H31.6108V13.2792H32.9272C33.2892 13.2792 33.5854 12.983 33.5854 12.621V9.98826C33.5854 9.62626 33.2892 9.33008 32.9272 9.33008H26.3453C25.9833 9.33008 25.6872 9.62626 25.6872 9.98826V12.621C25.6872 12.983 25.9833 13.2792 26.3453 13.2792ZM21.738 15.2537H25.6872V29.7338H21.738V15.2537ZM16.4726 23.152H11.24C11.2795 23.5995 11.3585 24.0405 11.4835 24.4683H16.4726C16.8346 24.4683 17.1308 24.7645 17.1308 25.1265C17.1308 25.4885 16.8346 25.7847 16.4726 25.7847H11.9969C13.1948 28.1279 15.6367 29.7338 18.4471 29.7338H20.4217V15.2537H18.4471C15.6367 15.2537 13.1948 16.8597 11.9969 19.2029H16.4726C16.8346 19.2029 17.1308 19.499 17.1308 19.861C17.1308 20.2231 16.8346 20.5192 16.4726 20.5192H11.4835C11.3585 20.9471 11.2795 21.388 11.24 21.8356H16.4726C16.8346 21.8356 17.1308 22.1318 17.1308 22.4938C17.1308 22.8558 16.8346 23.152 16.4726 23.152ZM35.5599 36.9739V34.3411C35.5599 33.9791 35.2638 33.6829 34.9018 33.6829H32.7166L31.6832 31.0502H18.3747L17.3414 33.6829H15.1562C14.7942 33.6829 14.498 33.9791 14.498 34.3411V36.9739C14.498 37.3359 14.7942 37.6321 15.1562 37.6321H34.9018C35.2638 37.6321 35.5599 37.3359 35.5599 36.9739Z" fill="#E7F0FD"/>
</g>
</g>
<defs>
<filter id="filter0_d_1083_4048" x="-0.154053" y="0.306641" width="54.3481" height="54.3486" filterUnits="userSpaceOnUse" color-interpolation-filters="sRGB">
<feFlood flood-opacity="0" result="BackgroundImageFix"/>
<feColorMatrix in="SourceAlpha" type="matrix" values="0 0 0 0 0 0 0 0 0 0 0 0 0 0 0 0 0 0 127 0" result="hardAlpha"/>
<feOffset dy="4"/>
<feGaussianBlur stdDeviation="2"/>
<feComposite in2="hardAlpha" operator="out"/>
<feColorMatrix type="matrix" values="0 0 0 0 0 0 0 0 0 0 0 0 0 0 0 0 0 0 0.15 0"/>
<feBlend mode="normal" in2="BackgroundImageFix" result="effect1_dropShadow_1083_4048"/>
<feBlend mode="normal" in="SourceGraphic" in2="effect1_dropShadow_1083_4048" result="shape"/>
</filter>
<linearGradient id="paint0_linear_1083_4048" x1="11.8121" y1="49.8609" x2="42.2547" y2="9.89915" gradientUnits="userSpaceOnUse">
<stop stop-color="#22B4FD"/>
<stop offset="1" stop-color="#2D79FF"/>
</linearGradient>
</defs>
</svg>
