<svg width="54" height="55" viewBox="0 0 54 55" fill="none" xmlns="http://www.w3.org/2000/svg">
<g id="60e4a1e7380756fecde7fb9c_icon-section-about-2-crypto-template.svg" filter="url(#filter0_d_1083_4021)">
<path id="Vector" opacity="0.8" d="M37.7438 0.307617H16.3939C8.61368 0.307617 4.20557 4.71573 4.20557 12.4959V33.8255C4.20557 41.6057 8.61368 46.0139 16.3939 46.0139H37.7438C45.524 46.0139 49.9118 41.6057 49.9118 33.8255V12.4959C49.9118 4.71573 45.524 0.307617 37.7438 0.307617Z" fill="url(#paint0_linear_1083_4021)"/>
<g id="Group">
<path id="Vector_2" d="M11.2517 23.5554V12.8253C11.2517 11.9744 11.2309 11.1027 11.2724 10.2518C11.3554 8.86121 12.5177 7.80273 13.929 7.80273H40.0173C41.6362 7.80273 42.7984 8.96498 42.7984 10.5838V36.6099C42.7984 38.1665 41.6362 39.3287 40.0796 39.3287H13.9912C12.4139 39.3287 11.2724 38.208 11.2517 36.6307C11.2309 34.0156 11.2517 31.4005 11.2517 28.8062V23.5554ZM26.7967 38.0212C34.9532 38.1665 41.3249 31.7119 41.4701 23.8667C41.6154 15.7517 35.1193 9.21404 27.1496 9.15177C19.1176 9.08951 12.6837 15.4196 12.5799 23.3893C12.4762 31.4213 18.91 37.9174 26.7967 38.0212ZM15.6931 36.4024C15.6724 35.5722 15.0082 34.908 14.1988 34.9288C13.3894 34.9496 12.746 35.6137 12.746 36.4231C12.746 37.2325 13.4516 37.8967 14.2403 37.8759C15.029 37.8552 15.6931 37.191 15.6931 36.4024ZM39.8513 12.2234C40.6607 12.2234 41.3249 11.5593 41.3249 10.7499C41.3249 9.94044 40.6607 9.2763 39.8513 9.2763C39.0211 9.2763 38.3985 9.91969 38.3777 10.7499C38.3777 11.58 39.0211 12.2234 39.8513 12.2234ZM14.1988 12.2234C15.0082 12.2234 15.6724 11.58 15.6724 10.7914C15.6724 9.9612 15.029 9.29705 14.1988 9.29705C13.3894 9.29705 12.7252 9.9612 12.7252 10.7706C12.7252 11.58 13.3894 12.2234 14.1988 12.2234ZM38.3777 36.4024C38.3777 37.2118 39.0211 37.8759 39.8513 37.8759C40.64 37.8759 41.3249 37.2118 41.3249 36.4231C41.3249 35.5929 40.6607 34.9288 39.8513 34.9288C39.0419 34.908 38.3777 35.5929 38.3777 36.4024Z" fill="#E7F0FD"/>
<path id="Vector_3" d="M27.025 19.8365C29.1004 19.8365 30.7815 21.5176 30.7608 23.5723C30.74 25.6477 29.1212 27.2873 27.025 27.3081C24.9703 27.3289 23.2892 25.627 23.2892 23.5515C23.2892 21.4969 24.9495 19.8365 27.025 19.8365ZM24.8043 19.6705C23.808 20.2723 23.1439 21.0818 22.7496 22.161C22.4382 22.0365 22.1684 21.8912 21.8779 21.7874C20.9647 21.4346 20.0307 21.2478 19.0553 21.2063C18.0175 21.1648 17.0006 21.3101 16.0044 21.5799C15.4232 21.7459 14.9666 21.2686 15.0912 20.6874C15.4232 19.3176 15.9421 18.0309 16.7515 16.8686C17.5194 15.7479 18.8062 15.4158 20.0307 15.9969C21.6288 16.7648 23.0816 17.7195 24.2854 19.0686C24.4722 19.2554 24.6175 19.4422 24.8043 19.6705ZM24.7212 27.4326C25.759 28.0138 26.8174 28.1798 27.9174 27.9722C27.9797 28.4081 28.0212 28.8439 28.0835 29.259C28.3533 30.6288 28.9136 31.8533 29.7646 32.9533C30.0759 33.3684 30.4495 33.742 30.7815 34.1156C31.1966 34.5722 31.0098 35.174 30.4287 35.3401C29.2249 35.6721 28.0212 35.8382 26.7759 35.8174C26.2156 35.8174 25.6759 35.7344 25.1778 35.4231C24.4099 34.9457 23.9741 34.2401 23.9118 33.3476C23.808 31.9363 23.8703 30.5458 24.1816 29.1552C24.3269 28.6156 24.5344 28.0345 24.7212 27.4326ZM29.2872 19.6912C28.291 19.1308 27.2325 18.9648 26.1325 19.1724C26.0703 18.7573 26.0495 18.3629 25.9665 17.9686C25.7382 16.7026 25.2401 15.5196 24.4722 14.4819C24.1194 13.9837 23.7043 13.5271 23.2892 13.0705C22.8533 12.5932 22.9779 11.9913 23.6005 11.8045C24.8458 11.4309 26.1325 11.2857 27.4193 11.3272C28.0212 11.3479 28.5608 11.4932 29.0589 11.846C29.7231 12.3441 30.0759 13.0083 30.1381 13.8385C30.2004 14.8554 30.2004 15.8724 30.0551 16.8686C29.9306 17.7818 29.7231 18.695 29.3495 19.5459C29.3495 19.5874 29.3287 19.629 29.2872 19.6912ZM31.6117 23.5723C31.4872 23.0119 31.4042 22.4723 31.2174 21.9535C31.0306 21.4553 30.7193 21.0195 30.4495 20.5422C30.7815 20.2723 31.1759 19.9818 31.5287 19.6705C32.7947 18.529 33.6249 17.1177 34.123 15.4988C34.1645 15.3535 34.206 15.1875 34.2475 15.0215C34.4136 14.4403 35.0154 14.2536 35.4513 14.6686C36.3437 15.4988 37.0701 16.4743 37.672 17.5328C37.9626 18.0516 38.2116 18.5705 38.1909 19.1931C38.1701 20.0648 37.8173 20.7912 37.0909 21.2893C35.7211 22.2233 34.2475 22.9704 32.6287 23.3855C32.3174 23.4685 32.006 23.51 31.6947 23.5515C31.674 23.5931 31.6117 23.5723 31.6117 23.5723ZM22.5005 23.51C22.542 24.693 22.8948 25.6893 23.642 26.5609C23.3929 26.7477 23.1647 26.9138 22.9364 27.1006C21.6703 28.0968 20.7571 29.3628 20.176 30.8571C20.01 31.2514 19.9062 31.6665 19.7817 32.0816C19.5949 32.7043 18.993 32.8703 18.5157 32.4137C17.5609 31.5005 16.7723 30.442 16.1496 29.259C15.4648 27.9722 15.8591 26.5194 17.1044 25.71C18.2251 24.9836 19.3873 24.3402 20.6741 23.9459C21.276 23.7798 21.8779 23.6553 22.5005 23.51ZM29.2249 27.5156C30.2419 26.893 30.9268 26.0836 31.3004 25.0044C32.006 25.3572 32.7117 25.627 33.4589 25.793C34.9739 26.1251 36.489 26.0421 37.9833 25.627C38.5437 25.461 39.0833 25.876 38.9588 26.4364C38.6267 27.91 38.0663 29.3005 37.1532 30.5043C36.3852 31.5005 35.0362 31.7288 33.9155 31.1684C32.6287 30.525 31.4249 29.7779 30.3664 28.7817C29.9514 28.3458 29.6193 27.9307 29.2249 27.5156Z" fill="#E7F0FD"/>
</g>
</g>
<defs>
<filter id="filter0_d_1083_4021" x="-0.154053" y="0.306641" width="54.3481" height="54.3486" filterUnits="userSpaceOnUse" color-interpolation-filters="sRGB">
<feFlood flood-opacity="0" result="BackgroundImageFix"/>
<feColorMatrix in="SourceAlpha" type="matrix" values="0 0 0 0 0 0 0 0 0 0 0 0 0 0 0 0 0 0 127 0" result="hardAlpha"/>
<feOffset dy="4"/>
<feGaussianBlur stdDeviation="2"/>
<feComposite in2="hardAlpha" operator="out"/>
<feColorMatrix type="matrix" values="0 0 0 0 0 0 0 0 0 0 0 0 0 0 0 0 0 0 0.15 0"/>
<feBlend mode="normal" in2="BackgroundImageFix" result="effect1_dropShadow_1083_4021"/>
<feBlend mode="normal" in="SourceGraphic" in2="effect1_dropShadow_1083_4021" result="shape"/>
</filter>
<linearGradient id="paint0_linear_1083_4021" x1="11.8121" y1="49.8609" x2="42.2547" y2="9.89915" gradientUnits="userSpaceOnUse">
<stop stop-color="#22B4FD"/>
<stop offset="1" stop-color="#2D79FF"/>
</linearGradient>
</defs>
</svg>
