<svg width="54" height="55" viewBox="0 0 54 55" fill="none" xmlns="http://www.w3.org/2000/svg">
<g id="60e4a1e7380756fecde7fb9c_icon-section-about-2-crypto-template.svg" filter="url(#filter0_d_1083_3995)">
<path id="Vector" opacity="0.8" d="M37.7438 0.307617H16.3939C8.61368 0.307617 4.20557 4.71573 4.20557 12.4959V33.8255C4.20557 41.6057 8.61368 46.0139 16.3939 46.0139H37.7438C45.524 46.0139 49.9118 41.6057 49.9118 33.8255V12.4959C49.9118 4.71573 45.524 0.307617 37.7438 0.307617Z" fill="url(#paint0_linear_1083_3995)"/>
<g id="Group">
<path id="Vector_2" d="M33.9107 39.0536H31.2571L30.8873 37.5377H23.1529L22.7832 39.0536H20.1295C19.5587 39.0536 19.0959 39.5164 19.0959 40.0872C19.0959 40.658 19.5587 41.1208 20.1295 41.1208H33.9107C34.4816 41.1208 34.9443 40.658 34.9443 40.0872C34.9443 39.5164 34.4816 39.0536 33.9107 39.0536ZM19.5432 27.8908H25.9865V22.3783H20.2322L19.5432 27.8908ZM25.9865 29.958H19.2848L18.5957 35.4705H25.9865V29.958ZM28.0537 29.958V35.4705H35.4445L34.7555 29.958H28.0537ZM28.0537 27.8908H34.4971L33.808 22.3783H28.0537V27.8908ZM41.8725 23.1612C41.8166 22.9376 41.6875 22.7391 41.5059 22.5972C41.3242 22.4554 41.1003 22.3783 40.8698 22.3783H35.8912L36.5803 27.8908H43.0549L41.8725 23.1612ZM44.6288 34.1862L43.5717 29.958H36.8386L37.5277 35.4705H43.626C44.2984 35.4705 44.7919 34.8385 44.6288 34.1862ZM9.4115 34.1862C9.2484 34.8385 9.74184 35.4705 10.4142 35.4705H16.5125L17.2015 29.958H10.4686L9.4115 34.1862ZM12.1677 23.1612L10.9854 27.8908H17.46L18.1491 22.3783H13.1705C12.94 22.3783 12.7161 22.4554 12.5344 22.5972C12.3527 22.7391 12.2237 22.9376 12.1677 23.1612ZM20.6855 18.8436C20.8052 19.3019 21.2172 19.6221 21.6874 19.6221H32.3528C32.823 19.6221 33.235 19.3019 33.3547 18.8436C33.4945 18.3104 33.5656 17.7616 33.5662 17.2103C33.5662 13.6008 30.6296 10.6643 27.0201 10.6643C23.4106 10.6643 20.474 13.6008 20.474 17.2103C20.4746 17.7615 20.5457 18.3104 20.6855 18.8436ZM37.3561 18.2439C37.9269 18.2439 38.3896 17.7812 38.3896 17.2103C38.3896 16.6395 37.9269 16.1767 37.3561 16.1767H35.5712C35.6119 16.5158 35.6334 16.8606 35.6334 17.2103C35.6334 17.555 35.6114 17.9002 35.569 18.2439H37.3561ZM18.4691 16.1767H16.6842C16.1134 16.1767 15.6506 16.6395 15.6506 17.2103C15.6506 17.7812 16.1134 18.2439 16.6842 18.2439H18.4712C18.4286 17.901 18.4071 17.5559 18.4069 17.2103C18.4069 16.8606 18.4284 16.5158 18.4691 16.1767ZM28.0537 8.65929V6.87441C28.0537 6.30359 27.5909 5.84082 27.0201 5.84082C26.4493 5.84082 25.9865 6.30359 25.9865 6.87441V8.65929C26.3256 8.61857 26.6704 8.59707 27.0201 8.59707C27.3699 8.59707 27.7147 8.61857 28.0537 8.65929ZM33.795 11.8972L35.0596 10.6326C35.4633 10.2289 35.4633 9.5745 35.0596 9.17085C34.656 8.7672 34.0016 8.7672 33.5979 9.17085L32.3333 10.4355C32.8769 10.8628 33.3677 11.3535 33.795 11.8972ZM20.2453 11.8972C20.6726 11.3535 21.1633 10.8628 21.707 10.4355L20.4423 9.17085C20.0387 8.7672 19.3843 8.7672 18.9806 9.17085C18.577 9.5745 18.577 10.2289 18.9806 10.6326L20.2453 11.8972Z" fill="#E7F0FD"/>
</g>
</g>
<defs>
<filter id="filter0_d_1083_3995" x="-0.154053" y="0.306641" width="54.3481" height="54.3486" filterUnits="userSpaceOnUse" color-interpolation-filters="sRGB">
<feFlood flood-opacity="0" result="BackgroundImageFix"/>
<feColorMatrix in="SourceAlpha" type="matrix" values="0 0 0 0 0 0 0 0 0 0 0 0 0 0 0 0 0 0 127 0" result="hardAlpha"/>
<feOffset dy="4"/>
<feGaussianBlur stdDeviation="2"/>
<feComposite in2="hardAlpha" operator="out"/>
<feColorMatrix type="matrix" values="0 0 0 0 0 0 0 0 0 0 0 0 0 0 0 0 0 0 0.15 0"/>
<feBlend mode="normal" in2="BackgroundImageFix" result="effect1_dropShadow_1083_3995"/>
<feBlend mode="normal" in="SourceGraphic" in2="effect1_dropShadow_1083_3995" result="shape"/>
</filter>
<linearGradient id="paint0_linear_1083_3995" x1="11.8121" y1="49.8609" x2="42.2547" y2="9.89915" gradientUnits="userSpaceOnUse">
<stop stop-color="#22B4FD"/>
<stop offset="1" stop-color="#2D79FF"/>
</linearGradient>
</defs>
</svg>
