<svg width="54" height="55" viewBox="0 0 54 55" fill="none" xmlns="http://www.w3.org/2000/svg">
<g id="60e4a1e7380756fecde7fb9c_icon-section-about-2-crypto-template.svg" filter="url(#filter0_d_676_3629)">
<path id="Subtract" opacity="0.8" fill-rule="evenodd" clip-rule="evenodd" d="M37.7433 0.90332H16.3934C8.61319 0.90332 4.20508 5.31144 4.20508 13.0916V34.4212C4.20508 42.2014 8.61319 46.6096 16.3934 46.6096H37.7433C45.5235 46.6096 49.9113 42.2014 49.9113 34.4212V13.0916C49.9113 5.31144 45.5235 0.90332 37.7433 0.90332ZM16.5089 20.1374C18.6856 20.1374 20.4502 18.3728 20.4502 16.1961C20.4502 14.0194 18.6856 12.2549 16.5089 12.2549C14.3322 12.2549 12.5677 14.0194 12.5677 16.1961C12.5677 18.3728 14.3322 20.1374 16.5089 20.1374ZM17.6621 26.1929C18.4183 24.83 19.5089 23.682 20.8311 22.8568C20.4622 22.4177 20.0018 22.0645 19.4822 21.8217C18.9626 21.5789 18.3962 21.4524 17.8227 21.4511H15.1952C14.1508 21.4543 13.1502 21.8705 12.4117 22.6089C11.6733 23.3474 11.257 24.3481 11.2539 25.3924V28.0199C11.256 28.7161 11.5335 29.3832 12.0258 29.8755C12.5181 30.3678 13.1852 30.6453 13.8814 30.6474H16.5089C16.5091 29.0888 16.906 27.5558 17.6621 26.1929ZM37.5289 20.1374C39.7056 20.1374 41.4702 18.3728 41.4702 16.1961C41.4702 14.0194 39.7056 12.2549 37.5289 12.2549C35.3522 12.2549 33.5877 14.0194 33.5877 16.1961C33.5877 18.3728 35.3522 20.1374 37.5289 20.1374ZM42.7851 28.0199V25.3924C42.782 24.3481 42.3658 23.3474 41.6273 22.6089C40.8889 21.8705 39.8882 21.4543 38.8439 21.4511H36.2164C35.6428 21.4524 35.0765 21.5789 34.5569 21.8217C34.0373 22.0645 33.5769 22.4177 33.2079 22.8568C34.5302 23.682 35.6208 24.83 36.3769 26.1929C37.133 27.5558 37.5299 29.0888 37.5301 30.6474H40.1576C40.8539 30.6453 41.521 30.3678 42.0133 29.8755C42.5056 29.3832 42.7831 28.7161 42.7851 28.0199ZM27.0189 22.7649C29.9212 22.7649 32.2739 20.4121 32.2739 17.5099C32.2739 14.6076 29.9212 12.2549 27.0189 12.2549C24.1166 12.2549 21.7639 14.6076 21.7639 17.5099C21.7639 20.4121 24.1166 22.7649 27.0189 22.7649ZM34.9014 31.9611V30.6474C34.9014 28.9052 34.2093 27.2345 32.9775 26.0026C31.7456 24.7707 30.0748 24.0786 28.3327 24.0786H25.7052C23.963 24.0786 22.2922 24.7707 21.0603 26.0026C19.8285 27.2345 19.1364 28.9052 19.1364 30.6474V31.9611C19.1395 33.0055 19.5558 34.0061 20.2942 34.7446C21.0327 35.483 22.0333 35.8993 23.0777 35.9024H30.9602C32.0045 35.8993 33.0051 35.483 33.7436 34.7446C34.482 34.0061 34.8983 33.0055 34.9014 31.9611Z" fill="white"/>
</g>
<defs>
<filter id="filter0_d_676_3629" x="-0.154297" y="0.90332" width="54.3481" height="54.3486" filterUnits="userSpaceOnUse" color-interpolation-filters="sRGB">
<feFlood flood-opacity="0" result="BackgroundImageFix"/>
<feColorMatrix in="SourceAlpha" type="matrix" values="0 0 0 0 0 0 0 0 0 0 0 0 0 0 0 0 0 0 127 0" result="hardAlpha"/>
<feOffset dy="4"/>
<feGaussianBlur stdDeviation="2"/>
<feComposite in2="hardAlpha" operator="out"/>
<feColorMatrix type="matrix" values="0 0 0 0 0 0 0 0 0 0 0 0 0 0 0 0 0 0 0.15 0"/>
<feBlend mode="normal" in2="BackgroundImageFix" result="effect1_dropShadow_676_3629"/>
<feBlend mode="normal" in="SourceGraphic" in2="effect1_dropShadow_676_3629" result="shape"/>
</filter>
</defs>
</svg>
