<svg width="137" height="60" viewBox="0 0 137 60" fill="none" xmlns="http://www.w3.org/2000/svg">
<path d="M136.924 28.5971V26.1701H133.935V22.3971L133.835 22.4284L131.027 23.2945L130.972 23.3114V26.1703H126.541V24.5776C126.541 23.8361 126.706 23.2686 127.03 22.8901C127.352 22.5162 127.812 22.3261 128.399 22.3261C128.821 22.3261 129.258 22.4264 129.698 22.6241L129.808 22.6737V20.1178L129.756 20.0986C129.346 19.9499 128.788 19.875 128.096 19.875C127.225 19.875 126.433 20.0663 125.742 20.4454C125.051 20.8251 124.507 21.3671 124.126 22.0562C123.746 22.7445 123.554 23.5395 123.554 24.4192V26.1701H121.473V28.5971H123.554V38.8214H126.541V28.5971H130.972V35.0944C130.972 37.7704 132.224 39.1264 134.692 39.1264C135.098 39.1264 135.525 39.0785 135.961 38.9846C136.404 38.8882 136.707 38.792 136.885 38.6892L136.924 38.6657V36.2163L136.802 36.2974C136.64 36.4063 136.438 36.4953 136.202 36.5615C135.964 36.629 135.765 36.6627 135.612 36.6627C135.033 36.6627 134.605 36.5056 134.34 36.1955C134.072 35.8826 133.935 35.3354 133.935 34.5699V28.5971H136.924ZM114.801 36.6631C113.717 36.6631 112.862 36.3006 112.26 35.5864C111.653 34.8686 111.346 33.8452 111.346 32.5449C111.346 31.2034 111.653 30.1535 112.26 29.423C112.863 28.6973 113.709 28.329 114.777 28.329C115.813 28.329 116.637 28.6808 117.228 29.3751C117.822 30.073 118.123 31.1145 118.123 32.4716C118.123 33.8454 117.84 34.9007 117.281 35.6067C116.726 36.3072 115.892 36.6631 114.801 36.6631ZM114.934 25.8653C112.865 25.8653 111.222 26.4766 110.051 27.6822C108.88 28.888 108.286 30.5565 108.286 32.642C108.286 34.6228 108.866 36.2161 110.009 37.3768C111.152 38.538 112.707 39.1261 114.632 39.1261C116.637 39.1261 118.247 38.5063 119.418 37.284C120.589 36.0631 121.183 34.4103 121.183 32.3735C121.183 30.3617 120.626 28.7566 119.527 27.6036C118.429 26.4501 116.883 25.8653 114.934 25.8653ZM103.469 25.8653C102.062 25.8653 100.898 26.2283 100.009 26.944C99.1144 27.6639 98.6606 28.6081 98.6606 29.7507C98.6606 30.3447 98.7585 30.8722 98.9513 31.3197C99.1452 31.7687 99.4453 32.1639 99.8441 32.4957C100.24 32.8247 100.851 33.1694 101.66 33.5201C102.34 33.8025 102.848 34.0413 103.17 34.2295C103.485 34.414 103.709 34.5994 103.835 34.7801C103.958 34.9568 104.02 35.1987 104.02 35.4972C104.02 36.3472 103.389 36.7607 102.09 36.7607C101.608 36.7607 101.059 36.6593 100.457 36.4593C99.8592 36.2623 99.2951 35.9739 98.7843 35.6041L98.6603 35.5144V38.4149L98.7058 38.4362C99.1285 38.633 99.6615 38.7989 100.29 38.9295C100.917 39.0602 101.486 39.1267 101.981 39.1267C103.508 39.1267 104.738 38.762 105.635 38.042C106.538 37.3171 106.996 36.3506 106.996 35.1685C106.996 34.3158 106.749 33.5845 106.264 32.9947C105.782 32.4097 104.944 31.8727 103.777 31.3979C102.847 31.0215 102.251 30.709 102.005 30.4691C101.768 30.2373 101.648 29.9096 101.648 29.4946C101.648 29.1266 101.796 28.8319 102.101 28.5932C102.409 28.3533 102.836 28.2313 103.373 28.2313C103.87 28.2313 104.38 28.3106 104.886 28.466C105.392 28.6214 105.837 28.8295 106.208 29.0841L106.33 29.1682V26.4168L106.283 26.3965C105.941 26.2485 105.489 26.1218 104.941 26.019C104.395 25.9169 103.9 25.8653 103.469 25.8653ZM90.8724 36.6631C89.7883 36.6631 88.9331 36.3006 88.3308 35.5864C87.7245 34.8686 87.4179 33.8454 87.4179 32.5449C87.4179 31.2034 87.7248 30.1535 88.3314 29.423C88.9338 28.6973 89.7803 28.329 90.8484 28.329C91.8839 28.329 92.7085 28.6808 93.2993 29.3751C93.8931 30.073 94.1942 31.1145 94.1942 32.4716C94.1942 33.8454 93.9108 34.9007 93.3522 35.6067C92.7973 36.3072 91.9635 36.6631 90.8724 36.6631ZM91.0056 25.8653C88.9363 25.8653 87.293 26.4766 86.1221 27.6822C84.9513 28.888 84.3573 30.5565 84.3573 32.642C84.3573 34.6236 84.9371 36.2161 86.0801 37.3768C87.2231 38.538 88.7785 39.1261 90.7029 39.1261C92.708 39.1261 94.3188 38.5063 95.4899 37.284C96.6605 36.0631 97.254 34.4103 97.254 32.3735C97.254 30.3617 96.6972 28.7566 95.5986 27.6036C94.4994 26.4501 92.954 25.8653 91.0056 25.8653ZM79.8224 28.361V26.1701H76.8713V38.8211H79.8224V32.3496C79.8224 31.2492 80.0698 30.3452 80.5581 29.6624C81.0401 28.9877 81.6824 28.6458 82.4666 28.6458C82.7324 28.6458 83.0308 28.69 83.354 28.7774C83.6738 28.8643 83.9055 28.9587 84.0421 29.058L84.1661 29.1487V26.1485L84.1184 26.1278C83.8435 26.0101 83.4547 25.9507 82.9628 25.9507C82.2212 25.9507 81.5575 26.1909 80.9891 26.6641C80.4902 27.0799 80.1295 27.6501 79.8538 28.361H79.8224ZM71.5865 25.8653C70.2326 25.8653 69.025 26.1581 67.9979 26.7352C66.9686 27.3136 66.1726 28.1394 65.631 29.1895C65.0918 30.2371 64.8181 31.4607 64.8181 32.8253C64.8181 34.0206 65.0835 35.1175 65.6081 36.0843C66.133 37.0527 66.8759 37.8103 67.8164 38.3357C68.7555 38.8605 69.8409 39.1265 71.0427 39.1265C72.4451 39.1265 73.6425 38.8438 74.6026 38.2862L74.6414 38.2638V35.5374L74.5173 35.6287C74.0825 35.9481 73.5965 36.2031 73.0736 36.3868C72.552 36.5704 72.0765 36.6631 71.6595 36.6631C70.5015 36.6631 69.5719 36.2978 68.8972 35.5774C68.2209 34.8561 67.8781 33.8433 67.8781 32.5688C67.8781 31.2863 68.2356 30.2475 68.9403 29.4809C69.6429 28.7167 70.5742 28.329 71.7082 28.329C72.6781 28.329 73.6233 28.6602 74.5176 29.3143L74.6414 29.405V26.5323L74.6014 26.5096C74.2649 26.3196 73.8059 26.1628 73.2361 26.0438C72.6687 25.9252 72.1138 25.8653 71.5865 25.8653ZM62.7856 26.1703H59.8345V38.8211H62.7856V26.1703ZM61.3402 20.7809C60.8545 20.7809 60.4309 20.9476 60.0829 21.278C59.7334 21.6094 59.5561 22.0265 59.5561 22.5189C59.5561 23.0035 59.7313 23.413 60.0774 23.7356C60.4214 24.0572 60.8463 24.2201 61.3404 24.2201C61.8343 24.2201 62.2608 24.0572 62.6089 23.7361C62.9591 23.413 63.1368 23.0036 63.1368 22.5189C63.1368 22.0438 62.9639 21.6309 62.6233 21.2914C62.2829 20.9526 61.8511 20.7809 61.3402 20.7809ZM53.9771 25.2369V38.8211H56.9888V21.1682H52.8205L47.5223 34.2802L42.3807 21.1682H38.0427V38.821H40.8729V25.2355H40.97L46.3994 38.8211H48.5353L53.88 25.2369H53.9771Z" fill="#706D6E"/>
<path d="M13.9572 29.2679H0.0744629V15.2686H13.9572V29.2679Z" fill="#F1511B"/>
<path d="M29.2865 29.2679H15.4041V15.2686H29.2865V29.2679Z" fill="#80CC28"/>
<path d="M13.9568 44.7297H0.0744629V30.7305H13.9568V44.7297Z" fill="#00ADEF"/>
<path d="M29.2865 44.7297H15.4041V30.7305H29.2865V44.7297Z" fill="#FBBC09"/>
</svg>
