<svg width="119" height="60" viewBox="0 0 119 60" fill="none" xmlns="http://www.w3.org/2000/svg">
<path d="M14.655 10.4199H15.7133C19.3871 10.5005 23.001 11.9904 25.5966 14.628C24.6383 15.6146 23.6599 16.5609 22.7215 17.5475C21.2639 16.2186 19.5069 15.1917 17.5901 14.8293C14.7549 14.2253 11.7 14.7689 9.324 16.3998C6.72836 18.1112 4.97131 21.0106 4.59195 24.1112C4.17265 27.1716 5.03121 30.3931 7.00789 32.769C8.9047 35.0844 11.7998 36.5341 14.7948 36.6348C17.5901 36.7958 20.5052 35.9301 22.5418 33.9569C24.1391 32.5676 24.8779 30.4535 25.1175 28.3998C21.803 28.3998 18.4886 28.42 15.1742 28.3998V24.2522H29.1307C29.8495 28.7018 28.8112 33.7153 25.4569 36.8965C23.2206 39.1515 20.1258 40.4804 16.9711 40.7421C13.9163 41.0442 10.7616 40.4603 8.04614 38.9703C4.79161 37.2186 2.19597 34.2589 0.918122 30.7757C-0.279865 27.5743 -0.299831 23.9502 0.81829 20.7287C1.83658 17.7891 3.79329 15.1917 6.30906 13.3797C8.725 11.5877 11.6601 10.6011 14.655 10.4199Z" fill="#3780FF"/>
<path d="M94.7202 11.4668H98.993V40.2185C97.5754 40.2185 96.1378 40.2386 94.7202 40.1983C94.7402 30.6346 94.7202 21.0507 94.7202 11.4668Z" fill="#38B137"/>
<path d="M38.6347 21.4335C41.2703 20.9301 44.1255 21.4939 46.3019 23.0845C48.2785 24.4939 49.6562 26.7087 50.0755 29.1248C50.6146 31.9234 49.9358 34.9838 48.1388 37.1986C46.202 39.6751 43.0274 41.004 39.9326 40.8026C37.0973 40.6416 34.342 39.212 32.6648 36.8765C30.768 34.2993 30.3087 30.7556 31.347 27.7355C32.3852 24.4939 35.3203 22.0174 38.6347 21.4335ZM39.2337 25.259C38.1555 25.5409 37.1572 26.165 36.4384 27.0509C34.5017 29.3865 34.6215 33.1919 36.7579 35.3664C37.9759 36.6147 39.8128 37.1986 41.5099 36.8563C43.0873 36.5744 44.465 35.5073 45.2237 34.0979C46.5415 31.702 46.1621 28.3999 44.1455 26.5275C42.8477 25.3194 40.9509 24.816 39.2337 25.259Z" fill="#FA3913"/>
<path d="M59.7988 21.433C62.8137 20.8491 66.1082 21.6948 68.3644 23.829C72.0382 27.1511 72.4375 33.3726 69.3028 37.1981C67.406 39.6142 64.3312 40.9431 61.2963 40.8021C58.4011 40.7216 55.546 39.2719 53.8288 36.8759C51.8921 34.2384 51.4728 30.6142 52.571 27.5337C53.6691 24.3927 56.5443 21.9968 59.7988 21.433ZM60.3978 25.2585C59.3196 25.5404 58.3213 26.1646 57.6025 27.0303C55.6857 29.3256 55.7656 33.0706 57.8221 35.2652C59.0401 36.5739 60.9369 37.2182 62.6939 36.8558C64.2513 36.5538 65.649 35.5068 66.4077 34.0974C67.7055 31.6813 67.3261 28.3793 65.2896 26.5068C63.9917 25.2988 62.0949 24.8156 60.3978 25.2585Z" fill="#FCBD06"/>
<path d="M77.7493 22.6005C80.0454 21.1508 83.1003 20.7481 85.5761 21.9964C86.3548 22.3387 86.9938 22.9226 87.6127 23.5065C87.6327 22.9629 87.6127 22.3991 87.6327 21.8354C88.9704 21.8555 90.3082 21.8354 91.6659 21.8555V39.6139C91.6459 42.2917 90.9671 45.1306 89.0503 47.0836C86.9538 49.238 83.7392 49.9024 80.8441 49.4595C77.7493 48.9964 75.0538 46.7212 73.8558 43.842C75.0538 43.2581 76.3117 42.7951 77.5496 42.2514C78.2485 43.9024 79.6661 45.3118 81.4431 45.634C83.2201 45.9561 85.2766 45.5132 86.4347 44.0232C87.6726 42.493 87.6726 40.3991 87.6127 38.5266C86.6943 39.4326 85.636 40.238 84.3582 40.54C81.5829 41.3253 78.528 40.3588 76.3916 38.4662C74.2352 36.5736 72.9573 33.6541 73.0771 30.7548C73.137 27.4729 74.974 24.3119 77.7493 22.6005ZM81.8823 25.1776C80.6644 25.379 79.5263 26.0635 78.7476 27.0098C76.8708 29.2649 76.8708 32.8689 78.7676 35.0837C79.8458 36.3924 81.5829 37.1172 83.26 36.936C84.8374 36.7749 86.2949 35.7682 87.0736 34.379C88.3914 32.0233 88.1718 28.8219 86.3948 26.7682C85.2966 25.4998 83.5396 24.8756 81.8823 25.1776Z" fill="#3780FF"/>
<path d="M104.125 23.6272C106.521 21.3721 110.214 20.607 113.289 21.795C116.204 22.9023 118.061 25.701 119 28.5802C114.667 30.3923 110.354 32.1842 106.021 33.9963C106.62 35.144 107.539 36.1909 108.777 36.6138C110.514 37.2379 112.59 37.0164 114.048 35.8487C114.627 35.4057 115.086 34.8218 115.526 34.258C116.624 35.003 117.722 35.7278 118.82 36.4728C117.263 38.8285 114.647 40.4795 111.832 40.7413C108.717 41.1238 105.403 39.9158 103.386 37.4594C100.071 33.5936 100.391 27.1104 104.125 23.6272ZM106.261 27.352C105.582 28.3386 105.303 29.5466 105.323 30.7346C108.218 29.5265 111.113 28.3184 114.008 27.0903C113.529 25.9627 112.371 25.2782 111.193 25.097C109.296 24.7547 107.319 25.7815 106.261 27.352Z" fill="#FA3913"/>
</svg>
