<svg width="119" height="60" viewBox="0 0 119 60" fill="none" xmlns="http://www.w3.org/2000/svg">
<path fill-rule="evenodd" clip-rule="evenodd" d="M38.0707 38.7409L39.5558 35.2609C41.1599 36.4705 43.2972 37.0993 45.4058 37.0993C46.9624 37.0993 47.9477 36.4945 47.9477 35.5777C47.9239 33.0145 38.6228 35.0209 38.5514 28.5938C38.5276 25.3298 41.4027 22.8146 45.4772 22.8146C47.9001 22.8146 50.3182 23.4194 52.046 24.797L50.6561 28.349C49.0758 27.3314 47.1099 26.6066 45.2392 26.6066C43.9683 26.6066 43.1306 27.2114 43.1306 27.9842C43.1544 30.4993 52.5268 29.1218 52.622 35.2609C52.622 38.5969 49.8184 40.9441 45.7914 40.9441C42.8402 40.9393 40.1318 40.2385 38.0707 38.7409ZM95.1002 34.0033C94.3577 35.3089 92.9678 36.2017 91.3589 36.2017C88.9836 36.2017 87.0701 34.2673 87.0701 31.8769C87.0701 29.4866 88.9884 27.5522 91.3589 27.5522C92.963 27.5522 94.3577 28.445 95.1002 29.7505L99.1986 27.4562C97.6659 24.701 94.7147 22.8146 91.3589 22.8146C86.3942 22.8146 82.3672 26.8754 82.3672 31.8817C82.3672 36.8881 86.3942 40.9489 91.3589 40.9489C94.7385 40.9489 97.6659 39.0865 99.1986 36.3073L95.1002 34.0033ZM54.6831 15.293H59.8144V40.6033H54.6831V15.293ZM101.212 15.293V40.6033H106.343V33.0097L112.431 40.6033H119L111.256 31.5841L118.424 23.1698H112.141L106.339 30.1537V15.293H101.212Z" fill="black"/>
<path d="M75.0603 34.0512C74.3178 35.2848 72.785 36.2016 71.0572 36.2016C68.6819 36.2016 66.7684 34.2672 66.7684 31.8768C66.7684 29.4864 68.6867 27.552 71.0572 27.552C72.785 27.552 74.3178 28.5168 75.0603 29.7744V34.0512ZM75.0603 23.1744V25.2288C74.2226 23.8032 72.1377 22.8096 69.9528 22.8096C65.4451 22.8096 61.8989 26.8224 61.8989 31.8528C61.8989 36.8832 65.4451 40.9439 69.9528 40.9439C72.1329 40.9439 74.2178 39.9551 75.0603 38.5247V40.5791H80.1916V23.1744H75.0603Z" fill="black"/>
<path fill-rule="evenodd" clip-rule="evenodd" d="M6.35448 34.027C6.35448 35.7934 4.94076 37.219 3.18908 37.219C1.4374 37.219 0.0236816 35.7886 0.0236816 34.027C0.0236816 32.2654 1.4374 30.835 3.18908 30.835H6.35448V34.027ZM7.9348 34.027C7.9348 32.2606 9.34852 30.835 11.1002 30.835C12.8519 30.835 14.2656 32.2606 14.2656 34.027V42.0046C14.2656 43.771 12.8519 45.1966 11.1002 45.1966C9.34852 45.1966 7.9348 43.771 7.9348 42.0046V34.027Z" fill="#E01E5A"/>
<path fill-rule="evenodd" clip-rule="evenodd" d="M11.1003 21.216C9.34864 21.216 7.93492 19.7904 7.93492 18.024C7.93492 16.2576 9.34864 14.832 11.1003 14.832C12.852 14.832 14.2657 16.2576 14.2657 18.024V21.216H11.1003ZM11.1003 22.8337C12.852 22.8337 14.2657 24.2593 14.2657 26.0257C14.2657 27.7921 12.852 29.2177 11.1003 29.2177H3.1654C1.41372 29.2177 0 27.7873 0 26.0257C0 24.2641 1.41372 22.8337 3.1654 22.8337H11.1003Z" fill="#36C5F0"/>
<path fill-rule="evenodd" clip-rule="evenodd" d="M23.7809 26.0257C23.7809 24.2593 25.1946 22.8337 26.9462 22.8337C28.6979 22.8337 30.1116 24.2593 30.1116 26.0257C30.1116 27.7921 28.6979 29.2177 26.9462 29.2177H23.7809V26.0257ZM22.2005 26.0257C22.2005 27.7921 20.7868 29.2177 19.0351 29.2177C17.2835 29.2177 15.8698 27.7921 15.8698 26.0257V18.024C15.8698 16.2576 17.2835 14.832 19.0351 14.832C20.7868 14.832 22.2005 16.2576 22.2005 18.024V26.0257Z" fill="#2EB67D"/>
<path fill-rule="evenodd" clip-rule="evenodd" d="M19.0351 38.8126C20.7868 38.8126 22.2005 40.2382 22.2005 42.0046C22.2005 43.771 20.7868 45.1966 19.0351 45.1966C17.2835 45.1966 15.8698 43.771 15.8698 42.0046V38.8126H19.0351ZM19.0351 37.219C17.2835 37.219 15.8698 35.7934 15.8698 34.027C15.8698 32.2606 17.2835 30.835 19.0351 30.835H26.97C28.7217 30.835 30.1354 32.2606 30.1354 34.027C30.1354 35.7934 28.7217 37.219 26.97 37.219H19.0351Z" fill="#ECB22E"/>
</svg>
