<svg width="24" height="24" viewBox="0 0 24 24" fill="none" xmlns="http://www.w3.org/2000/svg">
<path d="M16.114 9.29128C16.666 8.73928 17.214 7.45128 14.914 9.01528C12.7655 10.494 10.6024 11.9514 8.42501 13.3873C8.09345 13.5372 7.735 13.6186 7.37121 13.6265C7.00741 13.6344 6.64577 13.5687 6.30801 13.4333C4.92801 13.0193 3.31701 12.4673 3.31701 12.4673C3.31701 12.4673 2.21701 11.7763 4.10001 11.0403C4.10001 11.0403 12.061 7.77328 14.822 6.62228C15.88 6.16228 19.469 4.69028 19.469 4.69028C19.469 4.69028 21.126 4.04528 20.988 5.61028C20.942 6.25428 20.574 8.51028 20.206 10.9483C19.653 14.3993 19.055 18.1733 19.055 18.1733C19.055 18.1733 18.963 19.2313 18.181 19.4153C17.3439 19.4011 16.5351 19.1099 15.881 18.5873C15.697 18.4493 12.43 16.3783 11.233 15.3663C11.1112 15.2838 11.0123 15.1719 10.9454 15.0409C10.8786 14.9099 10.8459 14.7641 10.8505 14.6171C10.8551 14.4701 10.8968 14.3267 10.9717 14.2001C11.0466 14.0736 11.1523 13.968 11.279 13.8933C12.9208 12.3912 14.5327 10.8569 16.114 9.29128Z" fill="url(#paint0_linear_26_3605)"/>
<defs>
<linearGradient id="paint0_linear_26_3605" x1="5.99299" y1="20.6657" x2="15.2434" y2="5.95489" gradientUnits="userSpaceOnUse">
<stop stop-color="#22B4FD"/>
<stop offset="1" stop-color="#2D79FF"/>
</linearGradient>
</defs>
</svg>
