<svg width="864" height="912" viewBox="0 0 864 912" fill="none" xmlns="http://www.w3.org/2000/svg">
<g opacity="0.16" filter="url(#filter0_f_15_1499)">
<rect x="-117" y="260" width="633" height="462" fill="url(#paint0_linear_15_1499)"/>
</g>
<g opacity="0.4">
<path opacity="0.4" d="M838.439 502.834C872.187 522.282 872.187 553.742 839.011 573.19L657.687 678.438C624.511 697.886 570.171 697.886 536.423 678.438L353.383 573.19C319.635 553.742 319.635 522.282 352.811 502.834L534.135 397.586C567.311 378.138 621.651 378.138 655.399 397.586L838.439 502.834Z" fill="#9BC8F2"/>
</g>
<path d="M831.696 509.788H296.304V528.664C296.304 541.248 304.884 553.832 321.472 563.556L503.94 668.804C537.688 688.252 592.028 688.252 625.204 668.804L806.528 563.556C823.116 553.832 831.696 541.248 831.696 528.664V509.788Z" fill="url(#paint1_linear_15_1499)"/>
<path d="M806.528 474.324C840.276 493.772 840.276 525.232 807.1 544.68L625.776 649.928C592.6 669.376 538.26 669.376 504.512 649.928L321.472 544.68C287.724 525.232 287.724 493.772 320.9 474.324L502.224 369.076C535.4 349.628 589.74 349.628 623.488 369.076L806.528 474.324Z" fill="#F3F8FE"/>
<path d="M742.464 442.292H385.536V512.076C385.536 520.656 391.256 529.236 402.696 535.528L523.96 605.884C546.268 619.04 582.876 619.04 605.184 605.884L726.448 535.528C737.316 529.236 743.036 520.656 743.036 512.076V442.292H742.464Z" fill="url(#paint2_linear_15_1499)"/>
<path d="M677.256 426.276C692.7 435.428 693.272 450.3 677.256 458.88L592.6 508.072C577.156 517.224 551.416 517.224 535.972 508.072L450.744 458.88C435.3 449.728 434.728 435.428 450.744 426.276L535.4 377.084C550.844 367.932 576.584 367.932 592.028 377.084L677.256 426.276Z" fill="url(#paint3_linear_15_1499)"/>
<path d="M755.62 414.836C781.932 430.28 782.504 454.876 756.192 470.32L612.62 553.832C586.308 569.276 543.408 569.276 516.524 553.832L372.38 470.32C346.068 454.876 345.496 430.28 372.38 414.836L515.952 331.324C542.264 315.88 585.164 315.88 612.048 331.324L755.62 414.836Z" stroke="#0CFFFC" stroke-width="0.5" stroke-miterlimit="10"/>
<path d="M677.256 437.716C692.7 446.868 693.272 461.74 677.256 470.32L592.6 519.512C577.156 528.664 551.416 528.664 535.972 519.512L450.744 470.32C435.3 461.168 434.728 446.868 450.744 437.716L535.4 388.524C550.844 379.372 576.584 379.372 592.028 388.524L677.256 437.716Z" fill="#1570EF"/>
<path d="M725.876 419.411L604.04 349.055C581.732 335.899 545.124 335.899 523.388 349.055L402.124 419.411C379.816 432.567 379.816 453.159 402.124 466.315L523.96 536.1C546.268 549.256 582.876 549.256 605.184 536.1L726.448 465.744C748.184 453.16 748.184 431.995 725.876 419.411ZM677.256 458.88L592.6 508.071C577.156 517.223 551.416 517.223 535.972 508.071L450.744 458.88C435.3 449.728 434.728 435.427 450.744 426.275L535.4 377.084C550.844 367.932 576.584 367.932 592.028 377.084L677.256 426.275C692.7 435.427 692.7 449.728 677.256 458.88Z" fill="#2185F8"/>
<path d="M563.428 339.332V342.192C578.3 342.192 592.028 345.624 602.324 351.344L724.16 421.7C733.884 427.42 739.604 434.856 739.604 442.864C739.604 450.872 734.456 458.308 724.16 463.456L602.896 533.812C592.6 540.104 578.872 542.964 564 542.964C549.128 542.964 535.4 539.532 525.104 533.812L403.84 463.456C394.116 457.736 388.396 450.3 388.396 442.292C388.396 434.284 393.544 426.848 403.84 421.128L525.104 350.772C535.4 344.48 549.128 341.62 564 341.62V339.332M563.428 339.332C548.556 339.332 534.256 342.764 522.816 349.056L401.552 419.412C379.244 432.568 379.244 453.16 401.552 466.316L523.96 536.1C535.4 542.392 549.7 545.824 564.572 545.824C579.444 545.824 593.744 542.392 605.184 536.1L726.448 465.744C748.756 452.588 748.756 431.996 725.876 418.84L604.04 349.056C592.6 342.192 578.3 339.332 563.428 339.332Z" fill="url(#paint4_linear_15_1499)"/>
<path d="M707.732 261.5L599.052 198.58C579.032 187.14 547 187.14 526.98 198.58L418.872 261.5C409.148 267.22 404 274.656 404 282.664L438.32 442.252C438.32 447.972 442.324 454.264 450.332 458.84L535.56 508.032C551.004 517.184 576.744 517.184 592.188 508.032L676.844 458.84C684.852 454.264 688.284 448.544 688.284 442.252L722.604 282.664C722.604 275.228 718.028 267.22 707.732 261.5Z" fill="url(#paint5_linear_15_1499)"/>
<path d="M459.896 382.804C460.844 382.804 461.612 382.036 461.612 381.088C461.612 380.14 460.844 379.372 459.896 379.372C458.948 379.372 458.18 380.14 458.18 381.088C458.18 382.036 458.948 382.804 459.896 382.804Z" fill="white"/>
<path d="M620.628 394.816C621.576 394.816 622.344 394.048 622.344 393.1C622.344 392.152 621.576 391.384 620.628 391.384C619.68 391.384 618.912 392.152 618.912 393.1C618.912 394.048 619.68 394.816 620.628 394.816Z" fill="white"/>
<path d="M656.092 374.796C657.04 374.796 657.808 374.028 657.808 373.08C657.808 372.133 657.04 371.364 656.092 371.364C655.144 371.364 654.376 372.133 654.376 373.08C654.376 374.028 655.144 374.796 656.092 374.796Z" fill="white"/>
<path d="M511.948 446.296C512.896 446.296 513.664 445.528 513.664 444.58C513.664 443.633 512.896 442.864 511.948 442.864C511 442.864 510.232 443.633 510.232 444.58C510.232 445.528 511 446.296 511.948 446.296Z" fill="white"/>
<path d="M625.776 318.168C626.724 318.168 627.492 317.4 627.492 316.452C627.492 315.505 626.724 314.736 625.776 314.736C624.828 314.736 624.06 315.505 624.06 316.452C624.06 317.4 624.828 318.168 625.776 318.168Z" fill="white"/>
<path d="M478.772 319.884C479.72 319.884 480.488 319.116 480.488 318.168C480.488 317.22 479.72 316.452 478.772 316.452C477.824 316.452 477.056 317.22 477.056 318.168C477.056 319.116 477.824 319.884 478.772 319.884Z" fill="white"/>
<path d="M532.54 282.132C533.488 282.132 534.256 281.364 534.256 280.416C534.256 279.468 533.488 278.7 532.54 278.7C531.592 278.7 530.824 279.468 530.824 280.416C530.824 281.364 531.592 282.132 532.54 282.132Z" fill="white"/>
<path opacity="0.4" d="M451.888 367.36H454.176C454.748 367.36 455.32 367.932 455.32 368.504V436.572C455.32 437.144 454.748 437.716 454.176 437.716H451.888C451.316 437.716 450.744 437.144 450.744 436.572V368.504C451.316 367.932 451.316 367.36 451.888 367.36Z" fill="url(#paint6_linear_15_1499)"/>
<path opacity="0.4" d="M673.824 343.908H676.112C676.684 343.908 677.256 344.48 677.256 345.052V413.12C677.256 413.692 676.684 414.264 676.112 414.264H673.824C673.252 414.264 672.68 413.692 672.68 413.12V345.052C672.68 344.48 673.252 343.908 673.824 343.908Z" fill="url(#paint7_linear_15_1499)"/>
<path opacity="0.4" d="M518.812 389.668H521.1C521.672 389.668 522.244 390.24 522.244 390.812V458.88C522.244 459.452 521.672 460.024 521.1 460.024H518.812C518.24 460.024 517.668 459.452 517.668 458.88V390.812C517.668 390.24 518.24 389.668 518.812 389.668Z" fill="url(#paint8_linear_15_1499)"/>
<path opacity="0.4" d="M518.812 297.576H521.1C521.672 297.576 522.244 298.148 522.244 298.72V366.788C522.244 367.36 521.672 367.932 521.1 367.932H518.812C518.24 367.932 517.668 367.36 517.668 366.788V298.72C517.668 298.148 518.24 297.576 518.812 297.576Z" fill="url(#paint9_linear_15_1499)"/>
<path d="M325.476 263.828C325.476 268.404 327.192 271.836 329.48 272.98L335.772 276.412C335.772 276.412 398.692 229.508 398.692 221.5C398.692 221.5 398.692 218.64 398.12 216.924C399.264 216.352 400.98 215.78 400.98 215.78C399.836 215.208 396.404 212.92 394.688 212.348C392.4 211.776 388.396 212.92 387.252 213.492C387.252 211.776 386.68 210.06 386.108 208.916L388.968 208.344L383.248 204.912C380.96 203.768 378.1 203.768 375.24 205.484C373.524 206.628 372.38 207.772 371.236 208.916C371.236 208.916 368.376 207.2 366.66 206.056C364.944 204.912 363.228 204.912 361.512 204.912C360.94 204.912 360.368 204.912 359.796 204.912C359.224 204.912 359.224 204.912 358.652 204.912C356.936 205.484 355.22 206.056 353.504 207.2C346.64 211.204 340.348 219.212 336.916 228.936C334.628 234.656 332.912 242.092 333.484 246.096C326.62 252.96 325.476 257.536 325.476 263.828Z" fill="url(#paint10_linear_15_1499)"/>
<path d="M331.768 267.831C331.768 275.839 336.916 279.843 343.208 276.411C343.208 276.411 343.78 276.411 343.78 275.839L393.544 246.667C393.544 246.667 394.116 246.667 394.116 246.095C400.408 242.663 404.984 232.939 404.984 224.931C404.984 216.923 399.836 212.919 393.544 216.351C393.544 216.351 393.544 216.351 392.972 216.351C392.4 207.771 387.252 204.339 380.388 208.343C378.672 209.487 376.956 211.203 375.24 212.919C371.808 207.771 365.516 206.627 358.652 210.631C347.784 216.923 338.632 234.083 339.204 248.955C335.2 254.103 331.768 261.539 331.768 267.831Z" fill="#F3F8FE"/>
<path d="M394.116 246.095C400.408 242.663 404.984 232.939 404.984 224.931C404.984 216.923 399.836 212.919 393.544 216.351C393.544 216.351 393.544 216.351 392.972 216.351C392.4 207.771 387.252 204.339 380.388 208.343C378.672 209.487 376.956 211.203 375.24 212.919C371.808 207.771 365.516 206.627 358.652 210.631L358.08 211.203L384.392 251.815L392.972 246.667C393.544 246.667 393.544 246.667 394.116 246.095Z" fill="url(#paint11_linear_15_1499)"/>
<path d="M795.66 286.136C795.66 288.996 794.516 290.712 793.372 291.284L789.94 293.572C789.94 293.572 752.76 266.116 752.76 260.968C752.76 260.968 752.76 259.252 753.332 258.108C752.76 258.108 751.616 257.536 751.616 257.536C752.188 256.964 754.476 255.82 755.048 255.248C756.192 254.676 759.052 255.248 759.624 255.82C759.624 254.676 759.624 254.104 760.196 252.96L758.48 252.388L761.912 250.1C763.056 249.528 764.772 249.528 767.06 250.672C768.204 251.244 768.776 251.816 769.348 252.96C769.348 252.96 771.064 251.816 772.208 251.244C773.352 250.672 774.496 250.672 775.64 250.672C776.212 250.672 776.212 250.672 776.784 250.672H777.356C778.5 250.672 779.644 251.244 780.216 251.816C784.22 254.104 788.224 259.252 789.94 264.4C791.084 267.832 792.228 271.836 791.656 274.696C795.088 279.844 795.66 282.132 795.66 286.136Z" fill="url(#paint12_linear_15_1499)"/>
<path d="M791.656 288.424C791.656 293 788.796 295.288 784.792 293.572C784.792 293.572 784.792 293.572 784.22 293.572L755.048 276.412C755.048 276.412 755.048 276.412 754.476 276.412C751.044 274.124 748.184 268.404 748.184 263.828C748.184 259.252 751.044 256.964 755.048 258.68C755.048 253.532 758.48 251.244 762.484 253.532C763.628 254.104 764.772 255.248 765.344 255.82C767.632 252.96 771.064 251.816 775.068 254.676C781.36 258.68 787.08 268.976 786.508 277.556C789.94 280.416 791.656 284.992 791.656 288.424Z" fill="#F3F8FE"/>
<path d="M755.048 275.84C751.616 273.552 748.756 267.832 748.756 263.256C748.756 258.68 751.616 256.392 755.62 258.108C755.62 252.96 759.052 250.672 763.056 252.96C764.2 253.532 765.344 254.676 765.916 255.248C768.204 252.388 771.636 251.244 775.64 254.104C775.64 254.104 775.64 254.104 776.212 254.676L760.768 278.7L755.048 275.84Z" fill="url(#paint13_linear_15_1499)"/>
<path d="M366.66 536.101V540.677C366.66 541.821 366.088 542.393 364.944 543.537C362.656 545.253 358.652 545.253 355.792 543.537C354.648 542.965 354.076 541.821 354.076 540.677V536.101H366.66Z" fill="url(#paint14_linear_15_1499)"/>
<path d="M360.378 539.537C363.853 539.527 366.666 537.982 366.661 536.087C366.655 534.191 363.834 532.663 360.359 532.673C356.884 532.682 354.071 534.227 354.077 536.122C354.082 538.018 356.903 539.546 360.378 539.537Z" fill="#2185F8"/>
<path d="M360.375 538.392C362.586 538.386 364.376 537.356 364.373 536.092C364.369 534.829 362.574 533.81 360.362 533.816C358.151 533.822 356.361 534.852 356.365 536.115C356.368 537.379 358.164 538.398 360.375 538.392Z" fill="#0CFFFC"/>
<path d="M384.964 546.969V551.545C384.964 552.689 384.392 553.261 383.248 554.405C380.96 556.121 376.956 556.121 374.096 554.405C372.952 553.833 372.38 552.689 372.38 551.545V546.969H384.964Z" fill="url(#paint15_linear_15_1499)"/>
<path d="M378.683 550.406C382.158 550.396 384.97 548.851 384.965 546.956C384.96 545.06 382.138 543.532 378.663 543.542C375.188 543.552 372.376 545.096 372.381 546.992C372.386 548.887 375.208 550.416 378.683 550.406Z" fill="#2185F8"/>
<path d="M378.68 549.261C380.891 549.255 382.681 548.225 382.677 546.962C382.673 545.698 380.878 544.679 378.667 544.685C376.455 544.691 374.666 545.721 374.669 546.984C374.673 548.248 376.468 549.267 378.68 549.261Z" fill="#FFE200"/>
<path d="M545.696 230.652C546.268 230.652 546.268 230.652 546.84 230.652C547.412 230.652 547.984 230.652 547.984 230.652H548.556C549.128 230.652 549.128 230.652 549.7 230.652L566.86 220.928C566.86 220.928 566.288 220.928 565.716 220.928H565.144C564.572 220.928 564.572 220.928 564 220.928C564 220.928 563.428 220.928 562.856 220.928C562.284 220.928 561.712 220.928 561.14 220.928C560.568 220.928 559.996 220.928 559.996 220.928C559.424 220.928 558.852 220.928 558.28 220.928C557.708 220.928 556.564 220.928 555.992 220.928C555.42 220.928 554.848 220.928 553.704 220.928C553.132 220.928 551.988 220.928 550.844 220.928C550.272 220.928 549.128 220.928 548.556 220.928C547.412 220.928 546.84 220.928 545.696 220.928C545.124 220.928 543.98 220.928 543.408 220.928C542.264 220.928 541.12 220.928 539.976 220.928C539.404 220.928 538.26 220.928 537.688 220.928C535.4 220.928 533.684 220.356 531.396 220.356C530.824 220.356 530.824 220.356 530.252 220.356C528.536 220.356 526.82 219.784 525.104 219.784C524.532 219.784 523.96 219.784 523.388 219.784C521.1 219.212 518.812 219.212 516.524 218.64C515.952 218.64 515.38 218.64 514.808 218.068C513.664 218.068 512.52 217.496 510.804 217.496C510.232 217.496 509.088 216.924 508.516 216.924C507.944 216.924 507.372 216.352 506.8 216.352C505.656 215.78 503.94 215.78 502.796 215.208C502.224 215.208 502.224 215.208 501.652 214.636C499.936 214.064 498.792 213.492 497.076 212.92H496.504C494.788 212.348 493.644 211.776 491.928 210.632L474.768 220.356C475.34 220.356 475.912 220.928 476.484 220.928C477.056 221.5 477.628 221.5 478.2 221.5C478.772 221.5 478.772 222.072 479.344 222.072H479.916H480.488C481.632 222.644 482.204 222.644 483.348 223.216C483.92 223.216 483.92 223.216 484.492 223.788C485.064 223.788 485.064 223.788 485.636 224.36C486.208 224.36 486.208 224.36 486.78 224.932C487.352 224.932 488.496 225.504 489.64 225.504C490.212 225.504 490.784 226.076 491.356 226.076H491.928C492.5 226.076 493.072 226.076 493.644 226.648C494.788 227.22 495.932 227.22 497.648 227.22H498.22C498.792 227.22 498.792 227.22 499.364 227.22C501.652 227.792 503.94 227.792 506.228 228.364C506.8 228.364 506.8 228.364 507.372 228.364H507.944C509.66 228.364 511.376 228.936 513.092 228.936C513.664 228.936 513.664 228.936 514.236 228.936C516.524 228.936 518.812 229.508 520.528 229.508C520.528 229.508 520.528 229.508 521.1 229.508C521.672 229.508 522.816 229.508 523.388 229.508C524.532 229.508 525.676 229.508 526.82 229.508C527.392 229.508 528.536 229.508 529.108 229.508C530.252 229.508 531.396 229.508 531.968 229.508C532.54 229.508 533.684 229.508 534.256 229.508C535.4 229.508 535.972 229.508 537.116 229.508C537.688 229.508 538.26 229.508 539.404 229.508C539.976 229.508 541.12 229.508 541.692 229.508H542.264C542.836 229.508 543.408 229.508 543.98 229.508C544.552 229.508 545.124 229.508 545.124 229.508C544.552 230.652 545.124 230.652 545.696 230.652Z" fill="url(#paint16_linear_15_1499)"/>
<path d="M549.7 231.224C552.56 234.084 601.752 292.428 625.776 307.3C627.492 320.456 625.776 387.952 606.9 410.26C593.172 423.988 563.428 420.556 549.7 418.84C549.128 418.84 549.128 418.84 548.556 418.268C547.984 417.696 547.412 417.124 547.412 417.124C537.116 406.828 502.224 369.648 491.356 343.336C474.196 304.44 471.336 230.08 473.624 219.212C497.648 232.368 546.268 230.08 548.556 230.08L549.7 231.224Z" fill="url(#paint17_linear_15_1499)"/>
<path d="M641.22 295.86C640.076 295.288 639.504 294.716 638.932 294.144C638.932 294.144 638.36 294.143 638.36 293.571C638.36 293.571 638.36 293.571 637.788 293.571C637.216 292.999 636.072 292.427 635.5 291.855L634.928 291.284C633.784 290.14 632.64 289.568 631.496 288.424L630.924 287.851C628.636 286.135 626.92 284.419 624.632 282.131C622.916 280.415 621.2 279.271 620.056 277.555L619.484 276.984C617.768 275.268 616.624 274.124 614.908 272.408L614.336 271.835C610.904 268.403 607.472 264.972 604.04 261.54C600.608 258.108 597.176 254.676 594.316 251.244L593.744 250.671C592.028 248.955 590.884 247.24 589.168 245.524L588.596 244.951C586.88 243.235 585.736 241.519 584.592 240.375C583.448 238.659 581.732 237.516 580.588 235.8L580.016 235.228C578.872 234.084 577.728 232.368 576.584 231.224L576.012 230.651C574.868 229.507 574.296 228.364 573.152 227.22C573.152 227.22 573.152 226.648 572.58 226.648C572.008 225.504 570.864 224.932 570.292 224.36L569.72 223.788C569.148 223.216 568.576 222.643 568.576 222.071C568.004 221.499 568.004 221.5 568.004 220.928L566.86 220.355L549.7 230.08L550.844 230.651C550.844 230.651 551.416 231.223 551.416 231.795C551.988 232.367 551.988 232.939 552.56 233.511C552.56 233.511 552.56 234.084 553.132 234.084C553.704 234.656 554.276 235.799 555.42 236.371C555.42 236.371 555.42 236.944 555.992 236.944C556.564 238.088 557.708 239.231 558.852 240.375L559.424 240.948C560.568 242.092 561.712 243.235 562.856 244.951L563.428 245.524C564.572 246.668 566.288 248.384 567.432 250.1C568.576 251.816 570.292 252.959 571.436 254.675L572.008 255.248C573.724 256.964 574.868 258.679 576.584 260.395L577.156 260.968C580.588 264.4 583.448 267.832 586.88 271.264C590.312 274.696 593.744 278.128 597.176 281.56C597.176 281.56 597.176 281.559 597.748 282.131C599.464 283.847 600.608 284.992 602.324 286.708L602.896 287.28C604.612 288.996 606.328 290.139 607.472 291.855C609.76 293.571 611.476 295.859 613.764 297.575C613.764 297.575 614.336 297.576 614.336 298.148C615.48 299.292 616.624 299.864 617.768 301.008C617.768 301.008 618.34 301.008 618.34 301.58C618.912 302.152 620.056 302.723 620.628 303.295C620.628 303.295 620.628 303.295 621.2 303.295C621.2 303.295 621.772 303.296 621.772 303.868C622.344 304.44 622.916 305.011 623.488 305.011C623.488 305.011 624.06 305.012 624.06 305.584C624.632 306.156 625.204 306.155 625.204 306.155C625.204 306.155 625.776 306.156 625.776 306.728L642.936 297.004C642.364 297.004 641.792 296.432 641.22 295.86Z" fill="url(#paint18_linear_15_1499)"/>
<path d="M644.08 315.88C644.08 314.164 644.08 313.02 644.08 311.876C644.08 311.876 644.08 311.876 644.08 311.304V310.732C644.08 310.16 644.08 309.588 644.08 308.444C644.08 307.872 644.08 307.872 644.08 307.3C644.08 306.728 644.08 306.156 644.08 305.012V304.44C644.08 303.296 644.08 302.152 644.08 301.008C644.08 301.008 644.08 301.008 644.08 300.436C644.08 300.436 644.08 300.436 644.08 299.864C644.08 299.292 644.08 298.72 644.08 298.72V298.148C644.08 298.148 644.08 298.148 644.08 297.576V297.004V296.432V295.86L626.92 305.584C626.92 306.156 626.92 306.156 626.92 306.728V307.3V307.872C626.92 308.444 626.92 308.444 626.92 309.016V309.588C626.92 310.732 626.92 311.876 626.92 313.02V313.592C626.92 314.164 626.92 314.736 626.92 315.308C626.92 315.88 626.92 315.88 626.92 316.452C626.92 317.024 626.92 317.596 626.92 318.74C626.92 319.312 626.92 319.312 626.92 319.884C626.92 321.028 626.92 322.744 626.92 323.888V324.46C626.92 325.604 626.92 327.32 626.92 328.464C626.92 329.036 626.92 329.036 626.92 329.608C626.92 331.324 626.92 333.04 626.92 334.756C626.92 335.328 626.92 335.328 626.92 335.9C626.92 337.616 626.92 339.332 626.348 341.62C626.348 341.62 626.348 341.62 626.348 342.192C625.776 346.196 625.776 350.2 625.204 354.204V354.776C624.632 358.208 624.06 362.212 623.488 365.644V366.216C622.916 369.648 622.344 372.508 621.772 375.368V375.94C621.2 378.8 620.628 381.66 619.484 383.948C618.912 386.236 617.768 388.524 617.196 390.812V391.384C616.624 393.672 615.48 395.388 614.908 397.104V397.676C613.764 399.392 613.192 401.108 612.048 402.824C612.048 402.824 612.048 403.396 611.476 403.396C610.332 404.54 609.76 406.256 608.616 407.4C606.9 409.116 605.184 410.832 602.896 411.976L620.056 402.252C622.344 401.108 624.06 399.392 625.776 397.676C626.92 396.532 627.492 395.388 628.636 393.672C628.636 393.672 628.636 393.672 628.636 393.1C629.78 391.384 630.352 389.668 631.496 387.952C632.64 386.236 633.212 383.948 633.784 382.232C633.784 382.232 633.784 382.232 633.784 381.66C634.356 379.372 635.5 377.084 636.072 374.796C636.644 371.936 637.788 369.076 638.36 366.788C638.36 366.788 638.36 366.788 638.36 366.216C638.932 363.356 639.504 359.924 640.076 357.064C640.076 357.064 640.076 357.064 640.076 356.492C640.648 353.06 641.22 349.056 641.792 345.624C641.792 345.624 641.792 345.624 641.792 345.052C642.364 341.048 642.936 337.044 642.936 333.04C642.936 331.324 642.936 329.036 643.508 327.32C643.508 326.748 643.508 326.748 643.508 326.176C643.508 324.46 643.508 322.744 643.508 321.028C643.508 321.028 643.508 321.028 643.508 320.456V319.884C643.508 318.74 643.508 317.024 643.508 315.88C644.08 316.452 644.08 316.452 644.08 315.88Z" fill="url(#paint19_linear_15_1499)"/>
<g opacity="0.5">
<path d="M549.7 240.376C551.988 243.236 596.032 295.288 617.768 309.016C619.484 321.028 617.768 381.088 601.18 401.108C589.168 413.692 562.284 410.26 550.272 408.544C549.7 408.544 549.7 408.544 549.128 407.972C548.556 407.4 547.984 407.4 547.984 407.4C538.832 398.248 507.372 364.5 497.648 341.048C482.204 306.156 479.916 239.232 481.632 230.08C503.368 241.52 546.84 239.804 549.128 239.804L549.7 240.376Z" stroke="white" stroke-width="0.25" stroke-miterlimit="10"/>
</g>
<defs>
<filter id="filter0_f_15_1499" x="-377" y="0" width="1153" height="982" filterUnits="userSpaceOnUse" color-interpolation-filters="sRGB">
<feFlood flood-opacity="0" result="BackgroundImageFix"/>
<feBlend mode="normal" in="SourceGraphic" in2="BackgroundImageFix" result="shape"/>
<feGaussianBlur stdDeviation="130" result="effect1_foregroundBlur_15_1499"/>
</filter>
<linearGradient id="paint0_linear_15_1499" x1="199.5" y1="260" x2="199.5" y2="722" gradientUnits="userSpaceOnUse">
<stop stop-color="#2BADFD"/>
<stop offset="0.880208" stop-color="#1570EF"/>
</linearGradient>
<linearGradient id="paint1_linear_15_1499" x1="296.23" y1="596.558" x2="831.834" y2="596.558" gradientUnits="userSpaceOnUse">
<stop stop-color="#92C3F1"/>
<stop offset="1" stop-color="white"/>
</linearGradient>
<linearGradient id="paint2_linear_15_1499" x1="385.365" y1="529.13" x2="742.636" y2="529.13" gradientUnits="userSpaceOnUse">
<stop offset="0.389" stop-color="#103DB5"/>
<stop offset="0.5932" stop-color="#6BABFD"/>
</linearGradient>
<linearGradient id="paint3_linear_15_1499" x1="439.028" y1="442.598" x2="688.972" y2="442.598" gradientUnits="userSpaceOnUse">
<stop offset="0.389" stop-color="#103DB5"/>
<stop offset="0.5932" stop-color="#6BABFD"/>
</linearGradient>
<linearGradient id="paint4_linear_15_1499" x1="741.265" y1="458.69" x2="386.737" y2="426.507" gradientUnits="userSpaceOnUse">
<stop stop-color="white"/>
<stop offset="1" stop-color="#4D9DF9"/>
</linearGradient>
<linearGradient id="paint5_linear_15_1499" x1="563.588" y1="514.542" x2="563.588" y2="190.324" gradientUnits="userSpaceOnUse">
<stop stop-color="#22B4FD" stop-opacity="0.6"/>
<stop offset="1" stop-color="white" stop-opacity="0"/>
</linearGradient>
<linearGradient id="paint6_linear_15_1499" x1="453.177" y1="374.923" x2="453.177" y2="431.714" gradientUnits="userSpaceOnUse">
<stop offset="0.2578" stop-color="white"/>
<stop offset="1" stop-color="white" stop-opacity="0"/>
</linearGradient>
<linearGradient id="paint7_linear_15_1499" x1="674.822" y1="351.47" x2="674.822" y2="408.306" gradientUnits="userSpaceOnUse">
<stop offset="0.2578" stop-color="white"/>
<stop offset="1" stop-color="white" stop-opacity="0"/>
</linearGradient>
<linearGradient id="paint8_linear_15_1499" x1="519.633" y1="397.045" x2="519.633" y2="453.836" gradientUnits="userSpaceOnUse">
<stop offset="0.2578" stop-color="white"/>
<stop offset="1" stop-color="white" stop-opacity="0"/>
</linearGradient>
<linearGradient id="paint9_linear_15_1499" x1="519.633" y1="304.92" x2="519.633" y2="361.756" gradientUnits="userSpaceOnUse">
<stop offset="0.2578" stop-color="white"/>
<stop offset="1" stop-color="white" stop-opacity="0"/>
</linearGradient>
<linearGradient id="paint10_linear_15_1499" x1="312.274" y1="266.256" x2="375.53" y2="217.804" gradientUnits="userSpaceOnUse">
<stop stop-color="#97B5E1"/>
<stop offset="1" stop-color="#ECF1FA"/>
</linearGradient>
<linearGradient id="paint11_linear_15_1499" x1="408.483" y1="242.257" x2="348.928" y2="208.543" gradientUnits="userSpaceOnUse">
<stop stop-color="white"/>
<stop offset="1" stop-color="#C9D9F4"/>
</linearGradient>
<linearGradient id="paint12_linear_15_1499" x1="803.43" y1="287.587" x2="766.03" y2="258.94" gradientUnits="userSpaceOnUse">
<stop stop-color="#97B5E1"/>
<stop offset="1" stop-color="#ECF1FA"/>
</linearGradient>
<linearGradient id="paint13_linear_15_1499" x1="746.546" y1="273.398" x2="781.758" y2="253.464" gradientUnits="userSpaceOnUse">
<stop stop-color="white"/>
<stop offset="1" stop-color="#C9D9F4"/>
</linearGradient>
<linearGradient id="paint14_linear_15_1499" x1="366.521" y1="540.048" x2="353.824" y2="540.048" gradientUnits="userSpaceOnUse">
<stop stop-color="#103DB5"/>
<stop offset="0.6426" stop-color="#6BABFD"/>
</linearGradient>
<linearGradient id="paint15_linear_15_1499" x1="385.204" y1="550.927" x2="372.506" y2="550.927" gradientUnits="userSpaceOnUse">
<stop stop-color="#103DB5"/>
<stop offset="0.6426" stop-color="#6BABFD"/>
</linearGradient>
<linearGradient id="paint16_linear_15_1499" x1="517.883" y1="204.674" x2="521.09" y2="226.203" gradientUnits="userSpaceOnUse">
<stop stop-color="#FF8000"/>
<stop offset="1" stop-color="#FFE46B"/>
</linearGradient>
<linearGradient id="paint17_linear_15_1499" x1="482.334" y1="269.039" x2="607.842" y2="372.561" gradientUnits="userSpaceOnUse">
<stop stop-color="#FF8000"/>
<stop offset="1" stop-color="#FFD000"/>
</linearGradient>
<linearGradient id="paint18_linear_15_1499" x1="584.519" y1="220.82" x2="600.323" y2="279.223" gradientUnits="userSpaceOnUse">
<stop stop-color="#FF8000"/>
<stop offset="1" stop-color="#FFEC96"/>
</linearGradient>
<linearGradient id="paint19_linear_15_1499" x1="615.531" y1="353.099" x2="637.518" y2="361.802" gradientUnits="userSpaceOnUse">
<stop stop-color="#FF8000"/>
<stop offset="1" stop-color="#FFE25C"/>
</linearGradient>
</defs>
</svg>
