<svg width="485" height="485" viewBox="0 0 485 485" fill="none" xmlns="http://www.w3.org/2000/svg">
<path opacity="0.4" d="M422.069 332.4C445.924 346.147 445.924 368.386 422.473 382.133L293.894 456.531C270.442 470.279 232.03 470.279 208.175 456.531L79.1913 382.133C55.3354 368.386 55.3355 346.147 78.787 332.4L206.962 258.002C230.413 244.255 268.825 244.255 292.681 258.002L422.069 332.4Z" fill="#BCD0F1"/>
<path d="M421.471 332.779H43.012V346.122C43.012 355.018 49.077 363.913 60.8027 370.787L189.786 445.185C213.642 458.932 252.054 458.932 275.505 445.185L403.68 370.787C415.406 363.913 421.471 355.018 421.471 346.122V332.779Z" fill="url(#paint0_linear_75_3596)"/>
<path d="M403.68 307.711C427.535 321.459 427.535 343.697 404.084 357.445L275.909 431.843C252.458 445.59 214.046 445.59 190.19 431.843L61.2067 357.445C37.3509 343.697 37.3509 321.459 60.8024 307.711L188.573 233.314C212.024 219.566 250.436 219.566 274.292 233.314L403.68 307.711Z" fill="#F3F8FE"/>
<path d="M365.269 313.372C383.868 323.884 383.868 341.271 365.673 352.188L265.802 410.008C247.607 420.521 217.686 420.521 199.086 410.008L98.8109 352.188C80.2115 341.675 80.2115 324.289 98.8109 313.372L198.278 255.552C216.473 245.039 246.394 245.039 264.993 255.552L365.269 313.372Z" stroke="#D3E7FE" stroke-width="0.5" stroke-miterlimit="10"/>
<path d="M251.097 247.071C251.114 241.041 242.62 236.129 232.124 236.1C221.629 236.07 213.107 240.933 213.09 246.963C213.073 252.992 221.567 257.904 232.062 257.934C242.558 257.964 251.08 253.1 251.097 247.071Z" fill="#A6CEFC"/>
<path d="M216.473 236.146V246.254C216.473 248.68 218.091 251.106 221.325 252.723C227.39 256.362 237.499 256.362 243.968 252.723C247.203 251.106 248.416 248.68 248.416 246.254V236.146H216.473Z" fill="url(#paint1_linear_75_3596)"/>
<path d="M240.733 231.293C245.585 234.123 245.585 238.571 240.733 240.997C235.881 243.423 228.603 243.827 223.751 240.997C218.899 238.166 218.899 233.719 223.751 231.293C228.199 228.462 235.881 228.462 240.733 231.293Z" fill="url(#paint2_linear_75_3596)"/>
<path d="M244.077 237.09C244.087 233.293 238.665 230.2 231.966 230.182C225.267 230.163 219.827 233.225 219.817 237.021C219.806 240.817 225.228 243.91 231.927 243.929C238.626 243.948 244.066 240.886 244.077 237.09Z" fill="#22B4FD"/>
<path d="M243.159 229.676C237.094 226.037 226.986 226.037 220.517 229.676C214.452 233.315 214.452 238.975 220.517 242.614C226.582 246.253 236.69 246.253 243.159 242.614C249.629 238.975 249.629 233.315 243.159 229.676ZM240.733 240.997C235.881 243.827 228.603 243.827 223.751 240.997C218.899 238.167 218.899 233.719 223.751 231.293C228.603 228.463 235.881 228.463 240.733 231.293C245.181 234.123 245.181 238.571 240.733 240.997Z" fill="#BCD0F1"/>
<path d="M244.372 197.732H220.112V236.144C220.112 238.166 221.325 239.783 223.751 241.401C228.603 244.231 236.285 244.231 240.733 241.401C243.159 240.188 244.372 238.166 244.372 236.549V197.732Z" fill="url(#paint3_linear_75_3596)"/>
<path d="M395.718 331.13C395.735 325.101 387.24 320.189 376.745 320.159C366.249 320.129 357.727 324.993 357.71 331.022C357.693 337.052 366.187 341.964 376.683 341.993C387.178 342.023 395.701 337.159 395.718 331.13Z" fill="#A6CEFC"/>
<path d="M360.82 320.247V330.355C360.82 332.781 362.437 335.208 365.672 336.825C371.737 340.464 381.845 340.464 388.314 336.825C391.549 335.208 392.762 332.781 392.762 330.355V320.247H360.82Z" fill="url(#paint4_linear_75_3596)"/>
<path d="M385.484 315.394C390.336 318.225 390.336 322.672 385.484 325.098C380.632 327.929 373.354 327.929 368.502 325.098C363.65 322.268 363.65 317.82 368.502 315.394C372.95 312.564 380.632 312.564 385.484 315.394Z" fill="url(#paint5_linear_75_3596)"/>
<path d="M389.101 321.151C389.112 317.355 383.69 314.262 376.991 314.243C370.291 314.224 364.852 317.286 364.841 321.082C364.83 324.879 370.252 327.971 376.952 327.99C383.651 328.009 389.091 324.947 389.101 321.151Z" fill="#22B4FD"/>
<path d="M387.911 313.777C381.846 310.138 371.737 310.138 365.268 313.777C359.203 317.416 359.203 323.077 365.268 326.716C371.333 330.355 381.441 330.355 387.911 326.716C394.38 323.481 394.38 317.416 387.911 313.777ZM385.485 325.503C380.633 328.333 373.355 328.333 368.503 325.503C363.651 322.673 363.651 318.225 368.503 315.799C373.355 312.968 380.633 312.968 385.485 315.799C389.932 318.225 389.932 322.673 385.485 325.503Z" fill="#BCD0F1"/>
<path d="M388.72 281.834H364.459V320.246C364.459 322.268 365.672 323.885 368.098 325.502C372.95 328.333 380.633 328.333 385.081 325.502C387.507 324.289 388.72 322.268 388.72 320.65V281.834Z" fill="url(#paint6_linear_75_3596)"/>
<path d="M106.385 331.304C106.402 325.275 97.9072 320.363 87.4117 320.333C76.9162 320.303 68.394 325.167 68.377 331.196C68.3599 337.226 76.8543 342.137 87.3498 342.167C97.8453 342.197 106.367 337.333 106.385 331.304Z" fill="#A6CEFC"/>
<path d="M71.7201 320.247V330.355C71.7201 332.781 73.3374 335.208 76.5721 336.825C82.6372 340.464 92.7455 340.464 99.2149 336.825C102.45 335.208 103.663 332.781 103.663 330.355V320.247H71.7201Z" fill="url(#paint7_linear_75_3596)"/>
<path d="M95.9808 315.394C100.833 318.225 100.833 322.672 95.9808 325.098C91.1287 327.929 83.8506 327.929 78.9986 325.098C74.1465 322.268 74.1465 317.82 78.9986 315.394C83.4463 312.564 91.1287 312.564 95.9808 315.394Z" fill="url(#paint8_linear_75_3596)"/>
<path d="M99.7692 321.325C99.78 317.529 94.3579 314.436 87.6586 314.417C80.9594 314.398 75.5198 317.46 75.509 321.256C75.4983 325.052 80.9204 328.145 87.6197 328.164C94.3189 328.183 99.7585 325.121 99.7692 321.325Z" fill="#22B4FD"/>
<path d="M98.8107 313.777C92.7456 310.138 82.6372 310.138 76.1678 313.777C70.1028 317.416 70.1028 323.077 76.1678 326.716C82.2328 330.355 92.3413 330.355 98.8107 326.716C104.876 323.481 104.876 317.416 98.8107 313.777ZM95.9803 325.503C91.1283 328.333 83.8502 328.333 78.9981 325.503C74.1461 322.673 74.1461 318.225 78.9981 315.799C83.8502 312.968 91.1283 312.968 95.9803 315.799C100.832 318.225 100.832 322.673 95.9803 325.503Z" fill="#BCD0F1"/>
<path d="M99.6195 281.834H75.3593V320.246C75.3593 322.268 76.5723 323.885 78.9983 325.502C83.8504 328.333 91.5328 328.333 95.9805 325.502C98.4065 324.289 99.6195 322.268 99.6195 320.65V281.834Z" fill="url(#paint9_linear_75_3596)"/>
<path d="M121.049 276.981V326.715C121.049 343.293 131.966 359.87 153.8 372.405C197.468 397.474 267.823 397.474 311.087 372.405C332.921 359.87 343.434 343.293 343.434 326.715V276.981H121.049Z" fill="url(#paint10_linear_75_3596)"/>
<path d="M283.188 247.466C311.491 264.044 311.895 290.73 283.592 306.903C255.288 323.077 209.194 323.481 180.891 306.903C152.587 290.325 152.183 263.639 180.486 247.466C208.79 231.292 254.884 230.888 283.188 247.466Z" fill="url(#paint11_linear_75_3596)"/>
<path d="M364.132 277.48C364.252 235.275 305.334 200.893 232.535 200.687C159.736 200.48 100.624 234.527 100.505 276.733C100.385 318.938 159.303 353.32 232.102 353.526C304.9 353.732 364.012 319.685 364.132 277.48Z" stroke="#22B4FD" stroke-width="0.5" stroke-miterlimit="10"/>
<path d="M305.099 285.404C305.165 262.18 272.634 243.26 232.438 243.146C192.243 243.032 159.604 261.767 159.538 284.991C159.473 308.215 192.004 327.134 232.2 327.248C272.395 327.362 305.034 308.628 305.099 285.404Z" fill="#1570EF"/>
<path d="M310.683 231.696C267.014 206.627 196.66 206.627 153.396 231.696C110.132 256.765 110.536 297.603 153.8 322.672C197.468 347.741 267.823 347.741 311.087 322.672C354.351 297.603 353.947 256.765 310.683 231.696ZM283.592 306.903C255.288 323.481 209.194 323.481 180.891 306.903C152.587 290.325 152.183 263.639 180.486 247.465C208.79 231.292 254.884 230.888 283.188 247.465C311.896 264.043 311.896 290.729 283.592 306.903Z" fill="#BCD0F1"/>
<path d="M231.837 214.714C261.354 214.714 288.848 221.183 309.47 233.314C330.091 245.039 341.412 260.808 341.412 277.386C341.412 293.964 330.495 309.329 310.278 321.055C289.657 333.185 262.162 339.654 232.646 339.654C203.129 339.654 175.634 333.185 155.013 321.055C134.392 309.329 123.07 293.56 123.07 276.982C123.07 260.404 133.988 245.039 154.204 233.314C174.826 221.183 202.32 214.714 231.837 214.714ZM231.837 212.692C203.533 212.692 174.826 219.162 153.396 231.696C110.132 256.765 110.536 297.603 153.8 322.672C175.634 335.206 203.938 341.676 232.646 341.676C261.353 341.676 289.657 335.206 311.087 322.672C354.351 297.603 354.351 256.765 310.683 231.696C288.848 219.162 260.14 212.692 231.837 212.692Z" fill="url(#paint12_linear_75_3596)"/>
<path d="M168.357 237.761C169.027 237.761 169.57 237.218 169.57 236.548C169.57 235.878 169.027 235.335 168.357 235.335C167.687 235.335 167.144 235.878 167.144 236.548C167.144 237.218 167.687 237.761 168.357 237.761Z" fill="white"/>
<path d="M267.015 245.039C267.685 245.039 268.228 244.496 268.228 243.826C268.228 243.156 267.685 242.613 267.015 242.613C266.345 242.613 265.802 243.156 265.802 243.826C265.802 244.496 266.345 245.039 267.015 245.039Z" fill="white"/>
<path d="M288.849 233.314C289.519 233.314 290.062 232.771 290.062 232.101C290.062 231.431 289.519 230.888 288.849 230.888C288.179 230.888 287.636 231.431 287.636 232.101C287.636 232.771 288.179 233.314 288.849 233.314Z" fill="white"/>
<path d="M200.299 276.982C200.969 276.982 201.512 276.439 201.512 275.769C201.512 275.099 200.969 274.556 200.299 274.556C199.629 274.556 199.086 275.099 199.086 275.769C199.086 276.439 199.629 276.982 200.299 276.982Z" fill="white"/>
<path d="M270.249 198.136C270.919 198.136 271.462 197.593 271.462 196.923C271.462 196.253 270.919 195.71 270.249 195.71C269.579 195.71 269.036 196.253 269.036 196.923C269.036 197.593 269.579 198.136 270.249 198.136Z" fill="white"/>
<path d="M179.678 199.349C180.348 199.349 180.891 198.806 180.891 198.136C180.891 197.466 180.348 196.923 179.678 196.923C179.008 196.923 178.465 197.466 178.465 198.136C178.465 198.806 179.008 199.349 179.678 199.349Z" fill="white"/>
<path d="M212.834 175.898C213.504 175.898 214.047 175.355 214.047 174.685C214.047 174.015 213.504 173.472 212.834 173.472C212.164 173.472 211.621 174.015 211.621 174.685C211.621 175.355 212.164 175.898 212.834 175.898Z" fill="white"/>
<path opacity="0.4" d="M163.504 228.461H164.717C165.121 228.461 165.526 228.865 165.526 229.27V270.916C165.526 271.321 165.121 271.725 164.717 271.725H163.504C163.1 271.725 162.695 271.321 162.695 270.916V228.865C162.695 228.461 163.1 228.461 163.504 228.461Z" fill="url(#paint13_linear_75_3596)"/>
<path opacity="0.4" d="M299.766 213.905H300.979C301.383 213.905 301.787 214.31 301.787 214.714V256.361C301.787 256.765 301.383 257.169 300.979 257.169H299.766C299.361 257.169 298.957 256.765 298.957 256.361V214.714C298.957 214.31 299.361 213.905 299.766 213.905Z" fill="url(#paint14_linear_75_3596)"/>
<path opacity="0.4" d="M204.342 241.804H205.555C205.959 241.804 206.363 242.208 206.363 242.612V284.259C206.363 284.663 205.959 285.068 205.555 285.068H204.342C203.937 285.068 203.533 284.663 203.533 284.259V242.612C203.533 242.208 203.937 241.804 204.342 241.804Z" fill="url(#paint15_linear_75_3596)"/>
<path opacity="0.4" d="M204.342 185.197H205.555C205.959 185.197 206.363 185.602 206.363 186.006V227.653C206.363 228.057 205.959 228.461 205.555 228.461H204.342C203.937 228.461 203.533 228.057 203.533 227.653V186.006C203.533 185.602 203.937 185.197 204.342 185.197Z" fill="url(#paint16_linear_75_3596)"/>
<path d="M336.726 160.802C336.726 144.994 326.196 129.591 305.541 117.837C264.232 93.9217 197.812 93.9217 156.907 117.837C136.252 129.591 126.127 145.399 126.532 160.802L158.932 277.539C158.932 288.483 166.222 299.022 180.397 307.534C208.747 324.153 254.917 324.153 283.267 307.534C297.441 299.427 304.326 288.483 304.326 277.539L336.726 160.802Z" fill="url(#paint17_linear_75_3596)"/>
<path d="M152.183 359.062L155.013 357.445C155.418 357.041 155.822 356.232 155.822 355.423C155.822 353.402 154.205 350.976 152.587 349.763C151.779 349.358 150.97 349.358 150.161 349.358L147.331 350.976L152.183 359.062Z" fill="url(#paint18_linear_75_3596)"/>
<path d="M152.33 358.821C153.492 358.155 153.444 355.887 152.222 353.757C151 351.626 149.067 350.439 147.905 351.106C146.742 351.772 146.791 354.04 148.013 356.17C149.235 358.301 151.168 359.488 152.33 358.821Z" fill="#2185F8"/>
<path d="M151.526 357.418C152.301 356.974 152.298 355.514 151.52 354.158C150.743 352.802 149.484 352.063 148.71 352.508C147.935 352.952 147.937 354.412 148.715 355.768C149.492 357.123 150.751 357.862 151.526 357.418Z" fill="#22B4FD"/>
<path d="M165.526 366.341L168.356 364.723C168.761 364.319 169.165 363.51 169.165 362.702C169.165 360.68 167.547 358.254 165.93 357.041C165.121 356.637 164.313 356.637 163.504 356.637L160.674 358.254L165.526 366.341Z" fill="url(#paint19_linear_75_3596)"/>
<path d="M165.355 366.653C166.517 365.987 166.469 363.719 165.247 361.589C164.025 359.458 162.092 358.271 160.93 358.938C159.767 359.604 159.816 361.872 161.038 364.002C162.26 366.133 164.193 367.32 165.355 366.653Z" fill="#2185F8"/>
<path d="M164.55 365.25C165.325 364.806 165.323 363.346 164.545 361.99C163.768 360.634 162.509 359.896 161.734 360.34C160.959 360.784 160.962 362.244 161.739 363.6C162.517 364.955 163.776 365.694 164.55 365.25Z" fill="#FFE200"/>
<path d="M232.242 205.004C283.118 205.004 324.361 163.76 324.361 112.884C324.361 62.0079 283.118 20.7646 232.242 20.7646C181.366 20.7646 140.122 62.0079 140.122 112.884C140.122 163.76 181.366 205.004 232.242 205.004Z" fill="url(#paint20_linear_75_3596)"/>
<path d="M232.86 185.22C273.151 185.22 305.814 152.834 305.814 112.884C305.814 72.9345 273.151 40.5488 232.86 40.5488C192.569 40.5488 159.906 72.9345 159.906 112.884C159.906 152.834 192.569 185.22 232.86 185.22Z" fill="#2E97F6"/>
<path d="M282.32 85.976V139.758C282.318 140.467 282.121 141.162 281.752 141.766C281.383 142.369 280.855 142.858 280.228 143.177C230.349 168.339 234.116 166.649 232.86 166.649C231.604 166.649 235.219 168.301 185.492 143.177C184.865 142.858 184.337 142.369 183.968 141.766C183.599 141.162 183.402 140.467 183.4 139.758V85.976C183.402 85.2665 183.599 84.5716 183.968 83.9681C184.337 83.3646 184.865 82.8762 185.492 82.557L231.148 59.5076C231.679 59.2374 232.265 59.0967 232.86 59.0967C233.455 59.0967 234.041 59.2374 234.572 59.5076L280.228 82.557C280.855 82.8762 281.383 83.3646 281.752 83.9681C282.121 84.5716 282.318 85.2665 282.32 85.976Z" fill="#22B4FD"/>
<path d="M209.928 97.4277C208.915 97.4277 207.943 97.8348 207.226 98.5595C206.509 99.2841 206.107 100.267 206.107 101.292V111.725L197.813 99.1666C197.358 98.4813 196.697 97.9615 195.928 97.6834C195.159 97.4053 194.323 97.3835 193.541 97.6211C192.759 97.8587 192.072 98.3433 191.583 99.0039C191.093 99.6644 190.825 100.466 190.819 101.292V124.476C190.819 125.501 191.222 126.484 191.938 127.209C192.655 127.933 193.627 128.34 194.641 128.34C195.654 128.34 196.627 127.933 197.343 127.209C198.06 126.484 198.463 125.501 198.463 124.476V114.043L206.756 126.601C207.212 127.287 207.872 127.806 208.641 128.085C209.41 128.363 210.247 128.385 211.029 128.147C211.811 127.909 212.497 127.425 212.987 126.764C213.476 126.104 213.744 125.302 213.75 124.476V101.292C213.75 100.267 213.348 99.2841 212.631 98.5595C211.914 97.8348 210.942 97.4277 209.928 97.4277ZM240.504 97.4277H225.216C224.203 97.4277 223.23 97.8348 222.514 98.5595C221.797 99.2841 221.394 100.267 221.394 101.292V124.476C221.394 125.501 221.797 126.484 222.514 127.209C223.23 127.933 224.203 128.34 225.216 128.34C226.23 128.34 227.202 127.933 227.919 127.209C228.635 126.484 229.038 125.501 229.038 124.476V120.612H236.682C237.696 120.612 238.668 120.205 239.384 119.48C240.101 118.756 240.504 117.773 240.504 116.748C240.504 115.723 240.101 114.74 239.384 114.016C238.668 113.291 237.696 112.884 236.682 112.884H229.038V105.156H240.504C241.517 105.156 242.49 104.749 243.206 104.024C243.923 103.299 244.326 102.317 244.326 101.292C244.326 100.267 243.923 99.2841 243.206 98.5595C242.49 97.8348 241.517 97.4277 240.504 97.4277ZM271.079 97.4277H255.791C254.778 97.4277 253.806 97.8348 253.089 98.5595C252.372 99.2841 251.97 100.267 251.97 101.292C251.97 102.317 252.372 103.299 253.089 104.024C253.806 104.749 254.778 105.156 255.791 105.156H259.613V124.476C259.613 125.501 260.016 126.484 260.733 127.209C261.45 127.933 262.422 128.34 263.435 128.34C264.449 128.34 265.421 127.933 266.138 127.209C266.855 126.484 267.257 125.501 267.257 124.476V105.156H271.079C272.093 105.156 273.065 104.749 273.782 104.024C274.498 103.299 274.901 102.317 274.901 101.292C274.901 100.267 274.498 99.2841 273.782 98.5595C273.065 97.8348 272.093 97.4277 271.079 97.4277Z" fill="white"/>
<path d="M251.007 415.364C251.024 409.334 242.53 404.422 232.034 404.393C221.539 404.363 213.016 409.226 212.999 415.256C212.982 421.285 221.477 426.197 231.972 426.227C242.468 426.256 250.99 421.393 251.007 415.364Z" fill="#A6CEFC"/>
<path d="M216.473 404.349V414.457C216.473 416.883 218.09 419.309 221.325 420.926C227.39 424.565 237.498 424.565 243.967 420.926C247.202 419.309 248.415 416.883 248.415 414.457V404.349H216.473Z" fill="url(#paint21_linear_75_3596)"/>
<path d="M240.733 399.496C245.585 402.327 245.585 406.774 240.733 409.2C235.88 411.626 228.602 412.031 223.75 409.2C218.898 406.37 218.898 401.922 223.75 399.496C228.198 397.07 235.88 397.07 240.733 399.496Z" fill="url(#paint22_linear_75_3596)"/>
<path d="M244.39 405.385C244.401 401.588 238.979 398.495 232.28 398.476C225.58 398.457 220.141 401.519 220.13 405.316C220.119 409.112 225.541 412.205 232.241 412.224C238.94 412.243 244.38 409.181 244.39 405.385Z" fill="#22B4FD"/>
<path d="M243.159 397.879C237.094 394.24 226.985 394.24 220.516 397.879C214.451 401.518 214.451 407.178 220.516 410.817C226.581 414.456 236.689 414.456 243.159 410.817C249.628 407.583 249.628 401.518 243.159 397.879ZM240.733 409.604C235.881 412.435 228.603 412.435 223.751 409.604C218.898 406.774 218.898 402.326 223.751 399.9C228.603 397.07 235.881 397.07 240.733 399.9C245.18 402.326 245.18 406.774 240.733 409.604Z" fill="#BCD0F1"/>
<path d="M244.372 366.34H220.112V404.752C220.112 406.773 221.325 408.391 223.751 410.008C228.603 412.839 236.285 412.839 240.733 410.008C243.159 408.795 244.372 406.773 244.372 405.156V366.34Z" fill="url(#paint23_linear_75_3596)"/>
<path d="M63.2292 158.107C63.2292 161.341 64.4422 163.767 66.0595 164.576L70.5073 167.002C70.5073 167.002 114.984 133.847 114.984 128.186C114.984 128.186 114.984 126.164 114.58 124.951C115.389 124.547 116.602 124.142 116.602 124.142C115.793 123.738 113.367 122.121 112.154 121.716C110.537 121.312 107.706 122.121 106.898 122.525C106.898 121.312 106.493 120.099 106.089 119.29L108.111 118.886L104.067 116.46C102.45 115.651 100.428 115.651 98.4064 116.864C97.1934 117.673 96.3848 118.482 95.5761 119.29C95.5761 119.29 93.5544 118.077 92.3414 117.269C91.1284 116.46 89.9154 116.46 88.7024 116.46C88.2981 116.46 87.8937 116.46 87.4894 116.46C87.085 116.46 87.085 116.46 86.6807 116.46C85.4677 116.864 84.2547 117.269 83.0416 118.077C78.1896 120.908 73.7419 126.568 71.3159 133.442C69.6986 137.486 68.4855 142.742 68.8899 145.572C64.0378 150.424 63.2292 153.659 63.2292 158.107Z" fill="url(#paint24_linear_75_3596)"/>
<path d="M68.0814 160.937C68.0814 166.597 71.7204 169.428 76.1681 167.002C76.1681 167.002 76.5724 167.002 76.5724 166.597L111.75 145.976C111.75 145.976 112.154 145.976 112.154 145.572C116.602 143.146 119.836 136.272 119.836 130.611C119.836 124.951 116.197 122.12 111.75 124.546C111.75 124.546 111.75 124.546 111.345 124.546C110.941 118.481 107.302 116.055 102.45 118.886C101.237 119.694 100.024 120.907 98.8109 122.12C96.3849 118.481 91.9372 117.673 87.0852 120.503C79.4028 124.951 72.9334 137.081 73.3377 147.594C70.1031 151.233 68.0814 156.489 68.0814 160.937Z" fill="#F3F8FE"/>
<path d="M111.75 145.572C116.198 143.146 119.432 136.272 119.432 130.611C119.432 124.951 115.793 122.12 111.346 124.546C111.346 124.546 111.346 124.546 110.941 124.546C110.537 118.481 106.898 116.055 102.046 118.886C100.833 119.694 99.62 120.907 98.407 122.12C95.981 118.481 91.5333 117.673 86.6813 120.503L86.2769 120.907L104.876 149.615L110.941 145.976C111.75 145.976 111.75 145.976 111.75 145.572Z" fill="url(#paint25_linear_75_3596)"/>
<path d="M395.998 173.875C395.998 175.897 395.189 177.11 394.381 177.515L391.955 179.132C391.955 179.132 365.673 159.724 365.673 156.085C365.673 156.085 365.673 154.872 366.077 154.063C365.673 154.063 364.864 153.659 364.864 153.659C365.268 153.254 366.886 152.446 367.29 152.041C368.099 151.637 370.12 152.041 370.525 152.446C370.525 151.637 370.525 151.233 370.929 150.424L369.716 150.02L372.142 148.402C372.951 147.998 374.164 147.998 375.781 148.807C376.59 149.211 376.994 149.615 377.398 150.424C377.398 150.424 378.611 149.615 379.42 149.211C380.229 148.807 381.038 148.807 381.846 148.807C382.251 148.807 382.251 148.807 382.655 148.807H383.059C383.868 148.807 384.677 149.211 385.081 149.615C387.911 151.233 390.742 154.872 391.955 158.511C392.763 160.937 393.572 163.767 393.168 165.789C395.594 169.428 395.998 171.045 395.998 173.875Z" fill="url(#paint26_linear_75_3596)"/>
<path d="M393.168 175.493C393.168 178.727 391.146 180.345 388.316 179.132C388.316 179.132 388.316 179.132 387.911 179.132L367.29 167.002C367.29 167.002 367.29 167.002 366.886 167.002C364.46 165.384 362.438 161.341 362.438 158.106C362.438 154.871 364.46 153.254 367.29 154.467C367.29 150.828 369.716 149.211 372.547 150.828C373.355 151.232 374.164 152.041 374.568 152.445C376.186 150.424 378.612 149.615 381.442 151.637C385.89 154.467 389.933 161.745 389.529 167.81C391.955 169.832 393.168 172.662 393.168 175.493Z" fill="#F3F8FE"/>
<path d="M367.29 166.597C364.864 164.98 362.843 160.937 362.843 157.702C362.843 154.467 364.864 152.85 367.695 154.063C367.695 150.424 370.121 148.806 372.951 150.424C373.76 150.828 374.568 151.637 374.973 152.041C376.59 150.019 379.016 149.211 381.846 151.232C381.846 151.232 381.846 151.232 382.251 151.637L371.334 168.619L367.29 166.597Z" fill="url(#paint27_linear_75_3596)"/>
<defs>
<linearGradient id="paint0_linear_75_3596" x1="42.8417" y1="394.112" x2="421.451" y2="394.112" gradientUnits="userSpaceOnUse">
<stop stop-color="#92C3F1"/>
<stop offset="1" stop-color="white"/>
</linearGradient>
<linearGradient id="paint1_linear_75_3596" x1="216.273" y1="245.708" x2="248.022" y2="245.708" gradientUnits="userSpaceOnUse">
<stop offset="0.3375" stop-color="#97B5E1"/>
<stop offset="0.5932" stop-color="#E8F1FF"/>
</linearGradient>
<linearGradient id="paint2_linear_75_3596" x1="220.112" y1="236.246" x2="244.182" y2="236.246" gradientUnits="userSpaceOnUse">
<stop stop-color="#103DB5"/>
<stop offset="0.6426" stop-color="#6BABFD"/>
</linearGradient>
<linearGradient id="paint3_linear_75_3596" x1="232.147" y1="242.173" x2="232.147" y2="198.145" gradientUnits="userSpaceOnUse">
<stop stop-color="#0CFFFC" stop-opacity="0.6"/>
<stop offset="1" stop-color="white" stop-opacity="0"/>
</linearGradient>
<linearGradient id="paint4_linear_75_3596" x1="360.937" y1="329.855" x2="392.686" y2="329.855" gradientUnits="userSpaceOnUse">
<stop offset="0.3375" stop-color="#97B5E1"/>
<stop offset="0.5932" stop-color="#E8F1FF"/>
</linearGradient>
<linearGradient id="paint5_linear_75_3596" x1="364.777" y1="320.393" x2="388.847" y2="320.393" gradientUnits="userSpaceOnUse">
<stop stop-color="#103DB5"/>
<stop offset="0.6426" stop-color="#6BABFD"/>
</linearGradient>
<linearGradient id="paint6_linear_75_3596" x1="376.812" y1="326.32" x2="376.812" y2="282.292" gradientUnits="userSpaceOnUse">
<stop stop-color="#22B4FD" stop-opacity="0.6"/>
<stop offset="1" stop-color="white" stop-opacity="0"/>
</linearGradient>
<linearGradient id="paint7_linear_75_3596" x1="71.6057" y1="329.855" x2="103.355" y2="329.855" gradientUnits="userSpaceOnUse">
<stop offset="0.3375" stop-color="#97B5E1"/>
<stop offset="0.5932" stop-color="#E8F1FF"/>
</linearGradient>
<linearGradient id="paint8_linear_75_3596" x1="75.4457" y1="320.393" x2="99.5155" y2="320.393" gradientUnits="userSpaceOnUse">
<stop stop-color="#103DB5"/>
<stop offset="0.6426" stop-color="#6BABFD"/>
</linearGradient>
<linearGradient id="paint9_linear_75_3596" x1="87.4801" y1="326.32" x2="87.4801" y2="282.292" gradientUnits="userSpaceOnUse">
<stop stop-color="#22B4FD" stop-opacity="0.6"/>
<stop offset="1" stop-color="white" stop-opacity="0"/>
</linearGradient>
<linearGradient id="paint10_linear_75_3596" x1="120.938" y1="333.952" x2="343.354" y2="333.952" gradientUnits="userSpaceOnUse">
<stop offset="0.3375" stop-color="#97B5E1"/>
<stop offset="0.5932" stop-color="#E8F1FF"/>
</linearGradient>
<linearGradient id="paint11_linear_75_3596" x1="159.492" y1="277.213" x2="304.8" y2="277.213" gradientUnits="userSpaceOnUse">
<stop stop-color="#103DB5"/>
<stop offset="0.6426" stop-color="#6BABFD"/>
</linearGradient>
<linearGradient id="paint12_linear_75_3596" x1="343.354" y1="277.213" x2="120.938" y2="277.213" gradientUnits="userSpaceOnUse">
<stop stop-color="white"/>
<stop offset="1" stop-color="#C9D9F4"/>
</linearGradient>
<linearGradient id="paint13_linear_75_3596" x1="164.011" y1="232.897" x2="164.011" y2="267.839" gradientUnits="userSpaceOnUse">
<stop offset="0.2578" stop-color="white"/>
<stop offset="1" stop-color="white" stop-opacity="0"/>
</linearGradient>
<linearGradient id="paint14_linear_75_3596" x1="300.278" y1="218.481" x2="300.278" y2="253.424" gradientUnits="userSpaceOnUse">
<stop offset="0.2578" stop-color="white"/>
<stop offset="1" stop-color="white" stop-opacity="0"/>
</linearGradient>
<linearGradient id="paint15_linear_75_3596" x1="204.868" y1="246.497" x2="204.868" y2="281.44" gradientUnits="userSpaceOnUse">
<stop offset="0.2578" stop-color="white"/>
<stop offset="1" stop-color="white" stop-opacity="0"/>
</linearGradient>
<linearGradient id="paint16_linear_75_3596" x1="204.868" y1="189.869" x2="204.868" y2="224.812" gradientUnits="userSpaceOnUse">
<stop offset="0.2578" stop-color="white"/>
<stop offset="1" stop-color="white" stop-opacity="0"/>
</linearGradient>
<linearGradient id="paint17_linear_75_3596" x1="231.331" y1="319.958" x2="231.331" y2="99.9292" gradientUnits="userSpaceOnUse">
<stop stop-color="#22B4FD" stop-opacity="0.6"/>
<stop offset="1" stop-color="white" stop-opacity="0"/>
</linearGradient>
<linearGradient id="paint18_linear_75_3596" x1="154.862" y1="357.43" x2="150.374" y2="349.657" gradientUnits="userSpaceOnUse">
<stop stop-color="#103DB5"/>
<stop offset="0.6426" stop-color="#6BABFD"/>
</linearGradient>
<linearGradient id="paint19_linear_75_3596" x1="168.124" y1="365.022" x2="163.636" y2="357.249" gradientUnits="userSpaceOnUse">
<stop stop-color="#103DB5"/>
<stop offset="0.6426" stop-color="#6BABFD"/>
</linearGradient>
<linearGradient id="paint20_linear_75_3596" x1="209.366" y1="294.032" x2="244.607" y2="-31.1685" gradientUnits="userSpaceOnUse">
<stop stop-color="#92C3F1"/>
<stop offset="1" stop-color="white"/>
</linearGradient>
<linearGradient id="paint21_linear_75_3596" x1="216.272" y1="414.001" x2="248.021" y2="414.001" gradientUnits="userSpaceOnUse">
<stop offset="0.3375" stop-color="#97B5E1"/>
<stop offset="0.5932" stop-color="#E8F1FF"/>
</linearGradient>
<linearGradient id="paint22_linear_75_3596" x1="220.111" y1="404.54" x2="244.181" y2="404.54" gradientUnits="userSpaceOnUse">
<stop stop-color="#103DB5"/>
<stop offset="0.6426" stop-color="#6BABFD"/>
</linearGradient>
<linearGradient id="paint23_linear_75_3596" x1="232.147" y1="410.466" x2="232.147" y2="366.439" gradientUnits="userSpaceOnUse">
<stop stop-color="#22B4FD" stop-opacity="0.6"/>
<stop offset="1" stop-color="white" stop-opacity="0"/>
</linearGradient>
<linearGradient id="paint24_linear_75_3596" x1="54.2056" y1="159.8" x2="98.9204" y2="125.551" gradientUnits="userSpaceOnUse">
<stop stop-color="#97B5E1"/>
<stop offset="1" stop-color="#ECF1FA"/>
</linearGradient>
<linearGradient id="paint25_linear_75_3596" x1="122.215" y1="142.836" x2="80.1164" y2="119.004" gradientUnits="userSpaceOnUse">
<stop stop-color="white"/>
<stop offset="1" stop-color="#C9D9F4"/>
</linearGradient>
<linearGradient id="paint26_linear_75_3596" x1="401.395" y1="174.878" x2="374.958" y2="154.628" gradientUnits="userSpaceOnUse">
<stop stop-color="#97B5E1"/>
<stop offset="1" stop-color="#ECF1FA"/>
</linearGradient>
<linearGradient id="paint27_linear_75_3596" x1="361.185" y1="164.848" x2="386.076" y2="150.757" gradientUnits="userSpaceOnUse">
<stop stop-color="white"/>
<stop offset="1" stop-color="#C9D9F4"/>
</linearGradient>
</defs>
</svg>
