<svg width="32" height="32" viewBox="0 0 32 32" fill="none" xmlns="http://www.w3.org/2000/svg">
<path fill-rule="evenodd" clip-rule="evenodd" d="M16 28.8002C23.0692 28.8002 28.7999 23.0694 28.7999 16.0002C28.7999 8.93095 23.0692 3.2002 16 3.2002C8.93071 3.2002 3.19995 8.93095 3.19995 16.0002C3.19995 23.0694 8.93071 28.8002 16 28.8002ZM21.9313 13.9316C22.5562 13.3067 22.5562 12.2937 21.9313 11.6688C21.3065 11.044 20.2934 11.044 19.6686 11.6688L14.4 16.9375L12.3313 14.8688C11.7065 14.244 10.6934 14.244 10.0686 14.8688C9.44374 15.4937 9.44374 16.5067 10.0686 17.1316L13.2686 20.3316C13.8934 20.9564 14.9065 20.9564 15.5313 20.3316L21.9313 13.9316Z" fill="url(#paint0_linear_15_1468)"/>
<defs>
<linearGradient id="paint0_linear_15_1468" x1="7.46034" y1="30.9549" x2="24.5112" y2="8.57238" gradientUnits="userSpaceOnUse">
<stop stop-color="#22B4FD"/>
<stop offset="1" stop-color="#2D79FF"/>
</linearGradient>
</defs>
</svg>
