<svg width="568" height="504" viewBox="0 0 568 504" fill="none" xmlns="http://www.w3.org/2000/svg">
<g opacity="0.4">
<path opacity="0.4" d="M542.439 312.834C576.187 332.282 576.187 363.742 543.011 383.19L361.687 488.438C328.511 507.886 274.171 507.886 240.423 488.438L57.3831 383.19C23.6351 363.742 23.6351 332.282 56.8111 312.834L238.135 207.586C271.311 188.138 325.651 188.138 359.399 207.586L542.439 312.834Z" fill="#9BC8F2"/>
</g>
<path d="M535.696 319.788H0.303955V338.664C0.303955 351.248 8.88395 363.832 25.472 373.556L207.94 478.804C241.688 498.252 296.028 498.252 329.204 478.804L510.528 373.556C527.116 363.832 535.696 351.248 535.696 338.664V319.788Z" fill="url(#paint0_linear_15_1500)"/>
<path d="M510.528 284.324C544.276 303.772 544.276 335.232 511.1 354.68L329.776 459.928C296.6 479.376 242.26 479.376 208.512 459.928L25.4719 354.68C-8.27605 335.232 -8.27605 303.772 24.8999 284.324L206.224 179.076C239.4 159.628 293.74 159.628 327.488 179.076L510.528 284.324Z" fill="#F3F8FE"/>
<path d="M446.464 252.292H89.536V322.076C89.536 330.656 95.256 339.236 106.696 345.528L227.96 415.884C250.268 429.04 286.876 429.04 309.184 415.884L430.448 345.528C441.316 339.236 447.036 330.656 447.036 322.076V252.292H446.464Z" fill="url(#paint1_linear_15_1500)"/>
<path d="M381.256 236.276C396.7 245.428 397.272 260.3 381.256 268.88L296.6 318.072C281.156 327.224 255.416 327.224 239.972 318.072L154.744 268.88C139.3 259.728 138.728 245.428 154.744 236.276L239.4 187.084C254.844 177.932 280.584 177.932 296.028 187.084L381.256 236.276Z" fill="url(#paint2_linear_15_1500)"/>
<path d="M459.62 224.836C485.932 240.28 486.504 264.876 460.192 280.32L316.62 363.832C290.308 379.276 247.408 379.276 220.524 363.832L76.38 280.32C50.068 264.876 49.496 240.28 76.38 224.836L219.952 141.324C246.264 125.88 289.164 125.88 316.048 141.324L459.62 224.836Z" stroke="#0CFFFC" stroke-width="0.5" stroke-miterlimit="10"/>
<path d="M381.256 247.716C396.7 256.868 397.272 271.74 381.256 280.32L296.6 329.512C281.156 338.664 255.416 338.664 239.972 329.512L154.744 280.32C139.3 271.168 138.728 256.868 154.744 247.716L239.4 198.524C254.844 189.372 280.584 189.372 296.028 198.524L381.256 247.716Z" fill="#1570EF"/>
<path d="M429.876 229.411L308.04 159.055C285.732 145.899 249.124 145.899 227.388 159.055L106.124 229.411C83.8159 242.567 83.8159 263.159 106.124 276.315L227.96 346.1C250.268 359.256 286.876 359.256 309.184 346.1L430.448 275.744C452.184 263.16 452.184 241.995 429.876 229.411ZM381.256 268.88L296.6 318.071C281.156 327.223 255.416 327.223 239.972 318.071L154.744 268.88C139.3 259.728 138.728 245.427 154.744 236.275L239.4 187.084C254.844 177.932 280.584 177.932 296.028 187.084L381.256 236.275C396.7 245.427 396.7 259.728 381.256 268.88Z" fill="#2185F8"/>
<path d="M267.428 149.332V152.192C282.3 152.192 296.028 155.624 306.324 161.344L428.16 231.7C437.884 237.42 443.604 244.856 443.604 252.864C443.604 260.872 438.456 268.308 428.16 273.456L306.896 343.812C296.6 350.104 282.872 352.964 268 352.964C253.128 352.964 239.4 349.532 229.104 343.812L107.84 273.456C98.116 267.736 92.396 260.3 92.396 252.292C92.396 244.284 97.544 236.848 107.84 231.128L229.104 160.772C239.4 154.48 253.128 151.62 268 151.62V149.332M267.428 149.332C252.556 149.332 238.256 152.764 226.816 159.056L105.552 229.412C83.244 242.568 83.244 263.16 105.552 276.316L227.96 346.1C239.4 352.392 253.7 355.824 268.572 355.824C283.444 355.824 297.744 352.392 309.184 346.1L430.448 275.744C452.756 262.588 452.756 241.996 429.876 228.84L308.04 159.056C296.6 152.192 282.3 149.332 267.428 149.332Z" fill="url(#paint3_linear_15_1500)"/>
<path d="M411.732 71.5L303.052 8.58C283.032 -2.86 251 -2.86 230.98 8.58L122.872 71.5C113.148 77.22 108 84.656 108 92.664L142.32 252.252C142.32 257.972 146.324 264.264 154.332 268.84L239.56 318.032C255.004 327.184 280.744 327.184 296.188 318.032L380.844 268.84C388.852 264.264 392.284 258.544 392.284 252.252L426.604 92.664C426.604 85.228 422.028 77.22 411.732 71.5Z" fill="url(#paint4_linear_15_1500)"/>
<path d="M163.896 192.804C164.844 192.804 165.612 192.036 165.612 191.088C165.612 190.14 164.844 189.372 163.896 189.372C162.948 189.372 162.18 190.14 162.18 191.088C162.18 192.036 162.948 192.804 163.896 192.804Z" fill="white"/>
<path d="M324.628 204.816C325.576 204.816 326.344 204.048 326.344 203.1C326.344 202.152 325.576 201.384 324.628 201.384C323.68 201.384 322.912 202.152 322.912 203.1C322.912 204.048 323.68 204.816 324.628 204.816Z" fill="white"/>
<path d="M360.092 184.796C361.04 184.796 361.808 184.028 361.808 183.08C361.808 182.133 361.04 181.364 360.092 181.364C359.144 181.364 358.376 182.133 358.376 183.08C358.376 184.028 359.144 184.796 360.092 184.796Z" fill="white"/>
<path d="M215.948 256.296C216.896 256.296 217.664 255.528 217.664 254.58C217.664 253.633 216.896 252.864 215.948 252.864C215 252.864 214.232 253.633 214.232 254.58C214.232 255.528 215 256.296 215.948 256.296Z" fill="white"/>
<path d="M329.776 128.168C330.724 128.168 331.492 127.4 331.492 126.452C331.492 125.505 330.724 124.736 329.776 124.736C328.828 124.736 328.06 125.505 328.06 126.452C328.06 127.4 328.828 128.168 329.776 128.168Z" fill="white"/>
<path d="M182.772 129.884C183.72 129.884 184.488 129.116 184.488 128.168C184.488 127.22 183.72 126.452 182.772 126.452C181.824 126.452 181.056 127.22 181.056 128.168C181.056 129.116 181.824 129.884 182.772 129.884Z" fill="white"/>
<path d="M236.54 92.1321C237.488 92.1321 238.256 91.3638 238.256 90.4161C238.256 89.4684 237.488 88.7002 236.54 88.7002C235.592 88.7002 234.824 89.4684 234.824 90.4161C234.824 91.3638 235.592 92.1321 236.54 92.1321Z" fill="white"/>
<path opacity="0.4" d="M155.888 177.36H158.176C158.748 177.36 159.32 177.932 159.32 178.504V246.572C159.32 247.144 158.748 247.716 158.176 247.716H155.888C155.316 247.716 154.744 247.144 154.744 246.572V178.504C155.316 177.932 155.316 177.36 155.888 177.36Z" fill="url(#paint5_linear_15_1500)"/>
<path opacity="0.4" d="M377.824 153.908H380.112C380.684 153.908 381.256 154.48 381.256 155.052V223.12C381.256 223.692 380.684 224.264 380.112 224.264H377.824C377.252 224.264 376.68 223.692 376.68 223.12V155.052C376.68 154.48 377.252 153.908 377.824 153.908Z" fill="url(#paint6_linear_15_1500)"/>
<path opacity="0.4" d="M222.812 199.668H225.1C225.672 199.668 226.244 200.24 226.244 200.812V268.88C226.244 269.452 225.672 270.024 225.1 270.024H222.812C222.24 270.024 221.668 269.452 221.668 268.88V200.812C221.668 200.24 222.24 199.668 222.812 199.668Z" fill="url(#paint7_linear_15_1500)"/>
<path opacity="0.4" d="M222.812 107.576H225.1C225.672 107.576 226.244 108.148 226.244 108.72V176.788C226.244 177.36 225.672 177.932 225.1 177.932H222.812C222.24 177.932 221.668 177.36 221.668 176.788V108.72C221.668 108.148 222.24 107.576 222.812 107.576Z" fill="url(#paint8_linear_15_1500)"/>
<path d="M29.476 73.8276C29.476 78.4036 31.192 81.8356 33.48 82.9796L39.772 86.4115C39.772 86.4115 102.692 39.5076 102.692 31.4996C102.692 31.4996 102.692 28.6396 102.12 26.9236C103.264 26.3516 104.98 25.7796 104.98 25.7796C103.836 25.2076 100.404 22.9196 98.688 22.3476C96.3999 21.7756 92.396 22.9195 91.2519 23.4915C91.2519 21.7755 90.6799 20.0595 90.1079 18.9155L92.9679 18.3436L87.2479 14.9115C84.9599 13.7675 82.0999 13.7676 79.2399 15.4836C77.5239 16.6276 76.3799 17.7715 75.2359 18.9155C75.2359 18.9155 72.3759 17.1995 70.66 16.0555C68.944 14.9115 67.228 14.9115 65.512 14.9115C64.94 14.9115 64.368 14.9115 63.796 14.9115C63.2239 14.9115 63.224 14.9115 62.652 14.9115C60.936 15.4835 59.2199 16.0556 57.5039 17.1996C50.6399 21.2036 44.348 29.2115 40.916 38.9355C38.628 44.6555 36.9119 52.0915 37.4839 56.0955C30.6199 62.9595 29.476 67.5356 29.476 73.8276Z" fill="url(#paint9_linear_15_1500)"/>
<path d="M35.7679 77.8314C35.7679 85.8394 40.9159 89.8434 47.2079 86.4114C47.2079 86.4114 47.7799 86.4114 47.7799 85.8394L97.5439 56.6674C97.5439 56.6674 98.1159 56.6673 98.1159 56.0953C104.408 52.6633 108.984 42.9394 108.984 34.9314C108.984 26.9234 103.836 22.9194 97.5439 26.3514C97.5439 26.3514 97.5439 26.3514 96.9719 26.3514C96.3999 17.7714 91.2519 14.3394 84.3879 18.3434C82.6719 19.4874 80.9559 21.2034 79.2399 22.9194C75.8079 17.7714 69.5159 16.6274 62.6519 20.6314C51.7839 26.9234 42.6319 44.0833 43.2039 58.9553C39.1999 64.1033 35.7679 71.5394 35.7679 77.8314Z" fill="#F3F8FE"/>
<path d="M98.116 56.0953C104.408 52.6633 108.984 42.9394 108.984 34.9314C108.984 26.9234 103.836 22.9194 97.544 26.3514C97.544 26.3514 97.544 26.3514 96.972 26.3514C96.4 17.7714 91.252 14.3394 84.388 18.3434C82.672 19.4874 80.956 21.2034 79.24 22.9194C75.808 17.7714 69.516 16.6274 62.652 20.6314L62.08 21.2034L88.392 61.8153L96.972 56.6674C97.544 56.6674 97.5439 56.6674 98.116 56.0953Z" fill="url(#paint10_linear_15_1500)"/>
<path d="M499.66 96.1363C499.66 98.9963 498.516 100.712 497.372 101.284L493.94 103.572C493.94 103.572 456.76 76.1163 456.76 70.9683C456.76 70.9683 456.76 69.2523 457.332 68.1083C456.76 68.1083 455.616 67.5363 455.616 67.5363C456.188 66.9643 458.476 65.8203 459.048 65.2483C460.192 64.6763 463.052 65.2483 463.624 65.8203C463.624 64.6763 463.624 64.1043 464.196 62.9603L462.48 62.3883L465.912 60.1003C467.056 59.5283 468.772 59.5283 471.06 60.6723C472.204 61.2443 472.776 61.8163 473.348 62.9603C473.348 62.9603 475.064 61.8163 476.208 61.2443C477.352 60.6723 478.496 60.6723 479.64 60.6723C480.212 60.6723 480.212 60.6723 480.784 60.6723H481.356C482.5 60.6723 483.644 61.2443 484.216 61.8163C488.22 64.1043 492.224 69.2523 493.94 74.4003C495.084 77.8323 496.228 81.8363 495.656 84.6963C499.088 89.8443 499.66 92.1323 499.66 96.1363Z" fill="url(#paint11_linear_15_1500)"/>
<path d="M495.656 98.4244C495.656 103 492.796 105.288 488.792 103.572C488.792 103.572 488.792 103.572 488.22 103.572L459.048 86.4124C459.048 86.4124 459.048 86.4124 458.476 86.4124C455.044 84.1244 452.184 78.4044 452.184 73.8284C452.184 69.2524 455.044 66.9644 459.048 68.6804C459.048 63.5324 462.48 61.2444 466.484 63.5324C467.628 64.1044 468.772 65.2484 469.344 65.8204C471.632 62.9604 475.064 61.8164 479.068 64.6764C485.36 68.6804 491.08 78.9764 490.508 87.5564C493.94 90.4164 495.656 94.9924 495.656 98.4244Z" fill="#F3F8FE"/>
<path d="M459.048 85.8401C455.616 83.5521 452.756 77.8321 452.756 73.2561C452.756 68.6801 455.616 66.3921 459.62 68.1081C459.62 62.9601 463.052 60.6721 467.056 62.9601C468.2 63.5321 469.344 64.6761 469.916 65.2481C472.204 62.3881 475.636 61.2441 479.64 64.1041C479.64 64.1041 479.64 64.1041 480.212 64.6761L464.768 88.7001L459.048 85.8401Z" fill="url(#paint12_linear_15_1500)"/>
<path d="M70.6599 346.101V350.677C70.6599 351.821 70.0879 352.393 68.9439 353.537C66.6559 355.253 62.6519 355.253 59.7919 353.537C58.6479 352.965 58.0759 351.821 58.0759 350.677V346.101H70.6599Z" fill="url(#paint13_linear_15_1500)"/>
<path d="M64.3784 349.537C67.8533 349.527 70.666 347.982 70.6606 346.087C70.6553 344.191 67.8339 342.663 64.3589 342.673C60.8839 342.682 58.0713 344.227 58.0766 346.122C58.082 348.018 60.9034 349.546 64.3784 349.537Z" fill="#2185F8"/>
<path d="M64.3751 348.392C66.5865 348.386 68.3762 347.356 68.3726 346.092C68.3691 344.829 66.5735 343.81 64.3622 343.816C62.1508 343.822 60.3611 344.852 60.3646 346.115C60.3682 347.379 62.1638 348.398 64.3751 348.392Z" fill="#0CFFFC"/>
<path d="M88.9639 356.969V361.545C88.9639 362.689 88.3919 363.261 87.2479 364.405C84.9599 366.121 80.9559 366.121 78.0959 364.405C76.9519 363.833 76.3799 362.689 76.3799 361.545V356.969H88.9639Z" fill="url(#paint14_linear_15_1500)"/>
<path d="M82.6828 360.406C86.1578 360.396 88.9704 358.851 88.9651 356.956C88.9597 355.06 86.1383 353.532 82.6633 353.542C79.1884 353.552 76.3757 355.096 76.3811 356.992C76.3864 358.887 79.2078 360.416 82.6828 360.406Z" fill="#2185F8"/>
<path d="M82.6796 359.261C84.8909 359.255 86.6807 358.225 86.6771 356.962C86.6735 355.698 84.878 354.679 82.6666 354.685C80.4553 354.691 78.6655 355.721 78.6691 356.984C78.6727 358.248 80.4682 359.267 82.6796 359.261Z" fill="#FFE200"/>
<path d="M249.696 40.6518C250.268 40.6518 250.268 40.6518 250.84 40.6518C251.412 40.6518 251.984 40.6518 251.984 40.6518H252.556C253.128 40.6518 253.128 40.6518 253.7 40.6518L270.86 30.9279C270.86 30.9279 270.288 30.9279 269.716 30.9279H269.144C268.572 30.9279 268.572 30.9279 268 30.9279C268 30.9279 267.428 30.9279 266.856 30.9279C266.284 30.9279 265.712 30.9279 265.14 30.9279C264.568 30.9279 263.996 30.9279 263.996 30.9279C263.424 30.9279 262.852 30.9279 262.28 30.9279C261.708 30.9279 260.564 30.9279 259.992 30.9279C259.42 30.9279 258.848 30.9279 257.704 30.9279C257.132 30.9279 255.988 30.9279 254.844 30.9279C254.272 30.9279 253.128 30.9279 252.556 30.9279C251.412 30.9279 250.84 30.9279 249.696 30.9279C249.124 30.9279 247.98 30.9279 247.408 30.9279C246.264 30.9279 245.12 30.9279 243.976 30.9279C243.404 30.9279 242.26 30.9279 241.688 30.9279C239.4 30.9279 237.684 30.3558 235.396 30.3558C234.824 30.3558 234.824 30.3558 234.252 30.3558C232.536 30.3558 230.82 29.7839 229.104 29.7839C228.532 29.7839 227.96 29.7839 227.388 29.7839C225.1 29.2119 222.812 29.2119 220.524 28.6399C219.952 28.6399 219.38 28.6399 218.808 28.0679C217.664 28.0679 216.52 27.4958 214.804 27.4958C214.232 27.4958 213.088 26.9239 212.516 26.9239C211.944 26.9239 211.372 26.3518 210.8 26.3518C209.656 25.7798 207.94 25.7799 206.796 25.2079C206.224 25.2079 206.224 25.2078 205.652 24.6358C203.936 24.0638 202.792 23.4919 201.076 22.9199H200.504C198.788 22.3479 197.644 21.7758 195.928 20.6318L178.768 30.3558C179.34 30.3558 179.912 30.9279 180.484 30.9279C181.056 31.4999 181.628 31.4999 182.2 31.4999C182.772 31.4999 182.772 32.0718 183.344 32.0718H183.916H184.488C185.632 32.6438 186.204 32.6438 187.348 33.2158C187.92 33.2158 187.92 33.2159 188.492 33.7879C189.064 33.7879 189.064 33.7879 189.636 34.3599C190.208 34.3599 190.208 34.3598 190.78 34.9318C191.352 34.9318 192.496 35.5039 193.64 35.5039C194.212 35.5039 194.784 36.0758 195.356 36.0758H195.928C196.5 36.0758 197.072 36.0759 197.644 36.6479C198.788 37.2199 199.932 37.2199 201.648 37.2199H202.22C202.792 37.2199 202.792 37.2199 203.364 37.2199C205.652 37.7919 207.94 37.7919 210.228 38.3639C210.8 38.3639 210.8 38.3639 211.372 38.3639H211.944C213.66 38.3639 215.376 38.9358 217.092 38.9358C217.664 38.9358 217.664 38.9358 218.236 38.9358C220.524 38.9358 222.812 39.5079 224.528 39.5079C224.528 39.5079 224.528 39.5079 225.1 39.5079C225.672 39.5079 226.816 39.5079 227.388 39.5079C228.532 39.5079 229.676 39.5079 230.82 39.5079C231.392 39.5079 232.536 39.5079 233.108 39.5079C234.252 39.5079 235.396 39.5079 235.968 39.5079C236.54 39.5079 237.684 39.5079 238.256 39.5079C239.4 39.5079 239.972 39.5079 241.116 39.5079C241.688 39.5079 242.26 39.5079 243.404 39.5079C243.976 39.5079 245.12 39.5079 245.692 39.5079H246.264C246.836 39.5079 247.408 39.5079 247.98 39.5079C248.552 39.5079 249.124 39.5079 249.124 39.5079C248.552 40.6519 249.124 40.6518 249.696 40.6518Z" fill="url(#paint15_linear_15_1500)"/>
<path d="M253.7 41.2239C256.56 44.084 305.752 102.428 329.776 117.3C331.492 130.456 329.776 197.952 310.9 220.26C297.172 233.988 267.428 230.556 253.7 228.84C253.128 228.84 253.128 228.84 252.556 228.268C251.984 227.696 251.412 227.124 251.412 227.124C241.116 216.828 206.224 179.648 195.356 153.336C178.196 114.44 175.336 40.0799 177.624 29.2119C201.648 42.3679 250.268 40.08 252.556 40.08L253.7 41.2239Z" fill="url(#paint16_linear_15_1500)"/>
<path d="M345.22 105.86C344.076 105.288 343.504 104.716 342.932 104.144C342.932 104.144 342.36 104.143 342.36 103.571C342.36 103.571 342.36 103.571 341.788 103.571C341.216 102.999 340.072 102.427 339.5 101.855L338.928 101.284C337.784 100.14 336.64 99.5675 335.496 98.4235L334.924 97.8515C332.636 96.1355 330.92 94.4195 328.632 92.1315C326.916 90.4155 325.2 89.2715 324.056 87.5555L323.484 86.9835C321.768 85.2675 320.624 84.1235 318.908 82.4075L318.336 81.8355C314.904 78.4035 311.472 74.9715 308.04 71.5395C304.608 68.1075 301.176 64.6755 298.316 61.2435L297.744 60.6715C296.028 58.9555 294.884 57.2395 293.168 55.5235L292.596 54.9515C290.88 53.2355 289.736 51.5195 288.592 50.3755C287.448 48.6595 285.732 47.5155 284.588 45.7995L284.016 45.2275C282.872 44.0835 281.728 42.3675 280.584 41.2235L280.012 40.6515C278.868 39.5075 278.296 38.3635 277.152 37.2195C277.152 37.2195 277.152 36.6475 276.58 36.6475C276.008 35.5035 274.864 34.9315 274.292 34.3595L273.72 33.7875C273.148 33.2155 272.576 32.6435 272.576 32.0715C272.004 31.4995 272.004 31.4995 272.004 30.9275L270.86 30.3555L253.7 40.0795L254.844 40.6515C254.844 40.6515 255.416 41.2235 255.416 41.7955C255.988 42.3675 255.988 42.9395 256.56 43.5115C256.56 43.5115 256.56 44.0835 257.132 44.0835C257.704 44.6555 258.276 45.7995 259.42 46.3715C259.42 46.3715 259.42 46.9435 259.992 46.9435C260.564 48.0875 261.708 49.2315 262.852 50.3755L263.424 50.9475C264.568 52.0915 265.712 53.2355 266.856 54.9515L267.428 55.5235C268.572 56.6675 270.288 58.3835 271.432 60.0995C272.576 61.8155 274.292 62.9595 275.436 64.6755L276.008 65.2475C277.724 66.9635 278.868 68.6795 280.584 70.3955L281.156 70.9675C284.588 74.3995 287.448 77.8315 290.88 81.2635C294.312 84.6955 297.744 88.1275 301.176 91.5595C301.176 91.5595 301.176 91.5595 301.748 92.1315C303.464 93.8475 304.608 94.9915 306.324 96.7075L306.896 97.2795C308.612 98.9955 310.328 100.139 311.472 101.855C313.76 103.571 315.476 105.859 317.764 107.575C317.764 107.575 318.336 107.576 318.336 108.148C319.48 109.292 320.624 109.864 321.768 111.008C321.768 111.008 322.34 111.008 322.34 111.58C322.912 112.152 324.056 112.723 324.628 113.295C324.628 113.295 324.628 113.295 325.2 113.295C325.2 113.295 325.772 113.296 325.772 113.868C326.344 114.44 326.916 115.011 327.488 115.011C327.488 115.011 328.06 115.012 328.06 115.584C328.632 116.156 329.204 116.155 329.204 116.155C329.204 116.155 329.776 116.156 329.776 116.728L346.936 107.004C346.364 107.004 345.792 106.432 345.22 105.86Z" fill="url(#paint17_linear_15_1500)"/>
<path d="M348.08 125.88C348.08 124.164 348.08 123.02 348.08 121.876C348.08 121.876 348.08 121.876 348.08 121.304V120.732C348.08 120.16 348.08 119.588 348.08 118.444C348.08 117.872 348.08 117.872 348.08 117.3C348.08 116.728 348.08 116.156 348.08 115.012V114.44C348.08 113.296 348.08 112.152 348.08 111.008C348.08 111.008 348.08 111.008 348.08 110.436C348.08 110.436 348.08 110.436 348.08 109.864C348.08 109.292 348.08 108.72 348.08 108.72V108.148C348.08 108.148 348.08 108.148 348.08 107.576V107.004V106.432V105.86L330.92 115.584C330.92 116.156 330.92 116.156 330.92 116.728V117.3V117.872C330.92 118.444 330.92 118.444 330.92 119.016V119.588C330.92 120.732 330.92 121.876 330.92 123.02V123.592C330.92 124.164 330.92 124.736 330.92 125.308C330.92 125.88 330.92 125.88 330.92 126.452C330.92 127.024 330.92 127.596 330.92 128.74C330.92 129.312 330.92 129.312 330.92 129.884C330.92 131.028 330.92 132.744 330.92 133.888V134.46C330.92 135.604 330.92 137.32 330.92 138.464C330.92 139.036 330.92 139.036 330.92 139.608C330.92 141.324 330.92 143.04 330.92 144.756C330.92 145.328 330.92 145.328 330.92 145.9C330.92 147.616 330.92 149.332 330.348 151.62C330.348 151.62 330.348 151.62 330.348 152.192C329.776 156.196 329.776 160.2 329.204 164.204V164.776C328.632 168.208 328.06 172.212 327.488 175.644V176.216C326.916 179.648 326.344 182.508 325.772 185.368V185.94C325.2 188.8 324.628 191.66 323.484 193.948C322.912 196.236 321.768 198.524 321.196 200.812V201.384C320.624 203.672 319.48 205.388 318.908 207.104V207.676C317.764 209.392 317.192 211.108 316.048 212.824C316.048 212.824 316.048 213.396 315.476 213.396C314.332 214.54 313.76 216.256 312.616 217.4C310.9 219.116 309.184 220.832 306.896 221.976L324.056 212.252C326.344 211.108 328.06 209.392 329.776 207.676C330.92 206.532 331.492 205.388 332.636 203.672C332.636 203.672 332.636 203.672 332.636 203.1C333.78 201.384 334.352 199.668 335.496 197.952C336.64 196.236 337.212 193.948 337.784 192.232C337.784 192.232 337.784 192.232 337.784 191.66C338.356 189.372 339.5 187.084 340.072 184.796C340.644 181.936 341.788 179.076 342.36 176.788C342.36 176.788 342.36 176.788 342.36 176.216C342.932 173.356 343.504 169.924 344.076 167.064C344.076 167.064 344.076 167.064 344.076 166.492C344.648 163.06 345.22 159.056 345.792 155.624C345.792 155.624 345.792 155.624 345.792 155.052C346.364 151.048 346.936 147.044 346.936 143.04C346.936 141.324 346.936 139.036 347.508 137.32C347.508 136.748 347.508 136.748 347.508 136.176C347.508 134.46 347.508 132.744 347.508 131.028C347.508 131.028 347.508 131.028 347.508 130.456V129.884C347.508 128.74 347.508 127.024 347.508 125.88C348.08 126.452 348.08 126.452 348.08 125.88Z" fill="url(#paint18_linear_15_1500)"/>
<g opacity="0.5">
<path d="M253.7 50.376C255.988 53.236 300.032 105.288 321.768 119.016C323.484 131.028 321.768 191.088 305.18 211.108C293.168 223.692 266.284 220.26 254.272 218.544C253.7 218.544 253.7 218.544 253.128 217.972C252.556 217.4 251.984 217.4 251.984 217.4C242.832 208.248 211.372 174.5 201.648 151.048C186.204 116.156 183.916 49.2321 185.632 40.0801C207.368 51.5201 250.84 49.8041 253.128 49.8041L253.7 50.376Z" stroke="white" stroke-width="0.25" stroke-miterlimit="10"/>
</g>
<defs>
<linearGradient id="paint0_linear_15_1500" x1="0.230167" y1="406.558" x2="535.834" y2="406.558" gradientUnits="userSpaceOnUse">
<stop stop-color="#92C3F1"/>
<stop offset="1" stop-color="white"/>
</linearGradient>
<linearGradient id="paint1_linear_15_1500" x1="89.365" y1="339.13" x2="446.636" y2="339.13" gradientUnits="userSpaceOnUse">
<stop offset="0.389" stop-color="#103DB5"/>
<stop offset="0.5932" stop-color="#6BABFD"/>
</linearGradient>
<linearGradient id="paint2_linear_15_1500" x1="143.028" y1="252.598" x2="392.972" y2="252.598" gradientUnits="userSpaceOnUse">
<stop offset="0.389" stop-color="#103DB5"/>
<stop offset="0.5932" stop-color="#6BABFD"/>
</linearGradient>
<linearGradient id="paint3_linear_15_1500" x1="445.265" y1="268.69" x2="90.7367" y2="236.507" gradientUnits="userSpaceOnUse">
<stop stop-color="white"/>
<stop offset="1" stop-color="#4D9DF9"/>
</linearGradient>
<linearGradient id="paint4_linear_15_1500" x1="267.588" y1="324.542" x2="267.588" y2="0.32377" gradientUnits="userSpaceOnUse">
<stop stop-color="#22B4FD" stop-opacity="0.6"/>
<stop offset="1" stop-color="white" stop-opacity="0"/>
</linearGradient>
<linearGradient id="paint5_linear_15_1500" x1="157.177" y1="184.923" x2="157.177" y2="241.714" gradientUnits="userSpaceOnUse">
<stop offset="0.2578" stop-color="white"/>
<stop offset="1" stop-color="white" stop-opacity="0"/>
</linearGradient>
<linearGradient id="paint6_linear_15_1500" x1="378.822" y1="161.47" x2="378.822" y2="218.306" gradientUnits="userSpaceOnUse">
<stop offset="0.2578" stop-color="white"/>
<stop offset="1" stop-color="white" stop-opacity="0"/>
</linearGradient>
<linearGradient id="paint7_linear_15_1500" x1="223.633" y1="207.045" x2="223.633" y2="263.836" gradientUnits="userSpaceOnUse">
<stop offset="0.2578" stop-color="white"/>
<stop offset="1" stop-color="white" stop-opacity="0"/>
</linearGradient>
<linearGradient id="paint8_linear_15_1500" x1="223.633" y1="114.92" x2="223.633" y2="171.756" gradientUnits="userSpaceOnUse">
<stop offset="0.2578" stop-color="white"/>
<stop offset="1" stop-color="white" stop-opacity="0"/>
</linearGradient>
<linearGradient id="paint9_linear_15_1500" x1="16.2736" y1="76.2557" x2="79.5299" y2="27.8038" gradientUnits="userSpaceOnUse">
<stop stop-color="#97B5E1"/>
<stop offset="1" stop-color="#ECF1FA"/>
</linearGradient>
<linearGradient id="paint10_linear_15_1500" x1="112.483" y1="52.2572" x2="52.928" y2="18.543" gradientUnits="userSpaceOnUse">
<stop stop-color="white"/>
<stop offset="1" stop-color="#C9D9F4"/>
</linearGradient>
<linearGradient id="paint11_linear_15_1500" x1="507.43" y1="97.5869" x2="470.03" y2="68.94" gradientUnits="userSpaceOnUse">
<stop stop-color="#97B5E1"/>
<stop offset="1" stop-color="#ECF1FA"/>
</linearGradient>
<linearGradient id="paint12_linear_15_1500" x1="450.546" y1="83.3977" x2="485.758" y2="63.4641" gradientUnits="userSpaceOnUse">
<stop stop-color="white"/>
<stop offset="1" stop-color="#C9D9F4"/>
</linearGradient>
<linearGradient id="paint13_linear_15_1500" x1="70.5209" y1="350.048" x2="57.8242" y2="350.048" gradientUnits="userSpaceOnUse">
<stop stop-color="#103DB5"/>
<stop offset="0.6426" stop-color="#6BABFD"/>
</linearGradient>
<linearGradient id="paint14_linear_15_1500" x1="89.2036" y1="360.927" x2="76.5063" y2="360.927" gradientUnits="userSpaceOnUse">
<stop stop-color="#103DB5"/>
<stop offset="0.6426" stop-color="#6BABFD"/>
</linearGradient>
<linearGradient id="paint15_linear_15_1500" x1="221.883" y1="14.6739" x2="225.09" y2="36.2028" gradientUnits="userSpaceOnUse">
<stop stop-color="#FF8000"/>
<stop offset="1" stop-color="#FFE46B"/>
</linearGradient>
<linearGradient id="paint16_linear_15_1500" x1="186.334" y1="79.0394" x2="311.842" y2="182.561" gradientUnits="userSpaceOnUse">
<stop stop-color="#FF8000"/>
<stop offset="1" stop-color="#FFD000"/>
</linearGradient>
<linearGradient id="paint17_linear_15_1500" x1="288.519" y1="30.8199" x2="304.323" y2="89.2229" gradientUnits="userSpaceOnUse">
<stop stop-color="#FF8000"/>
<stop offset="1" stop-color="#FFEC96"/>
</linearGradient>
<linearGradient id="paint18_linear_15_1500" x1="319.531" y1="163.099" x2="341.518" y2="171.802" gradientUnits="userSpaceOnUse">
<stop stop-color="#FF8000"/>
<stop offset="1" stop-color="#FFE25C"/>
</linearGradient>
</defs>
</svg>
