<svg width="54" height="54" viewBox="0 0 54 54" fill="none" xmlns="http://www.w3.org/2000/svg">
<g id="60e4a1e7380756fecde7fb9c_icon-section-about-2-crypto-template.svg" filter="url(#filter0_d_531_5317)">
<path id="Subtract" opacity="0.8" fill-rule="evenodd" clip-rule="evenodd" d="M37.7433 0.269531H16.3934C8.61319 0.269531 4.20508 4.67765 4.20508 12.4578V33.7874C4.20508 41.5676 8.61319 45.9758 16.3934 45.9758H37.7433C45.5235 45.9758 49.9113 41.5676 49.9113 33.7874V12.4578C49.9113 4.67765 45.5235 0.269531 37.7433 0.269531ZM16.314 27.9506L13.332 33.9135C13.2616 34.0544 13.2283 34.2109 13.2353 34.3683C13.2423 34.5256 13.2894 34.6786 13.3722 34.8126C13.455 34.9465 13.5707 35.057 13.7082 35.1336C13.8457 35.2102 14.0004 35.2505 14.1578 35.2505H18.6435L21.3348 38.8388C21.5097 39.0728 21.7842 39.2083 22.073 39.2083C22.4567 39.2083 22.7591 38.9793 22.8996 38.6978L25.7096 33.0778C21.9105 32.7145 18.561 30.7882 16.314 27.9506ZM40.7091 33.9135L37.7272 27.9506C35.4801 30.7882 32.1306 32.7145 28.3316 33.0778L31.1417 38.6979C31.282 38.9793 31.5844 39.2083 31.9681 39.2083C32.2569 39.2083 32.5317 39.0728 32.7065 38.8388L35.3977 35.2504H39.8833C40.2035 35.2504 40.5003 35.0848 40.6689 34.8126C40.837 34.5403 40.8524 34.1999 40.7091 33.9135ZM28.5666 16.7706L27.0205 14.3008L25.475 16.7706C25.3482 16.9731 25.1479 17.1186 24.9162 17.1766L22.0899 17.8836L23.961 20.1169C24.1144 20.3 24.1909 20.5355 24.1743 20.7739L23.9729 23.6803L26.6751 22.591C26.8036 22.5393 27.0662 22.4703 27.3658 22.591L30.0681 23.6803L29.8671 20.7739C29.8507 20.5355 29.9272 20.3 30.0807 20.1169L31.9517 17.8836L29.1254 17.1767C28.8937 17.1186 28.6934 16.9731 28.5666 16.7706ZM27.0205 7.67969C33.5311 7.67969 38.8279 12.9765 38.8279 19.4871C38.8279 25.9977 33.5311 31.2945 27.0205 31.2945C20.5099 31.2945 15.2131 25.9975 15.2131 19.4871C15.2131 12.9765 20.5099 7.67969 27.0205 7.67969ZM31.7359 21.0192L34.3156 17.9401C34.4162 17.8202 34.4846 17.6765 34.5144 17.5229C34.5443 17.3692 34.5345 17.2105 34.4862 17.0616C34.4377 16.9127 34.3523 16.7785 34.2378 16.6716C34.1233 16.5648 33.9835 16.4888 33.8316 16.4508L29.9351 15.4761L27.8035 12.071C27.7204 11.9384 27.605 11.829 27.468 11.7531C27.331 11.6773 27.1771 11.6375 27.0205 11.6375C26.864 11.6375 26.71 11.6773 26.573 11.7531C26.436 11.829 26.3206 11.9384 26.2375 12.071L24.1064 15.4761L20.2099 16.4508C20.058 16.4888 19.9182 16.5648 19.8037 16.6716C19.6893 16.7784 19.6038 16.9126 19.5554 17.0615C19.507 17.2105 19.4973 17.3692 19.5272 17.523C19.557 17.6767 19.6254 17.8203 19.726 17.9403L22.3057 21.0192L22.028 25.0264C22.0173 25.1825 22.0463 25.3389 22.1125 25.4808C22.1787 25.6226 22.2798 25.7454 22.4064 25.8375C22.7973 26.1214 23.195 25.9871 23.2948 25.947L27.0205 24.4452L30.7462 25.947C30.8915 26.0054 31.0492 26.026 31.2045 26.0069C31.3599 25.9877 31.5079 25.9294 31.6346 25.8375C31.7612 25.7454 31.8624 25.6226 31.9285 25.4808C31.9947 25.3389 32.0238 25.1825 32.013 25.0264L31.7359 21.0192Z" fill="white"/>
</g>
<defs>
<filter id="filter0_d_531_5317" x="-0.154297" y="0.269531" width="54.3481" height="54.3486" filterUnits="userSpaceOnUse" color-interpolation-filters="sRGB">
<feFlood flood-opacity="0" result="BackgroundImageFix"/>
<feColorMatrix in="SourceAlpha" type="matrix" values="0 0 0 0 0 0 0 0 0 0 0 0 0 0 0 0 0 0 127 0" result="hardAlpha"/>
<feOffset dy="4"/>
<feGaussianBlur stdDeviation="2"/>
<feComposite in2="hardAlpha" operator="out"/>
<feColorMatrix type="matrix" values="0 0 0 0 0 0 0 0 0 0 0 0 0 0 0 0 0 0 0.15 0"/>
<feBlend mode="normal" in2="BackgroundImageFix" result="effect1_dropShadow_531_5317"/>
<feBlend mode="normal" in="SourceGraphic" in2="effect1_dropShadow_531_5317" result="shape"/>
</filter>
</defs>
</svg>
