<svg width="54" height="54" viewBox="0 0 54 54" fill="none" xmlns="http://www.w3.org/2000/svg">
<g id="60e4a1e7380756fecde7fb9c_icon-section-about-2-crypto-template.svg" filter="url(#filter0_d_531_5342)">
<path id="Subtract" opacity="0.8" fill-rule="evenodd" clip-rule="evenodd" d="M16.3934 0.269531H37.7433C45.5235 0.269531 49.9113 4.67765 49.9113 12.4578V33.7874C49.9113 41.5676 45.5235 45.9758 37.7433 45.9758H16.3934C8.61319 45.9758 4.20508 41.5676 4.20508 33.7874V12.4578C4.20508 4.67765 8.61319 0.269531 16.3934 0.269531ZM23.8383 29.402L21.0634 26.6271L22.9379 24.7519L25.7134 27.5274L23.8383 29.402ZM12.2247 38.2407C10.9329 36.9489 10.9329 34.8547 12.2247 33.5629L18.9107 26.8769L23.5884 31.5547L16.9024 38.2407C15.6107 39.5324 13.5164 39.5324 12.2247 38.2407ZM37.5765 28.7959C36.8588 28.7959 36.1751 28.9412 35.553 29.2038L22.6935 16.3443C23.8029 14.0528 23.3749 11.1954 21.4391 9.347C19.5737 7.56574 16.8459 7.21349 14.6391 8.28982L17.2804 10.9311C18.0467 11.6975 18.0467 12.9399 17.2804 13.7062C16.5141 14.4725 15.2717 14.4725 14.5053 13.7062L11.864 11.0649C10.7681 13.312 11.1533 16.0993 13.0203 17.9663C14.8872 19.8332 17.6741 20.2177 19.9212 19.122L32.7781 31.9789C32.5155 32.6009 32.3702 33.2847 32.3702 34.0024C32.3702 36.8777 34.7012 39.2088 37.5766 39.2088C40.452 39.2088 42.7829 36.8778 42.7829 34.0024C42.7829 31.1269 40.452 28.7959 37.5765 28.7959ZM38.5594 34.8899H36.712V33.0425H38.5594V34.8899ZM36.9393 10.7508L28.3242 19.3658L31.0987 22.1404L39.7137 13.5252L36.9393 10.7508ZM38.2495 9.44216L40.012 7.67969H42.7869V10.4546L41.0243 12.2171L38.2495 9.44216Z" fill="white"/>
</g>
<defs>
<filter id="filter0_d_531_5342" x="-0.154297" y="0.269531" width="54.3481" height="54.3486" filterUnits="userSpaceOnUse" color-interpolation-filters="sRGB">
<feFlood flood-opacity="0" result="BackgroundImageFix"/>
<feColorMatrix in="SourceAlpha" type="matrix" values="0 0 0 0 0 0 0 0 0 0 0 0 0 0 0 0 0 0 127 0" result="hardAlpha"/>
<feOffset dy="4"/>
<feGaussianBlur stdDeviation="2"/>
<feComposite in2="hardAlpha" operator="out"/>
<feColorMatrix type="matrix" values="0 0 0 0 0 0 0 0 0 0 0 0 0 0 0 0 0 0 0.15 0"/>
<feBlend mode="normal" in2="BackgroundImageFix" result="effect1_dropShadow_531_5342"/>
<feBlend mode="normal" in="SourceGraphic" in2="effect1_dropShadow_531_5342" result="shape"/>
</filter>
</defs>
</svg>
