<svg width="54" height="54" viewBox="0 0 54 54" fill="none" xmlns="http://www.w3.org/2000/svg">
<g id="60e4a1e7380756fecde7fb9c_icon-section-about-2-crypto-template.svg" filter="url(#filter0_d_531_5284)">
<path id="Subtract" opacity="0.8" fill-rule="evenodd" clip-rule="evenodd" d="M37.7433 0.269531H16.3934C8.61319 0.269531 4.20508 4.67765 4.20508 12.4578V33.7874C4.20508 41.5676 8.61319 45.9758 16.3934 45.9758H37.7433C45.5235 45.9758 49.9113 41.5676 49.9113 33.7874V12.4578C49.9113 4.67765 45.5235 0.269531 37.7433 0.269531ZM41.7668 25.7324H39.6909C40.0512 26.3498 40.241 27.0518 40.2412 27.7666H40.7497V33.8692H39.2241C39.2241 32.1859 37.8561 30.8179 36.1728 30.8179C34.4895 30.8179 33.1215 32.1859 33.1215 33.8692C33.1215 32.1859 31.7535 30.8179 30.0702 30.8179C28.3869 30.8179 27.0189 32.1859 27.0189 33.8692C27.0189 32.1859 25.6509 30.8179 23.9676 30.8179C22.2843 30.8179 20.9163 32.1859 20.9163 33.8692C20.9163 32.1859 19.5483 30.8179 17.865 30.8179C16.1817 30.8179 14.8137 32.1859 14.8137 33.8692H13.2881V27.7666H13.7966C13.7968 27.0518 13.9867 26.3498 14.3469 25.7324H12.271C12.0013 25.7324 11.7425 25.8396 11.5518 26.0303C11.3611 26.2211 11.2539 26.4798 11.2539 26.7495V34.8863C11.2539 35.156 11.3611 35.4147 11.5518 35.6055C11.7425 35.7962 12.0013 35.9034 12.271 35.9034H41.7668C42.0366 35.9034 42.2953 35.7962 42.486 35.6055C42.6768 35.4147 42.7839 35.156 42.7839 34.8863V26.7495C42.7839 26.4798 42.6768 26.2211 42.486 26.0303C42.2953 25.8396 42.0366 25.7324 41.7668 25.7324ZM25.2639 27.1454C24.7694 27.382 24.3279 27.7165 23.9664 28.1286C23.6047 27.7166 23.1633 27.3821 22.6687 27.1455C22.1742 26.9089 21.6368 26.775 21.089 26.752C21.5055 25.5625 22.635 24.7081 23.9664 24.7081C25.2978 24.7081 26.4272 25.5625 26.8437 26.752C26.296 26.7749 25.7585 26.9087 25.2639 27.1454ZM28.7713 27.1455C28.2767 26.9089 27.7393 26.775 27.1916 26.752C27.6081 25.5625 28.7376 24.7081 30.069 24.7081C31.4003 24.7081 32.5298 25.5625 32.9463 26.752C32.3985 26.7749 31.8611 26.9087 31.3665 27.1454C30.8719 27.382 30.4305 27.7165 30.069 28.1286C29.7073 27.7166 29.2659 27.3821 28.7713 27.1455ZM15.3756 29.5235C15.0096 29.008 14.8129 28.3916 14.8125 27.7594C14.8125 26.9502 15.134 26.1741 15.7062 25.6018C16.2784 25.0296 17.0545 24.7081 17.8638 24.7081C18.496 24.7084 19.1125 24.9052 19.6279 25.2713C20.1433 25.6374 20.5322 26.1547 20.7406 26.7515C19.7245 26.7959 18.7618 27.2195 18.0426 27.9388C17.3234 28.658 16.8998 29.6206 16.8553 30.6368C16.2586 30.428 15.7416 30.039 15.3756 29.5235ZM38.4475 29.7905C38.1034 30.1753 37.6673 30.4665 37.18 30.6368C37.1354 29.6205 36.7117 28.6578 35.9924 27.9385C35.2731 27.2192 34.3104 26.7955 33.2942 26.751C33.4645 26.2637 33.7557 25.8276 34.1405 25.4835C34.5253 25.1394 34.9911 24.8986 35.4943 24.7836C35.9976 24.6687 36.5218 24.6833 37.0178 24.8262C37.5138 24.969 37.9655 25.2354 38.3305 25.6004C38.6955 25.9654 38.9619 26.4171 39.1048 26.9132C39.2477 27.4092 39.2623 27.9334 39.1473 28.4366C39.0324 28.9399 38.7916 29.4057 38.4475 29.7905ZM30.2423 29.8056C30.79 29.8286 31.3274 29.9625 31.822 30.1991C32.3166 30.4357 32.758 30.7702 33.1196 31.1822C33.4812 30.7701 33.9226 30.4356 34.4172 30.1989C34.9118 29.9623 35.4492 29.8285 35.997 29.8056C35.5805 28.6161 34.451 27.7617 33.1196 27.7617C31.7883 27.7617 30.6588 28.6161 30.2423 29.8056ZM18.0371 29.8056C18.5849 29.8286 19.1223 29.9625 19.6168 30.1991C20.1114 30.4357 20.5528 30.7702 20.9145 31.1822C21.276 30.7701 21.7175 30.4356 22.212 30.1989C22.7066 29.9623 23.2441 29.8285 23.7918 29.8056C23.3753 28.6161 22.2459 27.7617 20.9145 27.7617C19.5831 27.7617 18.4536 28.6161 18.0371 29.8056ZM27.0171 27.7617C26.3847 27.7621 25.7682 27.959 25.2527 28.3251C24.7372 28.6913 24.3482 29.2086 24.1397 29.8056C24.6875 29.8286 25.2249 29.9625 25.7194 30.1991C26.214 30.4357 26.6554 30.7702 27.0171 31.1822C27.3786 30.7701 27.8201 30.4356 28.3146 30.1989C28.8092 29.9623 29.3466 29.8285 29.8944 29.8056C29.6859 29.2086 29.2969 28.6913 28.7814 28.3251C28.2659 27.959 27.6494 27.7621 27.0171 27.7617ZM18.8838 20.1333C18.8838 21.8185 17.5177 23.1846 15.8325 23.1846C14.1474 23.1846 12.7812 21.8185 12.7812 20.1333C12.7812 18.4481 14.1474 17.082 15.8325 17.082C17.5177 17.082 18.8838 18.4481 18.8838 20.1333ZM28.5435 21.1573C30.2287 21.1573 31.5948 19.7912 31.5948 18.106C31.5948 16.4208 30.2287 15.0547 28.5435 15.0547C26.8583 15.0547 25.4922 16.4208 25.4922 18.106C25.4922 19.7912 26.8583 21.1573 28.5435 21.1573ZM40.751 19.6236C40.751 21.3087 39.3849 22.6748 37.6997 22.6748C36.0145 22.6748 34.6484 21.3087 34.6484 19.6236C34.6484 17.9384 36.0145 16.5723 37.6997 16.5723C39.3849 16.5723 40.751 17.9384 40.751 19.6236ZM15.3235 15.5594H16.3406C16.3406 13.0354 14.2871 10.9824 11.7637 10.9824V11.9995C13.7267 11.9995 15.3235 13.5969 15.3235 15.5594ZM28.0372 13.5252H29.0543C29.0543 12.1231 27.9136 10.9824 26.5116 10.9824V11.9995C27.3527 11.9995 28.0372 12.684 28.0372 13.5252ZM24.4774 10.9824H25.4945V11.9995H24.4774V10.9824ZM41.2595 11.9995V10.9824C39.0163 10.9824 37.1911 12.8076 37.1911 15.0508H38.2082C38.2082 13.368 39.5767 11.9995 41.2595 11.9995ZM41.2595 14.0347C40.6986 14.0347 40.2424 14.4908 40.2424 15.0518H39.2253C39.2253 13.9299 40.1376 13.0176 41.2595 13.0176V14.0347ZM14.3064 15.5603H13.2893C13.2893 14.7192 12.6048 14.0347 11.7637 14.0347V13.0176C13.1657 13.0176 14.3064 14.1583 14.3064 15.5603Z" fill="white"/>
</g>
<defs>
<filter id="filter0_d_531_5284" x="-0.154297" y="0.269531" width="54.3481" height="54.3486" filterUnits="userSpaceOnUse" color-interpolation-filters="sRGB">
<feFlood flood-opacity="0" result="BackgroundImageFix"/>
<feColorMatrix in="SourceAlpha" type="matrix" values="0 0 0 0 0 0 0 0 0 0 0 0 0 0 0 0 0 0 127 0" result="hardAlpha"/>
<feOffset dy="4"/>
<feGaussianBlur stdDeviation="2"/>
<feComposite in2="hardAlpha" operator="out"/>
<feColorMatrix type="matrix" values="0 0 0 0 0 0 0 0 0 0 0 0 0 0 0 0 0 0 0.15 0"/>
<feBlend mode="normal" in2="BackgroundImageFix" result="effect1_dropShadow_531_5284"/>
<feBlend mode="normal" in="SourceGraphic" in2="effect1_dropShadow_531_5284" result="shape"/>
</filter>
</defs>
</svg>
