<svg width="54" height="54" viewBox="0 0 54 54" fill="none" xmlns="http://www.w3.org/2000/svg">
<g id="60e4a1e7380756fecde7fb9c_icon-section-about-2-crypto-template.svg">
<g id="Subtract" opacity="0.8" filter="url(#filter0_d_531_5211)">
<path fill-rule="evenodd" clip-rule="evenodd" d="M16.3934 0.269531H37.7433C45.5235 0.269531 49.9113 4.67765 49.9113 12.4578V33.7874C49.9113 41.5676 45.5235 45.9758 37.7433 45.9758H16.3934C8.61319 45.9758 4.20508 41.5676 4.20508 33.7874V12.4578C4.20508 4.67765 8.61319 0.269531 16.3934 0.269531ZM35.2241 14.8279C35.2241 19.8123 31.1834 23.853 26.1989 23.853C21.2145 23.853 17.1738 19.8123 17.1738 14.8279C17.1738 9.84342 21.2145 5.80273 26.1989 5.80273C31.1834 5.80273 35.2241 9.84342 35.2241 14.8279ZM28.5466 39.4597C26.7711 37.5642 25.7847 35.0632 25.7882 32.466C25.7882 29.7076 26.8794 27.2036 28.6516 25.3592C27.8354 25.297 27.0171 25.2658 26.1984 25.2656C20.7473 25.2656 15.9213 26.6292 12.925 28.6722C10.6391 30.2311 9.37891 32.2117 9.37891 34.2907V36.6717C9.37891 37.4116 9.67281 38.1211 10.196 38.6443C10.7191 39.1674 11.4286 39.4613 12.1685 39.4613L28.5466 39.4597ZM27.4297 32.4684C27.4297 27.713 31.2892 23.8535 36.0446 23.8535C40.8 23.8535 44.6595 27.713 44.6595 32.4684C44.6595 37.2238 40.8 41.0833 36.0446 41.0833C31.2892 41.0833 27.4297 37.2238 27.4297 32.4684ZM37.2753 29.5968V31.2377H38.9162C39.2426 31.2377 39.5556 31.3674 39.7864 31.5982C40.0172 31.829 40.1469 32.142 40.1469 32.4684C40.1469 32.7948 40.0172 33.1078 39.7864 33.3386C39.5556 33.5694 39.2426 33.6991 38.9162 33.6991H37.2753V35.34C37.2753 35.6664 37.1456 35.9795 36.9148 36.2103C36.684 36.4411 36.371 36.5707 36.0446 36.5707C35.7182 36.5707 35.4051 36.4411 35.1743 36.2103C34.9435 35.9795 34.8139 35.6664 34.8139 35.34V33.6991H33.1729C32.8465 33.6991 32.5335 33.5694 32.3027 33.3386C32.0719 33.1078 31.9422 32.7948 31.9422 32.4684C31.9422 32.142 32.0719 31.829 32.3027 31.5982C32.5335 31.3674 32.8465 31.2377 33.1729 31.2377H34.8139V29.5968C34.8139 29.2704 34.9435 28.9573 35.1743 28.7265C35.4051 28.4957 35.7182 28.3661 36.0446 28.3661C36.371 28.3661 36.684 28.4957 36.9148 28.7265C37.1456 28.9573 37.2753 29.2704 37.2753 29.5968Z" fill="white"/>
</g>
</g>
<defs>
<filter id="filter0_d_531_5211" x="0.205078" y="0.269531" width="53.7061" height="53.7061" filterUnits="userSpaceOnUse" color-interpolation-filters="sRGB">
<feFlood flood-opacity="0" result="BackgroundImageFix"/>
<feColorMatrix in="SourceAlpha" type="matrix" values="0 0 0 0 0 0 0 0 0 0 0 0 0 0 0 0 0 0 127 0" result="hardAlpha"/>
<feOffset dy="4"/>
<feGaussianBlur stdDeviation="2"/>
<feComposite in2="hardAlpha" operator="out"/>
<feColorMatrix type="matrix" values="0 0 0 0 0 0 0 0 0 0 0 0 0 0 0 0 0 0 0.15 0"/>
<feBlend mode="normal" in2="BackgroundImageFix" result="effect1_dropShadow_531_5211"/>
<feBlend mode="normal" in="SourceGraphic" in2="effect1_dropShadow_531_5211" result="shape"/>
</filter>
</defs>
</svg>
