<svg width="54" height="54" viewBox="0 0 54 54" fill="none" xmlns="http://www.w3.org/2000/svg">
<g id="60e4a1e7380756fecde7fb9c_icon-section-about-2-crypto-template.svg" filter="url(#filter0_d_531_5255)">
<path id="Subtract" opacity="0.8" fill-rule="evenodd" clip-rule="evenodd" d="M37.7433 0.269531H16.3934C8.61319 0.269531 4.20508 4.67765 4.20508 12.4578V33.7874C4.20508 41.5676 8.61319 45.9758 16.3934 45.9758H37.7433C45.5235 45.9758 49.9113 41.5676 49.9113 33.7874V12.4578C49.9113 4.67765 45.5235 0.269531 37.7433 0.269531ZM22.5681 14.4724H31.4742C31.9844 14.4724 32.3979 14.0587 32.3979 13.5487C32.3979 13.4687 32.3878 13.3911 32.3688 13.3173L31.3893 8.42029C31.3474 8.21091 31.2343 8.02251 31.0692 7.88713C30.904 7.75175 30.6971 7.67776 30.4836 7.67773H23.5575C23.344 7.67776 23.1371 7.75176 22.9719 7.88716C22.8068 8.02255 22.6937 8.21096 22.6518 8.42035L21.6625 13.3676C21.6357 13.5016 21.6389 13.6399 21.6721 13.7724C21.7052 13.905 21.7673 14.0286 21.8539 14.1342C21.9405 14.24 22.0495 14.3251 22.173 14.3836C22.2965 14.4421 22.4315 14.4724 22.5681 14.4724ZM33.916 11.6348H35.4303H35.4303C37.3035 11.6348 38.8277 13.1589 38.8277 15.0321V35.81C38.8277 37.6832 37.3035 39.2071 35.4303 39.2071H18.6102C16.737 39.2071 15.2129 37.6832 15.2129 35.81V15.0321C15.2129 13.1589 16.737 11.635 18.6102 11.635H20.1245L19.8506 13.0047C19.6869 13.8219 19.8965 14.6604 20.425 15.3051C20.9532 15.9496 21.7343 16.3193 22.5679 16.3193H31.4727C33.0019 16.3193 34.2451 15.0761 34.2451 13.5481C34.2451 13.3361 34.2209 13.1248 34.1727 12.9183L33.916 11.6348ZM28.0096 18.4949H21.0839C20.5737 18.4949 20.1601 18.9087 20.1601 19.4186C20.1601 19.9288 20.5737 20.3423 21.0839 20.3423H28.0096C28.5198 20.3423 28.9334 19.9288 28.9334 19.4186C28.9334 18.9087 28.5198 18.4949 28.0096 18.4949ZM21.7371 25.019C21.9088 24.8472 22.0074 24.6089 22.0074 24.3656C22.0067 24.1209 21.9096 23.8864 21.7371 23.7128C21.5653 23.5405 21.3269 23.4419 21.0837 23.4419C20.8389 23.4426 20.6042 23.54 20.4308 23.7128C20.259 23.8847 20.1605 24.1224 20.1605 24.3656C20.1611 24.6105 20.2582 24.8453 20.4308 25.019C20.6044 25.1915 20.839 25.2886 21.0837 25.2894C21.3286 25.2887 21.5633 25.1916 21.7371 25.019ZM21.0842 35.1836C21.3289 35.1829 21.5634 35.0859 21.7371 34.9135C21.9088 34.741 22.0074 34.5033 22.0074 34.2599C22.0066 34.0151 21.9095 33.7805 21.737 33.6068C21.5653 33.4348 21.3269 33.3362 21.0842 33.3362C20.8392 33.3368 20.6045 33.4341 20.4308 33.6068C20.2591 33.779 20.16 34.0169 20.16 34.2599C20.16 34.5033 20.259 34.741 20.4308 34.9135C20.6046 35.086 20.8393 35.183 21.0842 35.1836ZM21.0837 30.2369C21.3287 30.2362 21.5635 30.1389 21.7371 29.966C21.9088 29.7942 22.0079 29.5558 22.0079 29.3131C22.0071 29.0682 21.9098 28.8334 21.7371 28.6597C21.5653 28.488 21.3269 28.3894 21.0837 28.3894C20.839 28.3901 20.6044 28.4873 20.4308 28.6597C20.2584 28.8315 20.16 29.0699 20.16 29.3131C20.1605 29.5579 20.2579 29.7926 20.4308 29.966C20.6042 30.1388 20.8389 30.2361 21.0837 30.2369ZM26.0309 35.1836H32.9567H32.9568C33.467 35.1836 33.8805 34.7701 33.8805 34.2599C33.8805 33.7499 33.467 33.3362 32.9568 33.3362H26.0309C25.5207 33.3362 25.1072 33.7499 25.1072 34.2599C25.1072 34.7701 25.5207 35.1836 26.0309 35.1836ZM26.0309 30.2366H32.9567H32.9568C33.467 30.2366 33.8805 29.8231 33.8805 29.3129C33.8805 28.8029 33.467 28.3891 32.9568 28.3891H26.0309C25.5207 28.3891 25.1072 28.8029 25.1072 29.3129C25.1072 29.8231 25.5207 30.2366 26.0309 30.2366ZM26.0309 25.2896H32.9567H32.9568C33.467 25.2896 33.8805 24.8761 33.8805 24.3659C33.8805 23.8557 33.467 23.4421 32.9568 23.4421H26.0309C25.5207 23.4421 25.1072 23.8557 25.1072 24.3659C25.1072 24.8761 25.5207 25.2896 26.0309 25.2896Z" fill="white"/>
</g>
<defs>
<filter id="filter0_d_531_5255" x="-0.154297" y="0.269531" width="54.3481" height="54.3486" filterUnits="userSpaceOnUse" color-interpolation-filters="sRGB">
<feFlood flood-opacity="0" result="BackgroundImageFix"/>
<feColorMatrix in="SourceAlpha" type="matrix" values="0 0 0 0 0 0 0 0 0 0 0 0 0 0 0 0 0 0 127 0" result="hardAlpha"/>
<feOffset dy="4"/>
<feGaussianBlur stdDeviation="2"/>
<feComposite in2="hardAlpha" operator="out"/>
<feColorMatrix type="matrix" values="0 0 0 0 0 0 0 0 0 0 0 0 0 0 0 0 0 0 0.15 0"/>
<feBlend mode="normal" in2="BackgroundImageFix" result="effect1_dropShadow_531_5255"/>
<feBlend mode="normal" in="SourceGraphic" in2="effect1_dropShadow_531_5255" result="shape"/>
</filter>
</defs>
</svg>
