<svg width="24" height="24" viewBox="0 0 24 24" fill="none" xmlns="http://www.w3.org/2000/svg">
<path d="M18 5C18 3.3431 14.4183 2 10 2C5.5817 2 2 3.3431 2 5V7.7924C2.5928 8.2378 5.3872 9 10 9C14.6128 9 17.4072 8.2377 18 7.7924V5ZM4.5 7C4.2239 7 4 6.7761 4 6.5C4 6.2239 4.2239 6 4.5 6C4.7761 6 5 6.2238 5 6.5C5 6.7762 4.7761 7 4.5 7ZM10 20V17C8.4194 17 4.4354 16.8983 2 15.9826V20C2 21.1046 5.5817 22 10 22C10.5208 22 11.0286 21.9866 11.5215 21.9628L11.2568 21.8569C10.498 21.5532 10 20.8178 10 20ZM4.5 19C4.2239 19 4 18.7761 4 18.5C4 18.2239 4.2239 18 4.5 18C4.7761 18 5 18.2238 5 18.5C5 18.7762 4.7761 19 4.5 19ZM12 14.7009L16.25 16.5224V22L13.2572 20.8029C12.4979 20.4992 12 19.7638 12 18.946V14.7009ZM2 9.9826V13.7924C2.5928 14.2378 5.3872 15 10 15V14C10 13.1821 10.498 12.4468 11.2568 12.1431L14.8682 10.6985C12.9502 10.9583 10.9971 11 10 11C8.4194 11 4.4354 10.8983 2 9.9826ZM4.5 13C4.2239 13 4 12.7761 4 12.5C4 12.2239 4.2239 12 4.5 12C4.7761 12 5 12.2238 5 12.5C5 12.7762 4.7761 13 4.5 13ZM17.75 16.5224L22 14.7009V18.9459C22 19.7637 21.5021 20.4991 20.7428 20.8028L17.75 21.9999V16.5224ZM21.1712 13.6143L17 15.4019L12.8288 13.6143L16.2572 12.243C16.7341 12.0523 17.2659 12.0523 17.7428 12.243L21.1712 13.6143Z" fill="url(#paint0_linear_404_1284)"/>
<defs>
<linearGradient id="paint0_linear_404_1284" x1="5.32843" y1="23.6834" x2="18.6494" y2="6.19702" gradientUnits="userSpaceOnUse">
<stop stop-color="#22B4FD"/>
<stop offset="1" stop-color="#2D79FF"/>
</linearGradient>
</defs>
</svg>
