<svg width="24" height="24" viewBox="0 0 24 24" fill="none" xmlns="http://www.w3.org/2000/svg">
<g clip-path="url(#clip0_404_908)">
<mask id="path-1-inside-1_404_908" fill="white">
<path d="M12 0.046875C5.39297 0.046875 0.046875 5.39391 0.046875 12C0.046875 18.607 5.39391 23.9531 12 23.9531C18.6071 23.9531 23.9531 18.6061 23.9531 12C23.9531 5.39297 18.6061 0.046875 12 0.046875ZM12 23.0156C5.92594 23.0156 0.984375 18.0741 0.984375 12C0.984375 5.92594 5.92594 0.984375 12 0.984375C18.074 0.984375 23.0156 5.92594 23.0156 12C23.0156 18.0741 18.074 23.0156 12 23.0156Z"/>
</mask>
<path d="M12 0.046875C5.39297 0.046875 0.046875 5.39391 0.046875 12C0.046875 18.607 5.39391 23.9531 12 23.9531C18.6071 23.9531 23.9531 18.6061 23.9531 12C23.9531 5.39297 18.6061 0.046875 12 0.046875ZM12 23.0156C5.92594 23.0156 0.984375 18.0741 0.984375 12C0.984375 5.92594 5.92594 0.984375 12 0.984375C18.074 0.984375 23.0156 5.92594 23.0156 12C23.0156 18.0741 18.074 23.0156 12 23.0156Z" fill="url(#paint0_linear_404_908)"/>
<path d="M12 -0.953125C4.84063 -0.953125 -0.953125 4.84167 -0.953125 12H1.04688C1.04688 5.94614 5.9453 1.04688 12 1.04688V-0.953125ZM-0.953125 12C-0.953125 19.1594 4.84167 24.9531 12 24.9531V22.9531C5.94614 22.9531 1.04688 18.0547 1.04688 12H-0.953125ZM12 24.9531C19.1594 24.9531 24.9531 19.1583 24.9531 12H22.9531C22.9531 18.0539 18.0547 22.9531 12 22.9531V24.9531ZM24.9531 12C24.9531 4.84063 19.1583 -0.953125 12 -0.953125V1.04688C18.0539 1.04688 22.9531 5.9453 22.9531 12H24.9531ZM12 22.0156C6.47822 22.0156 1.98438 17.5218 1.98438 12H-0.015625C-0.015625 18.6263 5.37365 24.0156 12 24.0156V22.0156ZM1.98438 12C1.98438 6.47822 6.47822 1.98438 12 1.98438V-0.015625C5.37365 -0.015625 -0.015625 5.37365 -0.015625 12H1.98438ZM12 1.98438C17.5217 1.98438 22.0156 6.47822 22.0156 12H24.0156C24.0156 5.37365 18.6263 -0.015625 12 -0.015625V1.98438ZM22.0156 12C22.0156 17.5218 17.5217 22.0156 12 22.0156V24.0156C18.6263 24.0156 24.0156 18.6264 24.0156 12H22.0156Z" fill="url(#paint1_linear_404_908)" mask="url(#path-1-inside-1_404_908)"/>
<mask id="path-3-inside-2_404_908" fill="white">
<path d="M12 2.85938C6.95986 2.85938 2.85938 6.95986 2.85938 12C2.85938 17.0401 6.95986 21.1406 12 21.1406C17.0401 21.1406 21.1406 17.0401 21.1406 12C21.1406 6.95986 17.0401 2.85938 12 2.85938ZM12 20.2031C7.4768 20.2031 3.79688 16.5232 3.79688 12C3.79688 7.4768 7.4768 3.79688 12 3.79688C16.5232 3.79688 20.2031 7.4768 20.2031 12C20.2031 16.5232 16.5232 20.2031 12 20.2031Z"/>
</mask>
<path d="M12 2.85938C6.95986 2.85938 2.85938 6.95986 2.85938 12C2.85938 17.0401 6.95986 21.1406 12 21.1406C17.0401 21.1406 21.1406 17.0401 21.1406 12C21.1406 6.95986 17.0401 2.85938 12 2.85938ZM12 20.2031C7.4768 20.2031 3.79688 16.5232 3.79688 12C3.79688 7.4768 7.4768 3.79688 12 3.79688C16.5232 3.79688 20.2031 7.4768 20.2031 12C20.2031 16.5232 16.5232 20.2031 12 20.2031Z" fill="url(#paint2_linear_404_908)"/>
<path d="M12 1.85938C6.40757 1.85938 1.85938 6.40757 1.85938 12H3.85938C3.85938 7.51214 7.51214 3.85938 12 3.85938V1.85938ZM1.85938 12C1.85938 17.5924 6.40757 22.1406 12 22.1406V20.1406C7.51214 20.1406 3.85938 16.4879 3.85938 12H1.85938ZM12 22.1406C17.5924 22.1406 22.1406 17.5924 22.1406 12H20.1406C20.1406 16.4879 16.4879 20.1406 12 20.1406V22.1406ZM22.1406 12C22.1406 6.40757 17.5924 1.85938 12 1.85938V3.85938C16.4879 3.85938 20.1406 7.51214 20.1406 12H22.1406ZM12 19.2031C8.02908 19.2031 4.79688 15.9709 4.79688 12H2.79688C2.79688 17.0755 6.92451 21.2031 12 21.2031V19.2031ZM4.79688 12C4.79688 8.02908 8.02908 4.79688 12 4.79688V2.79688C6.92451 2.79688 2.79688 6.92451 2.79688 12H4.79688ZM12 4.79688C15.9709 4.79688 19.2031 8.02908 19.2031 12H21.2031C21.2031 6.92451 17.0755 2.79688 12 2.79688V4.79688ZM19.2031 12C19.2031 15.9709 15.9709 19.2031 12 19.2031V21.2031C17.0755 21.2031 21.2031 17.0755 21.2031 12H19.2031Z" fill="url(#paint3_linear_404_908)" mask="url(#path-3-inside-2_404_908)"/>
<mask id="path-5-inside-3_404_908" fill="white">
<path d="M12 4.73438C7.99373 4.73438 4.73438 7.99373 4.73438 12C4.73438 16.0063 7.99373 19.2656 12 19.2656C16.0063 19.2656 19.2656 16.0063 19.2656 12C19.2656 7.99373 16.0063 4.73438 12 4.73438ZM12 18.3281C8.51062 18.3281 5.67188 15.4894 5.67188 12C5.67188 8.51062 8.51062 5.67188 12 5.67188C15.4894 5.67188 18.3281 8.51067 18.3281 12C18.3281 15.4893 15.4894 18.3281 12 18.3281Z"/>
</mask>
<path d="M12 4.73438C7.99373 4.73438 4.73438 7.99373 4.73438 12C4.73438 16.0063 7.99373 19.2656 12 19.2656C16.0063 19.2656 19.2656 16.0063 19.2656 12C19.2656 7.99373 16.0063 4.73438 12 4.73438ZM12 18.3281C8.51062 18.3281 5.67188 15.4894 5.67188 12C5.67188 8.51062 8.51062 5.67188 12 5.67188C15.4894 5.67188 18.3281 8.51067 18.3281 12C18.3281 15.4893 15.4894 18.3281 12 18.3281Z" fill="url(#paint4_linear_404_908)"/>
<path d="M12 3.73438C7.44145 3.73438 3.73438 7.44145 3.73438 12H5.73438C5.73438 8.54602 8.54602 5.73438 12 5.73438V3.73438ZM3.73438 12C3.73438 16.5586 7.44145 20.2656 12 20.2656V18.2656C8.54602 18.2656 5.73438 15.454 5.73438 12H3.73438ZM12 20.2656C16.5586 20.2656 20.2656 16.5585 20.2656 12H18.2656C18.2656 15.454 15.454 18.2656 12 18.2656V20.2656ZM20.2656 12C20.2656 7.44145 16.5586 3.73438 12 3.73438V5.73438C15.454 5.73438 18.2656 8.54601 18.2656 12H20.2656ZM12 17.3281C9.06291 17.3281 6.67188 14.9371 6.67188 12H4.67188C4.67188 16.0417 7.95834 19.3281 12 19.3281V17.3281ZM6.67188 12C6.67188 9.06291 9.06291 6.67188 12 6.67188V4.67188C7.95834 4.67188 4.67188 7.95834 4.67188 12H6.67188ZM12 6.67188C14.9371 6.67188 17.3281 9.06295 17.3281 12H19.3281C19.3281 7.95839 16.0417 4.67188 12 4.67188V6.67188ZM17.3281 12C17.3281 14.937 14.9371 17.3281 12 17.3281V19.3281C16.0417 19.3281 19.3281 16.0416 19.3281 12H17.3281Z" fill="url(#paint5_linear_404_908)" mask="url(#path-5-inside-3_404_908)"/>
<path d="M15.0468 10.125H12.7391L13.607 7.95534C13.7301 7.64756 13.5029 7.3125 13.1718 7.3125H10.828C10.6364 7.3125 10.464 7.42917 10.3928 7.60716L8.51781 12.2947C8.39471 12.6025 8.62192 12.9375 8.95304 12.9375H10.6964L9.90451 16.1051C9.85149 16.3171 9.95213 16.5377 10.147 16.6367C10.3417 16.7355 10.5791 16.6871 10.7194 16.5188L15.4069 10.8938C15.661 10.5888 15.4431 10.125 15.0468 10.125Z" fill="url(#paint6_linear_404_908)"/>
</g>
<defs>
<linearGradient id="paint0_linear_404_908" x1="4.02539" y1="25.9653" x2="19.9482" y2="5.06362" gradientUnits="userSpaceOnUse">
<stop stop-color="#22B4FD"/>
<stop offset="1" stop-color="#2D79FF"/>
</linearGradient>
<linearGradient id="paint1_linear_404_908" x1="4.02539" y1="25.9653" x2="19.9482" y2="5.06362" gradientUnits="userSpaceOnUse">
<stop stop-color="#22B4FD"/>
<stop offset="1" stop-color="#2D79FF"/>
</linearGradient>
<linearGradient id="paint2_linear_404_908" x1="5.90177" y1="22.6793" x2="18.078" y2="6.69571" gradientUnits="userSpaceOnUse">
<stop stop-color="#22B4FD"/>
<stop offset="1" stop-color="#2D79FF"/>
</linearGradient>
<linearGradient id="paint3_linear_404_908" x1="5.90177" y1="22.6793" x2="18.078" y2="6.69571" gradientUnits="userSpaceOnUse">
<stop stop-color="#22B4FD"/>
<stop offset="1" stop-color="#2D79FF"/>
</linearGradient>
<linearGradient id="paint4_linear_404_908" x1="7.15269" y1="20.4887" x2="16.8312" y2="7.78377" gradientUnits="userSpaceOnUse">
<stop stop-color="#22B4FD"/>
<stop offset="1" stop-color="#2D79FF"/>
</linearGradient>
<linearGradient id="paint5_linear_404_908" x1="7.15269" y1="20.4887" x2="16.8312" y2="7.78377" gradientUnits="userSpaceOnUse">
<stop stop-color="#22B4FD"/>
<stop offset="1" stop-color="#2D79FF"/>
</linearGradient>
<linearGradient id="paint6_linear_404_908" x1="9.6542" y1="17.4766" x2="16.1302" y2="11.1" gradientUnits="userSpaceOnUse">
<stop stop-color="#22B4FD"/>
<stop offset="1" stop-color="#2D79FF"/>
</linearGradient>
<clipPath id="clip0_404_908">
<rect width="24" height="24" fill="white"/>
</clipPath>
</defs>
</svg>
